<svg xmlns="http://www.w3.org/2000/svg" viewBox="0 0 2389.87 372.6"><defs><style>.a{fill:#2e1a47;}.b{fill:#7c6992;}.c,.e{fill:none;}.c,.d,.e{stroke:#2e1a47;stroke-miterlimit:10;}.c{stroke-width:2px;}.d{fill:#c9e8ea;}.d,.e{stroke-width:6px;}</style></defs><path class="a" d="M5.65,146.58l.06-51.41,36.28,0V104l-25.64,0v13.39l20.52,0v8.79l-20.52,0,0,20.45Z" transform="translate(-1.87)"/><path class="a" d="M48.06,146.63l0-38.09h9.58v6.69q3.18-6.69,12.1-6.68h2.74v9.15H66.81q-8.64,0-8.65,8.63l0,20.31Z" transform="translate(-1.87)"/><path class="a" d="M82,146.66l0-30.24H77.32v-7.85h10.8a4.15,4.15,0,0,1,3,.94,4.11,4.11,0,0,1,.94,3l0,34.13Zm4.37-42.91A5.89,5.89,0,0,1,82,102.13a5.75,5.75,0,0,1-1.61-4.29A5.65,5.65,0,0,1,82,93.6a6.78,6.78,0,0,1,8.71,0,5.66,5.66,0,0,1,1.62,4.25,5.76,5.76,0,0,1-1.63,4.28A5.83,5.83,0,0,1,86.34,103.75Z" transform="translate(-1.87)"/><path class="a" d="M99.77,128.39v-1.58q0-9,5-14.07t13.68-5.06q8.28,0,12.78,4.55t4.49,12.89v5.54l-26.06,0q.42,4.69,2.9,6.88c1.66,1.47,4.12,2.2,7.38,2.21a16.84,16.84,0,0,0,5.55-.86,20.73,20.73,0,0,0,5.4-3.09l4.67,6.27a24.55,24.55,0,0,1-16.2,5.6q-9.59,0-14.58-4.95T99.77,128.39Zm18.52-13.15q-7.92,0-8.65,8.84l16.78,0c-.14-3-.88-5.26-2.23-6.7A7.67,7.67,0,0,0,118.29,115.24Z" transform="translate(-1.87)"/><path class="a" d="M141.53,128.51v-1.66q0-9.13,4.34-14.14t12.17-5q7.92,0,11.8,5.7l0-20.81H180l-.06,54.14h-9.58v-6q-4,6.9-12.9,6.9-7.69,0-11.8-4.91T141.53,128.51Zm10.23-1.65v1.66q0,10.88,9.06,10.88t9.08-10.86v-1.66q0-10.86-9.06-10.88T151.76,126.86Z" transform="translate(-1.87)"/><path class="a" d="M207.1,146.79l0-30.24h-6V108.7h6v-2.16q0-13.9,15.49-13.88h5.47v7.92h-4.89a5.16,5.16,0,0,0-6,6v2.16h10.16v7.85l-10.15,0,0,30.24Z" transform="translate(-1.87)"/><path class="a" d="M231.17,128.6V127q0-9,5.17-14.07t14.22-5.06q9,0,14.14,5.09T269.84,127v1.65q0,8.94-5.16,14t-14.15,5.1q-9.08,0-14.22-5.13T231.17,128.6ZM241.4,127v1.65q0,10.88,9.13,10.89t9.15-10.87V127q0-10.87-9.13-10.88T241.4,127Z" transform="translate(-1.87)"/><path class="a" d="M275.23,128.65V127q0-9,5.16-14.07t14.22-5.06q9,0,14.15,5.09T313.9,127v1.65q0,8.92-5.16,14t-14.16,5.09q-9.07,0-14.21-5.12T275.23,128.65ZM285.46,127v1.65q0,10.88,9.13,10.88t9.16-10.86V127q0-10.86-9.13-10.88T285.46,127Z" transform="translate(-1.87)"/><path class="a" d="M319.3,128.7V127q0-9.14,4.33-14.14t12.18-5q7.92,0,11.8,5.7l0-20.81h10.08L357.65,147h-9.57v-6q-4.05,6.9-12.9,6.9-7.71,0-11.8-4.91T319.3,128.7Zm10.22-1.65v1.66q0,10.88,9.06,10.88t9.09-10.86v-1.66q0-10.87-9.06-10.88T329.52,127.05Z" transform="translate(-1.87)"/><path class="a" d="M365.07,143.15l4.12-7a19.36,19.36,0,0,0,5.72,2.77,22,22,0,0,0,6.44,1c4.42,0,6.63-1.36,6.63-4.09a3.07,3.07,0,0,0-1.29-2.74,14,14,0,0,0-5-1.45l-2.74-.43q-6.48-1.16-9.53-3.94a9.54,9.54,0,0,1-3.06-7.45,10.26,10.26,0,0,1,4.37-8.64Q375,108,382.25,108a28.76,28.76,0,0,1,8.38,1.23,21.45,21.45,0,0,1,7,3.53l-4.11,6.84a18.08,18.08,0,0,0-5.33-2.71,19.55,19.55,0,0,0-6-1q-6.19,0-6.2,3.66a2.72,2.72,0,0,0,1.22,2.45,13.16,13.16,0,0,0,4.47,1.37l2.66.44q7.13,1.15,10.22,3.93t3.09,7.89a10.85,10.85,0,0,1-4.23,9q-4.22,3.31-11.7,3.3a32.07,32.07,0,0,1-9.18-1.27A25.13,25.13,0,0,1,365.07,143.15Z" transform="translate(-1.87)"/><path class="a" d="M3.54,240.58l0-25.71,16.92,0v2.63l-13.82,0v9.22H17.92v2.59H6.64v11.27Z" transform="translate(-1.87)"/><path class="a" d="M24.27,240.6l0-18.86H27.1v3.67a5.45,5.45,0,0,1,2.38-2.73,7.46,7.46,0,0,1,3.88-.93H35v2.77H32.75a5.48,5.48,0,0,0-4.16,1.4,6,6,0,0,0-1.35,4.31l0,10.37Z" transform="translate(-1.87)"/><path class="a" d="M40.51,240.62l0-16.53h-2.6v-2.34h4.28A1.12,1.12,0,0,1,43.48,223l0,17.6Zm1.14-22.29a2,2,0,1,1,2-2,1.86,1.86,0,0,1-2,2Z" transform="translate(-1.87)"/><path class="a" d="M48.4,231.59v-.79a9.88,9.88,0,0,1,2.33-7,8.39,8.39,0,0,1,6.47-2.5,7.83,7.83,0,0,1,6,2.22c1.38,1.48,2.06,3.62,2.06,6.43v2.23H51.32A7.18,7.18,0,0,0,53,237.1a6.25,6.25,0,0,0,4.68,1.59,8.47,8.47,0,0,0,3.13-.55,9.75,9.75,0,0,0,2.77-1.78l1.55,1.91a10.81,10.81,0,0,1-7.6,2.83Q48.4,241.1,48.4,231.59Zm8.76-8q-5.55,0-5.84,6.33H62.44Q62.41,223.65,57.16,223.64Z" transform="translate(-1.87)"/><path class="a" d="M69,231.61v-.79a10.2,10.2,0,0,1,2.24-7,7.92,7.92,0,0,1,6.23-2.5c3.12,0,5.34,1.22,6.66,3.65V213.59h3l0,27.08h-2.8V237a7,7,0,0,1-2.77,3,8.39,8.39,0,0,1-4.29,1.05,7.52,7.52,0,0,1-6.06-2.51C69.7,237,69,234.61,69,231.61Zm3-.79v.79a7.7,7.7,0,0,0,1.56,5.19,6.59,6.59,0,0,0,9,0,7.69,7.69,0,0,0,1.57-5.18v-.8a7.69,7.69,0,0,0-1.56-5.18,6.59,6.59,0,0,0-9,0A7.68,7.68,0,0,0,72,230.82Z" transform="translate(-1.87)"/><path class="a" d="M101.89,240.68V224.16H98.63v-2.34h3.28V220q0-6.41,6.63-6.4h2.55V216h-2.45a3.79,3.79,0,0,0-2.88.95,4.33,4.33,0,0,0-.9,3v1.8h5.87v2.34h-5.86l0,16.52Z" transform="translate(-1.87)"/><path class="a" d="M113.13,231.66v-.8a9.68,9.68,0,0,1,2.42-7,10,10,0,0,1,13.32,0,9.71,9.71,0,0,1,2.4,7v.8a9.68,9.68,0,0,1-2.42,7,10.06,10.06,0,0,1-13.32,0A9.67,9.67,0,0,1,113.13,231.66Zm3-.79v.79a7.6,7.6,0,0,0,1.56,5.19,6.58,6.58,0,0,0,9,0,7.65,7.65,0,0,0,1.57-5.19v-.79a7.58,7.58,0,0,0-1.56-5.18,6.55,6.55,0,0,0-9,0A7.62,7.62,0,0,0,116.12,230.87Z" transform="translate(-1.87)"/><path class="a" d="M134.84,231.68v-.79a9.68,9.68,0,0,1,2.42-7,10,10,0,0,1,13.32,0,9.74,9.74,0,0,1,2.4,7v.79a9.66,9.66,0,0,1-2.42,7,10.08,10.08,0,0,1-13.32,0A9.64,9.64,0,0,1,134.84,231.68Zm3-.79v.79a7.7,7.7,0,0,0,1.56,5.19,6.59,6.59,0,0,0,9,0A7.69,7.69,0,0,0,150,231.7v-.8a7.69,7.69,0,0,0-1.56-5.18,6.55,6.55,0,0,0-9,0A7.69,7.69,0,0,0,137.82,230.89Z" transform="translate(-1.87)"/><path class="a" d="M156.54,231.7v-.79a10.2,10.2,0,0,1,2.24-7,7.91,7.91,0,0,1,6.23-2.49q4.68,0,6.66,3.64V213.68h2.95l0,27.07H171.8v-3.64a7,7,0,0,1-2.77,3,8.4,8.4,0,0,1-4.29,1.06,7.55,7.55,0,0,1-6.06-2.51A10.45,10.45,0,0,1,156.54,231.7Zm3-.79v.8a7.69,7.69,0,0,0,1.56,5.18,6.56,6.56,0,0,0,9,0,7.67,7.67,0,0,0,1.57-5.18v-.79a7.7,7.7,0,0,0-1.56-5.19,5.66,5.66,0,0,0-4.52-1.8,5.74,5.74,0,0,0-4.52,1.77A7.68,7.68,0,0,0,159.53,230.91Z" transform="translate(-1.87)"/><path class="a" d="M189.62,240.77V224.25H187v-2.34h4.29a1.11,1.11,0,0,1,1.26,1.26l0,17.61Zm1.14-22.28a2,2,0,1,1,0-4,2,2,0,0,1,1.48.54,2,2,0,0,1,.53,1.44,2,2,0,0,1-.54,1.44A2,2,0,0,1,190.76,218.49Z" transform="translate(-1.87)"/><path class="a" d="M197.32,238.84l1.34-2.12a9.47,9.47,0,0,0,2.89,1.53,10.58,10.58,0,0,0,3.33.56,5.8,5.8,0,0,0,3.42-.86,2.76,2.76,0,0,0,1.23-2.38,2.28,2.28,0,0,0-.93-2,10.18,10.18,0,0,0-3.53-1.1l-1.15-.18a9.08,9.08,0,0,1-4.57-1.88,4.47,4.47,0,0,1-1.4-3.49,4.59,4.59,0,0,1,.92-2.85,6,6,0,0,1,2.54-1.9,9.49,9.49,0,0,1,3.74-.68,12.09,12.09,0,0,1,4,.65,9.66,9.66,0,0,1,3.2,1.8l-1.37,2a7.77,7.77,0,0,0-2.66-1.5,9.8,9.8,0,0,0-3.17-.52,5.61,5.61,0,0,0-3.17.77,2.48,2.48,0,0,0-1.15,2.17,2.07,2.07,0,0,0,.84,1.82,8.28,8.28,0,0,0,3.05,1l1.11.21a10.5,10.5,0,0,1,5.11,1.92,4.68,4.68,0,0,1,1.47,3.74,5,5,0,0,1-2,4.18,8.51,8.51,0,0,1-5.37,1.54,14,14,0,0,1-4.23-.65A11.44,11.44,0,0,1,197.32,238.84Z" transform="translate(-1.87)"/><path class="a" d="M226,234.87V224.29h-3.27V222h2.16a1.19,1.19,0,0,0,1.37-1.33v-4.25H229V222h5.86v2.34h-5.87v10.26a4.32,4.32,0,0,0,.79,3,3.9,3.9,0,0,0,2.85.83h2.23v2.45h-2.73c-2.26,0-3.83-.45-4.73-1.34S226,237.06,226,234.87Z" transform="translate(-1.87)"/><path class="a" d="M239.11,240.83l0-18.87h2.81v3.67a5.56,5.56,0,0,1,2.38-2.74,7.67,7.67,0,0,1,3.89-.93h1.65v2.78h-2.27a5.56,5.56,0,0,0-4.16,1.4,6,6,0,0,0-1.35,4.32v10.37Z" transform="translate(-1.87)"/><path class="a" d="M258.66,241.14a7.07,7.07,0,0,1-4.8-1.54,5.2,5.2,0,0,1-1.74-4.16,5,5,0,0,1,2-4.28,9.87,9.87,0,0,1,5.87-1.47h4.75v-1.26a4.48,4.48,0,0,0-1.15-3.42,5.18,5.18,0,0,0-3.63-1.08,6.91,6.91,0,0,0-5.23,2.37l-1.62-1.77a9.16,9.16,0,0,1,3.23-2.24,10,10,0,0,1,3.91-.77,7.88,7.88,0,0,1,5.48,1.71,6.44,6.44,0,0,1,1.89,5v10.4h1.91v2.2h-2.48c-1.42,0-2.12-.59-2.12-1.77v-1.48a5.18,5.18,0,0,1-2.33,2.59A7.74,7.74,0,0,1,258.66,241.14Zm.72-2.16c3.58,0,5.37-1.89,5.37-5.69v-1.47h-4.67q-5.06,0-5,3.49a3.37,3.37,0,0,0,1.13,2.72A4.91,4.91,0,0,0,259.38,239Z" transform="translate(-1.87)"/><path class="a" d="M272.35,231.83V231a10.15,10.15,0,0,1,2.24-7,8,8,0,0,1,6.23-2.49c3.12,0,5.34,1.22,6.66,3.64V213.81h2.95l0,27.07h-2.8v-3.64a7.07,7.07,0,0,1-2.78,3,8.26,8.26,0,0,1-4.28,1.06,7.55,7.55,0,0,1-6.07-2.51A10.48,10.48,0,0,1,272.35,231.83Zm3-.79v.79A7.67,7.67,0,0,0,276.9,237a6.55,6.55,0,0,0,9,0,7.66,7.66,0,0,0,1.58-5.18v-.79a7.72,7.72,0,0,0-1.56-5.19,6.6,6.6,0,0,0-9,0A7.66,7.66,0,0,0,275.34,231Z" transform="translate(-1.87)"/><path class="a" d="M297.43,240.89l0-16.53h-2.59V222h4.28a1.11,1.11,0,0,1,1.26,1.26l0,17.6Zm1.14-22.28a1.91,1.91,0,0,1-1.44-.55,2,2,0,0,1,1.45-3.41,2,2,0,0,1,1.47.54,2.19,2.19,0,0,1,0,2.88A2,2,0,0,1,298.57,218.61Z" transform="translate(-1.87)"/><path class="a" d="M307.23,235V224.38H304V222h2.16a1.19,1.19,0,0,0,1.37-1.33v-4.24h2.7V222h5.86v2.33h-5.87v10.26a4.34,4.34,0,0,0,.79,3,3.88,3.88,0,0,0,2.84.83h2.24v2.45h-2.73c-2.26,0-3.84-.45-4.73-1.34S307.23,237.14,307.23,235Z" transform="translate(-1.87)"/><path class="a" d="M321.77,240.91V224.39h-2.59v-2.34h4.28a1.11,1.11,0,0,1,1.26,1.26l0,17.61Zm1.14-22.28a2,2,0,1,1,0-4,2,2,0,0,1,1.48.54,1.9,1.9,0,0,1,.53,1.44,2,2,0,0,1-.54,1.44A2,2,0,0,1,322.91,218.63Z" transform="translate(-1.87)"/><path class="a" d="M329.66,231.89v-.8a9.68,9.68,0,0,1,2.42-7,10,10,0,0,1,13.32,0,9.63,9.63,0,0,1,2.4,7v.8a9.68,9.68,0,0,1-2.42,7,10,10,0,0,1-13.31,0A9.68,9.68,0,0,1,329.66,231.89Zm3-.79v.79a7.72,7.72,0,0,0,1.56,5.19,6.58,6.58,0,0,0,9,0,7.7,7.7,0,0,0,1.58-5.19v-.79a7.69,7.69,0,0,0-1.56-5.18,6.56,6.56,0,0,0-9,0A7.65,7.65,0,0,0,332.65,231.1Z" transform="translate(-1.87)"/><path class="a" d="M352.76,241l0-18.87h2.85v3.13c1.09-2.4,3.21-3.6,6.38-3.59q6.81,0,6.79,7.09V241h-2.95V229a5.22,5.22,0,0,0-1.11-3.69,4.62,4.62,0,0,0-3.49-1.17,5.43,5.43,0,0,0-4.11,1.47,6.1,6.1,0,0,0-1.4,4.35l0,11Z" transform="translate(-1.87)"/><path class="a" d="M379.69,241.26a7.07,7.07,0,0,1-4.81-1.53,5.26,5.26,0,0,1-1.74-4.16,5,5,0,0,1,2-4.28,9.77,9.77,0,0,1,5.87-1.47h4.76v-1.26a4.48,4.48,0,0,0-1.15-3.42,5.19,5.19,0,0,0-3.64-1.08,6.9,6.9,0,0,0-5.22,2.37l-1.62-1.77a9.16,9.16,0,0,1,3.23-2.24,9.76,9.76,0,0,1,3.9-.77,7.92,7.92,0,0,1,5.49,1.71,6.44,6.44,0,0,1,1.89,5v10.41h1.9V241h-2.48c-1.42,0-2.13-.59-2.12-1.76v-1.48a5.23,5.23,0,0,1-2.33,2.59A7.64,7.64,0,0,1,379.69,241.26Zm.72-2.16c3.58,0,5.37-1.89,5.37-5.68V232H381.1q-5,0-5,3.49a3.39,3.39,0,0,0,1.13,2.72A4.91,4.91,0,0,0,380.41,239.1Z" transform="translate(-1.87)"/><path class="a" d="M394.6,236.42l0-22.5h2.95l0,22.29a2.1,2.1,0,0,0,2.41,2.34h1.15V241h-1.8a4.92,4.92,0,0,1-3.51-1.16A4.53,4.53,0,0,1,394.6,236.42Z" transform="translate(-1.87)"/><path class="a" d="M405.11,236.43l0-22.5h3l0,22.29a2.1,2.1,0,0,0,2.41,2.34h1.15V241h-1.8a4.89,4.89,0,0,1-3.51-1.16A4.53,4.53,0,0,1,405.11,236.43Z" transform="translate(-1.87)"/><path class="a" d="M416.08,247.71V245h1.15a6.39,6.39,0,0,0,1.89-.23,2.46,2.46,0,0,0,1.19-.86,7.7,7.7,0,0,0,1-1.82l.5-1.3h-1l-7.36-18.65h3.2l6.21,16.68L429,222.16h3.13l-8.37,21.08a12.39,12.39,0,0,1-1.46,2.77,3.7,3.7,0,0,1-1.84,1.33,9.75,9.75,0,0,1-2.94.36Z" transform="translate(-1.87)"/><path class="a" d="M442.63,232v-.8a9.85,9.85,0,0,1,2.33-7,8.36,8.36,0,0,1,6.46-2.5,7.78,7.78,0,0,1,6,2.22q2.07,2.22,2.06,6.43v2.23H445.54a7.18,7.18,0,0,0,1.65,4.93,6.25,6.25,0,0,0,4.68,1.59,8.23,8.23,0,0,0,3.13-.56,9.37,9.37,0,0,0,2.78-1.78l1.54,1.91a10.8,10.8,0,0,1-7.6,2.84Q442.61,241.51,442.63,232Zm8.75-7.95q-5.53,0-5.84,6.33h11.13C456.65,226.18,454.89,224.06,451.38,224.06Z" transform="translate(-1.87)"/><path class="a" d="M469.65,241.36a7,7,0,0,1-4.8-1.54,5.18,5.18,0,0,1-1.74-4.16,5,5,0,0,1,2-4.28,9.87,9.87,0,0,1,5.87-1.47h4.75v-1.26a4.48,4.48,0,0,0-1.15-3.42,5.19,5.19,0,0,0-3.64-1.09,6.9,6.9,0,0,0-5.22,2.37l-1.62-1.76a9.19,9.19,0,0,1,3.23-2.25,10.17,10.17,0,0,1,3.91-.77,7.89,7.89,0,0,1,5.48,1.72,6.42,6.42,0,0,1,1.89,5v10.4h1.91v2.19H478c-1.42,0-2.12-.59-2.12-1.77v-1.47a5.27,5.27,0,0,1-2.33,2.59A7.84,7.84,0,0,1,469.65,241.36Zm.72-2.16q5.37,0,5.37-5.68V232h-4.68c-3.36,0-5,1.16-5,3.48a3.36,3.36,0,0,0,1.13,2.72A4.85,4.85,0,0,0,470.37,239.2Z" transform="translate(-1.87)"/><path class="a" d="M485.6,235.15l0-10.59h-3.28v-2.34h2.16a1.19,1.19,0,0,0,1.37-1.33v-4.25h2.7v5.58h5.87v2.34h-5.87v10.26a4.34,4.34,0,0,0,.79,3,3.85,3.85,0,0,0,2.84.83h2.23v2.45h-2.74q-3.37,0-4.73-1.33C486.05,238.87,485.6,237.33,485.6,235.15Z" transform="translate(-1.87)"/><path class="a" d="M497.7,232.06v-.79a9.94,9.94,0,0,1,2.33-7,8.42,8.42,0,0,1,6.47-2.49,7.8,7.8,0,0,1,6,2.22q2.07,2.22,2.06,6.43v2.23l-13.93,0a7.19,7.19,0,0,0,1.65,4.94,6.33,6.33,0,0,0,4.68,1.59,8.47,8.47,0,0,0,3.13-.56,9.21,9.21,0,0,0,2.77-1.78l1.55,1.91a10.81,10.81,0,0,1-7.6,2.84Q497.7,241.57,497.7,232.06Zm8.76-7.94q-5.55,0-5.84,6.33h11.13C511.73,226.24,510,224.12,506.46,224.12Z" transform="translate(-1.87)"/><path class="a" d="M519.33,241.12l0-18.86h2.84v3.14q1.62-3.6,6.38-3.6,6.79,0,6.79,7.1v12.24h-3v-12a5.22,5.22,0,0,0-1.11-3.69,4.68,4.68,0,0,0-3.49-1.18,5.4,5.4,0,0,0-4.11,1.48,6.1,6.1,0,0,0-1.41,4.35v11Z" transform="translate(-1.87)"/><path class="a" d="M550.22,241.16V224.63h-2.59v-2.34h4.29a1.11,1.11,0,0,1,1.26,1.26l0,17.6Zm1.14-22.29a2,2,0,1,1,0-4,2,2,0,0,1,1.48.55,1.9,1.9,0,0,1,.53,1.44,2,2,0,0,1-.54,1.44A2,2,0,0,1,551.36,218.87Z" transform="translate(-1.87)"/><path class="a" d="M559.5,241.17l0-18.87h2.85v3.13c1.09-2.4,3.21-3.6,6.38-3.6q6.81,0,6.8,7.1l0,12.24h-2.95l0-12a5.22,5.22,0,0,0-1.12-3.69,4.61,4.61,0,0,0-3.49-1.17,5.39,5.39,0,0,0-4.1,1.47,6.06,6.06,0,0,0-1.41,4.35v11Z" transform="translate(-1.87)"/><path class="a" d="M1.87,285.54v-.79a9.76,9.76,0,0,1,2.37-7,8.62,8.62,0,0,1,6.6-2.5,8.93,8.93,0,0,1,6.88,2.82L16,279.9a6.64,6.64,0,0,0-5-2.13,5.73,5.73,0,0,0-4.58,1.78,7.73,7.73,0,0,0-1.55,5.2v.79q0,7,6.15,7a7.06,7.06,0,0,0,5.18-2.15l1.62,1.91a9.5,9.5,0,0,1-7,2.76,8.62,8.62,0,0,1-6.6-2.51A9.81,9.81,0,0,1,1.87,285.54Z" transform="translate(-1.87)"/><path class="a" d="M20.77,285.56v-.79a9.7,9.7,0,0,1,2.42-7,8.76,8.76,0,0,1,6.66-2.53,8.77,8.77,0,0,1,6.66,2.55,9.68,9.68,0,0,1,2.4,7v.79a9.68,9.68,0,0,1-2.42,7,8.75,8.75,0,0,1-6.66,2.51,8.79,8.79,0,0,1-6.66-2.52A9.74,9.74,0,0,1,20.77,285.56Zm3-.79v.79a7.6,7.6,0,0,0,1.56,5.19,5.65,5.65,0,0,0,4.51,1.8,5.66,5.66,0,0,0,4.52-1.79,7.65,7.65,0,0,0,1.57-5.19v-.79a7.64,7.64,0,0,0-1.57-5.18,5.65,5.65,0,0,0-4.51-1.81,5.66,5.66,0,0,0-4.52,1.8A7.62,7.62,0,0,0,23.76,284.77Z" transform="translate(-1.87)"/><path class="a" d="M43.87,294.62l0-18.86h2.84v3.13c1-2.4,3-3.6,6-3.59q4.71,0,6,3.75c1.11-2.5,3.24-3.74,6.38-3.74q6.45,0,6.44,7.1l0,12.24h-3l0-12q0-4.86-4.25-4.87a4.93,4.93,0,0,0-3.85,1.47,6.32,6.32,0,0,0-1.34,4.36v11h-3v-12a5.54,5.54,0,0,0-1-3.67A4,4,0,0,0,52,277.78q-5.15,0-5.15,5.83l0,11Z" transform="translate(-1.87)"/><path class="a" d="M77.75,294.66l0-18.87h2.84v3.14c1-2.4,3-3.6,6-3.6q4.72,0,6,3.75c1.11-2.49,3.23-3.74,6.38-3.73q6.43,0,6.43,7.09v12.24h-3v-12q0-4.86-4.24-4.86a5,5,0,0,0-3.86,1.47,6.35,6.35,0,0,0-1.33,4.36v11h-3l0-12a5.53,5.53,0,0,0-1-3.67,4,4,0,0,0-3.23-1.19q-5.14,0-5.15,5.82v11Z" transform="translate(-1.87)"/><path class="a" d="M110.23,285.65v-.79a9.9,9.9,0,0,1,2.33-7,8.36,8.36,0,0,1,6.46-2.49,7.78,7.78,0,0,1,6,2.22c1.38,1.47,2.07,3.62,2.07,6.43v2.23l-13.93,0a7.21,7.21,0,0,0,1.65,4.94,6.33,6.33,0,0,0,4.68,1.59,8.43,8.43,0,0,0,3.13-.56,9.37,9.37,0,0,0,2.78-1.78l1.54,1.91a10.77,10.77,0,0,1-7.59,2.84Q110.21,295.16,110.23,285.65Zm8.75-7.94q-5.53,0-5.84,6.33h11.13Q124.24,277.71,119,277.71Z" transform="translate(-1.87)"/><path class="a" d="M131.85,294.71l0-18.86h2.85V279c1-2.4,3-3.59,6-3.59,3.14,0,5.15,1.25,6,3.75,1.1-2.49,3.23-3.74,6.37-3.74q6.45,0,6.44,7.1v12.24h-2.95v-12q0-4.86-4.24-4.86a4.91,4.91,0,0,0-3.86,1.47,6.27,6.27,0,0,0-1.33,4.35l0,11h-3v-12a5.46,5.46,0,0,0-1-3.68,4,4,0,0,0-3.22-1.19q-5.15,0-5.15,5.83v11Z" transform="translate(-1.87)"/><path class="a" d="M164.33,285.71v-.79a9.67,9.67,0,0,1,2.41-7,10,10,0,0,1,13.32,0,9.7,9.7,0,0,1,2.41,7v.79a9.71,9.71,0,0,1-2.42,7,10.08,10.08,0,0,1-13.32,0A9.69,9.69,0,0,1,164.33,285.71Zm3-.79v.79a7.7,7.7,0,0,0,1.56,5.19,6.59,6.59,0,0,0,9,0,7.69,7.69,0,0,0,1.57-5.18v-.8a7.69,7.69,0,0,0-1.56-5.18,6.56,6.56,0,0,0-9,0A7.74,7.74,0,0,0,167.32,284.92Z" transform="translate(-1.87)"/><path class="a" d="M187.44,294.77l0-18.86h2.8v3.67a5.54,5.54,0,0,1,2.38-2.73,7.7,7.7,0,0,1,3.89-.93h1.65v2.77h-2.27a5.54,5.54,0,0,0-4.16,1.4,6,6,0,0,0-1.35,4.32v10.36Z" transform="translate(-1.87)"/><path class="a" d="M207,295.08a7,7,0,0,1-4.8-1.53,5.27,5.27,0,0,1-1.74-4.16,5,5,0,0,1,2-4.29,9.87,9.87,0,0,1,5.87-1.47h4.75v-1.26a4.48,4.48,0,0,0-1.15-3.42,5.21,5.21,0,0,0-3.63-1.09,6.87,6.87,0,0,0-5.22,2.37l-1.62-1.76a9.19,9.19,0,0,1,3.22-2.25,10.17,10.17,0,0,1,3.91-.77,7.92,7.92,0,0,1,5.49,1.72,6.42,6.42,0,0,1,1.88,5v10.41h1.91v2.19h-2.49c-1.41,0-2.12-.59-2.12-1.77v-1.47a5.25,5.25,0,0,1-2.32,2.59A7.9,7.9,0,0,1,207,295.08Zm.73-2.16q5.35,0,5.37-5.68v-1.48H208.4c-3.36,0-5,1.16-5.05,3.48a3.36,3.36,0,0,0,1.13,2.72A4.86,4.86,0,0,0,207.71,292.92Z" transform="translate(-1.87)"/><path class="a" d="M222.94,288.87V278.29h-3.28v-2.34h2.17a1.18,1.18,0,0,0,1.36-1.33v-4.24h2.7V276h5.87v2.34H225.9v10.26a4.32,4.32,0,0,0,.79,3,3.87,3.87,0,0,0,2.84.83h2.23v2.45H229c-2.25,0-3.83-.45-4.73-1.34S222.93,291.05,222.94,288.87Z" transform="translate(-1.87)"/><path class="a" d="M237.47,294.82l0-16.52H234.9V276h4.29a1.11,1.11,0,0,1,1.26,1.26l0,17.61Zm1.14-22.28a2,2,0,0,1-1.44-.54,2,2,0,0,1-.53-1.44,1.86,1.86,0,0,1,2-2,2,2,0,0,1,1.47.54,2.19,2.19,0,0,1,0,2.88A2,2,0,0,1,238.61,272.54Z" transform="translate(-1.87)"/><path class="a" d="M245.37,285.8V285a9.68,9.68,0,0,1,2.42-7,10,10,0,0,1,13.32,0,9.67,9.67,0,0,1,2.4,7v.8a9.68,9.68,0,0,1-2.42,7,10.06,10.06,0,0,1-13.32,0A9.67,9.67,0,0,1,245.37,285.8Zm3-.79v.79a7.61,7.61,0,0,0,1.56,5.19,6.58,6.58,0,0,0,9,0,7.65,7.65,0,0,0,1.57-5.19V285a7.58,7.58,0,0,0-1.56-5.18,6.55,6.55,0,0,0-9,0A7.62,7.62,0,0,0,248.36,285Z" transform="translate(-1.87)"/><path class="a" d="M268.47,294.86l0-18.87h2.84v3.13q1.62-3.6,6.38-3.6,6.8,0,6.79,7.1v12.24h-2.95v-12a5.22,5.22,0,0,0-1.11-3.69A4.64,4.64,0,0,0,277,278a5.43,5.43,0,0,0-4.11,1.47,6.1,6.1,0,0,0-1.41,4.35v11Z" transform="translate(-1.87)"/><path class="a" d="M297.28,285.85v-.79a9.68,9.68,0,0,1,2.42-7,10,10,0,0,1,13.32,0,9.7,9.7,0,0,1,2.4,7v.79a9.65,9.65,0,0,1-2.42,7,10,10,0,0,1-13.32,0A9.68,9.68,0,0,1,297.28,285.85Zm3-.79v.79a7.6,7.6,0,0,0,1.56,5.19,6.55,6.55,0,0,0,9,0,7.64,7.64,0,0,0,1.57-5.18v-.79a7.6,7.6,0,0,0-1.56-5.19,6.58,6.58,0,0,0-9,0A7.64,7.64,0,0,0,300.27,285.06Z" transform="translate(-1.87)"/><path class="a" d="M320.88,294.91l0-16.52h-3.27v-2.34h3.27v-1.8q0-6.4,6.63-6.4h2.55v2.41h-2.45a3.83,3.83,0,0,0-2.88.95,4.33,4.33,0,0,0-.9,3v1.8h5.86v2.34h-5.87v16.53Z" transform="translate(-1.87)"/><path class="a" d="M342.38,289V278.41h-3.27v-2.34h2.16a1.19,1.19,0,0,0,1.37-1.33v-4.25h2.7v5.57h5.86v2.34h-5.87v10.26a4.32,4.32,0,0,0,.79,3,3.85,3.85,0,0,0,2.85.83h2.23V295h-2.74c-2.26,0-3.83-.45-4.73-1.33S342.38,291.18,342.38,289Z" transform="translate(-1.87)"/><path class="a" d="M355.88,295l0-27.07h3l0,11.13q1.67-3.39,6.27-3.38,6.81,0,6.8,7.1l0,12.24h-2.95l0-12a5.22,5.22,0,0,0-1.12-3.7,4.61,4.61,0,0,0-3.49-1.17,5.39,5.39,0,0,0-4.1,1.47,6.1,6.1,0,0,0-1.41,4.36v11Z" transform="translate(-1.87)"/><path class="a" d="M376.69,285.94v-.8a9.94,9.94,0,0,1,2.33-7,8.42,8.42,0,0,1,6.47-2.49,7.8,7.8,0,0,1,6,2.22c1.38,1.48,2.06,3.62,2.06,6.43v2.23H379.61a7.18,7.18,0,0,0,1.65,4.93,6.25,6.25,0,0,0,4.68,1.59,8.47,8.47,0,0,0,3.13-.56,9.21,9.21,0,0,0,2.77-1.78l1.55,1.91a10.81,10.81,0,0,1-7.6,2.84Q376.69,295.44,376.69,285.94Zm8.76-7.95q-5.55,0-5.84,6.33h11.12C390.71,280.11,389,278,385.45,278Z" transform="translate(-1.87)"/><path class="a" d="M404.92,286v-.8a9.68,9.68,0,0,1,2.42-7,10,10,0,0,1,13.32,0,9.76,9.76,0,0,1,2.4,7v.8a9.68,9.68,0,0,1-2.42,7,10.06,10.06,0,0,1-13.32,0A9.63,9.63,0,0,1,404.92,286Zm3-.79V286a7.72,7.72,0,0,0,1.56,5.19,6.58,6.58,0,0,0,9,0,7.65,7.65,0,0,0,1.57-5.18v-.79a7.72,7.72,0,0,0-1.56-5.19,6.58,6.58,0,0,0-9,0A7.7,7.7,0,0,0,407.9,285.18Z" transform="translate(-1.87)"/><path class="a" d="M428.7,295l0-16.53h-2.59v-2.34h4.28a1.11,1.11,0,0,1,1.26,1.26l0,17.6Zm1.14-22.29a2,2,0,0,1-1.44-3.42,2,2,0,0,1,1.45-.54,2,2,0,0,1,1.47.55,2,2,0,0,1-1.48,3.41Z" transform="translate(-1.87)"/><path class="a" d="M437.81,290.47l0-22.5h3l0,22.28c0,1.56.8,2.34,2.41,2.34h1.15V295h-1.8a4.86,4.86,0,0,1-3.5-1.15A4.5,4.5,0,0,1,437.81,290.47Z" transform="translate(-1.87)"/><path class="a" d="M457,289.12V278.53h-3.27v-2.34h2.16a1.19,1.19,0,0,0,1.37-1.33v-4.25H460v5.58h5.87v2.34H460l0,10.26a4.39,4.39,0,0,0,.79,3,3.94,3.94,0,0,0,2.85.83h2.23v2.45h-2.74c-2.26,0-3.83-.44-4.73-1.33S457,291.3,457,289.12Z" transform="translate(-1.87)"/><path class="a" d="M470.5,295.07l0-27.07h3l0,11.13c1.11-2.26,3.2-3.38,6.27-3.38q6.81,0,6.8,7.1v12.24h-3l0-12a5.17,5.17,0,0,0-1.12-3.69,4.61,4.61,0,0,0-3.49-1.18,5.39,5.39,0,0,0-4.1,1.47,6.1,6.1,0,0,0-1.41,4.36v11Z" transform="translate(-1.87)"/><path class="a" d="M497.42,295.39a7,7,0,0,1-4.8-1.54,5.18,5.18,0,0,1-1.74-4.16,5,5,0,0,1,2-4.28,9.87,9.87,0,0,1,5.87-1.47h4.75v-1.26a4.48,4.48,0,0,0-1.15-3.42,5.13,5.13,0,0,0-3.63-1.09,6.91,6.91,0,0,0-5.23,2.37l-1.61-1.76a8.94,8.94,0,0,1,3.22-2.25,10.17,10.17,0,0,1,3.91-.77,7.87,7.87,0,0,1,5.49,1.72,6.45,6.45,0,0,1,1.88,5v10.4h1.91v2.19h-2.48c-1.42,0-2.12-.59-2.12-1.77v-1.47a5.29,5.29,0,0,1-2.32,2.59A7.9,7.9,0,0,1,497.42,295.39Zm.72-2.16q5.37,0,5.37-5.68v-1.48h-4.68c-3.36,0-5,1.15-5,3.48a3.37,3.37,0,0,0,1.13,2.72A4.85,4.85,0,0,0,498.14,293.23Z" transform="translate(-1.87)"/><path class="a" d="M513.38,289.18V278.59h-3.28v-2.34h2.16c.92,0,1.37-.44,1.37-1.33v-4.25h2.7v5.58h5.87v2.34h-5.87v10.26a4.29,4.29,0,0,0,.79,3,3.85,3.85,0,0,0,2.84.84h2.23v2.45h-2.74q-3.37,0-4.73-1.33C513.82,292.9,513.37,291.36,513.38,289.18Z" transform="translate(-1.87)"/><path class="a" d="M3.21,348.58l0-18.87H6.07v3.13c1-2.4,3-3.6,6-3.6q4.72,0,6,3.75c1.11-2.49,3.23-3.74,6.38-3.73q6.44,0,6.43,7.09v12.25H27.94v-12q0-4.86-4.24-4.86a5,5,0,0,0-3.86,1.47,6.35,6.35,0,0,0-1.33,4.36v11h-3l0-12a5.49,5.49,0,0,0-1-3.67,4,4,0,0,0-3.22-1.19c-3.43,0-5.15,1.94-5.15,5.82v11Z" transform="translate(-1.87)"/><path class="a" d="M37.77,348.61V332.09H35.19v-2.34h4.29A1.11,1.11,0,0,1,40.74,331l0,17.61Zm1.14-22.28a2,2,0,1,1,0-4,2,2,0,0,1,1.47.54,2.19,2.19,0,0,1,0,2.88A2,2,0,0,1,38.91,326.33Z" transform="translate(-1.87)"/><path class="a" d="M47.05,348.62l0-18.86h2.81v3.67a5.5,5.5,0,0,1,2.38-2.73,7.67,7.67,0,0,1,3.89-.93H57.8v2.77H55.53a5.52,5.52,0,0,0-4.16,1.4A6,6,0,0,0,50,338.26v10.37Z" transform="translate(-1.87)"/><path class="a" d="M66.6,348.93a7,7,0,0,1-4.8-1.53,5.25,5.25,0,0,1-1.75-4.16,5,5,0,0,1,2-4.29,9.86,9.86,0,0,1,5.86-1.47H72.7v-1.26a4.48,4.48,0,0,0-1.15-3.42,5.24,5.24,0,0,0-3.64-1.09,6.9,6.9,0,0,0-5.22,2.37l-1.62-1.76a9.32,9.32,0,0,1,3.23-2.25,10.17,10.17,0,0,1,3.91-.77A7.94,7.94,0,0,1,73.69,331a6.42,6.42,0,0,1,1.89,5v10.41h1.9v2.19H75c-1.42,0-2.12-.59-2.12-1.76v-1.48A5.23,5.23,0,0,1,70.54,348,7.84,7.84,0,0,1,66.6,348.93Zm.72-2.16c3.58,0,5.37-1.89,5.37-5.68v-1.48H68c-3.36,0-5,1.16-5,3.48a3.36,3.36,0,0,0,1.13,2.72A4.85,4.85,0,0,0,67.32,346.77Z" transform="translate(-1.87)"/><path class="a" d="M80.29,339.62v-.79a9.78,9.78,0,0,1,2.37-7,8.62,8.62,0,0,1,6.6-2.5,9,9,0,0,1,6.88,2.82L94.37,334a6.66,6.66,0,0,0-5-2.12,5.73,5.73,0,0,0-4.58,1.77,7.73,7.73,0,0,0-1.55,5.2v.79q0,7,6.15,7a7.07,7.07,0,0,0,5.18-2.16l1.62,1.91a9.43,9.43,0,0,1-7,2.76,8.62,8.62,0,0,1-6.6-2.5A9.84,9.84,0,0,1,80.29,339.62Z" transform="translate(-1.87)"/><path class="a" d="M100.16,342.05V329.81h3v12a5.22,5.22,0,0,0,1.1,3.69,4.49,4.49,0,0,0,3.43,1.17,5.2,5.2,0,0,0,4-1.49,6.21,6.21,0,0,0,1.37-4.34v-11h3l0,18.87h-2.84v-3.13q-1.59,3.6-6.27,3.59Q100.15,349.15,100.16,342.05Z" transform="translate(-1.87)"/><path class="a" d="M122.15,344.13l0-22.5h2.95l0,22.29a2.1,2.1,0,0,0,2.41,2.34h1.16v2.45h-1.8a4.9,4.9,0,0,1-3.51-1.16A4.53,4.53,0,0,1,122.15,344.13Z" transform="translate(-1.87)"/><path class="a" d="M131.44,339.68v-.8a9.72,9.72,0,0,1,2.42-7,10,10,0,0,1,13.32,0,9.72,9.72,0,0,1,2.41,7v.79a9.69,9.69,0,0,1-2.42,7,10.06,10.06,0,0,1-13.32,0A9.68,9.68,0,0,1,131.44,339.68Zm3-.79v.79a7.67,7.67,0,0,0,1.56,5.18,6.56,6.56,0,0,0,9,0,7.65,7.65,0,0,0,1.57-5.18v-.79a7.72,7.72,0,0,0-1.56-5.19,6.59,6.59,0,0,0-9,0A7.75,7.75,0,0,0,134.43,338.89Z" transform="translate(-1.87)"/><path class="a" d="M154.12,342.11V329.87h3l0,12a5.27,5.27,0,0,0,1.1,3.69,4.46,4.46,0,0,0,3.43,1.18,5.24,5.24,0,0,0,4-1.49A6.22,6.22,0,0,0,167,340.9v-11H170l0,18.86h-2.84v-3.13c-1.06,2.4-3.14,3.59-6.26,3.59Q154.12,349.21,154.12,342.11Z" transform="translate(-1.87)"/><path class="a" d="M174.71,346.81l1.33-2.12a9.31,9.31,0,0,0,2.9,1.53,10.5,10.5,0,0,0,3.33.57,5.92,5.92,0,0,0,3.42-.86,2.8,2.8,0,0,0,1.23-2.38,2.27,2.27,0,0,0-.94-2,10.06,10.06,0,0,0-3.53-1.11l-1.15-.18a9.16,9.16,0,0,1-4.57-1.87,5,5,0,0,1-.48-6.34,6.07,6.07,0,0,1,2.54-1.91,9.69,9.69,0,0,1,3.75-.68,12.1,12.1,0,0,1,4,.66,9.68,9.68,0,0,1,3.2,1.8l-1.37,2a7.92,7.92,0,0,0-2.66-1.49,9.81,9.81,0,0,0-3.17-.53,5.69,5.69,0,0,0-3.17.77,2.47,2.47,0,0,0-1.15,2.18,2.08,2.08,0,0,0,.84,1.82,8.06,8.06,0,0,0,3,1l1.12.22a10.66,10.66,0,0,1,5.11,1.91,4.75,4.75,0,0,1,1.47,3.75,5,5,0,0,1-2,4.17,8.42,8.42,0,0,1-5.36,1.54,14,14,0,0,1-4.23-.65A10.9,10.9,0,0,1,174.71,346.81Z" transform="translate(-1.87)"/><path class="a" d="M194.69,344.21l0-22.5h3l0,22.28a2.11,2.11,0,0,0,2.41,2.35h1.15v2.45h-1.8a4.9,4.9,0,0,1-3.51-1.15A4.53,4.53,0,0,1,194.69,344.21Z" transform="translate(-1.87)"/><path class="a" d="M205.66,355.49v-2.7h1.15a6.39,6.39,0,0,0,1.89-.23,2.48,2.48,0,0,0,1.19-.87,7.26,7.26,0,0,0,1-1.81l.5-1.3h-1L203,329.92h3.2l6.21,16.67,6.25-16.66h3.13L213.37,351a12.62,12.62,0,0,1-1.46,2.77,3.77,3.77,0,0,1-1.84,1.33,9.7,9.7,0,0,1-2.94.36Z" transform="translate(-1.87)"/><path class="a" d="M233.6,348.82l0-27.07h3v11.59a7.07,7.07,0,0,1,2.77-2.86,8.52,8.52,0,0,1,4.18-1,7.51,7.51,0,0,1,6,2.51,10.42,10.42,0,0,1,2.13,7v.79a10.17,10.17,0,0,1-2.22,7,7.89,7.89,0,0,1-6.25,2.52c-3.24,0-5.5-1.33-6.8-4v3.49Zm2.93-9.83v.8a7.58,7.58,0,0,0,1.56,5.18,6.55,6.55,0,0,0,9,0,7.62,7.62,0,0,0,1.57-5.18V339a7.6,7.6,0,0,0-1.56-5.19,6.58,6.58,0,0,0-9,0A7.64,7.64,0,0,0,236.53,339Z" transform="translate(-1.87)"/><path class="a" d="M256.18,342.22V330h2.95v12a5.27,5.27,0,0,0,1.09,3.69,4.57,4.57,0,0,0,3.44,1.18,5.24,5.24,0,0,0,4-1.49,6.22,6.22,0,0,0,1.37-4.34V330H272l0,18.86h-2.84v-3.13q-1.59,3.58-6.27,3.59C258.42,349.31,256.17,347,256.18,342.22Z" transform="translate(-1.87)"/><path class="a" d="M278.35,348.87l0-18.87h2.8v3.67a5.61,5.61,0,0,1,2.38-2.74,7.7,7.7,0,0,1,3.89-.93h1.65v2.78h-2.27a5.58,5.58,0,0,0-4.16,1.4,6,6,0,0,0-1.35,4.32v10.37Z" transform="translate(-1.87)"/><path class="a" d="M293.18,348.88l0-18.86H296v3.13q1.62-3.58,6.38-3.59,6.79,0,6.79,7.1V348.9h-2.95v-12a5.22,5.22,0,0,0-1.11-3.69,4.68,4.68,0,0,0-3.49-1.18,5.4,5.4,0,0,0-4.11,1.48,6.06,6.06,0,0,0-1.41,4.35v11Z" transform="translate(-1.87)"/><path class="a" d="M314,339.87v-.79a9.88,9.88,0,0,1,2.33-7,8.37,8.37,0,0,1,6.46-2.5,7.82,7.82,0,0,1,6,2.22q2.07,2.22,2.06,6.43v2.23H316.91a7.18,7.18,0,0,0,1.65,4.93,6.25,6.25,0,0,0,4.68,1.59,8.43,8.43,0,0,0,3.13-.55,9.57,9.57,0,0,0,2.78-1.78l1.54,1.91a10.79,10.79,0,0,1-7.6,2.83Q314,349.38,314,339.87Zm8.75-7.95q-5.53,0-5.84,6.33H328Q328,331.93,322.75,331.92Z" transform="translate(-1.87)"/><path class="a" d="M334.59,339.89v-.79a10.15,10.15,0,0,1,2.24-7,7.9,7.9,0,0,1,6.23-2.5c3.12,0,5.34,1.22,6.65,3.65l0-11.38h2.95l0,27.08h-2.81v-3.63a7,7,0,0,1-2.77,3,8.27,8.27,0,0,1-4.29,1,7.54,7.54,0,0,1-6.06-2.5A10.4,10.4,0,0,1,334.59,339.89Zm3-.79v.79a7.6,7.6,0,0,0,1.56,5.19,6.58,6.58,0,0,0,9,0,7.64,7.64,0,0,0,1.57-5.18v-.8a7.58,7.58,0,0,0-1.56-5.18,6.58,6.58,0,0,0-9,0A7.62,7.62,0,0,0,337.58,339.1Z" transform="translate(-1.87)"/><path class="a" d="M367.48,349l0-16.52h-3.28v-2.34h3.28v-1.8q0-6.41,6.63-6.4h2.56v2.41h-2.45a3.79,3.79,0,0,0-2.88.95,4.38,4.38,0,0,0-.91,3v1.8h5.87v2.34h-5.87l0,16.53Z" transform="translate(-1.87)"/><path class="a" d="M378.72,339.94v-.79a9.73,9.73,0,0,1,2.42-7,10,10,0,0,1,13.32,0,9.67,9.67,0,0,1,2.41,7v.8a9.72,9.72,0,0,1-2.42,7,10.06,10.06,0,0,1-13.32,0A9.68,9.68,0,0,1,378.72,339.94Zm3-.79v.79a7.7,7.7,0,0,0,1.56,5.19,6.59,6.59,0,0,0,9,0,7.7,7.7,0,0,0,1.57-5.19v-.79a7.69,7.69,0,0,0-1.56-5.18,6.56,6.56,0,0,0-9,0A7.67,7.67,0,0,0,381.71,339.15Z" transform="translate(-1.87)"/><path class="a" d="M401.82,349l0-18.87h2.81v3.67a5.5,5.5,0,0,1,2.38-2.73,7.57,7.57,0,0,1,3.89-.94h1.65v2.77H410.3a5.52,5.52,0,0,0-4.16,1.39,6,6,0,0,0-1.35,4.32V349Z" transform="translate(-1.87)"/><path class="a" d="M423.25,340v-.8a9.94,9.94,0,0,1,2.33-7,8.42,8.42,0,0,1,6.47-2.49,7.8,7.8,0,0,1,6,2.22c1.38,1.48,2.06,3.62,2.06,6.43v2.23l-13.93,0a7.19,7.19,0,0,0,1.65,4.94,6.29,6.29,0,0,0,4.68,1.59,8.47,8.47,0,0,0,3.13-.56,9.21,9.21,0,0,0,2.77-1.78l1.55,1.91a10.81,10.81,0,0,1-7.6,2.84Q423.24,349.49,423.25,340ZM432,332q-5.55,0-5.84,6.33h11.12C437.27,334.16,435.51,332,432,332Z" transform="translate(-1.87)"/><path class="a" d="M446.07,349.05V332.52h-2.59v-2.34h4.29a1.11,1.11,0,0,1,1.26,1.26l0,17.61Zm1.14-22.29a2,2,0,1,1,0-4,2,2,0,0,1,1.48.54,2,2,0,0,1,.53,1.44,2,2,0,0,1-.54,1.44A2,2,0,0,1,447.21,326.76Z" transform="translate(-1.87)"/><path class="a" d="M455.06,353.77l1.37-2.19a9.67,9.67,0,0,0,6.41,2.16,6.2,6.2,0,0,0,4.71-1.59,7,7,0,0,0,1.52-4.95v-1.91a7,7,0,0,1-2.75,2.77,8.42,8.42,0,0,1-4.16,1,7.66,7.66,0,0,1-6.05-2.46c-1.44-1.63-2.15-3.94-2.15-6.91v-.51a10,10,0,0,1,2.24-6.94,7.94,7.94,0,0,1,6.23-2.48c3.24,0,5.51,1.32,6.8,3.93v-3.45H472L472,347q0,9.29-9.11,9.28a14.4,14.4,0,0,1-4.27-.62A11.16,11.16,0,0,1,455.06,353.77ZM457,339.16v.5a7.35,7.35,0,0,0,1.58,5.08,5.7,5.7,0,0,0,4.49,1.77,5.76,5.76,0,0,0,4.52-1.74,7.31,7.31,0,0,0,1.58-5v-.58a7.56,7.56,0,0,0-1.56-5.13,6.62,6.62,0,0,0-9,0A7.51,7.51,0,0,0,457,339.16Z" transform="translate(-1.87)"/><path class="a" d="M478.07,349.08l0-27.07h2.95v11.12c1.1-2.25,3.19-3.38,6.27-3.37q6.79,0,6.79,7.1V349.1h-2.95v-12a5.25,5.25,0,0,0-1.11-3.7,4.64,4.64,0,0,0-3.49-1.17,5.43,5.43,0,0,0-4.11,1.47,6.14,6.14,0,0,0-1.41,4.36v11Z" transform="translate(-1.87)"/><path class="a" d="M500.79,343.16V332.58h-3.27v-2.34h2.16a1.19,1.19,0,0,0,1.37-1.33v-4.25h2.7v5.58h5.86v2.34h-5.87v10.26a4.32,4.32,0,0,0,.79,3,3.9,3.9,0,0,0,2.85.83h2.23v2.45h-2.73c-2.26,0-3.83-.45-4.73-1.34S500.79,345.35,500.79,343.16Z" transform="translate(-1.87)"/><path class="a" d="M520.88,340.09v-.79a10.13,10.13,0,0,1,2.24-7,7.92,7.92,0,0,1,6.23-2.5c3.12,0,5.34,1.22,6.66,3.64V322.07h3l0,27.07h-2.8V345.5a7,7,0,0,1-2.78,3,8.26,8.26,0,0,1-4.28,1.06,7.52,7.52,0,0,1-6.06-2.51A10.43,10.43,0,0,1,520.88,340.09Zm3-.79v.79a7.7,7.7,0,0,0,1.56,5.19,6.59,6.59,0,0,0,9,0A7.75,7.75,0,0,0,536,340.1v-.79a7.69,7.69,0,0,0-1.56-5.18,6.59,6.59,0,0,0-9,0A7.68,7.68,0,0,0,523.87,339.3Z" transform="translate(-1.87)"/><path class="a" d="M550,349.44a7,7,0,0,1-4.8-1.53,5.26,5.26,0,0,1-1.74-4.16,5,5,0,0,1,2-4.28,9.73,9.73,0,0,1,5.87-1.47h4.75v-1.26a4.48,4.48,0,0,0-1.15-3.42,5.16,5.16,0,0,0-3.63-1.08,6.8,6.8,0,0,0-5.22,2.37l-1.62-1.77a9.28,9.28,0,0,1,3.22-2.25,10.17,10.17,0,0,1,3.91-.77,8,8,0,0,1,5.49,1.72,6.43,6.43,0,0,1,1.88,5V347h1.91v2.2h-2.49c-1.41,0-2.12-.59-2.12-1.76v-1.48a5.21,5.21,0,0,1-2.32,2.59A7.8,7.8,0,0,1,550,349.44Zm.73-2.16c3.57,0,5.36-1.89,5.37-5.68v-1.47h-4.68q-5,0-5,3.49a3.36,3.36,0,0,0,1.14,2.72A4.87,4.87,0,0,0,550.72,347.28Z" transform="translate(-1.87)"/><path class="a" d="M565,355.87v-2.7h1.15a6.3,6.3,0,0,0,1.89-.23,2.48,2.48,0,0,0,1.19-.87,7.26,7.26,0,0,0,1-1.81l.5-1.3h-1l-7.36-18.66h3.2L571.71,347,578,330.32h3.13l-8.37,21.09a12.21,12.21,0,0,1-1.46,2.77,3.77,3.77,0,0,1-1.84,1.33,9.67,9.67,0,0,1-2.93.36Z" transform="translate(-1.87)"/><path class="a" d="M583,347.25l1.33-2.13a9.54,9.54,0,0,0,2.9,1.54,10.48,10.48,0,0,0,3.33.56,5.92,5.92,0,0,0,3.42-.86,2.78,2.78,0,0,0,1.23-2.38,2.26,2.26,0,0,0-.94-2,10.1,10.1,0,0,0-3.53-1.1l-1.15-.18a9.25,9.25,0,0,1-4.57-1.88,4.55,4.55,0,0,1-1.4-3.49,4.65,4.65,0,0,1,.92-2.85,6,6,0,0,1,2.54-1.9,9.33,9.33,0,0,1,3.75-.68,12.09,12.09,0,0,1,4,.65,9.68,9.68,0,0,1,3.2,1.8l-1.37,2a7.77,7.77,0,0,0-2.66-1.5,10.09,10.09,0,0,0-3.17-.53,5.61,5.61,0,0,0-3.17.78,2.46,2.46,0,0,0-1.15,2.17,2.08,2.08,0,0,0,.84,1.82,8.06,8.06,0,0,0,3,1l1.12.22a10.66,10.66,0,0,1,5.11,1.91,4.75,4.75,0,0,1,1.47,3.75,5,5,0,0,1-2,4.17,8.47,8.47,0,0,1-5.37,1.55,14,14,0,0,1-4.23-.66A11.21,11.21,0,0,1,583,347.25Z" transform="translate(-1.87)"/><path class="a" d="M604.32,349.54a2,2,0,0,1-2.12-2.13,2.13,2.13,0,0,1,.57-1.53,2.09,2.09,0,0,1,1.55-.59,2.15,2.15,0,0,1,1.57.59,2.11,2.11,0,0,1,.59,1.54,2,2,0,0,1-.6,1.54A2.11,2.11,0,0,1,604.32,349.54Z" transform="translate(-1.87)"/><path class="b" d="M836.37,242.81V214H843v25.74h15v5.67h-19.1a2.6,2.6,0,0,1-1.95-.61A2.7,2.7,0,0,1,836.37,242.81Z" transform="translate(-1.87)"/><path class="b" d="M869.5,245.72a8.63,8.63,0,0,1-5.94-1.92,6.68,6.68,0,0,1-2.15-5.26,6.25,6.25,0,0,1,2.64-5.43q2.64-1.87,7.74-1.87h4.31v-.92q0-4-4.71-4a8.53,8.53,0,0,0-5.85,2.5l-3-3.65a12.08,12.08,0,0,1,4.26-2.75,14.53,14.53,0,0,1,5.24-.94q4.85,0,7.41,2.2A7.91,7.91,0,0,1,882,230.1V241h2.15v4.35h-3.56a5.55,5.55,0,0,1-3.1-.66,2.43,2.43,0,0,1-1-2.15v-.62Q874.79,245.73,869.5,245.72Zm1.76-4.14a4.69,4.69,0,0,0,3.59-1.34,5.54,5.54,0,0,0,1.25-3.9v-1.23h-4.22c-3,0-4.45,1.06-4.45,3.17a3,3,0,0,0,1,2.44A4.21,4.21,0,0,0,871.26,241.58Z" transform="translate(-1.87)"/><path class="b" d="M889.21,237.53V226.88h-3.65v-4.79h2.2a2.27,2.27,0,0,0,1.59-.44,2.16,2.16,0,0,0,.44-1.54v-5h5.58v7h6.21v4.79h-6.21v9.82a4,4,0,0,0,.82,2.88,4.11,4.11,0,0,0,2.92.81h2.47v5h-3.87c-3.11,0-5.31-.59-6.58-1.78S889.21,240.38,889.21,237.53Z" transform="translate(-1.87)"/><path class="b" d="M906.2,245.36V212.28h6.16v18.21h2.46l6.91-8.4h7.08l-9,11,9.63,12.27H922l-7.48-9.59h-2.11v9.59Z" transform="translate(-1.87)"/><path class="b" d="M930.05,234.19v-1c0-3.67,1-6.53,3-8.6s4.81-3.1,8.36-3.1c3.37,0,6,.92,7.81,2.77s2.75,4.47,2.75,7.87v3.39H936.07a6.09,6.09,0,0,0,1.79,4.2,6.59,6.59,0,0,0,4.51,1.35,10.12,10.12,0,0,0,3.38-.53,12.45,12.45,0,0,0,3.3-1.89l2.86,3.82a15,15,0,0,1-9.9,3.44q-5.85,0-8.91-3C931.06,240.91,930.05,238,930.05,234.19Zm11.3-8.05q-4.83,0-5.28,5.41h10.26a6.3,6.3,0,0,0-1.37-4.09A4.69,4.69,0,0,0,941.35,226.14Z" transform="translate(-1.87)"/><path class="b" d="M955.13,243l2.5-4.27a12,12,0,0,0,3.5,1.7,13.74,13.74,0,0,0,3.94.59c2.7,0,4-.83,4-2.51a1.88,1.88,0,0,0-.79-1.67,8.71,8.71,0,0,0-3.08-.88l-1.68-.26a11.67,11.67,0,0,1-5.83-2.4,5.87,5.87,0,0,1-1.87-4.55,6.25,6.25,0,0,1,2.67-5.28,11.52,11.52,0,0,1,7.06-2,17.91,17.91,0,0,1,5.12.74,12.92,12.92,0,0,1,4.29,2.16l-2.51,4.18a11,11,0,0,0-3.25-1.65,11.87,11.87,0,0,0-3.7-.59c-2.52,0-3.78.74-3.78,2.24a1.66,1.66,0,0,0,.75,1.5,8,8,0,0,0,2.73.83l1.62.27q4.36.7,6.25,2.39a6.14,6.14,0,0,1,1.89,4.82,6.61,6.61,0,0,1-2.57,5.5,11.3,11.3,0,0,1-7.15,2,19.86,19.86,0,0,1-5.61-.77A15.44,15.44,0,0,1,955.13,243Z" transform="translate(-1.87)"/><path class="a" d="M835.89,291.36V269.94h8a8.4,8.4,0,0,1,5.54,1.67,5.69,5.69,0,0,1,2,4.63v.63a5.71,5.71,0,0,1-2,4.64,8.4,8.4,0,0,1-5.54,1.66H838.5v8.19ZM838.5,281h5.4a5.55,5.55,0,0,0,3.65-1.06,3.75,3.75,0,0,0,1.27-3.05v-.63a3.73,3.73,0,0,0-1.27-3,5.56,5.56,0,0,0-3.65-1.07h-5.4Z" transform="translate(-1.87)"/><path class="a" d="M854,283.83v-.66a8.07,8.07,0,0,1,2-5.8,8.32,8.32,0,0,1,11.1,0,8.07,8.07,0,0,1,2,5.8v.66a8.07,8.07,0,0,1-2,5.82,8.38,8.38,0,0,1-11.1,0A8.07,8.07,0,0,1,854,283.83Zm2.49-.66v.66a6.39,6.39,0,0,0,1.31,4.32,5.48,5.48,0,0,0,7.53,0,6.39,6.39,0,0,0,1.3-4.32v-.66a6.39,6.39,0,0,0-1.3-4.32,5.48,5.48,0,0,0-7.53,0A6.39,6.39,0,0,0,856.44,283.17Z" transform="translate(-1.87)"/><path class="a" d="M873.93,286.41v-8.82H871.2v-1.95H873a1,1,0,0,0,1.14-1.11V271h2.25v4.65h4.89v1.95h-4.89v8.55a3.61,3.61,0,0,0,.66,2.49,3.23,3.23,0,0,0,2.37.69h1.86v2H879c-1.88,0-3.19-.37-3.94-1.11A5.29,5.29,0,0,1,873.93,286.41Z" transform="translate(-1.87)"/><path class="a" d="M889.68,291.6a5.85,5.85,0,0,1-4-1.27,4.39,4.39,0,0,1-1.46-3.47,4.15,4.15,0,0,1,1.68-3.57,8.21,8.21,0,0,1,4.89-1.23h4V281a3.74,3.74,0,0,0-1-2.85,4.32,4.32,0,0,0-3-.9,5.73,5.73,0,0,0-4.35,2l-1.35-1.47a7.63,7.63,0,0,1,2.69-1.87,8.34,8.34,0,0,1,3.25-.65,6.61,6.61,0,0,1,4.58,1.43,5.34,5.34,0,0,1,1.57,4.18v8.67h1.59v1.83h-2.07q-1.77,0-1.77-1.47v-1.23a4.35,4.35,0,0,1-1.93,2.16A6.54,6.54,0,0,1,889.68,291.6Zm.6-1.8q4.47,0,4.47-4.74v-1.23h-3.9q-4.2,0-4.2,2.91a2.81,2.81,0,0,0,1,2.27A4,4,0,0,0,890.28,289.8Z" transform="translate(-1.87)"/><path class="a" d="M903,286.41v-8.82h-2.73v-1.95H902a1,1,0,0,0,1.14-1.11V271h2.25v4.65h4.89v1.95h-4.89v8.55a3.61,3.61,0,0,0,.66,2.49,3.23,3.23,0,0,0,2.37.69h1.86v2H908c-1.88,0-3.19-.37-3.94-1.11A5.29,5.29,0,0,1,903,286.41Z" transform="translate(-1.87)"/><path class="a" d="M913.05,283.83v-.66a8.07,8.07,0,0,1,2-5.8,8.32,8.32,0,0,1,11.1,0,8.07,8.07,0,0,1,2,5.8v.66a8.07,8.07,0,0,1-2,5.82,8.38,8.38,0,0,1-11.1,0A8.07,8.07,0,0,1,913.05,283.83Zm2.49-.66v.66a6.44,6.44,0,0,0,1.3,4.32,5.49,5.49,0,0,0,7.54,0,6.39,6.39,0,0,0,1.3-4.32v-.66a6.39,6.39,0,0,0-1.3-4.32,5.49,5.49,0,0,0-7.54,0A6.44,6.44,0,0,0,915.54,283.17Z" transform="translate(-1.87)"/><path class="a" d="M939,296.94v-21.3h2.34v3.06a6,6,0,0,1,2.34-2.56,6.9,6.9,0,0,1,3.57-.89,6.25,6.25,0,0,1,5,2.09,8.69,8.69,0,0,1,1.79,5.83v.66a8.52,8.52,0,0,1-1.85,5.82,6.55,6.55,0,0,1-5.2,2.1,5.84,5.84,0,0,1-5.55-3.06v8.25Zm2.43-13.77v.66a6.39,6.39,0,0,0,1.3,4.32,5.48,5.48,0,0,0,7.53,0,6.39,6.39,0,0,0,1.31-4.32v-.66a6.39,6.39,0,0,0-1.31-4.32,5.48,5.48,0,0,0-7.53,0A6.39,6.39,0,0,0,941.4,283.17Z" transform="translate(-1.87)"/><path class="a" d="M962.37,291.6a5.88,5.88,0,0,1-4-1.27,4.38,4.38,0,0,1-1.45-3.47,4.15,4.15,0,0,1,1.68-3.57,8.21,8.21,0,0,1,4.89-1.23h4V281a3.74,3.74,0,0,0-1-2.85,4.32,4.32,0,0,0-3-.9,5.73,5.73,0,0,0-4.35,2l-1.35-1.47a7.59,7.59,0,0,1,2.68-1.87,8.39,8.39,0,0,1,3.26-.65,6.59,6.59,0,0,1,4.57,1.43,5.35,5.35,0,0,1,1.58,4.18v8.67h1.59v1.83h-2.07q-1.77,0-1.77-1.47v-1.23a4.37,4.37,0,0,1-1.94,2.16A6.5,6.5,0,0,1,962.37,291.6Zm.6-1.8q4.47,0,4.47-4.74v-1.23h-3.9q-4.2,0-4.2,2.91a2.8,2.8,0,0,0,.94,2.27A4.07,4.07,0,0,0,963,289.8Z" transform="translate(-1.87)"/><path class="a" d="M974.94,291.36V275.64h2.37v2.61q1.35-3,5.31-3,5.67,0,5.67,5.91v10.2h-2.46v-10a4.32,4.32,0,0,0-.93-3.07,3.86,3.86,0,0,0-2.91-1,4.5,4.5,0,0,0-3.42,1.23,5.08,5.08,0,0,0-1.17,3.63v9.18Z" transform="translate(-1.87)"/><path class="a" d="M992.28,283.83v-.66a8.16,8.16,0,0,1,2-5.83,7.21,7.21,0,0,1,5.51-2.09,7.43,7.43,0,0,1,5.73,2.34l-1.47,1.53a5.54,5.54,0,0,0-4.14-1.77,4.78,4.78,0,0,0-3.81,1.49,6.42,6.42,0,0,0-1.29,4.33v.66q0,5.82,5.13,5.82a5.89,5.89,0,0,0,4.32-1.8l1.35,1.59a7.89,7.89,0,0,1-5.82,2.31,7.21,7.21,0,0,1-5.51-2.08A8.19,8.19,0,0,1,992.28,283.83Z" transform="translate(-1.87)"/><path class="a" d="M1013.13,291.6a5.88,5.88,0,0,1-4-1.27,4.38,4.38,0,0,1-1.45-3.47,4.15,4.15,0,0,1,1.68-3.57,8.21,8.21,0,0,1,4.89-1.23h4V281a3.74,3.74,0,0,0-1-2.85,4.32,4.32,0,0,0-3-.9,5.73,5.73,0,0,0-4.35,2l-1.35-1.47a7.59,7.59,0,0,1,2.68-1.87,8.39,8.39,0,0,1,3.26-.65,6.59,6.59,0,0,1,4.57,1.43,5.35,5.35,0,0,1,1.58,4.18v8.67h1.59v1.83h-2.07q-1.77,0-1.77-1.47v-1.23a4.37,4.37,0,0,1-1.94,2.16A6.5,6.5,0,0,1,1013.13,291.6Zm.6-1.8q4.47,0,4.47-4.74v-1.23h-3.9q-4.2,0-4.2,2.91A2.8,2.8,0,0,0,1011,289,4.07,4.07,0,0,0,1013.73,289.8Z" transform="translate(-1.87)"/><path class="a" d="M1025.7,291.36V268.8h2.46v13.11h2.4l5.7-6.27h2.85l-6.63,7.35,7.2,8.37h-3l-6.33-7.32h-2.16v7.32Z" transform="translate(-1.87)"/><path class="a" d="M1040.7,283.83v-.66a8.24,8.24,0,0,1,1.93-5.83,7,7,0,0,1,5.39-2.09,6.5,6.5,0,0,1,5,1.85,7.55,7.55,0,0,1,1.73,5.35v1.86h-11.61a6,6,0,0,0,1.38,4.11,5.23,5.23,0,0,0,3.9,1.32,7,7,0,0,0,2.61-.46,7.87,7.87,0,0,0,2.31-1.49l1.29,1.59a9,9,0,0,1-6.33,2.37Q1040.7,291.75,1040.7,283.83Zm7.29-6.63q-4.62,0-4.86,5.28h9.27Q1052.37,277.2,1048,277.2Z" transform="translate(-1.87)"/><path class="a" d="M1057.71,289.74l1.11-1.77a7.8,7.8,0,0,0,2.41,1.28,8.75,8.75,0,0,0,2.78.46,4.88,4.88,0,0,0,2.85-.72,2.29,2.29,0,0,0,1-2,1.89,1.89,0,0,0-.78-1.69,8.47,8.47,0,0,0-2.94-.92l-1-.15a7.62,7.62,0,0,1-3.81-1.56,3.77,3.77,0,0,1-1.17-2.91,3.84,3.84,0,0,1,.76-2.37,5,5,0,0,1,2.12-1.59,8,8,0,0,1,3.12-.57,10,10,0,0,1,3.3.54,8.06,8.06,0,0,1,2.67,1.5l-1.14,1.68a6.49,6.49,0,0,0-2.22-1.24,8.21,8.21,0,0,0-2.64-.44,4.68,4.68,0,0,0-2.64.65,2.06,2.06,0,0,0-1,1.81,1.73,1.73,0,0,0,.7,1.52,6.9,6.9,0,0,0,2.54.82l.93.18a8.8,8.8,0,0,1,4.26,1.59,3.93,3.93,0,0,1,1.23,3.12,4.19,4.19,0,0,1-1.65,3.48,7.07,7.07,0,0,1-4.47,1.29,11.57,11.57,0,0,1-3.53-.54A9.25,9.25,0,0,1,1057.71,289.74Z" transform="translate(-1.87)"/><path class="b" d="M1328.3,242.15l3-4.93a15.11,15.11,0,0,0,4.4,2.31,14.8,14.8,0,0,0,4.93.91,6.93,6.93,0,0,0,4.2-1.1,3.6,3.6,0,0,0,1.47-3,3.4,3.4,0,0,0-.48-1.91,3.49,3.49,0,0,0-1.72-1.21,20.91,20.91,0,0,0-3.47-.93l-2-.35q-4.87-1-7.17-3.15a7.63,7.63,0,0,1-2.29-5.78,8.69,8.69,0,0,1,1.54-5.13,10.16,10.16,0,0,1,4.29-3.39,16.07,16.07,0,0,1,6.45-1.21,18.61,18.61,0,0,1,6.29,1.08,14.3,14.3,0,0,1,5.06,3l-3.34,4.67a12.38,12.38,0,0,0-3.79-2.29,11.75,11.75,0,0,0-4.31-.84,7.23,7.23,0,0,0-4.07,1,3.14,3.14,0,0,0-1.47,2.75,2.66,2.66,0,0,0,1.14,2.31,11.08,11.08,0,0,0,4.09,1.39l2,.35c3.49.68,6,1.75,7.64,3.23a7.92,7.92,0,0,1,2.4,6.1,9,9,0,0,1-3.35,7.39c-2.23,1.82-5.26,2.73-9.11,2.73a20.15,20.15,0,0,1-4.35-.49,22.34,22.34,0,0,1-4.31-1.38A19.29,19.29,0,0,1,1328.3,242.15Z" transform="translate(-1.87)"/><path class="b" d="M1357.52,237.09v-15h6.16v14.3a4.83,4.83,0,0,0,1,3.39,4.21,4.21,0,0,0,3.19,1.1,4.79,4.79,0,0,0,3.7-1.39,5.67,5.67,0,0,0,1.28-4V222.09H1379v23.27h-5.86v-3.52q-1.89,4.09-7.26,4.1-4.12,0-6.27-2.25T1357.52,237.09Z" transform="translate(-1.87)"/><path class="b" d="M1386.12,245.36V226.88h-3.65v-4.79h3.65v-1.32q0-8.49,9.46-8.49h3.34v4.84h-3a3.16,3.16,0,0,0-3.65,3.65v1.32h6.2v4.79h-6.2v18.48Z" transform="translate(-1.87)"/><path class="b" d="M1401.92,251.22l2.55-4.49a11.32,11.32,0,0,0,3.36,1.71,12.83,12.83,0,0,0,3.94.62q6.35,0,6.34-6.16v-1.54c-1.67,2.41-4.2,3.61-7.57,3.61a9,9,0,0,1-7.22-2.91q-2.5-2.9-2.5-8.4v-.53q0-5.53,2.64-8.58a9.31,9.31,0,0,1,7.43-3q5.19,0,7.53,4v-3.39h5.85V242.2q0,5.85-3.13,8.88t-9.19,3A17.3,17.3,0,0,1,1401.92,251.22Zm5.14-18.09v.53q0,6.26,5.55,6.25t5.54-6.21v-.57q0-6.56-5.54-6.55T1407.06,233.13Z" transform="translate(-1.87)"/><path class="b" d="M1436.15,245.72a8.59,8.59,0,0,1-5.94-1.92,6.66,6.66,0,0,1-2.16-5.26,6.25,6.25,0,0,1,2.64-5.43q2.64-1.87,7.74-1.87h4.32v-.92q0-4-4.71-4a8.51,8.51,0,0,0-5.85,2.5l-3-3.65a12.12,12.12,0,0,1,4.27-2.75,14.48,14.48,0,0,1,5.23-.94q4.85,0,7.42,2.2a7.93,7.93,0,0,1,2.57,6.38V241h2.16v4.35h-3.57a5.58,5.58,0,0,1-3.1-.66,2.43,2.43,0,0,1-.94-2.15v-.62C1442,244.46,1439.67,245.72,1436.15,245.72Zm1.76-4.14a4.67,4.67,0,0,0,3.58-1.34,5.49,5.49,0,0,0,1.26-3.9v-1.23h-4.23q-4.44,0-4.44,3.17a3,3,0,0,0,1,2.44A4.22,4.22,0,0,0,1437.91,241.58Z" transform="translate(-1.87)"/><path class="b" d="M1454.76,245.36V222.09h5.85v3.52q1.94-4.1,7.39-4.09,8.49,0,8.49,8.8v15h-6.16v-14.3c0-3-1.43-4.53-4.31-4.53a4.93,4.93,0,0,0-3.78,1.41,5.63,5.63,0,0,0-1.32,4v13.42Z" transform="translate(-1.87)"/><path class="b" d="M1483.36,245.36V226.88h-2.86v-4.79h6.6a2.07,2.07,0,0,1,2.42,2.42v20.85Zm2.64-26.22a3.58,3.58,0,0,1-2.66-1,3.54,3.54,0,0,1-1-2.62,3.45,3.45,0,0,1,1-2.59,4.13,4.13,0,0,1,5.32,0,3.45,3.45,0,0,1,1,2.59,3.54,3.54,0,0,1-1,2.62A3.6,3.6,0,0,1,1486,219.14Z" transform="translate(-1.87)"/><path class="b" d="M1496.87,253.55v-5.37h2.37a4.6,4.6,0,0,0,2.6-.59,5,5,0,0,0,1.49-2.23l.31-.74H1502l-8.76-22.53H1500l5.94,17.73,5.9-17.73h6.59l-10,25.78a9.43,9.43,0,0,1-3,4.38,8.12,8.12,0,0,1-4.9,1.3Z" transform="translate(-1.87)"/><path class="b" d="M1519.57,234.23v-1c0-3.67,1-6.53,3.15-8.6s5-3.1,8.69-3.1,6.54,1,8.64,3.1,3.15,4.93,3.15,8.6v1q0,5.46-3.15,8.58t-8.64,3.13q-5.55,0-8.69-3.13T1519.57,234.23Zm6.25-1v1q0,6.65,5.59,6.65t5.58-6.65v-1q0-6.65-5.58-6.64T1525.82,233.22Z" transform="translate(-1.87)"/><path class="b" d="M1549.31,237.53V226.88h-3.65v-4.79h2.2a2.27,2.27,0,0,0,1.59-.44,2.16,2.16,0,0,0,.44-1.54v-5h5.58v7h6.21v4.79h-6.21v9.82a4,4,0,0,0,.82,2.88,4.11,4.11,0,0,0,2.92.81h2.47v5h-3.87c-3.11,0-5.31-.59-6.58-1.78S1549.31,240.38,1549.31,237.53Z" transform="translate(-1.87)"/><path class="a" d="M1329.89,291.36V269.94h8a8.54,8.54,0,0,1,5.55,1.62,5.54,5.54,0,0,1,2,4.53v.63a5.47,5.47,0,0,1-1.51,4,7.11,7.11,0,0,1-4.28,2l2.94,4.83a4.18,4.18,0,0,0,1.17,1.29,3,3,0,0,0,1.59.36h.57v2.22h-.87a6.91,6.91,0,0,1-1.89-.22,3.39,3.39,0,0,1-1.38-.78,9.14,9.14,0,0,1-1.26-1.52l-3.66-6h-4.38v8.49Zm2.61-10.68h5.4a5.7,5.7,0,0,0,3.66-1,3.56,3.56,0,0,0,1.26-2.94v-.63a3.56,3.56,0,0,0-1.26-2.94,5.7,5.7,0,0,0-3.66-1h-5.4Z" transform="translate(-1.87)"/><path class="a" d="M1348.58,283.83v-.66a8.07,8.07,0,0,1,2-5.8,8.32,8.32,0,0,1,11.1,0,8.07,8.07,0,0,1,2,5.8v.66a8.07,8.07,0,0,1-2,5.82,8.38,8.38,0,0,1-11.1,0A8.07,8.07,0,0,1,1348.58,283.83Zm2.49-.66v.66a6.39,6.39,0,0,0,1.31,4.32,5.48,5.48,0,0,0,7.53,0,6.39,6.39,0,0,0,1.3-4.32v-.66a6.39,6.39,0,0,0-1.3-4.32,5.48,5.48,0,0,0-7.53,0A6.39,6.39,0,0,0,1351.07,283.17Z" transform="translate(-1.87)"/><path class="a" d="M1367.48,285.84v-10.2h2.46v10a4.4,4.4,0,0,0,.92,3.08,3.75,3.75,0,0,0,2.86,1,4.33,4.33,0,0,0,3.36-1.24,5.19,5.19,0,0,0,1.14-3.62v-9.18h2.46v15.72h-2.37v-2.61q-1.32,3-5.22,3Q1367.48,291.75,1367.48,285.84Z" transform="translate(-1.87)"/><path class="a" d="M1386,291.36V275.64h2.37v2.61q1.35-3,5.31-3,5.67,0,5.67,5.91v10.2h-2.46v-10a4.32,4.32,0,0,0-.93-3.07,3.86,3.86,0,0,0-2.91-1,4.5,4.5,0,0,0-3.42,1.23,5.08,5.08,0,0,0-1.17,3.63v9.18Z" transform="translate(-1.87)"/><path class="a" d="M1403.3,283.83v-.66a8.45,8.45,0,0,1,1.86-5.83,6.6,6.6,0,0,1,5.19-2.09,5.81,5.81,0,0,1,5.55,3V268.8h2.46v22.56H1416v-3a5.88,5.88,0,0,1-2.31,2.54,6.9,6.9,0,0,1-3.57.88,6.28,6.28,0,0,1-5.05-2.08A8.71,8.71,0,0,1,1403.3,283.83Zm2.49-.66v.66a6.39,6.39,0,0,0,1.31,4.32,5.48,5.48,0,0,0,7.53,0,6.39,6.39,0,0,0,1.3-4.32v-.66a6.39,6.39,0,0,0-1.3-4.32,5.49,5.49,0,0,0-7.53,0A6.37,6.37,0,0,0,1405.79,283.17Z" transform="translate(-1.87)"/><path class="a" d="M1427.39,296.94v-2h.9a2.58,2.58,0,0,0,2-.66,3,3,0,0,0,.63-2.13V277.59h-2.16v-1.95h3.57a.93.93,0,0,1,1,1.05V292.2a4.15,4.15,0,0,1-4.77,4.74Zm4.41-24.15a1.65,1.65,0,1,1,0-3.3,1.66,1.66,0,0,1,1.23.45,1.82,1.82,0,0,1,0,2.4A1.66,1.66,0,0,1,1431.8,272.79Z" transform="translate(-1.87)"/><path class="a" d="M1437.44,283.83v-.66a8.24,8.24,0,0,1,1.93-5.83,7,7,0,0,1,5.39-2.09,6.5,6.5,0,0,1,5,1.85,7.55,7.55,0,0,1,1.73,5.35v1.86h-11.61a6,6,0,0,0,1.38,4.11,5.23,5.23,0,0,0,3.9,1.32,7,7,0,0,0,2.61-.46,7.87,7.87,0,0,0,2.31-1.49l1.29,1.59a9,9,0,0,1-6.33,2.37Q1437.44,291.75,1437.44,283.83Zm7.29-6.63q-4.62,0-4.86,5.28h9.27Q1449.11,277.2,1444.73,277.2Z" transform="translate(-1.87)"/><path class="a" d="M1455.32,287.55V268.8h2.46v18.57a1.75,1.75,0,0,0,2,1.95h1v2h-1.5a4.09,4.09,0,0,1-2.93-1A3.76,3.76,0,0,1,1455.32,287.55Z" transform="translate(-1.87)"/><path class="a" d="M1464.08,287.55V268.8h2.46v18.57a1.75,1.75,0,0,0,2,1.95h1v2H1468a4.09,4.09,0,0,1-2.93-1A3.76,3.76,0,0,1,1464.08,287.55Z" transform="translate(-1.87)"/><path class="a" d="M1473.23,296.94v-2.25h1a5.12,5.12,0,0,0,1.57-.19,2.06,2.06,0,0,0,1-.72,6.36,6.36,0,0,0,.8-1.52l.42-1.08h-.87L1471,275.64h2.67l5.19,13.89,5.19-13.89h2.61l-7,17.58a10.08,10.08,0,0,1-1.22,2.31,3.11,3.11,0,0,1-1.53,1.11,8,8,0,0,1-2.44.3Z" transform="translate(-1.87)"/><path class="a" d="M1495.34,283.83v-.66a8.45,8.45,0,0,1,1.86-5.83,6.6,6.6,0,0,1,5.19-2.09,5.81,5.81,0,0,1,5.55,3V268.8h2.46v22.56h-2.34v-3a5.88,5.88,0,0,1-2.31,2.54,6.9,6.9,0,0,1-3.57.88,6.3,6.3,0,0,1-5.06-2.08A8.71,8.71,0,0,1,1495.34,283.83Zm2.49-.66v.66a6.39,6.39,0,0,0,1.3,4.32,5.48,5.48,0,0,0,7.53,0,6.39,6.39,0,0,0,1.31-4.32v-.66a6.39,6.39,0,0,0-1.31-4.32,4.71,4.71,0,0,0-3.76-1.5,4.76,4.76,0,0,0-3.77,1.49A6.37,6.37,0,0,0,1497.83,283.17Z" transform="translate(-1.87)"/><path class="a" d="M1514.51,283.83v-.66a8.07,8.07,0,0,1,2-5.8,8.32,8.32,0,0,1,11.1,0,8.07,8.07,0,0,1,2,5.8v.66a8.07,8.07,0,0,1-2,5.82,8.38,8.38,0,0,1-11.1,0A8.07,8.07,0,0,1,1514.51,283.83Zm2.49-.66v.66a6.39,6.39,0,0,0,1.3,4.32,5.48,5.48,0,0,0,7.53,0,6.39,6.39,0,0,0,1.31-4.32v-.66a6.39,6.39,0,0,0-1.31-4.32,5.48,5.48,0,0,0-7.53,0A6.39,6.39,0,0,0,1517,283.17Z" transform="translate(-1.87)"/><path class="a" d="M1533.41,285.84v-10.2h2.46v10a4.4,4.4,0,0,0,.91,3.08,3.77,3.77,0,0,0,2.87,1,4.33,4.33,0,0,0,3.36-1.24,5.19,5.19,0,0,0,1.14-3.62v-9.18h2.46v15.72h-2.37v-2.61q-1.32,3-5.22,3Q1533.41,291.75,1533.41,285.84Z" transform="translate(-1.87)"/><path class="a" d="M1551.65,295.29l1.14-1.83a8.06,8.06,0,0,0,5.34,1.8,5.17,5.17,0,0,0,3.93-1.33,5.85,5.85,0,0,0,1.26-4.13v-1.59a5.87,5.87,0,0,1-2.3,2.31,7,7,0,0,1-3.46.81,6.34,6.34,0,0,1-5-2,8.42,8.42,0,0,1-1.8-5.76v-.42a8.36,8.36,0,0,1,1.86-5.79,6.62,6.62,0,0,1,5.19-2.07,5.79,5.79,0,0,1,5.67,3.27v-2.88h2.34v13.95q0,7.74-7.59,7.74a12.11,12.11,0,0,1-3.56-.51A9.25,9.25,0,0,1,1551.65,295.29Zm1.56-12.18v.42a6.13,6.13,0,0,0,1.32,4.23,5.56,5.56,0,0,0,7.51,0,6.08,6.08,0,0,0,1.31-4.19v-.48a6.27,6.27,0,0,0-1.31-4.27,5.5,5.5,0,0,0-7.53,0A6.27,6.27,0,0,0,1553.21,283.11Z" transform="translate(-1.87)"/><path class="a" d="M1570.82,291.36V268.8h2.46v9.27q1.38-2.82,5.22-2.82,5.67,0,5.67,5.91v10.2h-2.46v-10a4.32,4.32,0,0,0-.93-3.07,3.86,3.86,0,0,0-2.91-1,4.5,4.5,0,0,0-3.42,1.23,5.08,5.08,0,0,0-1.17,3.63v9.18Z" transform="translate(-1.87)"/><path class="a" d="M1589.33,291.36V275.64h2.37v2.61q1.35-3,5.31-3,5.67,0,5.67,5.91v10.2h-2.46v-10a4.32,4.32,0,0,0-.93-3.07,3.86,3.86,0,0,0-2.91-1,4.5,4.5,0,0,0-3.42,1.23,5.08,5.08,0,0,0-1.17,3.63v9.18Z" transform="translate(-1.87)"/><path class="a" d="M1607.48,285.84v-10.2h2.46v10a4.4,4.4,0,0,0,.91,3.08,3.77,3.77,0,0,0,2.87,1,4.33,4.33,0,0,0,3.36-1.24,5.19,5.19,0,0,0,1.14-3.62v-9.18h2.46v15.72h-2.37v-2.61q-1.32,3-5.22,3Q1607.48,291.75,1607.48,285.84Z" transform="translate(-1.87)"/><path class="a" d="M1626.38,286.41v-8.82h-2.73v-1.95h1.8a1,1,0,0,0,1.14-1.11V271h2.25v4.65h4.89v1.95h-4.89v8.55a3.61,3.61,0,0,0,.66,2.49,3.23,3.23,0,0,0,2.37.69h1.86v2h-2.28c-1.88,0-3.2-.37-4-1.11S1626.38,288.23,1626.38,286.41Z" transform="translate(-1.87)"/><path class="a" d="M1636.61,289.74l1.11-1.77a7.8,7.8,0,0,0,2.41,1.28,8.75,8.75,0,0,0,2.78.46,4.88,4.88,0,0,0,2.85-.72,2.29,2.29,0,0,0,1-2,1.89,1.89,0,0,0-.78-1.69,8.47,8.47,0,0,0-2.94-.92l-1-.15a7.62,7.62,0,0,1-3.81-1.56,3.77,3.77,0,0,1-1.17-2.91,3.84,3.84,0,0,1,.76-2.37,5,5,0,0,1,2.12-1.59,8,8,0,0,1,3.12-.57,10,10,0,0,1,3.3.54,8.06,8.06,0,0,1,2.67,1.5L1648,279a6.49,6.49,0,0,0-2.22-1.24,8.21,8.21,0,0,0-2.64-.44,4.68,4.68,0,0,0-2.64.65,2.06,2.06,0,0,0-1,1.81,1.73,1.73,0,0,0,.7,1.52,6.9,6.9,0,0,0,2.54.82l.93.18a8.8,8.8,0,0,1,4.26,1.59,3.93,3.93,0,0,1,1.23,3.12,4.19,4.19,0,0,1-1.65,3.48,7.07,7.07,0,0,1-4.47,1.29,11.57,11.57,0,0,1-3.53-.54A9.25,9.25,0,0,1,1636.61,289.74Z" transform="translate(-1.87)"/><path class="b" d="M1895.24,242.77V213.91H1909q5.28,0,8,2a6.75,6.75,0,0,1,2.75,5.83v.66a6.62,6.62,0,0,1-1.21,4,7.39,7.39,0,0,1-3.45,2.57,8,8,0,0,1,4.09,2.64,7.09,7.09,0,0,1,1.45,4.51v.74a7.54,7.54,0,0,1-2.79,6.32q-2.79,2.17-8.16,2.18h-11.93A2.26,2.26,0,0,1,1895.24,242.77Zm6.51-15.88h6.69a5.59,5.59,0,0,0,3.5-.95,3.22,3.22,0,0,0,1.21-2.7v-.57a3.17,3.17,0,0,0-1.21-2.69,5.72,5.72,0,0,0-3.5-.92h-6.69Zm0,13.29h7.4a5.69,5.69,0,0,0,3.6-1,3.45,3.45,0,0,0,1.28-2.86v-.62a3.44,3.44,0,0,0-1.28-2.86,5.69,5.69,0,0,0-3.6-1h-7.4Z" transform="translate(-1.87)"/><path class="b" d="M1924.85,237.05v-15H1931v14.3a4.81,4.81,0,0,0,1,3.39,4.2,4.2,0,0,0,3.19,1.1,4.74,4.74,0,0,0,3.69-1.39,5.67,5.67,0,0,0,1.28-4V222.05h6.16v23.28h-5.85v-3.52c-1.26,2.72-3.68,4.09-7.26,4.09q-4.14,0-6.27-2.25T1924.85,237.05Z" transform="translate(-1.87)"/><path class="b" d="M1952.53,245.33V222.05h5.85v3.52c1.29-2.73,3.76-4.09,7.39-4.09q8.49,0,8.49,8.8v15.05h-6.15V231q0-4.54-4.32-4.54a4.93,4.93,0,0,0-3.78,1.41,5.65,5.65,0,0,0-1.32,4v13.42Z" transform="translate(-1.87)"/><path class="b" d="M1979.72,237.05v-15h6.16v14.3a4.81,4.81,0,0,0,1,3.39,4.17,4.17,0,0,0,3.18,1.1,4.75,4.75,0,0,0,3.7-1.39,5.67,5.67,0,0,0,1.28-4V222.05h6.16v23.28h-5.86v-3.52c-1.26,2.72-3.68,4.09-7.25,4.09q-4.14,0-6.28-2.25T1979.72,237.05Z" transform="translate(-1.87)"/><path class="b" d="M2005.94,234.15v-1c0-3.67,1-6.53,3-8.6s4.81-3.1,8.36-3.1c3.37,0,6,.92,7.81,2.77s2.75,4.47,2.75,7.88v3.38H2012a6.18,6.18,0,0,0,1.78,4.21,6.67,6.67,0,0,0,4.51,1.34,10.14,10.14,0,0,0,3.39-.53,12.45,12.45,0,0,0,3.3-1.89l2.86,3.83a15,15,0,0,1-9.9,3.43q-5.85,0-8.91-3T2005.94,234.15Zm11.31-8.05q-4.83,0-5.28,5.41h10.25a6.25,6.25,0,0,0-1.36-4.09A4.69,4.69,0,0,0,2017.25,226.1Z" transform="translate(-1.87)"/><path class="b" d="M2032.26,238.64v-26.4h6.16v25.65a2.15,2.15,0,0,0,2.42,2.46h1.32v5H2039Q2032.26,245.33,2032.26,238.64Z" transform="translate(-1.87)"/><path class="b" d="M2044.84,234.19v-1c0-3.67,1.05-6.53,3.15-8.6s5-3.1,8.69-3.1,6.54,1,8.64,3.1,3.15,4.93,3.15,8.6v1q0,5.46-3.15,8.58t-8.64,3.13q-5.55,0-8.69-3.13T2044.84,234.19Zm6.25-1v1q0,6.65,5.59,6.65t5.58-6.65v-1q0-6.65-5.58-6.64T2051.09,233.18Z" transform="translate(-1.87)"/><path class="b" d="M2071.59,243l2.51-4.26a12.09,12.09,0,0,0,3.5,1.69,13.35,13.35,0,0,0,3.94.59q4,0,4.05-2.5a1.88,1.88,0,0,0-.8-1.68,8.64,8.64,0,0,0-3.08-.88l-1.67-.26a11.67,11.67,0,0,1-5.83-2.4,5.83,5.83,0,0,1-1.87-4.55,6.27,6.27,0,0,1,2.66-5.28,11.56,11.56,0,0,1,7.06-2,17.69,17.69,0,0,1,5.13.75,12.72,12.72,0,0,1,4.29,2.15l-2.51,4.18a11.17,11.17,0,0,0-3.25-1.65,12.27,12.27,0,0,0-3.7-.59q-3.78,0-3.78,2.24a1.67,1.67,0,0,0,.74,1.5,8.09,8.09,0,0,0,2.73.83l1.63.27c2.9.47,5,1.27,6.25,2.4a6.11,6.11,0,0,1,1.89,4.81,6.63,6.63,0,0,1-2.57,5.5,11.3,11.3,0,0,1-7.15,2,19.86,19.86,0,0,1-5.61-.77A15.5,15.5,0,0,1,2071.59,243Z" transform="translate(-1.87)"/><path class="b" d="M2104.5,234.19v-1c0-3.67,1.05-6.53,3.15-8.6s5-3.1,8.69-3.1,6.55,1,8.65,3.1,3.14,4.93,3.14,8.6v1q0,5.46-3.14,8.58t-8.65,3.13c-3.7,0-6.59-1-8.69-3.13S2104.5,237.83,2104.5,234.19Zm6.25-1v1q0,6.65,5.59,6.65t5.59-6.65v-1q0-6.65-5.59-6.64T2110.75,233.18Z" transform="translate(-1.87)"/><path class="b" d="M2132.88,245.33V222.05h5.86v4.09q1.94-4.09,7.39-4.09h1.67v5.59h-3.48q-5.28,0-5.28,5.28v12.41Z" transform="translate(-1.87)"/><path class="b" d="M2161.57,242.77V213.91h13.77q5.28,0,8,2a6.75,6.75,0,0,1,2.75,5.83v.66a6.62,6.62,0,0,1-1.21,4,7.39,7.39,0,0,1-3.45,2.57,8,8,0,0,1,4.09,2.64,7.09,7.09,0,0,1,1.45,4.51v.74a7.54,7.54,0,0,1-2.79,6.32q-2.79,2.17-8.16,2.18h-11.93A2.26,2.26,0,0,1,2161.57,242.77Zm6.51-15.88h6.69a5.59,5.59,0,0,0,3.5-.95,3.22,3.22,0,0,0,1.21-2.7v-.57a3.17,3.17,0,0,0-1.21-2.69,5.72,5.72,0,0,0-3.5-.92h-6.69Zm0,13.29h7.4a5.69,5.69,0,0,0,3.6-1,3.45,3.45,0,0,0,1.28-2.86v-.62a3.44,3.44,0,0,0-1.28-2.86,5.69,5.69,0,0,0-3.6-1h-7.4Z" transform="translate(-1.87)"/><path class="b" d="M2193,245.33V226.85h-2.86v-4.8h6.6a2.07,2.07,0,0,1,2.42,2.42v20.86Zm2.64-26.23a3.6,3.6,0,0,1-2.66-1,3.54,3.54,0,0,1-1-2.62,3.45,3.45,0,0,1,1-2.59,4.13,4.13,0,0,1,5.32,0,3.45,3.45,0,0,1,1,2.59,3.54,3.54,0,0,1-1,2.62A3.58,3.58,0,0,1,2195.67,219.1Z" transform="translate(-1.87)"/><path class="b" d="M2205.35,245.33V222.05h5.85v3.34q1.93-3.91,7-3.91,5.28,0,7.13,4,2.16-4,7.48-4,4,0,6.05,2.24c1.36,1.5,2,3.68,2,6.56v15.05h-6.16V231q0-4.54-3.87-4.54a4.35,4.35,0,0,0-3.5,1.41,6,6,0,0,0-1.21,4v13.42h-6.16V231q0-4.54-3.88-4.54a4.28,4.28,0,0,0-3.47,1.41,6.07,6.07,0,0,0-1.19,4v13.42Z" transform="translate(-1.87)"/><path class="b" d="M2246.4,237.05v-15h6.16v14.3a4.81,4.81,0,0,0,1,3.39,4.2,4.2,0,0,0,3.19,1.1,4.74,4.74,0,0,0,3.69-1.39,5.67,5.67,0,0,0,1.28-4V222.05h6.16v23.28h-5.85v-3.52c-1.27,2.72-3.69,4.09-7.26,4.09q-4.14,0-6.27-2.25T2246.4,237.05Z" transform="translate(-1.87)"/><path class="b" d="M2272.63,234.15v-1c0-3.67,1-6.53,3-8.6s4.81-3.1,8.36-3.1q5.07,0,7.81,2.77c1.84,1.85,2.75,4.47,2.75,7.88v3.38h-15.93a6.14,6.14,0,0,0,1.79,4.21,6.64,6.64,0,0,0,4.51,1.34,10.12,10.12,0,0,0,3.38-.53,12.45,12.45,0,0,0,3.3-1.89l2.86,3.83a15,15,0,0,1-9.9,3.43q-5.85,0-8.91-3T2272.63,234.15Zm11.3-8.05q-4.83,0-5.28,5.41h10.26a6.3,6.3,0,0,0-1.37-4.09A4.69,4.69,0,0,0,2283.93,226.1Z" transform="translate(-1.87)"/><path class="b" d="M2298.94,238.64v-26.4h6.16v25.65a2.15,2.15,0,0,0,2.42,2.46h1.32v5h-3.17Q2298.93,245.33,2298.94,238.64Z" transform="translate(-1.87)"/><path class="b" d="M2311.52,234.19v-1c0-3.67,1.05-6.53,3.15-8.6s5-3.1,8.69-3.1,6.55,1,8.64,3.1,3.15,4.93,3.15,8.6v1q0,5.46-3.15,8.58c-2.09,2.09-5,3.13-8.64,3.13s-6.6-1-8.69-3.13S2311.52,237.83,2311.52,234.19Zm6.25-1v1q0,6.65,5.59,6.65t5.59-6.65v-1q0-6.65-5.59-6.64T2317.77,233.18Z" transform="translate(-1.87)"/><path class="b" d="M2338.27,243l2.51-4.26a12.09,12.09,0,0,0,3.5,1.69,13.35,13.35,0,0,0,3.94.59q4.05,0,4.05-2.5a1.88,1.88,0,0,0-.8-1.68,8.57,8.57,0,0,0-3.08-.88l-1.67-.26a11.67,11.67,0,0,1-5.83-2.4,5.83,5.83,0,0,1-1.87-4.55,6.27,6.27,0,0,1,2.66-5.28,11.58,11.58,0,0,1,7.07-2,17.67,17.67,0,0,1,5.12.75,12.72,12.72,0,0,1,4.29,2.15l-2.51,4.18a11.17,11.17,0,0,0-3.25-1.65,12.22,12.22,0,0,0-3.7-.59q-3.78,0-3.78,2.24a1.65,1.65,0,0,0,.75,1.5,7.94,7.94,0,0,0,2.72.83l1.63.27c2.9.47,5,1.27,6.25,2.4a6.11,6.11,0,0,1,1.89,4.81,6.63,6.63,0,0,1-2.57,5.5,11.3,11.3,0,0,1-7.15,2,19.86,19.86,0,0,1-5.61-.77A15.5,15.5,0,0,1,2338.27,243Z" transform="translate(-1.87)"/><path class="a" d="M1895.12,291.33V269.91h14.1v2.19H1897.7v7.68h9.39v2.16h-9.39v9.39Z" transform="translate(-1.87)"/><path class="a" d="M1912.4,291.33V275.61h2.34v3.06a4.62,4.62,0,0,1,2-2.28,6.37,6.37,0,0,1,3.24-.78h1.38v2.31h-1.89a4.6,4.6,0,0,0-3.46,1.17,5,5,0,0,0-1.13,3.6v8.64Z" transform="translate(-1.87)"/><path class="a" d="M1925.93,291.33V277.56h-2.16v-1.95h3.57a.93.93,0,0,1,1.05,1.05v14.67Zm.93-18.57a1.65,1.65,0,1,1,0-3.3,1.66,1.66,0,0,1,1.23.45,1.82,1.82,0,0,1,0,2.4A1.66,1.66,0,0,1,1926.86,272.76Z" transform="translate(-1.87)"/><path class="a" d="M1932.5,283.8v-.66a8.27,8.27,0,0,1,1.94-5.84,7,7,0,0,1,5.38-2.08,6.52,6.52,0,0,1,5,1.84,7.62,7.62,0,0,1,1.72,5.36v1.86h-11.61a6,6,0,0,0,1.38,4.11,5.23,5.23,0,0,0,3.9,1.32,7,7,0,0,0,2.61-.47,7.82,7.82,0,0,0,2.31-1.48l1.29,1.59a9,9,0,0,1-6.33,2.37Q1932.5,291.72,1932.5,283.8Zm7.29-6.63q-4.62,0-4.86,5.28h9.27Q1944.17,277.17,1939.79,277.17Z" transform="translate(-1.87)"/><path class="a" d="M1949.66,283.8v-.66a8.48,8.48,0,0,1,1.86-5.84,6.59,6.59,0,0,1,5.19-2.08,5.81,5.81,0,0,1,5.55,3v-9.48h2.46v22.56h-2.34v-3a5.85,5.85,0,0,1-2.31,2.53,6.9,6.9,0,0,1-3.57.89,6.31,6.31,0,0,1-5.06-2.09A8.68,8.68,0,0,1,1949.66,283.8Zm2.49-.66v.66a6.39,6.39,0,0,0,1.31,4.32,5.48,5.48,0,0,0,7.53,0,6.44,6.44,0,0,0,1.3-4.32v-.66a6.44,6.44,0,0,0-1.3-4.32,5.5,5.5,0,0,0-7.53,0A6.4,6.4,0,0,0,1952.15,283.14Z" transform="translate(-1.87)"/><path class="a" d="M1977.08,291.33V277.56h-2.73v-1.95h2.73v-1.5q0-5.34,5.52-5.34h2.13v2h-2a3.17,3.17,0,0,0-2.4.79,3.62,3.62,0,0,0-.75,2.54v1.5h4.89v1.95h-4.89v13.77Z" transform="translate(-1.87)"/><path class="a" d="M1987.91,291.33V275.61h2.34v3.06a4.62,4.62,0,0,1,2-2.28,6.37,6.37,0,0,1,3.24-.78h1.38v2.31H1995a4.62,4.62,0,0,0-3.47,1.17,5,5,0,0,0-1.12,3.6v8.64Z" transform="translate(-1.87)"/><path class="a" d="M2001.44,291.33V277.56h-2.16v-1.95h3.57a.93.93,0,0,1,1.05,1.05v14.67Zm.93-18.57a1.65,1.65,0,1,1,0-3.3,1.66,1.66,0,0,1,1.23.45,1.82,1.82,0,0,1,0,2.4A1.66,1.66,0,0,1,2002.37,272.76Z" transform="translate(-1.87)"/><path class="a" d="M2009.6,286.38v-8.82h-2.73v-1.95h1.8a1,1,0,0,0,1.14-1.11V271h2.25v4.65H2017v1.95h-4.89v8.55a3.61,3.61,0,0,0,.66,2.49,3.23,3.23,0,0,0,2.37.69H2017v2h-2.28c-1.88,0-3.2-.37-4-1.11S2009.6,288.2,2009.6,286.38Z" transform="translate(-1.87)"/><path class="a" d="M2021.27,286.38v-8.82h-2.73v-1.95h1.8a1,1,0,0,0,1.14-1.11V271h2.25v4.65h4.89v1.95h-4.89v8.55a3.61,3.61,0,0,0,.66,2.49,3.23,3.23,0,0,0,2.37.69h1.86v2h-2.28c-1.88,0-3.2-.37-3.95-1.11S2021.27,288.2,2021.27,286.38Z" transform="translate(-1.87)"/><path class="a" d="M2031.35,283.8v-.66a8.26,8.26,0,0,1,1.93-5.84,7,7,0,0,1,5.39-2.08,6.49,6.49,0,0,1,5,1.84,7.58,7.58,0,0,1,1.73,5.36v1.86h-11.61a6,6,0,0,0,1.38,4.11,5.23,5.23,0,0,0,3.9,1.32,7,7,0,0,0,2.61-.47,7.82,7.82,0,0,0,2.31-1.48l1.29,1.59a9,9,0,0,1-6.33,2.37Q2031.35,291.72,2031.35,283.8Zm7.29-6.63q-4.62,0-4.86,5.28h9.27Q2043,277.17,2038.64,277.17Z" transform="translate(-1.87)"/><path class="a" d="M2049.38,291.33V275.61h2.34v3.06a4.62,4.62,0,0,1,2-2.28,6.37,6.37,0,0,1,3.24-.78h1.38v2.31h-1.89a4.62,4.62,0,0,0-3.47,1.17,5,5,0,0,0-1.12,3.6v8.64Z" transform="translate(-1.87)"/><path class="a" d="M2060.42,289.71l1.11-1.77a7.78,7.78,0,0,0,2.41,1.27,8.77,8.77,0,0,0,2.78.47,4.88,4.88,0,0,0,2.85-.72,2.29,2.29,0,0,0,1-2,1.9,1.9,0,0,0-.78-1.7,8.51,8.51,0,0,0-2.94-.91l-1-.15a7.62,7.62,0,0,1-3.81-1.56,3.77,3.77,0,0,1-1.17-2.91,3.84,3.84,0,0,1,.76-2.37,5,5,0,0,1,2.12-1.59,8,8,0,0,1,3.12-.57,10,10,0,0,1,3.3.54,8.06,8.06,0,0,1,2.67,1.5l-1.14,1.68a6.51,6.51,0,0,0-2.22-1.25,8.2,8.2,0,0,0-2.64-.43,4.69,4.69,0,0,0-2.64.64,2.07,2.07,0,0,0-1,1.82,1.71,1.71,0,0,0,.7,1.51,6.86,6.86,0,0,0,2.54.83l.93.18a8.8,8.8,0,0,1,4.26,1.59A3.93,3.93,0,0,1,2073,287a4.19,4.19,0,0,1-1.65,3.48,7.07,7.07,0,0,1-4.47,1.29,11.57,11.57,0,0,1-3.53-.54A9.25,9.25,0,0,1,2060.42,289.71Z" transform="translate(-1.87)"/><path class="a" d="M2084.3,286.38v-8.82h-2.73v-1.95h1.8a1,1,0,0,0,1.14-1.11V271h2.25v4.65h4.89v1.95h-4.89v8.55a3.61,3.61,0,0,0,.66,2.49,3.23,3.23,0,0,0,2.37.69h1.86v2h-2.28c-1.88,0-3.2-.37-3.95-1.11S2084.3,288.2,2084.3,286.38Z" transform="translate(-1.87)"/><path class="a" d="M2095.25,291.33V275.61h2.34v3.06a4.62,4.62,0,0,1,2-2.28,6.37,6.37,0,0,1,3.24-.78h1.38v2.31h-1.89a4.62,4.62,0,0,0-3.47,1.17,5,5,0,0,0-1.12,3.6v8.64Z" transform="translate(-1.87)"/><path class="a" d="M2111.54,291.57a5.89,5.89,0,0,1-4-1.28,4.36,4.36,0,0,1-1.45-3.46,4.15,4.15,0,0,1,1.68-3.57,8.21,8.21,0,0,1,4.89-1.23h4v-1a3.74,3.74,0,0,0-1-2.85,4.32,4.32,0,0,0-3-.9,5.73,5.73,0,0,0-4.35,2l-1.35-1.47a7.62,7.62,0,0,1,2.68-1.88,8.39,8.39,0,0,1,3.26-.64,6.59,6.59,0,0,1,4.57,1.42,5.37,5.37,0,0,1,1.58,4.19v8.67h1.59v1.83h-2.07q-1.77,0-1.77-1.47v-1.23a4.37,4.37,0,0,1-1.94,2.16A6.5,6.5,0,0,1,2111.54,291.57Zm.6-1.8q4.47,0,4.47-4.74V283.8h-3.9q-4.2,0-4.2,2.91a2.78,2.78,0,0,0,.94,2.26A4.07,4.07,0,0,0,2112.14,289.77Z" transform="translate(-1.87)"/><path class="a" d="M2122.94,283.8v-.66a8.43,8.43,0,0,1,1.86-5.84,6.59,6.59,0,0,1,5.19-2.08,5.82,5.82,0,0,1,5.55,3v-9.48H2138v22.56h-2.34v-3a5.87,5.87,0,0,1-2.32,2.53,6.87,6.87,0,0,1-3.56.89,6.29,6.29,0,0,1-5.06-2.09A8.68,8.68,0,0,1,2122.94,283.8Zm2.48-.66v.66a6.39,6.39,0,0,0,1.31,4.32,5.48,5.48,0,0,0,7.53,0,6.39,6.39,0,0,0,1.31-4.32v-.66a6.39,6.39,0,0,0-1.31-4.32,5.5,5.5,0,0,0-7.53,0A6.4,6.4,0,0,0,2125.42,283.14Z" transform="translate(-1.87)"/><path class="a" d="M2143.84,291.33V277.56h-2.16v-1.95h3.57a.92.92,0,0,1,1.05,1.05v14.67Zm.93-18.57a1.65,1.65,0,1,1,0-3.3,1.65,1.65,0,0,1,1.23.45,1.8,1.8,0,0,1,0,2.4A1.65,1.65,0,0,1,2144.77,272.76Z" transform="translate(-1.87)"/><path class="a" d="M2152,286.38v-8.82h-2.73v-1.95h1.81a1,1,0,0,0,1.13-1.11V271h2.25v4.65h4.89v1.95h-4.89v8.55a3.55,3.55,0,0,0,.67,2.49,3.19,3.19,0,0,0,2.37.69h1.85v2h-2.27c-1.89,0-3.2-.37-3.95-1.11A5.29,5.29,0,0,1,2152,286.38Z" transform="translate(-1.87)"/><path class="a" d="M2164.12,291.33V277.56H2162v-1.95h3.57a.93.93,0,0,1,1,1.05v14.67Zm.93-18.57a1.65,1.65,0,1,1,0-3.3,1.66,1.66,0,0,1,1.23.45,1.82,1.82,0,0,1,0,2.4A1.66,1.66,0,0,1,2165.05,272.76Z" transform="translate(-1.87)"/><path class="a" d="M2170.69,283.8v-.66a8.1,8.1,0,0,1,2-5.81,8.35,8.35,0,0,1,11.1,0,8.1,8.1,0,0,1,2,5.81v.66a8.07,8.07,0,0,1-2,5.82,8.38,8.38,0,0,1-11.1,0A8.07,8.07,0,0,1,2170.69,283.8Zm2.49-.66v.66a6.39,6.39,0,0,0,1.31,4.32,5.48,5.48,0,0,0,7.53,0,6.39,6.39,0,0,0,1.3-4.32v-.66a6.39,6.39,0,0,0-1.3-4.32,5.48,5.48,0,0,0-7.53,0A6.39,6.39,0,0,0,2173.18,283.14Z" transform="translate(-1.87)"/><path class="a" d="M2190,291.33V275.61h2.37v2.61q1.35-3,5.31-3,5.67,0,5.67,5.91v10.2h-2.46v-10a4.35,4.35,0,0,0-.93-3.08,3.86,3.86,0,0,0-2.91-1,4.5,4.5,0,0,0-3.42,1.23,5.08,5.08,0,0,0-1.17,3.63v9.18Z" transform="translate(-1.87)"/><path class="a" d="M2212.39,291.57a5.86,5.86,0,0,1-4-1.28,4.36,4.36,0,0,1-1.46-3.46,4.15,4.15,0,0,1,1.68-3.57,8.21,8.21,0,0,1,4.89-1.23h4v-1a3.74,3.74,0,0,0-1-2.85,4.32,4.32,0,0,0-3-.9,5.73,5.73,0,0,0-4.35,2l-1.35-1.47a7.66,7.66,0,0,1,2.69-1.88,8.34,8.34,0,0,1,3.25-.64,6.61,6.61,0,0,1,4.58,1.42,5.37,5.37,0,0,1,1.57,4.19v8.67h1.59v1.83h-2.07q-1.77,0-1.77-1.47v-1.23a4.35,4.35,0,0,1-1.93,2.16A6.54,6.54,0,0,1,2212.39,291.57Zm.6-1.8q4.47,0,4.47-4.74V283.8h-3.9q-4.2,0-4.2,2.91a2.79,2.79,0,0,0,.95,2.26A4,4,0,0,0,2213,289.77Z" transform="translate(-1.87)"/><path class="a" d="M2224.81,287.52V268.77h2.46v18.57a1.75,1.75,0,0,0,2,2h1v2h-1.5a4.06,4.06,0,0,1-2.92-1A3.76,3.76,0,0,1,2224.81,287.52Z" transform="translate(-1.87)"/><path class="a" d="M2233.57,287.52V268.77H2236v18.57a1.75,1.75,0,0,0,2,2h1v2h-1.5a4.06,4.06,0,0,1-2.92-1A3.76,3.76,0,0,1,2233.57,287.52Z" transform="translate(-1.87)"/><path class="a" d="M2242.72,296.91v-2.25h1a5.15,5.15,0,0,0,1.58-.2,2.06,2.06,0,0,0,1-.72,6.28,6.28,0,0,0,.79-1.51l.42-1.08h-.87l-6.15-15.54h2.67l5.19,13.89,5.19-13.89h2.61l-7,17.58a10.1,10.1,0,0,1-1.21,2.31,3.11,3.11,0,0,1-1.53,1.11,8.45,8.45,0,0,1-2.45.3Z" transform="translate(-1.87)"/><path class="a" d="M2264.83,283.8v-.66a8.48,8.48,0,0,1,1.86-5.84,6.59,6.59,0,0,1,5.19-2.08,5.81,5.81,0,0,1,5.55,3v-9.48h2.46v22.56h-2.34v-3a5.85,5.85,0,0,1-2.31,2.53,6.9,6.9,0,0,1-3.57.89,6.28,6.28,0,0,1-5.05-2.09A8.69,8.69,0,0,1,2264.83,283.8Zm2.49-.66v.66a6.39,6.39,0,0,0,1.31,4.32,5.48,5.48,0,0,0,7.53,0,6.39,6.39,0,0,0,1.3-4.32v-.66a6.39,6.39,0,0,0-1.3-4.32,5.5,5.5,0,0,0-7.53,0A6.4,6.4,0,0,0,2267.32,283.14Z" transform="translate(-1.87)"/><path class="a" d="M2285.17,291.33V275.61h2.34v3.06a4.62,4.62,0,0,1,2-2.28,6.37,6.37,0,0,1,3.24-.78h1.38v2.31h-1.89a4.6,4.6,0,0,0-3.46,1.17,5,5,0,0,0-1.13,3.6v8.64Z" transform="translate(-1.87)"/><path class="a" d="M2298.7,291.33V277.56h-2.16v-1.95h3.57a.93.93,0,0,1,1,1.05v14.67Zm.93-18.57a1.65,1.65,0,1,1,0-3.3,1.66,1.66,0,0,1,1.23.45,1.82,1.82,0,0,1,0,2.4A1.66,1.66,0,0,1,2299.63,272.76Z" transform="translate(-1.87)"/><path class="a" d="M2305.3,291.33v-2.16l9.78-11.61h-9.63v-1.95h12.36v2.16l-9.75,11.61h9.9v1.95Z" transform="translate(-1.87)"/><path class="a" d="M2321,291.33v-2.16l9.78-11.61h-9.63v-1.95h12.36v2.16l-9.75,11.61h9.9v1.95Z" transform="translate(-1.87)"/><path class="a" d="M2337.61,287.52V268.77h2.46v18.57a1.75,1.75,0,0,0,2,2h1v2h-1.5a4.06,4.06,0,0,1-2.92-1A3.76,3.76,0,0,1,2337.61,287.52Z" transform="translate(-1.87)"/><path class="a" d="M2345.35,283.8v-.66a8.27,8.27,0,0,1,1.94-5.84,7,7,0,0,1,5.38-2.08,6.53,6.53,0,0,1,5,1.84,7.57,7.57,0,0,1,1.72,5.36v1.86h-11.61a6,6,0,0,0,1.38,4.11,5.23,5.23,0,0,0,3.9,1.32,7,7,0,0,0,2.61-.47,7.82,7.82,0,0,0,2.31-1.48l1.29,1.59a9,9,0,0,1-6.33,2.37Q2345.35,291.72,2345.35,283.8Zm7.29-6.63q-4.62,0-4.86,5.28h9.27Q2357,277.17,2352.64,277.17Z" transform="translate(-1.87)"/><path class="a" d="M2362.51,283.8v-.66a8.48,8.48,0,0,1,1.86-5.84,6.59,6.59,0,0,1,5.19-2.08,5.81,5.81,0,0,1,5.55,3v-9.48h2.46v22.56h-2.34v-3a5.85,5.85,0,0,1-2.31,2.53,6.9,6.9,0,0,1-3.57.89,6.31,6.31,0,0,1-5.06-2.09A8.68,8.68,0,0,1,2362.51,283.8Zm2.49-.66v.66a6.39,6.39,0,0,0,1.3,4.32,5.49,5.49,0,0,0,7.54,0,6.39,6.39,0,0,0,1.3-4.32v-.66a6.39,6.39,0,0,0-1.3-4.32,5.51,5.51,0,0,0-7.54,0A6.39,6.39,0,0,0,2365,283.14Z" transform="translate(-1.87)"/><path class="a" d="M1898.31,327.33l-5-15.72h2.64l4,13.41,4-13.41h2.85l4.11,13.35,3.93-13.35h2.55l-5,15.72h-3l-4-13.14-4,13.14Z" transform="translate(-1.87)"/><path class="a" d="M1921.8,327.33V313.56h-2.16v-1.95h3.57a.93.93,0,0,1,1,1.05v14.67Zm.93-18.57a1.65,1.65,0,1,1,0-3.3,1.66,1.66,0,0,1,1.23.45,1.82,1.82,0,0,1,0,2.4A1.66,1.66,0,0,1,1922.73,308.76Z" transform="translate(-1.87)"/><path class="a" d="M1930,322.38v-8.82h-2.73v-1.95h1.8a1,1,0,0,0,1.14-1.11V307h2.25v4.65h4.89v1.95h-4.89v8.55a3.61,3.61,0,0,0,.66,2.49,3.23,3.23,0,0,0,2.37.69h1.86v2H1935c-1.88,0-3.19-.37-3.94-1.11A5.29,5.29,0,0,1,1930,322.38Z" transform="translate(-1.87)"/><path class="a" d="M1941.21,327.33V304.77h2.46V314q1.38-2.82,5.22-2.82,5.67,0,5.67,5.91v10.2h-2.46v-10a4.35,4.35,0,0,0-.93-3.08,3.86,3.86,0,0,0-2.91-1,4.5,4.5,0,0,0-3.42,1.23,5.08,5.08,0,0,0-1.17,3.63v9.18Z" transform="translate(-1.87)"/><path class="a" d="M1966.38,327.33V304.77h2.46V314q1.38-2.82,5.22-2.82,5.67,0,5.67,5.91v10.2h-2.46v-10a4.35,4.35,0,0,0-.93-3.08,3.86,3.86,0,0,0-2.91-1,4.5,4.5,0,0,0-3.42,1.23,5.08,5.08,0,0,0-1.17,3.63v9.18Z" transform="translate(-1.87)"/><path class="a" d="M1983.72,319.8v-.66a8.1,8.1,0,0,1,2-5.81,8.35,8.35,0,0,1,11.1,0,8.1,8.1,0,0,1,2,5.81v.66a8.07,8.07,0,0,1-2,5.82,8.38,8.38,0,0,1-11.1,0A8.07,8.07,0,0,1,1983.72,319.8Zm2.49-.66v.66a6.39,6.39,0,0,0,1.31,4.32,5.48,5.48,0,0,0,7.53,0,6.39,6.39,0,0,0,1.3-4.32v-.66a6.39,6.39,0,0,0-1.3-4.32,5.48,5.48,0,0,0-7.53,0A6.39,6.39,0,0,0,1986.21,319.14Z" transform="translate(-1.87)"/><path class="a" d="M2003,327.33V311.61h2.37v2.61q1.35-3,5.31-3,5.67,0,5.67,5.91v10.2h-2.46v-10a4.35,4.35,0,0,0-.93-3.08,3.86,3.86,0,0,0-2.91-1,4.5,4.5,0,0,0-3.42,1.23,5.08,5.08,0,0,0-1.17,3.63v9.18Z" transform="translate(-1.87)"/><path class="a" d="M2020.32,319.8v-.66a8.31,8.31,0,0,1,1.93-5.84,7,7,0,0,1,5.39-2.08,6.52,6.52,0,0,1,5,1.84,7.57,7.57,0,0,1,1.72,5.36v1.86h-11.61a6,6,0,0,0,1.38,4.11,5.23,5.23,0,0,0,3.9,1.32,7,7,0,0,0,2.61-.47,7.82,7.82,0,0,0,2.31-1.48l1.29,1.59a9,9,0,0,1-6.33,2.37Q2020.32,327.72,2020.32,319.8Zm7.29-6.63q-4.62,0-4.86,5.28H2032Q2032,313.17,2027.61,313.17Z" transform="translate(-1.87)"/><path class="a" d="M2038.89,332.91v-2.25h1a5,5,0,0,0,1.57-.2,2,2,0,0,0,1-.72,6.67,6.67,0,0,0,.79-1.51l.42-1.08h-.87l-6.15-15.54h2.67l5.19,13.89,5.19-13.89h2.61l-7,17.58a10.08,10.08,0,0,1-1.22,2.31,3.13,3.13,0,0,1-1.52,1.11,8.5,8.5,0,0,1-2.45.3Z" transform="translate(-1.87)"/><path class="a" d="M2061,319.8v-.66a8.1,8.1,0,0,1,2-5.81,8.35,8.35,0,0,1,11.1,0,8.1,8.1,0,0,1,2,5.81v.66a8.07,8.07,0,0,1-2,5.82,8.38,8.38,0,0,1-11.1,0A8.07,8.07,0,0,1,2061,319.8Zm2.49-.66v.66a6.39,6.39,0,0,0,1.3,4.32,5.48,5.48,0,0,0,7.53,0,6.39,6.39,0,0,0,1.31-4.32v-.66a6.39,6.39,0,0,0-1.31-4.32,5.48,5.48,0,0,0-7.53,0A6.39,6.39,0,0,0,2063.49,319.14Z" transform="translate(-1.87)"/><path class="a" d="M2080.26,327.33V311.61h2.34v3.06a4.62,4.62,0,0,1,2-2.28,6.37,6.37,0,0,1,3.24-.78h1.38v2.31h-1.89a4.62,4.62,0,0,0-3.47,1.17,5,5,0,0,0-1.12,3.6v8.64Z" transform="translate(-1.87)"/><path class="a" d="M2098,325.71l1.11-1.77a7.78,7.78,0,0,0,2.41,1.27,8.77,8.77,0,0,0,2.78.47,4.88,4.88,0,0,0,2.85-.72,2.29,2.29,0,0,0,1-2,1.9,1.9,0,0,0-.78-1.7,8.51,8.51,0,0,0-2.94-.91l-1-.15a7.62,7.62,0,0,1-3.81-1.56,3.77,3.77,0,0,1-1.17-2.91,3.84,3.84,0,0,1,.76-2.37,5,5,0,0,1,2.12-1.59,8,8,0,0,1,3.12-.57,10,10,0,0,1,3.3.54,8.06,8.06,0,0,1,2.67,1.5l-1.14,1.68a6.51,6.51,0,0,0-2.22-1.25,8.2,8.2,0,0,0-2.64-.43,4.69,4.69,0,0,0-2.64.64,2.07,2.07,0,0,0-1,1.82,1.71,1.71,0,0,0,.7,1.51,6.86,6.86,0,0,0,2.54.83l.93.18a8.8,8.8,0,0,1,4.26,1.59,3.93,3.93,0,0,1,1.23,3.12,4.19,4.19,0,0,1-1.65,3.48,7.07,7.07,0,0,1-4.47,1.29,11.57,11.57,0,0,1-3.53-.54A9.25,9.25,0,0,1,2098,325.71Z" transform="translate(-1.87)"/><path class="a" d="M2114.76,332.91v-21.3h2.34v3.06a6,6,0,0,1,2.34-2.57,6.9,6.9,0,0,1,3.57-.88,6.24,6.24,0,0,1,5,2.08,8.71,8.71,0,0,1,1.79,5.84v.66a8.52,8.52,0,0,1-1.85,5.82,6.55,6.55,0,0,1-5.2,2.1,5.84,5.84,0,0,1-5.55-3.06v8.25Zm2.43-13.77v.66a6.39,6.39,0,0,0,1.3,4.32,5.48,5.48,0,0,0,7.53,0,6.39,6.39,0,0,0,1.31-4.32v-.66a6.39,6.39,0,0,0-1.31-4.32,5.48,5.48,0,0,0-7.53,0A6.39,6.39,0,0,0,2117.19,319.14Z" transform="translate(-1.87)"/><path class="a" d="M2133.93,327.33V311.61h2.34v3.06a4.62,4.62,0,0,1,2-2.28,6.37,6.37,0,0,1,3.24-.78h1.38v2.31H2141a4.62,4.62,0,0,0-3.47,1.17,5,5,0,0,0-1.12,3.6v8.64Z" transform="translate(-1.87)"/><path class="a" d="M2147.46,327.33V313.56h-2.16v-1.95h3.57a.93.93,0,0,1,1.05,1.05v14.67Zm.93-18.57a1.65,1.65,0,1,1,0-3.3,1.66,1.66,0,0,1,1.23.45,1.82,1.82,0,0,1,0,2.4A1.66,1.66,0,0,1,2148.39,308.76Z" transform="translate(-1.87)"/><path class="a" d="M2155.2,327.33V311.61h2.37v2.61q1.35-3,5.31-3,5.67,0,5.67,5.91v10.2h-2.46v-10a4.35,4.35,0,0,0-.93-3.08,3.86,3.86,0,0,0-2.91-1,4.5,4.5,0,0,0-3.42,1.23,5.08,5.08,0,0,0-1.17,3.63v9.18Z" transform="translate(-1.87)"/><path class="a" d="M2173.71,327.33V304.77h2.46v13.11h2.4l5.7-6.27h2.85l-6.63,7.35,7.2,8.37h-3l-6.33-7.32h-2.16v7.32Z" transform="translate(-1.87)"/><path class="a" d="M2190.72,323.52V304.77h2.46v18.57a1.75,1.75,0,0,0,2,2h1v2h-1.5a4.09,4.09,0,0,1-2.93-1A3.76,3.76,0,0,1,2190.72,323.52Z" transform="translate(-1.87)"/><path class="a" d="M2198.46,319.8v-.66a8.26,8.26,0,0,1,1.93-5.84,7,7,0,0,1,5.39-2.08,6.49,6.49,0,0,1,5,1.84,7.58,7.58,0,0,1,1.73,5.36v1.86h-11.61a6,6,0,0,0,1.38,4.11,5.23,5.23,0,0,0,3.9,1.32,7,7,0,0,0,2.61-.47,7.82,7.82,0,0,0,2.31-1.48l1.29,1.59a9,9,0,0,1-6.33,2.37Q2198.46,327.72,2198.46,319.8Zm7.29-6.63q-4.62,0-4.86,5.28h9.27Q2210.13,313.17,2205.75,313.17Z" transform="translate(-1.87)"/><path class="a" d="M2215.62,319.8v-.66a8.48,8.48,0,0,1,1.86-5.84,6.59,6.59,0,0,1,5.19-2.08,5.81,5.81,0,0,1,5.55,3v-9.48h2.46v22.56h-2.34v-3a5.85,5.85,0,0,1-2.31,2.53,6.9,6.9,0,0,1-3.57.89,6.31,6.31,0,0,1-5.06-2.09A8.68,8.68,0,0,1,2215.62,319.8Zm2.49-.66v.66a6.39,6.39,0,0,0,1.3,4.32,5.48,5.48,0,0,0,7.53,0,6.39,6.39,0,0,0,1.31-4.32v-.66a6.39,6.39,0,0,0-1.31-4.32,5.5,5.5,0,0,0-7.53,0A6.39,6.39,0,0,0,2218.11,319.14Z" transform="translate(-1.87)"/><path class="a" d="M2245.71,327.33l-5-15.72h2.64l4,13.41,4.05-13.41h2.85l4.11,13.35,3.92-13.35h2.56l-5,15.72h-3l-4-13.14-4,13.14Z" transform="translate(-1.87)"/><path class="a" d="M2269.19,327.33V313.56H2267v-1.95h3.57a.93.93,0,0,1,1.05,1.05v14.67Zm.93-18.57a1.65,1.65,0,1,1,0-3.3,1.66,1.66,0,0,1,1.23.45,1.82,1.82,0,0,1,0,2.4A1.66,1.66,0,0,1,2270.12,308.76Z" transform="translate(-1.87)"/><path class="a" d="M2277.35,322.38v-8.82h-2.73v-1.95h1.8a1,1,0,0,0,1.14-1.11V307h2.25v4.65h4.89v1.95h-4.89v8.55a3.61,3.61,0,0,0,.66,2.49,3.23,3.23,0,0,0,2.37.69h1.86v2h-2.28c-1.88,0-3.19-.37-3.94-1.11A5.29,5.29,0,0,1,2277.35,322.38Z" transform="translate(-1.87)"/><path class="a" d="M2288.6,327.33V304.77h2.46V314q1.38-2.82,5.22-2.82,5.67,0,5.67,5.91v10.2h-2.46v-10a4.35,4.35,0,0,0-.93-3.08,3.86,3.86,0,0,0-2.91-1,4.5,4.5,0,0,0-3.42,1.23,5.08,5.08,0,0,0-1.17,3.63v9.18Z" transform="translate(-1.87)"/><path class="a" d="M2312.45,325.71l1.11-1.77a7.84,7.84,0,0,0,2.42,1.27,8.71,8.71,0,0,0,2.77.47,4.88,4.88,0,0,0,2.85-.72,2.29,2.29,0,0,0,1-2,1.9,1.9,0,0,0-.78-1.7,8.51,8.51,0,0,0-2.94-.91l-1-.15a7.62,7.62,0,0,1-3.81-1.56,3.77,3.77,0,0,1-1.17-2.91,3.85,3.85,0,0,1,.77-2.37,5,5,0,0,1,2.11-1.59,8,8,0,0,1,3.12-.57,10,10,0,0,1,3.3.54,8.06,8.06,0,0,1,2.67,1.5l-1.14,1.68a6.51,6.51,0,0,0-2.22-1.25,8.2,8.2,0,0,0-2.64-.43,4.69,4.69,0,0,0-2.64.64,2.07,2.07,0,0,0-1,1.82,1.72,1.72,0,0,0,.71,1.51,6.8,6.8,0,0,0,2.53.83l.93.18a8.8,8.8,0,0,1,4.26,1.59A3.93,3.93,0,0,1,2325,323a4.19,4.19,0,0,1-1.65,3.48,7.07,7.07,0,0,1-4.47,1.29,11.51,11.51,0,0,1-3.52-.54A9.3,9.3,0,0,1,2312.45,325.71Z" transform="translate(-1.87)"/><path class="a" d="M2328.89,321.81v-10.2h2.46v10a4.37,4.37,0,0,0,.92,3.07,3.75,3.75,0,0,0,2.86,1,4.33,4.33,0,0,0,3.36-1.25,5.16,5.16,0,0,0,1.14-3.61v-9.18h2.46v15.72h-2.37v-2.61q-1.32,3-5.22,3Q2328.89,327.72,2328.89,321.81Z" transform="translate(-1.87)"/><path class="a" d="M2347.13,331.26l1.14-1.83a8.06,8.06,0,0,0,5.34,1.8,5.18,5.18,0,0,0,3.93-1.34,5.82,5.82,0,0,0,1.26-4.12v-1.59a5.85,5.85,0,0,1-2.29,2.31,7,7,0,0,1-3.47.81,6.37,6.37,0,0,1-5-2,8.42,8.42,0,0,1-1.8-5.76v-.42a8.36,8.36,0,0,1,1.86-5.79,6.62,6.62,0,0,1,5.19-2.07,5.79,5.79,0,0,1,5.67,3.27v-2.88h2.34v13.95q0,7.74-7.59,7.74a12,12,0,0,1-3.55-.51A9.3,9.3,0,0,1,2347.13,331.26Zm1.56-12.18v.42a6.13,6.13,0,0,0,1.32,4.23,5.56,5.56,0,0,0,7.52,0,6.05,6.05,0,0,0,1.3-4.18v-.48a6.29,6.29,0,0,0-1.3-4.28,5.53,5.53,0,0,0-7.53,0A6.3,6.3,0,0,0,2348.69,319.08Z" transform="translate(-1.87)"/><path class="a" d="M2370.23,327.57a5.86,5.86,0,0,1-4-1.28,4.36,4.36,0,0,1-1.46-3.46,4.15,4.15,0,0,1,1.68-3.57,8.21,8.21,0,0,1,4.89-1.23h4v-1a3.74,3.74,0,0,0-1-2.85,4.32,4.32,0,0,0-3-.9,5.73,5.73,0,0,0-4.35,2l-1.35-1.47a7.66,7.66,0,0,1,2.69-1.88,8.34,8.34,0,0,1,3.25-.64,6.61,6.61,0,0,1,4.58,1.42,5.37,5.37,0,0,1,1.57,4.19v8.67h1.59v1.83h-2.07q-1.77,0-1.77-1.47v-1.23a4.35,4.35,0,0,1-1.93,2.16A6.54,6.54,0,0,1,2370.23,327.57Zm.6-1.8q4.47,0,4.47-4.74V319.8h-3.9q-4.2,0-4.2,2.91a2.79,2.79,0,0,0,1,2.26A4,4,0,0,0,2370.83,325.77Z" transform="translate(-1.87)"/><path class="a" d="M2382.8,327.33V311.61h2.34v3.06a4.62,4.62,0,0,1,2-2.28,6.37,6.37,0,0,1,3.24-.78h1.38v2.31h-1.89a4.6,4.6,0,0,0-3.46,1.17,5,5,0,0,0-1.13,3.6v8.64Z" transform="translate(-1.87)"/><line class="c" x1="1203.81" y1="46.27" x2="1203.81" y2="372.6"/><line class="c" x1="1775.81" y1="46.27" x2="1775.81" y2="372.6"/><ellipse class="d" cx="892.64" cy="127.44" rx="71.83" ry="22.85"/><ellipse class="d" cx="951.1" cy="111.12" rx="22.85" ry="71.83" transform="translate(545.55 979.44) rotate(-71.73)"/><path class="e" d="M1456.68,103.77c0,25.68,8,46.5-65,46.5s-65-20.82-65-46.5a34.18,34.18,0,0,1,2.22-12.09c7.44-19.82,32.73-34.41,62.78-34.41C1427.58,57.27,1456.68,78.09,1456.68,103.77Z" transform="translate(-1.87)"/><line class="e" x1="1337.81" y1="109.27" x2="1454.81" y2="109.27"/><line class="e" x1="1326.81" y1="125.27" x2="1442.81" y2="125.27"/><ellipse class="d" cx="1389.31" cy="58.27" rx="14.5" ry="11"/><path class="e" d="M1352,67.22s-12.38,13.84,8.71,14c13.4.14,10.54-4.18,24,1,9.24,3.56,23,3,25-4s20,8,29-8" transform="translate(-1.87)"/><ellipse class="d" cx="911.92" cy="89.35" rx="71.83" ry="22.85" transform="translate(-3.65 158.1) rotate(-9.9)"/><ellipse class="d" cx="1987.31" cy="121.77" rx="102.5" ry="35.5"/><ellipse class="d" cx="1926.31" cy="111.27" rx="20.5" ry="20"/><path class="d" d="M1978.68,93.27c-2.68,10.72-9.18,20-20.5,20a20.25,20.25,0,0,1-20.5-20c0-11,10.74-25.74,20.5-20C1966.68,78.27,1981.68,81.27,1978.68,93.27Z" transform="translate(-1.87)"/><path class="d" d="M2058,87.36c3.26,13.38,2.64,28.73-11.82,27.17-11.64-1.27-23.13-.57-27.45-11.15s.23-28.85,11.82-27.17C2040.65,77.68,2055,74.93,2058,87.36Z" transform="translate(-1.87)"/><path class="d" d="M2037.68,95.27c-2.68,10.72-9.18,20-20.5,20a20.25,20.25,0,0,1-20.5-20c0-11,10.74-25.74,20.5-20C2025.68,80.27,2040.68,83.27,2037.68,95.27Z" transform="translate(-1.87)"/><path class="d" d="M2001.51,61.14c6.27,11.74,9.39,26.26-4.52,28.28-11.2,1.62-21.79,5-28.38-3.82s-6.74-27.07,4.51-28.28C1982.93,56.26,1995.68,50.23,2001.51,61.14Z" transform="translate(-1.87)"/><path class="d" d="M2007.51,91.81c7.14,13.36,10.68,29.87-5.14,32.17-12.75,1.85-24.79,5.74-32.29-4.34s-7.67-30.79,5.14-32.17C1986.37,86.26,2000.87,79.4,2007.51,91.81Z" transform="translate(-1.87)"/><path class="d" d="M1957.05,102.46c13.62-2.08,28.86-.13,26,14.14-2.26,11.49-2.57,23-13.48,26.38s-28.73-2.73-26-14.13C1945.9,118.92,1944.4,104.4,1957.05,102.46Z" transform="translate(-1.87)"/><path class="d" d="M2041,115.36c3.26,13.38,2.64,28.73-11.82,27.17-11.64-1.27-23.13-.57-27.45-11.15s.23-28.85,11.82-27.17C2023.65,105.68,2038,102.93,2041,115.36Z" transform="translate(-1.87)"/><ellipse class="d" cx="489.93" cy="16.71" rx="14.25" ry="10.23"/><ellipse class="d" cx="542.61" cy="17.62" rx="14.25" ry="10.23" transform="translate(478.89 556.98) rotate(-85.32)"/><ellipse class="d" cx="518.72" cy="21.07" rx="19.1" ry="18.07"/><path class="d" d="M476.58,50.69c-1.26-1.26-6.74-13.48-10.22-21.42a4.85,4.85,0,0,1,4.44-6.8h85.6a4.86,4.86,0,0,1,4.6,6.39l-7.28,21.83" transform="translate(-1.87)"/><polyline class="d" points="601.91 50.69 460.81 50.69 475.75 150.3 547.13 150.3 558.69 68.29"/><line class="d" x1="482.39" y1="68.95" x2="489.03" y2="118.76"/><circle class="a" cx="493.47" cy="36.58" r="5.81"/><circle class="a" cx="511.73" cy="36.58" r="5.81"/><circle class="a" cx="529.99" cy="36.58" r="5.81"/></svg>