<svg xmlns="http://www.w3.org/2000/svg" viewBox="0 0 2457.88 391.71"><defs><style>.a{fill:#7c6992;}.b,.e{fill:#2e1a47;}.c{fill:#483460;}.d{fill:none;stroke:#2e1a47;stroke-miterlimit:10;stroke-width:2px;}.e{fill-rule:evenodd;}.f{fill:#e61f00;}</style></defs><path class="a" d="M2.5,269.66l3-4.93A15.11,15.11,0,0,0,9.94,267a14.8,14.8,0,0,0,4.93.91,6.93,6.93,0,0,0,4.2-1.1,3.6,3.6,0,0,0,1.47-3,3.4,3.4,0,0,0-.48-1.91,3.49,3.49,0,0,0-1.72-1.21,20.91,20.91,0,0,0-3.47-.93l-2-.35c-3.25-.65-5.64-1.69-7.17-3.15a7.63,7.63,0,0,1-2.29-5.78,8.69,8.69,0,0,1,1.54-5.13A10.16,10.16,0,0,1,9.21,242a16.07,16.07,0,0,1,6.45-1.21A18.61,18.61,0,0,1,22,241.83a14.3,14.3,0,0,1,5.06,3l-3.34,4.67a12.38,12.38,0,0,0-3.79-2.29,11.75,11.75,0,0,0-4.31-.84,7.23,7.23,0,0,0-4.07,1A3.14,3.14,0,0,0,10,250.08a2.66,2.66,0,0,0,1.14,2.31,11.27,11.27,0,0,0,4.09,1.39l2,.35q5.24,1,7.64,3.23a7.92,7.92,0,0,1,2.4,6.1,9,9,0,0,1-3.35,7.39c-2.23,1.82-5.26,2.73-9.11,2.73a20.15,20.15,0,0,1-4.35-.49,22.34,22.34,0,0,1-4.31-1.38A19.85,19.85,0,0,1,2.5,269.66Z"/><path class="a" d="M33.35,265V254.39H29.7V249.6h2.2a2.23,2.23,0,0,0,1.58-.44,2.18,2.18,0,0,0,.44-1.54v-5h5.59v7h6.2v4.79h-6.2v9.82a4,4,0,0,0,.81,2.88,4.12,4.12,0,0,0,2.93.81h2.46v5H41.84q-4.67,0-6.58-1.78C34,269.9,33.35,267.89,33.35,265Z"/><path class="a" d="M48.88,261.74v-1c0-3.67,1-6.53,3.15-8.6s5-3.1,8.69-3.1,6.54,1,8.64,3.1,3.15,4.93,3.15,8.6v1q0,5.46-3.15,8.58c-2.1,2.08-5,3.13-8.64,3.13s-6.6-1.05-8.69-3.13S48.88,265.38,48.88,261.74Zm6.25-1v1q0,6.64,5.59,6.65t5.58-6.65v-1q0-6.65-5.58-6.64T55.13,260.73Z"/><path class="a" d="M75.81,261.74v-1q0-5.55,3.14-8.62c2.1-2.06,5-3.08,8.74-3.08a11.56,11.56,0,0,1,8.75,3.34l-3.38,3.83A7.1,7.1,0,0,0,88,254.09q-5.94,0-5.94,6.64v1q0,6.64,6,6.65a7.59,7.59,0,0,0,5.33-2.2l3.17,4a12.37,12.37,0,0,1-8.94,3.3c-3.72,0-6.63-1-8.71-3.11S75.81,265.41,75.81,261.74Z"/><path class="a" d="M100.49,272.87V239.79h6.16V258h2.47l6.9-8.4h7.09l-9,11,9.64,12.27h-7.53l-7.48-9.59h-2.11v9.59Z"/><path class="a" d="M128.21,272.87V254.39h-2.86V249.6H132a2.07,2.07,0,0,1,2.42,2.42v20.85Zm2.64-26.22a3.6,3.6,0,0,1-2.66-1,3.54,3.54,0,0,1-1-2.62,3.45,3.45,0,0,1,1-2.59,4.13,4.13,0,0,1,5.32,0,3.45,3.45,0,0,1,1,2.59,3.54,3.54,0,0,1-1,2.62A3.58,3.58,0,0,1,130.85,246.65Z"/><path class="a" d="M140.53,272.87V249.6h5.85v3.52c1.29-2.73,3.76-4.09,7.39-4.09q8.5,0,8.5,8.8v15h-6.16v-14.3q0-4.53-4.32-4.53a4.93,4.93,0,0,0-3.78,1.41,5.63,5.63,0,0,0-1.32,4v13.42Z"/><path class="a" d="M167.85,278.73l2.56-4.49a11.2,11.2,0,0,0,3.36,1.71,12.83,12.83,0,0,0,3.94.62q6.33,0,6.34-6.16v-1.54q-2.52,3.61-7.57,3.61-4.71,0-7.22-2.91t-2.51-8.4v-.53q0-5.53,2.64-8.58a9.34,9.34,0,0,1,7.44-3q5.19,0,7.52,4V249.6h5.86v20.11c0,3.9-1.05,6.86-3.13,8.88s-5.15,3-9.19,3A17.33,17.33,0,0,1,167.85,278.73ZM173,260.64v.53q0,6.25,5.55,6.25t5.54-6.21v-.57q0-6.56-5.54-6.55T173,260.64Z"/><path class="a" d="M194.39,270.54l2.5-4.27a12,12,0,0,0,3.5,1.7,13.74,13.74,0,0,0,3.94.59c2.7,0,4-.83,4-2.51a1.88,1.88,0,0,0-.79-1.67,8.71,8.71,0,0,0-3.08-.88l-1.68-.26a11.67,11.67,0,0,1-5.83-2.4,5.87,5.87,0,0,1-1.87-4.55A6.25,6.25,0,0,1,197.8,251a11.52,11.52,0,0,1,7.06-2,17.91,17.91,0,0,1,5.12.74,12.92,12.92,0,0,1,4.29,2.16l-2.5,4.18a11.23,11.23,0,0,0-3.26-1.65,11.87,11.87,0,0,0-3.7-.59c-2.52,0-3.78.74-3.78,2.24a1.68,1.68,0,0,0,.75,1.5,8.09,8.09,0,0,0,2.73.83l1.62.27c2.91.47,5,1.26,6.25,2.39a6.14,6.14,0,0,1,1.89,4.82,6.61,6.61,0,0,1-2.57,5.5,11.3,11.3,0,0,1-7.15,2,20,20,0,0,1-5.61-.77A15.44,15.44,0,0,1,194.39,270.54Z"/><path class="b" d="M4.09,318.87V297.45H6.7v9.33H18.55v-9.33h2.61v21.42H18.55V309H6.7v9.84Z"/><path class="b" d="M26.26,313.35v-10.2h2.46v10a4.4,4.4,0,0,0,.92,3.08,3.75,3.75,0,0,0,2.86,1A4.33,4.33,0,0,0,35.86,316,5.19,5.19,0,0,0,37,312.33v-9.18h2.46v15.72H37.09v-2.61q-1.32,3-5.22,3Q26.26,319.26,26.26,313.35Z"/><path class="b" d="M44.74,318.87V303.15h2.37v2.61q1.35-3,5.31-3,5.67,0,5.67,5.91v10.2H55.63v-10a4.32,4.32,0,0,0-.93-3.07,3.86,3.86,0,0,0-2.91-1,4.5,4.5,0,0,0-3.42,1.23,5.08,5.08,0,0,0-1.17,3.63v9.18Z"/><path class="b" d="M63,322.8,64.15,321a8.06,8.06,0,0,0,5.34,1.8,5.17,5.17,0,0,0,3.93-1.33,5.85,5.85,0,0,0,1.26-4.13v-1.59A5.85,5.85,0,0,1,72.39,318a7,7,0,0,1-3.47.81,6.37,6.37,0,0,1-5-2,8.42,8.42,0,0,1-1.8-5.76v-.42a8.36,8.36,0,0,1,1.86-5.79,6.62,6.62,0,0,1,5.19-2.07A5.79,5.79,0,0,1,74.8,306v-2.88h2.34v14q0,7.74-7.59,7.74a12,12,0,0,1-3.55-.51A9.3,9.3,0,0,1,63,322.8Zm1.56-12.18V311a6.13,6.13,0,0,0,1.32,4.23,5.57,5.57,0,0,0,7.52,0,6.08,6.08,0,0,0,1.3-4.19v-.48a6.27,6.27,0,0,0-1.3-4.27,5.5,5.5,0,0,0-7.53,0A6.27,6.27,0,0,0,64.57,310.62Z"/><path class="b" d="M88.84,318.87V296.31H91.3V306a5.83,5.83,0,0,1,2.31-2.38,7,7,0,0,1,3.48-.83,6.27,6.27,0,0,1,5,2.09,8.68,8.68,0,0,1,1.78,5.83v.66a8.52,8.52,0,0,1-1.84,5.82,6.57,6.57,0,0,1-5.21,2.1,5.79,5.79,0,0,1-5.67-3.3v2.91Zm2.43-8.19v.66a6.39,6.39,0,0,0,1.31,4.32,5.48,5.48,0,0,0,7.53,0,6.39,6.39,0,0,0,1.3-4.32v-.66a6.39,6.39,0,0,0-1.3-4.32,5.48,5.48,0,0,0-7.53,0A6.39,6.39,0,0,0,91.27,310.68Z"/><path class="b" d="M107.8,324.45V322.2h1a5.19,5.19,0,0,0,1.58-.19,2.06,2.06,0,0,0,1-.72,6.38,6.38,0,0,0,.79-1.52l.42-1.08h-.87l-6.15-15.54h2.67L113.38,317l5.19-13.89h2.61l-7,17.58A10.1,10.1,0,0,1,113,323a3.11,3.11,0,0,1-1.53,1.11,8.11,8.11,0,0,1-2.45.3Z"/><path class="b" d="M131.5,313.92V305.1h-2.73v-2h1.8a1,1,0,0,0,1.14-1.11V298.5H134v4.65h4.89v2H134v8.55a3.61,3.61,0,0,0,.66,2.49,3.23,3.23,0,0,0,2.37.69h1.86v2h-2.28c-1.88,0-3.2-.37-3.95-1.11S131.5,315.74,131.5,313.92Z"/><path class="b" d="M142.75,318.87V296.31h2.46v9.27q1.38-2.82,5.22-2.82,5.67,0,5.67,5.91v10.2h-2.46v-10a4.32,4.32,0,0,0-.93-3.07,3.86,3.86,0,0,0-2.91-1,4.5,4.5,0,0,0-3.42,1.23,5.08,5.08,0,0,0-1.17,3.63v9.18Z"/><path class="b" d="M160.09,311.34v-.66a8.24,8.24,0,0,1,1.93-5.83,7,7,0,0,1,5.39-2.09,6.5,6.5,0,0,1,5,1.85,7.55,7.55,0,0,1,1.73,5.35v1.86H162.52a6,6,0,0,0,1.38,4.11,5.23,5.23,0,0,0,3.9,1.32,7,7,0,0,0,2.61-.46,7.87,7.87,0,0,0,2.31-1.49l1.29,1.59a9,9,0,0,1-6.33,2.37Q160.09,319.26,160.09,311.34Zm7.29-6.63q-4.62,0-4.86,5.28h9.27Q171.76,304.71,167.38,304.71Z"/><path class="b" d="M185.2,318.87V305.1h-2.73v-2h2.73v-1.5q0-5.34,5.52-5.34h2.13v2h-2a3.17,3.17,0,0,0-2.4.8,3.59,3.59,0,0,0-.75,2.53v1.5H197a.93.93,0,0,1,1,1.05v14.67h-2.46V305.1h-8v13.77Zm11.37-18.57a1.69,1.69,0,0,1-1.22-.45,1.8,1.8,0,0,1,0-2.4,1.69,1.69,0,0,1,1.22-.45,1.65,1.65,0,1,1,0,3.3Z"/><path class="b" d="M203.35,318.87V303.15h2.34v3.06a4.62,4.62,0,0,1,2-2.28,6.37,6.37,0,0,1,3.24-.78h1.38v2.31H210.4a4.62,4.62,0,0,0-3.47,1.17,5,5,0,0,0-1.12,3.6v8.64Z"/><path class="b" d="M214.54,311.34v-.66a8.24,8.24,0,0,1,1.93-5.83,7,7,0,0,1,5.39-2.09,6.5,6.5,0,0,1,5,1.85,7.55,7.55,0,0,1,1.73,5.35v1.86H217a6,6,0,0,0,1.38,4.11,5.23,5.23,0,0,0,3.9,1.32,7,7,0,0,0,2.61-.46,7.87,7.87,0,0,0,2.31-1.49l1.29,1.59a9,9,0,0,1-6.33,2.37Q214.54,319.26,214.54,311.34Zm7.29-6.63q-4.62,0-4.86,5.28h9.27Q226.21,304.71,221.83,304.71Z"/><path class="b" d="M232.57,324.45v-21.3h2.34v3.06a6,6,0,0,1,2.34-2.56,6.9,6.9,0,0,1,3.57-.89,6.25,6.25,0,0,1,5,2.09,8.69,8.69,0,0,1,1.79,5.83v.66a8.52,8.52,0,0,1-1.85,5.82,6.55,6.55,0,0,1-5.2,2.1A5.84,5.84,0,0,1,235,316.2v8.25ZM235,310.68v.66a6.39,6.39,0,0,0,1.3,4.32,5.48,5.48,0,0,0,7.53,0,6.39,6.39,0,0,0,1.31-4.32v-.66a6.39,6.39,0,0,0-1.31-4.32,5.48,5.48,0,0,0-7.53,0A6.39,6.39,0,0,0,235,310.68Z"/><path class="b" d="M251.59,315.06V296.31h2.46v18.57a1.75,1.75,0,0,0,2,1.95h1v2h-1.5a4.09,4.09,0,0,1-2.93-1A3.76,3.76,0,0,1,251.59,315.06Z"/><path class="b" d="M264.88,319.11a5.88,5.88,0,0,1-4-1.27,4.38,4.38,0,0,1-1.45-3.47,4.15,4.15,0,0,1,1.68-3.57,8.21,8.21,0,0,1,4.89-1.23h4v-1.05a3.74,3.74,0,0,0-1-2.85,4.32,4.32,0,0,0-3-.9,5.73,5.73,0,0,0-4.35,2l-1.35-1.47a7.59,7.59,0,0,1,2.68-1.87,8.39,8.39,0,0,1,3.26-.65,6.59,6.59,0,0,1,4.57,1.43,5.35,5.35,0,0,1,1.58,4.18V317h1.59v1.83h-2.07q-1.77,0-1.77-1.47v-1.23a4.37,4.37,0,0,1-1.94,2.16A6.5,6.5,0,0,1,264.88,319.11Zm.6-1.8q4.47,0,4.47-4.74v-1.23h-3.9q-4.2,0-4.2,2.91a2.8,2.8,0,0,0,.94,2.27A4.07,4.07,0,0,0,265.48,317.31Z"/><path class="b" d="M276.28,311.34v-.66a8.16,8.16,0,0,1,2-5.83,7.21,7.21,0,0,1,5.51-2.09,7.43,7.43,0,0,1,5.73,2.34L288,306.63a5.54,5.54,0,0,0-4.14-1.77,4.78,4.78,0,0,0-3.81,1.49,6.42,6.42,0,0,0-1.29,4.33v.66q0,5.82,5.13,5.82a5.89,5.89,0,0,0,4.32-1.8l1.35,1.59a7.89,7.89,0,0,1-5.82,2.31,7.21,7.21,0,0,1-5.51-2.08A8.19,8.19,0,0,1,276.28,311.34Z"/><path class="b" d="M292,311.34v-.66a8.24,8.24,0,0,1,1.93-5.83,7,7,0,0,1,5.39-2.09,6.5,6.5,0,0,1,5,1.85,7.55,7.55,0,0,1,1.73,5.35v1.86H294.46a6,6,0,0,0,1.38,4.11,5.23,5.23,0,0,0,3.9,1.32,7,7,0,0,0,2.61-.46,7.87,7.87,0,0,0,2.31-1.49l1.29,1.59a9,9,0,0,1-6.33,2.37Q292,319.26,292,311.34Zm7.29-6.63q-4.62,0-4.86,5.28h9.27Q303.7,304.71,299.32,304.71Z"/><path class="b" d="M7.84,355.11a5.85,5.85,0,0,1-4-1.27,4.39,4.39,0,0,1-1.46-3.47,4.15,4.15,0,0,1,1.68-3.57A8.21,8.21,0,0,1,9,345.57h4v-1.05a3.74,3.74,0,0,0-1-2.85,4.32,4.32,0,0,0-3-.9,5.73,5.73,0,0,0-4.35,2l-1.35-1.47a7.63,7.63,0,0,1,2.69-1.87,8.34,8.34,0,0,1,3.25-.65,6.61,6.61,0,0,1,4.58,1.43,5.34,5.34,0,0,1,1.57,4.18V353H16.9v1.83H14.83q-1.77,0-1.77-1.47v-1.23a4.35,4.35,0,0,1-1.93,2.16A6.54,6.54,0,0,1,7.84,355.11Zm.6-1.8q4.47,0,4.47-4.74v-1.23H9q-4.2,0-4.2,2.91a2.81,2.81,0,0,0,1,2.27A4,4,0,0,0,8.44,353.31Z"/><path class="b" d="M20.41,354.87V339.15h2.37v2.61q1.35-3,5.31-3,5.67,0,5.67,5.91v10.2H31.3v-10a4.32,4.32,0,0,0-.93-3.07,3.86,3.86,0,0,0-2.91-1A4.5,4.5,0,0,0,24,342.06a5.08,5.08,0,0,0-1.17,3.63v9.18Z"/><path class="b" d="M37.75,347.34v-.66a8.45,8.45,0,0,1,1.86-5.83,6.6,6.6,0,0,1,5.19-2.09,5.81,5.81,0,0,1,5.55,3v-9.48h2.46v22.56H50.47v-3a5.88,5.88,0,0,1-2.31,2.54,6.9,6.9,0,0,1-3.57.88,6.28,6.28,0,0,1-5.05-2.08A8.71,8.71,0,0,1,37.75,347.34Zm2.49-.66v.66a6.39,6.39,0,0,0,1.31,4.32,4.71,4.71,0,0,0,3.76,1.5,4.73,4.73,0,0,0,3.77-1.5,6.39,6.39,0,0,0,1.3-4.32v-.66a6.39,6.39,0,0,0-1.3-4.32,4.73,4.73,0,0,0-3.77-1.5,4.74,4.74,0,0,0-3.76,1.49A6.37,6.37,0,0,0,40.24,346.68Z"/><path class="b" d="M65.17,354.87V341.1H62.44v-2h2.73v-1.5q0-5.34,5.52-5.34h2.13v2h-2a3.17,3.17,0,0,0-2.4.8,3.59,3.59,0,0,0-.75,2.53v1.5H77A.93.93,0,0,1,78,340.2v14.67H75.58V341.1h-8v13.77ZM76.54,336.3a1.66,1.66,0,0,1-1.21-.45,1.77,1.77,0,0,1,0-2.4,1.66,1.66,0,0,1,1.21-.45,1.65,1.65,0,1,1,0,3.3Z"/><path class="b" d="M83.17,351.06V332.31h2.46v18.57a1.75,1.75,0,0,0,2,1.95h1v2H87.1a4.06,4.06,0,0,1-2.92-1A3.73,3.73,0,0,1,83.17,351.06Z"/><path class="b" d="M91.93,351.06V332.31h2.46v18.57a1.75,1.75,0,0,0,2,1.95h1v2h-1.5a4,4,0,0,1-2.92-1A3.73,3.73,0,0,1,91.93,351.06Z"/><path class="b" d="M99.67,347.34v-.66a8.24,8.24,0,0,1,1.93-5.83,7,7,0,0,1,5.39-2.09,6.5,6.5,0,0,1,5,1.85,7.55,7.55,0,0,1,1.73,5.35v1.86H102.1a6,6,0,0,0,1.38,4.11,5.23,5.23,0,0,0,3.9,1.32,7,7,0,0,0,2.61-.46,7.87,7.87,0,0,0,2.31-1.49l1.29,1.59a9,9,0,0,1-6.33,2.37Q99.67,355.26,99.67,347.34Zm7.29-6.63q-4.62,0-4.86,5.28h9.27Q111.34,340.71,107,340.71Z"/><path class="b" d="M116.83,347.34v-.66a8.45,8.45,0,0,1,1.86-5.83,6.6,6.6,0,0,1,5.19-2.09,5.81,5.81,0,0,1,5.55,3v-9.48h2.46v22.56h-2.34v-3a5.88,5.88,0,0,1-2.31,2.54,6.9,6.9,0,0,1-3.57.88,6.3,6.3,0,0,1-5.06-2.08A8.71,8.71,0,0,1,116.83,347.34Zm2.49-.66v.66a6.39,6.39,0,0,0,1.3,4.32,5.48,5.48,0,0,0,7.53,0,6.39,6.39,0,0,0,1.31-4.32v-.66a6.39,6.39,0,0,0-1.31-4.32,4.71,4.71,0,0,0-3.76-1.5,4.76,4.76,0,0,0-3.77,1.49A6.37,6.37,0,0,0,119.32,346.68Z"/><path class="b" d="M146.92,354.87l-5-15.72h2.64l4,13.41,4.05-13.41h2.85l4.11,13.35,3.93-13.35H166l-5,15.72h-3l-4-13.14-4,13.14Z"/><path class="b" d="M170.41,354.87V341.1h-2.16v-2h3.57a.93.93,0,0,1,1.05,1.05v14.67Zm.93-18.57a1.65,1.65,0,1,1,0-3.3,1.66,1.66,0,0,1,1.23.45,1.82,1.82,0,0,1,0,2.4A1.66,1.66,0,0,1,171.34,336.3Z"/><path class="b" d="M178.57,349.92V341.1h-2.73v-2h1.8a1,1,0,0,0,1.14-1.11V334.5H181v4.65h4.89v2H181v8.55a3.61,3.61,0,0,0,.66,2.49,3.23,3.23,0,0,0,2.37.69h1.86v2h-2.28c-1.88,0-3.2-.37-3.95-1.11S178.57,351.74,178.57,349.92Z"/><path class="b" d="M189.82,354.87V332.31h2.46v9.27q1.38-2.82,5.22-2.82,5.67,0,5.67,5.91v10.2h-2.46v-10a4.32,4.32,0,0,0-.93-3.07,3.86,3.86,0,0,0-2.91-1,4.5,4.5,0,0,0-3.42,1.23,5.08,5.08,0,0,0-1.17,3.63v9.18Z"/><path class="b" d="M214.75,358.8l1.14-1.83a8.06,8.06,0,0,0,5.34,1.8,5.17,5.17,0,0,0,3.93-1.33,5.85,5.85,0,0,0,1.26-4.13v-1.59a5.87,5.87,0,0,1-2.3,2.31,7,7,0,0,1-3.46.81,6.37,6.37,0,0,1-5-2,8.42,8.42,0,0,1-1.8-5.76v-.42a8.36,8.36,0,0,1,1.86-5.79,6.62,6.62,0,0,1,5.19-2.07,5.79,5.79,0,0,1,5.67,3.27v-2.88h2.34v14q0,7.74-7.59,7.74a12.11,12.11,0,0,1-3.56-.51A9.25,9.25,0,0,1,214.75,358.8Zm1.56-12.18V347a6.13,6.13,0,0,0,1.32,4.23,5.56,5.56,0,0,0,7.51,0,6.08,6.08,0,0,0,1.31-4.19v-.48a6.27,6.27,0,0,0-1.31-4.27,5.5,5.5,0,0,0-7.53,0A6.27,6.27,0,0,0,216.31,346.62Z"/><path class="b" d="M234.49,354.87V341.1h-2.16v-2h3.57a.93.93,0,0,1,1,1.05v14.67Zm.93-18.57a1.65,1.65,0,1,1,0-3.3,1.66,1.66,0,0,1,1.23.45,1.82,1.82,0,0,1,0,2.4A1.66,1.66,0,0,1,235.42,336.3Z"/><path class="b" d="M242.65,354.87V341.1h-2.73v-2h2.73v-1.5q0-5.34,5.52-5.34h2.13v2h-2a3.17,3.17,0,0,0-2.4.8,3.59,3.59,0,0,0-.75,2.53v1.5H250v2h-4.89v13.77Z"/><path class="b" d="M254.2,349.92V341.1h-2.73v-2h1.8a1,1,0,0,0,1.14-1.11V334.5h2.25v4.65h4.89v2h-4.89v8.55a3.61,3.61,0,0,0,.66,2.49,3.23,3.23,0,0,0,2.37.69h1.86v2h-2.28c-1.88,0-3.2-.37-3.95-1.11S254.2,351.74,254.2,349.92Z"/><path class="b" d="M264.43,353.25l1.11-1.77a7.8,7.8,0,0,0,2.41,1.28,8.75,8.75,0,0,0,2.78.46,4.88,4.88,0,0,0,2.85-.72,2.29,2.29,0,0,0,1-2,1.89,1.89,0,0,0-.78-1.69,8.47,8.47,0,0,0-2.94-.92l-1-.15a7.62,7.62,0,0,1-3.81-1.56,3.77,3.77,0,0,1-1.17-2.91,3.84,3.84,0,0,1,.76-2.37,5,5,0,0,1,2.12-1.59,8,8,0,0,1,3.12-.57,10,10,0,0,1,3.3.54,8.06,8.06,0,0,1,2.67,1.5l-1.14,1.68a6.49,6.49,0,0,0-2.22-1.24,8.21,8.21,0,0,0-2.64-.44,4.68,4.68,0,0,0-2.64.65,2.06,2.06,0,0,0-1,1.81,1.73,1.73,0,0,0,.7,1.52,6.9,6.9,0,0,0,2.54.82l.93.18a8.8,8.8,0,0,1,4.26,1.59,3.93,3.93,0,0,1,1.23,3.12,4.19,4.19,0,0,1-1.65,3.48,7.07,7.07,0,0,1-4.47,1.29,11.57,11.57,0,0,1-3.53-.54A9.25,9.25,0,0,1,264.43,353.25Z"/><path class="a" d="M498.12,258v-1.59q0-7.38,4-11.5t11.33-4.12a15.24,15.24,0,0,1,11.44,4.49L521,249.6a10,10,0,0,0-7.52-3.13,7.92,7.92,0,0,0-6.32,2.51c-1.45,1.67-2.18,4.14-2.18,7.39V258q0,9.9,8.5,9.9a10.92,10.92,0,0,0,8-3.26l3.7,4.53q-4.36,4.46-11.66,4.45t-11.31-4.09Q498.12,265.4,498.12,258Z"/><path class="a" d="M527.78,261.74v-1c0-3.67,1-6.53,3.14-8.6s5-3.1,8.69-3.1,6.55,1,8.65,3.1,3.14,4.93,3.14,8.6v1q0,5.46-3.14,8.58c-2.1,2.08-5,3.13-8.65,3.13s-6.59-1.05-8.69-3.13S527.78,265.38,527.78,261.74Zm6.24-1v1q0,6.64,5.59,6.65t5.59-6.65v-1q0-6.65-5.59-6.64T534,260.73Z"/><path class="a" d="M554.7,261.74v-1c0-3.67,1-6.53,3.15-8.6s5-3.1,8.69-3.1,6.55,1,8.65,3.1,3.14,4.93,3.14,8.6v1q0,5.46-3.14,8.58c-2.1,2.08-5,3.13-8.65,3.13s-6.59-1.05-8.69-3.13S554.7,265.38,554.7,261.74Zm6.25-1v1q0,6.64,5.59,6.65t5.59-6.65v-1q0-6.65-5.59-6.64T561,260.73Z"/><path class="a" d="M583.08,272.87V239.79h6.16V258h2.47l6.91-8.4h7.08l-9,11,9.64,12.27h-7.52l-7.48-9.59h-2.12v9.59Z"/><path class="a" d="M610.8,272.87V254.39h-2.86V249.6h6.6A2.07,2.07,0,0,1,617,252v20.85Zm2.64-26.22a3.6,3.6,0,0,1-2.66-1,3.54,3.54,0,0,1-1-2.62,3.45,3.45,0,0,1,1-2.59,4.15,4.15,0,0,1,5.33,0,3.45,3.45,0,0,1,1,2.59,3.54,3.54,0,0,1-1,2.62A3.61,3.61,0,0,1,613.44,246.65Z"/><path class="a" d="M621.67,261.7v-1c0-3.67,1-6.53,3-8.6s4.81-3.1,8.36-3.1q5.05,0,7.81,2.77t2.75,7.87v3.39H627.7a6.13,6.13,0,0,0,1.78,4.2,6.61,6.61,0,0,0,4.51,1.35,10.22,10.22,0,0,0,3.39-.53,12.45,12.45,0,0,0,3.3-1.89l2.86,3.82a15,15,0,0,1-9.9,3.44q-5.85,0-8.91-3T621.67,261.7Zm11.31-8q-4.85,0-5.28,5.41H638a6.3,6.3,0,0,0-1.36-4.09A4.71,4.71,0,0,0,633,253.65Z"/><path class="a" d="M646.75,270.54l2.51-4.27a11.74,11.74,0,0,0,3.5,1.7,13.62,13.62,0,0,0,3.93.59c2.7,0,4-.83,4-2.51a1.86,1.86,0,0,0-.79-1.67,8.64,8.64,0,0,0-3.08-.88l-1.67-.26a11.67,11.67,0,0,1-5.83-2.4,5.83,5.83,0,0,1-1.87-4.55,6.27,6.27,0,0,1,2.66-5.28,11.56,11.56,0,0,1,7.06-2,18,18,0,0,1,5.13.74,12.92,12.92,0,0,1,4.29,2.16l-2.51,4.18a11.11,11.11,0,0,0-3.26-1.65,11.86,11.86,0,0,0-3.69-.59c-2.52,0-3.79.74-3.79,2.24a1.68,1.68,0,0,0,.75,1.5,8.09,8.09,0,0,0,2.73.83l1.63.27c2.9.47,5,1.26,6.25,2.39a6.14,6.14,0,0,1,1.89,4.82,6.61,6.61,0,0,1-2.58,5.5,11.26,11.26,0,0,1-7.15,2,20,20,0,0,1-5.61-.77A15.56,15.56,0,0,1,646.75,270.54Z"/><path class="b" d="M499.09,317.67V297.45h7.8a11.15,11.15,0,0,1,5.39,1.23,8.41,8.41,0,0,1,3.48,3.51,11.46,11.46,0,0,1,1.21,5.46v1a11.51,11.51,0,0,1-1.21,5.45,8.38,8.38,0,0,1-3.48,3.52,11.15,11.15,0,0,1-5.39,1.23h-6.6A1.06,1.06,0,0,1,499.09,317.67Zm2.61-1h5.19a7,7,0,0,0,5.43-2.11,8.34,8.34,0,0,0,1.95-5.87v-1a8.31,8.31,0,0,0-1.95-5.86,7,7,0,0,0-5.43-2.12H501.7Z"/><path class="b" d="M520.06,311.34v-.66a8.24,8.24,0,0,1,1.94-5.83,7,7,0,0,1,5.38-2.09,6.52,6.52,0,0,1,5,1.85A7.55,7.55,0,0,1,534.1,310v1.86H522.49a6,6,0,0,0,1.38,4.11,5.23,5.23,0,0,0,3.9,1.32,7,7,0,0,0,2.61-.46,7.87,7.87,0,0,0,2.31-1.49l1.29,1.59a9,9,0,0,1-6.33,2.37Q520.06,319.26,520.06,311.34Zm7.29-6.63q-4.62,0-4.86,5.28h9.27Q531.73,304.71,527.35,304.71Z"/><path class="b" d="M537.22,311.34v-.66a8.16,8.16,0,0,1,2-5.83,7.19,7.19,0,0,1,5.5-2.09,7.43,7.43,0,0,1,5.73,2.34L549,306.63a5.54,5.54,0,0,0-4.14-1.77,4.78,4.78,0,0,0-3.81,1.49,6.42,6.42,0,0,0-1.29,4.33v.66q0,5.82,5.13,5.82a5.89,5.89,0,0,0,4.32-1.8l1.35,1.59a7.89,7.89,0,0,1-5.82,2.31,7.18,7.18,0,0,1-5.5-2.08A8.19,8.19,0,0,1,537.22,311.34Z"/><path class="b" d="M553,311.34v-.66a8.07,8.07,0,0,1,2-5.8,8.32,8.32,0,0,1,11.1,0,8.07,8.07,0,0,1,2,5.8v.66a8.07,8.07,0,0,1-2,5.82,8.38,8.38,0,0,1-11.1,0A8.07,8.07,0,0,1,553,311.34Zm2.49-.66v.66a6.39,6.39,0,0,0,1.31,4.32,5.48,5.48,0,0,0,7.53,0,6.39,6.39,0,0,0,1.3-4.32v-.66a6.39,6.39,0,0,0-1.3-4.32,5.48,5.48,0,0,0-7.53,0A6.39,6.39,0,0,0,555.46,310.68Z"/><path class="b" d="M572.23,318.87V303.15h2.34v3.06a4.62,4.62,0,0,1,2-2.28,6.37,6.37,0,0,1,3.24-.78h1.38v2.31h-1.89a4.6,4.6,0,0,0-3.46,1.17,5,5,0,0,0-1.13,3.6v8.64Z"/><path class="b" d="M588.52,319.11a5.85,5.85,0,0,1-4-1.27,4.39,4.39,0,0,1-1.46-3.47,4.15,4.15,0,0,1,1.68-3.57,8.21,8.21,0,0,1,4.89-1.23h4v-1.05a3.74,3.74,0,0,0-1-2.85,4.32,4.32,0,0,0-3-.9,5.73,5.73,0,0,0-4.35,2l-1.35-1.47a7.63,7.63,0,0,1,2.69-1.87,8.34,8.34,0,0,1,3.25-.65,6.61,6.61,0,0,1,4.58,1.43,5.34,5.34,0,0,1,1.57,4.18V317h1.59v1.83h-2.07q-1.77,0-1.77-1.47v-1.23a4.35,4.35,0,0,1-1.93,2.16A6.54,6.54,0,0,1,588.52,319.11Zm.6-1.8q4.47,0,4.47-4.74v-1.23h-3.9q-4.2,0-4.2,2.91a2.81,2.81,0,0,0,1,2.27A4,4,0,0,0,589.12,317.31Z"/><path class="b" d="M601.81,313.92V305.1h-2.73v-2h1.8A1,1,0,0,0,602,302V298.5h2.25v4.65h4.89v2h-4.89v8.55a3.61,3.61,0,0,0,.66,2.49,3.23,3.23,0,0,0,2.37.69h1.86v2h-2.28c-1.88,0-3.19-.37-3.94-1.11A5.29,5.29,0,0,1,601.81,313.92Z"/><path class="b" d="M611.89,311.34v-.66a8.2,8.2,0,0,1,1.94-5.83,7,7,0,0,1,5.38-2.09,6.5,6.5,0,0,1,5,1.85,7.55,7.55,0,0,1,1.73,5.35v1.86H614.32a6,6,0,0,0,1.38,4.11,5.23,5.23,0,0,0,3.9,1.32,7,7,0,0,0,2.61-.46,7.87,7.87,0,0,0,2.31-1.49l1.29,1.59a9,9,0,0,1-6.33,2.37Q611.89,319.26,611.89,311.34Zm7.29-6.63q-4.62,0-4.86,5.28h9.27Q623.56,304.71,619.18,304.71Z"/><path class="b" d="M629.05,311.34v-.66a8.45,8.45,0,0,1,1.86-5.83,6.6,6.6,0,0,1,5.19-2.09,5.81,5.81,0,0,1,5.55,3v-9.48h2.46v22.56h-2.34v-3a5.88,5.88,0,0,1-2.31,2.54,6.9,6.9,0,0,1-3.57.88,6.3,6.3,0,0,1-5.06-2.08A8.71,8.71,0,0,1,629.05,311.34Zm2.49-.66v.66a6.39,6.39,0,0,0,1.3,4.32,5.48,5.48,0,0,0,7.53,0,6.39,6.39,0,0,0,1.31-4.32v-.66a6.39,6.39,0,0,0-1.31-4.32,4.71,4.71,0,0,0-3.76-1.5,4.76,4.76,0,0,0-3.77,1.49A6.37,6.37,0,0,0,631.54,310.68Z"/><path class="b" d="M660,319.11a5.88,5.88,0,0,1-4-1.27,4.38,4.38,0,0,1-1.45-3.47,4.15,4.15,0,0,1,1.68-3.57,8.21,8.21,0,0,1,4.89-1.23h4v-1.05a3.74,3.74,0,0,0-1-2.85,4.32,4.32,0,0,0-3-.9,5.73,5.73,0,0,0-4.35,2l-1.35-1.47a7.59,7.59,0,0,1,2.68-1.87,8.39,8.39,0,0,1,3.26-.65,6.59,6.59,0,0,1,4.57,1.43,5.35,5.35,0,0,1,1.58,4.18V317H669v1.83H667q-1.77,0-1.77-1.47v-1.23a4.37,4.37,0,0,1-1.94,2.16A6.5,6.5,0,0,1,660,319.11Zm.6-1.8q4.47,0,4.47-4.74v-1.23h-3.9q-4.2,0-4.2,2.91a2.8,2.8,0,0,0,.94,2.27A4.07,4.07,0,0,0,660.58,317.31Z"/><path class="b" d="M672.55,318.87V303.15h2.37v2.61q1.35-3,5.31-3,5.67,0,5.67,5.91v10.2h-2.46v-10a4.32,4.32,0,0,0-.93-3.07,3.86,3.86,0,0,0-2.91-1,4.5,4.5,0,0,0-3.42,1.23,5.08,5.08,0,0,0-1.17,3.63v9.18Z"/><path class="b" d="M689.89,311.34v-.66a8.45,8.45,0,0,1,1.86-5.83,6.6,6.6,0,0,1,5.19-2.09,5.81,5.81,0,0,1,5.55,3v-9.48H705v22.56h-2.34v-3a5.88,5.88,0,0,1-2.31,2.54,6.9,6.9,0,0,1-3.57.88,6.3,6.3,0,0,1-5.06-2.08A8.71,8.71,0,0,1,689.89,311.34Zm2.49-.66v.66a6.39,6.39,0,0,0,1.3,4.32,5.48,5.48,0,0,0,7.53,0,6.39,6.39,0,0,0,1.31-4.32v-.66a6.39,6.39,0,0,0-1.31-4.32,4.71,4.71,0,0,0-3.76-1.5,4.76,4.76,0,0,0-3.77,1.49A6.37,6.37,0,0,0,692.38,310.68Z"/><path class="b" d="M498.76,351.06V332.31h2.46v18.57a1.75,1.75,0,0,0,2,1.95h1v2h-1.5a4.06,4.06,0,0,1-2.92-1A3.76,3.76,0,0,1,498.76,351.06Z"/><path class="b" d="M506.5,347.34v-.66a8.24,8.24,0,0,1,1.94-5.83,7,7,0,0,1,5.38-2.09,6.52,6.52,0,0,1,5,1.85,7.55,7.55,0,0,1,1.72,5.35v1.86H508.93a6,6,0,0,0,1.38,4.11,5.23,5.23,0,0,0,3.9,1.32,7,7,0,0,0,2.61-.46,7.87,7.87,0,0,0,2.31-1.49l1.29,1.59a9,9,0,0,1-6.33,2.37Q506.5,355.26,506.5,347.34Zm7.29-6.63q-4.62,0-4.86,5.28h9.27Q518.17,340.71,513.79,340.71Z"/><path class="b" d="M525.67,354.87V341.1h-2.73v-2h2.73v-1.5q0-5.34,5.52-5.34h2.13v2h-2a3.17,3.17,0,0,0-2.4.8,3.59,3.59,0,0,0-.75,2.53v1.5H533v2h-4.89v13.77Z"/><path class="b" d="M537.22,349.92V341.1h-2.73v-2h1.8a1,1,0,0,0,1.14-1.11V334.5h2.25v4.65h4.89v2h-4.89v8.55a3.61,3.61,0,0,0,.66,2.49,3.23,3.23,0,0,0,2.37.69h1.86v2h-2.28c-1.88,0-3.19-.37-3.94-1.11A5.29,5.29,0,0,1,537.22,349.92Z"/><path class="b" d="M555.55,354.87V341.1h-2.73v-2h2.73v-1.5q0-5.34,5.52-5.34h2.13v2h-2a3.17,3.17,0,0,0-2.4.8,3.59,3.59,0,0,0-.75,2.53v1.5h4.89v2H558v13.77Z"/><path class="b" d="M564.91,347.34v-.66a8.07,8.07,0,0,1,2-5.8,8.32,8.32,0,0,1,11.1,0,8.07,8.07,0,0,1,2,5.8v.66a8.07,8.07,0,0,1-2,5.82,8.38,8.38,0,0,1-11.1,0A8.07,8.07,0,0,1,564.91,347.34Zm2.49-.66v.66a6.39,6.39,0,0,0,1.31,4.32,5.48,5.48,0,0,0,7.53,0,6.39,6.39,0,0,0,1.3-4.32v-.66a6.39,6.39,0,0,0-1.3-4.32,5.48,5.48,0,0,0-7.53,0A6.39,6.39,0,0,0,567.4,346.68Z"/><path class="b" d="M584.17,354.87V339.15h2.34v3.06a4.62,4.62,0,0,1,2-2.28,6.37,6.37,0,0,1,3.24-.78h1.38v2.31h-1.89a4.6,4.6,0,0,0-3.46,1.17,5,5,0,0,0-1.13,3.6v8.64Z"/><path class="b" d="M601.84,352.59l1.35-1.95a9.18,9.18,0,0,0,3,1.77,10.16,10.16,0,0,0,3.51.66,6.11,6.11,0,0,0,3.84-1.09,3.55,3.55,0,0,0,1.41-3,3.46,3.46,0,0,0-.45-1.86A3.33,3.33,0,0,0,613,346a16.11,16.11,0,0,0-3.1-.87l-1.14-.24a10.08,10.08,0,0,1-4.83-2.08,4.83,4.83,0,0,1-1.5-3.71,5.35,5.35,0,0,1,1-3.16,6.45,6.45,0,0,1,2.67-2.15,9.45,9.45,0,0,1,4-.78,11.41,11.41,0,0,1,4.09.74,9.42,9.42,0,0,1,3.29,2.05l-1.44,1.86a7.81,7.81,0,0,0-2.72-1.75,8.85,8.85,0,0,0-3.25-.62,5.89,5.89,0,0,0-3.62,1A3.21,3.21,0,0,0,605,339a2.64,2.64,0,0,0,1,2.22,9,9,0,0,0,3.53,1.29l1.14.24A11.52,11.52,0,0,1,616,345a5.08,5.08,0,0,1,1.62,4,6.06,6.06,0,0,1-1,3.41,6.13,6.13,0,0,1-2.73,2.23,10.36,10.36,0,0,1-4.2.78,12.79,12.79,0,0,1-4.22-.73A11.75,11.75,0,0,1,601.84,352.59Z"/><path class="b" d="M626.5,355.11a5.88,5.88,0,0,1-4-1.27,4.38,4.38,0,0,1-1.45-3.47,4.15,4.15,0,0,1,1.68-3.57,8.21,8.21,0,0,1,4.89-1.23h4v-1.05a3.74,3.74,0,0,0-1-2.85,4.32,4.32,0,0,0-3-.9,5.73,5.73,0,0,0-4.35,2l-1.35-1.47a7.59,7.59,0,0,1,2.68-1.87,8.39,8.39,0,0,1,3.26-.65,6.59,6.59,0,0,1,4.57,1.43,5.35,5.35,0,0,1,1.58,4.18V353h1.59v1.83h-2.07q-1.77,0-1.77-1.47v-1.23a4.37,4.37,0,0,1-1.94,2.16A6.5,6.5,0,0,1,626.5,355.11Zm.6-1.8q4.47,0,4.47-4.74v-1.23h-3.9q-4.2,0-4.2,2.91a2.8,2.8,0,0,0,.94,2.27A4.07,4.07,0,0,0,627.1,353.31Z"/><path class="b" d="M639.07,354.87V339.15h2.37v2.61q1.35-3,5.31-3,5.67,0,5.67,5.91v10.2H650v-10a4.32,4.32,0,0,0-.93-3.07,3.86,3.86,0,0,0-2.91-1,4.5,4.5,0,0,0-3.42,1.23,5.08,5.08,0,0,0-1.17,3.63v9.18Z"/><path class="b" d="M658,349.92V341.1h-2.73v-2h1.8a1,1,0,0,0,1.14-1.11V334.5h2.25v4.65h4.89v2h-4.89v8.55a3.61,3.61,0,0,0,.66,2.49,3.23,3.23,0,0,0,2.37.69h1.86v2h-2.28c-1.88,0-3.2-.37-4-1.11S658,351.74,658,349.92Z"/><path class="b" d="M673.75,355.11a5.88,5.88,0,0,1-4-1.27,4.38,4.38,0,0,1-1.45-3.47A4.15,4.15,0,0,1,670,346.8a8.21,8.21,0,0,1,4.89-1.23h4v-1.05a3.74,3.74,0,0,0-1-2.85,4.32,4.32,0,0,0-3-.9,5.73,5.73,0,0,0-4.35,2l-1.35-1.47a7.59,7.59,0,0,1,2.68-1.87,8.39,8.39,0,0,1,3.26-.65,6.59,6.59,0,0,1,4.57,1.43,5.35,5.35,0,0,1,1.58,4.18V353h1.59v1.83h-2.07q-1.77,0-1.77-1.47v-1.23a4.37,4.37,0,0,1-1.94,2.16A6.5,6.5,0,0,1,673.75,355.11Zm.6-1.8q4.47,0,4.47-4.74v-1.23h-3.9q-4.2,0-4.2,2.91a2.8,2.8,0,0,0,.94,2.27A4.07,4.07,0,0,0,674.35,353.31Z"/><path class="a" d="M920.57,272.87V241.46h12.67q5.6,0,8.74,2.59a8.84,8.84,0,0,1,3.14,7.22v.88a8.57,8.57,0,0,1-1.73,5.37,9.78,9.78,0,0,1-4.91,3.25l3,4.71a4.23,4.23,0,0,0,1.45,1.45,4.08,4.08,0,0,0,1.94.4h1v5.54h-2.24a8.57,8.57,0,0,1-4.09-.85,9.13,9.13,0,0,1-3-2.89L931.92,262h-4.79v10.91Zm6.56-16.36h6a6.11,6.11,0,0,0,4-1.15,4,4,0,0,0,1.39-3.25v-.8a4,4,0,0,0-1.39-3.27,6,6,0,0,0-4-1.17h-6Z"/><path class="a" d="M948.91,261.7v-1c0-3.67,1-6.53,3-8.6s4.81-3.1,8.36-3.1q5.07,0,7.81,2.77c1.84,1.85,2.75,4.47,2.75,7.87v3.39H954.94a6.09,6.09,0,0,0,1.78,4.2,6.59,6.59,0,0,0,4.51,1.35,10.22,10.22,0,0,0,3.39-.53,12.76,12.76,0,0,0,3.3-1.89l2.86,3.82a15,15,0,0,1-9.9,3.44q-5.86,0-8.91-3T948.91,261.7Zm11.31-8q-4.85,0-5.28,5.41h10.25a6.25,6.25,0,0,0-1.37-4.09A4.68,4.68,0,0,0,960.22,253.65Z"/><path class="a" d="M976.89,272.87V254.39H974V249.6h6.6a2.07,2.07,0,0,1,2.42,2.42v20.85Zm2.64-26.22a3.6,3.6,0,0,1-2.66-1,3.54,3.54,0,0,1-1-2.62,3.45,3.45,0,0,1,1-2.59,4.13,4.13,0,0,1,5.32,0,3.45,3.45,0,0,1,1,2.59,3.54,3.54,0,0,1-1,2.62A3.58,3.58,0,0,1,979.53,246.65Z"/><path class="a" d="M989.21,272.87V249.6h5.85v3.52q1.94-4.1,7.4-4.09,8.49,0,8.49,8.8v15h-6.16v-14.3q0-4.53-4.31-4.53a4.93,4.93,0,0,0-3.79,1.41,5.63,5.63,0,0,0-1.32,4v13.42Z"/><path class="a" d="M1015.44,261.74v-1c0-3.72.88-6.61,2.64-8.65a9.3,9.3,0,0,1,7.43-3.05c3.23,0,5.63,1.15,7.22,3.47V239.79h6.16v33.08H1033v-3.65q-2.47,4.23-7.88,4.23a8.89,8.89,0,0,1-7.22-3Q1015.44,267.46,1015.44,261.74Zm6.24-1v1q0,6.64,5.55,6.65t5.54-6.65v-1q0-6.65-5.54-6.64T1021.68,260.73Z"/><path class="a" d="M1043.6,261.7v-1c0-3.67,1-6.53,3-8.6s4.81-3.1,8.36-3.1c3.37,0,6,.92,7.81,2.77s2.75,4.47,2.75,7.87v3.39h-15.93a6.09,6.09,0,0,0,1.79,4.2,6.59,6.59,0,0,0,4.51,1.35,10.12,10.12,0,0,0,3.38-.53,12.45,12.45,0,0,0,3.3-1.89l2.86,3.82a15,15,0,0,1-9.9,3.44q-5.85,0-8.91-3C1044.61,268.42,1043.6,265.51,1043.6,261.7Zm11.3-8q-4.83,0-5.28,5.41h10.26a6.3,6.3,0,0,0-1.37-4.09A4.69,4.69,0,0,0,1054.9,253.65Z"/><path class="a" d="M1069.11,261.7v-1c0-3.67,1-6.53,3-8.6s4.81-3.1,8.36-3.1c3.37,0,6,.92,7.81,2.77s2.75,4.47,2.75,7.87v3.39h-15.93a6.13,6.13,0,0,0,1.78,4.2,6.62,6.62,0,0,0,4.51,1.35,10.14,10.14,0,0,0,3.39-.53,12.45,12.45,0,0,0,3.3-1.89L1091,270a15,15,0,0,1-9.9,3.44q-5.85,0-8.91-3T1069.11,261.7Zm11.31-8q-4.83,0-5.28,5.41h10.25A6.25,6.25,0,0,0,1084,255,4.69,4.69,0,0,0,1080.42,253.65Z"/><path class="a" d="M1095.65,272.87V249.6h5.85v4.09q1.93-4.09,7.39-4.09h1.67v5.59h-3.47q-5.28,0-5.28,5.28v12.4Z"/><path class="b" d="M927.33,141.61l9-12.75a49.06,49.06,0,0,0,16.4,9.4,59,59,0,0,0,19.74,3.35q21.72,0,32.91-14.53t11.17-42.93V74.33a41.43,41.43,0,0,1-17.23,18.8q-11.4,6.48-27.06,6.48-14.84,0-26.22-6.06a44.37,44.37,0,0,1-17.76-16.82Q921.9,66,921.9,51.56V48.84q0-14.42,6.89-25.17A46.07,46.07,0,0,1,948,7Q960.34,1,976.85,1q28,0,42.51,17.86t14.52,52.76V82.69q0,35.73-16.08,54.95t-46,19.22a71.88,71.88,0,0,1-24.23-4.08A68,68,0,0,1,927.33,141.61Zm12.12-93.18V50.1q0,16.29,9.92,25.69t27.06,9.41A41.89,41.89,0,0,0,995.55,81a31.42,31.42,0,0,0,17.65-29V50.31q0-15.47-10.13-25t-26.43-9.51q-16.92,0-27.06,8.88T939.45,48.43Z"/><path class="b" d="M1467,28.32l.11-24.27,9.36,0a13.36,13.36,0,0,1,6.45,1.5,10,10,0,0,1,4.16,4.23,13.81,13.81,0,0,1,1.43,6.56v1.22a13.77,13.77,0,0,1-1.48,6.53,10,10,0,0,1-4.2,4.21,13.3,13.3,0,0,1-6.47,1.45l-7.92,0A1.27,1.27,0,0,1,1467,28.32Zm3.14-1.21,6.23,0a8.43,8.43,0,0,0,6.52-2.51,10,10,0,0,0,2.37-7V16.37a10,10,0,0,0-2.31-7,8.4,8.4,0,0,0-6.5-2.57l-6.23,0Z"/><path class="b" d="M1498.65,30.18a7,7,0,0,1-4.8-1.55,5.22,5.22,0,0,1-1.73-4.16,5,5,0,0,1,2-4.28,9.93,9.93,0,0,1,5.88-1.45l4.75,0V17.5a4.52,4.52,0,0,0-1.14-3.42A5.18,5.18,0,0,0,1500,13a6.86,6.86,0,0,0-5.23,2.36l-1.62-1.78a9.18,9.18,0,0,1,3.24-2.23,10.13,10.13,0,0,1,3.91-.76,7.9,7.9,0,0,1,5.48,1.74,6.43,6.43,0,0,1,1.87,5l-.05,10.4h1.91v2.19H1507c-1.42,0-2.13-.59-2.12-1.77V26.68a5.25,5.25,0,0,1-2.34,2.59A7.76,7.76,0,0,1,1498.65,30.18Zm.73-2.15c3.57,0,5.37-1.87,5.38-5.67V20.89l-4.68,0q-5,0-5,3.47a3.32,3.32,0,0,0,1.12,2.72A4.87,4.87,0,0,0,1499.38,28Z"/><path class="b" d="M1512.16,28l1.34-2.12a9.18,9.18,0,0,0,2.89,1.55,10.79,10.79,0,0,0,3.33.57,5.92,5.92,0,0,0,3.42-.85,2.73,2.73,0,0,0,1.23-2.37,2.26,2.26,0,0,0-.92-2,10.36,10.36,0,0,0-3.53-1.11l-1.15-.19a9.07,9.07,0,0,1-4.56-1.89,4.52,4.52,0,0,1-1.39-3.5,4.57,4.57,0,0,1,.93-2.84,6,6,0,0,1,2.55-1.89,9.32,9.32,0,0,1,3.74-.67,12.1,12.1,0,0,1,4,.66,9.8,9.8,0,0,1,3.2,1.82l-1.38,2a7.79,7.79,0,0,0-2.66-1.51,9.75,9.75,0,0,0-3.16-.53,5.51,5.51,0,0,0-3.17.76,2.46,2.46,0,0,0-1.17,2.17,2.08,2.08,0,0,0,.84,1.82,8.21,8.21,0,0,0,3,1l1.11.22a10.55,10.55,0,0,1,5.11,1.94,4.68,4.68,0,0,1,1.46,3.75,5,5,0,0,1-2,4.16,8.48,8.48,0,0,1-5.37,1.53,13.92,13.92,0,0,1-4.23-.67A11.07,11.07,0,0,1,1512.16,28Z"/><path class="b" d="M1532.31,30,1532.42,3h3l-.05,11.13q1.67-3.37,6.28-3.36,6.8,0,6.77,7.12l-.05,12.24h-3l.06-12a5.22,5.22,0,0,0-1.1-3.69,4.67,4.67,0,0,0-3.49-1.19,5.43,5.43,0,0,0-4.11,1.46,6.06,6.06,0,0,0-1.42,4.35l0,11Z"/><path class="b" d="M1553.15,21.1v-.79a9.86,9.86,0,0,1,2.35-7,8.35,8.35,0,0,1,6.47-2.48,7.83,7.83,0,0,1,6,2.24q2.05,2.22,2,6.44v2.23l-13.93-.06a7.16,7.16,0,0,0,1.63,4.94,6.29,6.29,0,0,0,4.67,1.6,8.28,8.28,0,0,0,3.14-.54,9.53,9.53,0,0,0,2.78-1.77l1.54,1.91a10.77,10.77,0,0,1-7.61,2.81Q1553.12,30.61,1553.15,21.1Zm8.79-7.92q-5.55,0-5.86,6.31l11.12.05Q1567.19,13.21,1561.94,13.18Z"/><path class="b" d="M1574.75,30.23l.08-18.86h2.81l0,3.67a5.56,5.56,0,0,1,2.39-2.73,7.69,7.69,0,0,1,3.89-.91h1.66v2.77h-2.27a5.56,5.56,0,0,0-4.16,1.39,6,6,0,0,0-1.37,4.31l0,10.37Z"/><path class="b" d="M1466.93,382.21V358h9.36a13.4,13.4,0,0,1,6.46,1.47,10.13,10.13,0,0,1,4.17,4.21,13.7,13.7,0,0,1,1.46,6.56v1.22a13.66,13.66,0,0,1-1.46,6.53,10,10,0,0,1-4.17,4.23,13.29,13.29,0,0,1-6.46,1.48h-7.92A1.27,1.27,0,0,1,1466.93,382.21Zm3.13-1.22h6.23a8.42,8.42,0,0,0,6.51-2.54,10,10,0,0,0,2.34-7v-1.22a10,10,0,0,0-2.34-7,8.42,8.42,0,0,0-6.51-2.54h-6.23Z"/><path class="b" d="M1498.57,383.94a7.07,7.07,0,0,1-4.81-1.53,5.26,5.26,0,0,1-1.74-4.16,5,5,0,0,1,2-4.28,9.82,9.82,0,0,1,5.87-1.48h4.75v-1.26a4.48,4.48,0,0,0-1.15-3.42,5.18,5.18,0,0,0-3.63-1.08,6.85,6.85,0,0,0-5.22,2.38l-1.62-1.77a9.19,9.19,0,0,1,3.22-2.25,10.12,10.12,0,0,1,3.9-.77,7.92,7.92,0,0,1,5.49,1.71,6.42,6.42,0,0,1,1.89,5v10.4h1.91v2.2H1507c-1.42,0-2.13-.59-2.13-1.76v-1.48a5.21,5.21,0,0,1-2.32,2.59A7.74,7.74,0,0,1,1498.57,383.94Zm.72-2.16c3.58,0,5.36-1.9,5.36-5.69v-1.48H1500q-5,0-5,3.5a3.33,3.33,0,0,0,1.14,2.71A4.84,4.84,0,0,0,1499.29,381.78Z"/><path class="b" d="M1513.65,383.65V364.79h2.85v3.13q1.62-3.6,6.37-3.6,6.81,0,6.8,7.09v12.24h-3v-12a5.22,5.22,0,0,0-1.11-3.69,4.65,4.65,0,0,0-3.5-1.17,5.38,5.38,0,0,0-4.1,1.48,6.05,6.05,0,0,0-1.4,4.35v11Z"/><path class="b" d="M1534.46,374.61v-.79a9.82,9.82,0,0,1,2.36-7,8.62,8.62,0,0,1,6.61-2.5,8.88,8.88,0,0,1,6.87,2.81l-1.76,1.83a6.69,6.69,0,0,0-5-2.12,5.71,5.71,0,0,0-4.57,1.78,7.73,7.73,0,0,0-1.55,5.2v.79q0,7,6.16,7a7.07,7.07,0,0,0,5.18-2.16l1.62,1.9a9.47,9.47,0,0,1-7,2.78,8.66,8.66,0,0,1-6.61-2.5A9.84,9.84,0,0,1,1534.46,374.61Z"/><path class="b" d="M1553.36,374.61v-.79a9.94,9.94,0,0,1,2.32-7,8.39,8.39,0,0,1,6.47-2.5,7.83,7.83,0,0,1,6,2.21q2.07,2.22,2.07,6.43v2.23h-13.93a7.16,7.16,0,0,0,1.65,4.93,6.28,6.28,0,0,0,4.68,1.59,8.48,8.48,0,0,0,3.14-.56,9.53,9.53,0,0,0,2.77-1.78l1.55,1.9a10.82,10.82,0,0,1-7.6,2.85Q1553.37,384.12,1553.36,374.61Zm8.75-7.95q-5.55,0-5.83,6.33h11.12C1567.38,368.77,1565.61,366.66,1562.11,366.66Z"/><path class="b" d="M1575,383.65V364.79h2.81v3.67a5.54,5.54,0,0,1,2.37-2.74,7.7,7.7,0,0,1,3.89-.93h1.66v2.77h-2.27a5.56,5.56,0,0,0-4.16,1.4,6,6,0,0,0-1.35,4.32v10.37Z"/><path class="b" d="M1684.75,384.19l-10.22-25.7h3.38l8.75,22.6,8.64-22.6h3.28l-10.16,25.7Z"/><path class="b" d="M1702.72,384.19V367.67h-2.6v-2.34h4.29a1.11,1.11,0,0,1,1.26,1.26v17.6Zm1.11-22.28a2,2,0,0,1-1.44-3.42,1.91,1.91,0,0,1,1.44-.54,2,2,0,0,1,1.48,3.42A2,2,0,0,1,1703.83,361.91Z"/><path class="b" d="M1709.41,384.19l7.45-9.86-6.8-9h3.53l5.25,7.12,5.15-7.12h3.39l-6.81,9,7.49,9.86h-3.53l-5.9-8-5.8,8Z"/><path class="b" d="M1730,375.15v-.79a9.89,9.89,0,0,1,2.32-7,8.37,8.37,0,0,1,6.46-2.5,7.84,7.84,0,0,1,6,2.21q2.07,2.22,2.07,6.43v2.23h-13.94a7.21,7.21,0,0,0,1.66,4.93,6.25,6.25,0,0,0,4.68,1.59,8.43,8.43,0,0,0,3.13-.56,9.4,9.4,0,0,0,2.77-1.78l1.55,1.9a10.78,10.78,0,0,1-7.59,2.85Q1730,384.66,1730,375.15Zm8.75-7.95q-5.55,0-5.84,6.33H1744Q1744,367.2,1738.72,367.2Z"/><path class="b" d="M1751.6,384.19V365.33h2.85v3.13q1.62-3.6,6.37-3.6,6.81,0,6.8,7.09v12.24h-2.95v-12a5.22,5.22,0,0,0-1.11-3.69,4.65,4.65,0,0,0-3.5-1.17,5.38,5.38,0,0,0-4.1,1.48,6.05,6.05,0,0,0-1.4,4.35v11Z"/><path class="b" d="M2053.88,383.58V359.31h10.29a10.08,10.08,0,0,1,6.2,1.66,5.59,5.59,0,0,1,2.16,4.72v.61a5.31,5.31,0,0,1-1,3.27,6,6,0,0,1-2.9,2.05,6.56,6.56,0,0,1,3.46,2.18,6,6,0,0,1,1.19,3.77v.68a6.08,6.08,0,0,1-2.2,5,9.71,9.71,0,0,1-6.23,1.78h-9.5A1.27,1.27,0,0,1,2053.88,383.58Zm3.09-13h7a6.57,6.57,0,0,0,4-1.05,3.55,3.55,0,0,0,1.38-3v-.61a3.58,3.58,0,0,0-1.38-3,6.64,6.64,0,0,0-4-1h-7Zm0,11.84h7.67a6.3,6.3,0,0,0,4-1.13,3.9,3.9,0,0,0,1.41-3.22v-.65a3.92,3.92,0,0,0-1.39-3.24,6.29,6.29,0,0,0-4.05-1.12H2057Z"/><path class="b" d="M2077.92,380.45V358h3v22.28a2.1,2.1,0,0,0,2.41,2.34h1.15V385h-1.8a4.91,4.91,0,0,1-3.51-1.15A4.54,4.54,0,0,1,2077.92,380.45Z"/><path class="b" d="M2089.3,385V368.49h-2.59v-2.34H2091a1.11,1.11,0,0,1,1.26,1.26V385Zm1.12-22.29a2,2,0,1,1,0-4,2,2,0,0,1,1.47.54,2.19,2.19,0,0,1,0,2.88A2,2,0,0,1,2090.42,362.73Z"/><path class="b" d="M2099.09,379.08V368.49h-3.27v-2.34H2098a1.19,1.19,0,0,0,1.36-1.33v-4.25h2.7v5.58h5.87v2.34H2102v10.26a4.32,4.32,0,0,0,.8,3,3.85,3.85,0,0,0,2.84.83h2.23V385h-2.73c-2.26,0-3.84-.45-4.74-1.33S2099.09,381.26,2099.09,379.08Z"/><path class="b" d="M2111.22,385v-2.59L2123,368.49H2111.4v-2.34h14.84v2.6l-11.7,13.93h11.88V385Z"/><path class="b" d="M2129.62,376v-.79a9.89,9.89,0,0,1,2.32-7,8.37,8.37,0,0,1,6.46-2.5,7.8,7.8,0,0,1,6,2.21q2.07,2.22,2.07,6.43v2.23h-13.93a7.18,7.18,0,0,0,1.65,4.93,6.25,6.25,0,0,0,4.68,1.58,8.43,8.43,0,0,0,3.13-.55,9.62,9.62,0,0,0,2.78-1.79l1.54,1.91a10.78,10.78,0,0,1-7.59,2.85Q2129.63,385.49,2129.62,376Zm8.75-8q-5.55,0-5.83,6.33h11.12Q2143.62,368,2138.37,368Z"/><path class="b" d="M2151.25,385V366.15h2.85v3.14q1.62-3.6,6.37-3.6,6.81,0,6.81,7.09V385h-3V373a5.22,5.22,0,0,0-1.11-3.69,4.65,4.65,0,0,0-3.5-1.17,5.39,5.39,0,0,0-4.1,1.48,6.05,6.05,0,0,0-1.4,4.35v11Z"/><path class="b" d="M1257.66,276V250.31h9.64a10.21,10.21,0,0,1,6.66,1.95,6.61,6.61,0,0,1,2.38,5.43v.76a6.61,6.61,0,0,1-1.82,4.79,8.54,8.54,0,0,1-5.13,2.34l3.53,5.79a5.05,5.05,0,0,0,1.4,1.55,3.58,3.58,0,0,0,1.91.43h.69V276h-1.05a8.31,8.31,0,0,1-2.27-.27,4,4,0,0,1-1.65-.94,10.31,10.31,0,0,1-1.51-1.82l-4.4-7.16h-5.25V276Zm3.13-12.82h6.48a6.87,6.87,0,0,0,4.39-1.22,4.27,4.27,0,0,0,1.51-3.53v-.76a4.25,4.25,0,0,0-1.51-3.52,6.81,6.81,0,0,0-4.39-1.23h-6.48Z"/><path class="b" d="M1281.06,269.39V257.15h3v12a5.22,5.22,0,0,0,1.1,3.69,4.49,4.49,0,0,0,3.43,1.17,5.24,5.24,0,0,0,4-1.49,6.22,6.22,0,0,0,1.36-4.34v-11h3V276h-2.85v-3.13q-1.58,3.6-6.26,3.6Q1281.05,276.49,1281.06,269.39Z"/><path class="b" d="M1301.83,267v-.79a10.14,10.14,0,0,1,2.23-7,7.9,7.9,0,0,1,6.23-2.5q4.68,0,6.66,3.63V249h3V276h-2.81v-3.64a7,7,0,0,1-2.77,3,8.26,8.26,0,0,1-4.28,1.07A7.55,7.55,0,0,1,1304,274C1302.54,272.32,1301.83,270,1301.83,267Zm3-.79V267a7.7,7.7,0,0,0,1.56,5.19,6.58,6.58,0,0,0,9,0A7.7,7.7,0,0,0,1317,267v-.79a7.67,7.67,0,0,0-1.56-5.18,6.6,6.6,0,0,0-9,0A7.67,7.67,0,0,0,1304.82,266.19Z"/><path class="b" d="M1324.83,267v-.79a9.76,9.76,0,0,1,2.41-7,10,10,0,0,1,13.32,0,9.72,9.72,0,0,1,2.42,7V267a9.69,9.69,0,0,1-2.42,7,10.06,10.06,0,0,1-13.32,0A9.73,9.73,0,0,1,1324.83,267Zm3-.79V267a7.65,7.65,0,0,0,1.57,5.19,6.56,6.56,0,0,0,9,0A7.65,7.65,0,0,0,1340,267v-.79a7.62,7.62,0,0,0-1.57-5.18,6.56,6.56,0,0,0-9,0A7.62,7.62,0,0,0,1327.82,266.19Z"/><path class="b" d="M1347.76,271.45V249h3v22.28a2.1,2.1,0,0,0,2.41,2.34h1.15V276h-1.8a4.91,4.91,0,0,1-3.51-1.15A4.54,4.54,0,0,1,1347.76,271.45Z"/><path class="b" d="M1358.46,282.71V257.15h2.8v3.68a7.25,7.25,0,0,1,2.81-3.08,8.27,8.27,0,0,1,4.29-1.06,7.51,7.51,0,0,1,6,2.5,10.48,10.48,0,0,1,2.14,7V267a10.22,10.22,0,0,1-2.22,7,7.86,7.86,0,0,1-6.24,2.52,7,7,0,0,1-6.66-3.68v9.9Zm2.91-16.52V267a7.65,7.65,0,0,0,1.57,5.19,6.56,6.56,0,0,0,9,0,7.65,7.65,0,0,0,1.57-5.19v-.79A7.62,7.62,0,0,0,1372,261a6.56,6.56,0,0,0-9,0A7.62,7.62,0,0,0,1361.37,266.19Z"/><path class="b" d="M1381.46,276V249h3v11.12c1.1-2.26,3.19-3.38,6.26-3.38q6.81,0,6.81,7.09V276h-3V264a5.22,5.22,0,0,0-1.12-3.69,4.62,4.62,0,0,0-3.49-1.17,5.4,5.4,0,0,0-4.11,1.48,6.1,6.1,0,0,0-1.4,4.35v11Z"/><path class="b" d="M115.23,4.09H22.14A3.88,3.88,0,0,0,18.26,8V39a3.88,3.88,0,0,0,3.88,3.88H33.77v60.46L10.22,126.88a34.91,34.91,0,0,0,0,49.36,33.31,33.31,0,0,0,23.55,10.15c10,0,19.38-3.7,25.87-10.2l33.72-34.94a34.67,34.67,0,0,0,10.23-24.68V42.87h11.64A3.87,3.87,0,0,0,119.1,39V8A3.88,3.88,0,0,0,115.23,4.09ZM72.56,11.85h7.76V35.12H72.56ZM57,11.85H64.8V35.12H57Zm-15.51,0h7.76V35.12H41.53ZM26,35.12V11.85h7.76V35.12Zm69.82,81.46a27.06,27.06,0,0,1-8,19.25l-4.87,5c-3.06-3.18-9.59-16.57-3.3-26,5.42-8.14,10.4-9.59,16.17-9.85v11.58Zm0-19.33c-7,.28-15.12,2.06-22.62,13.3-9,13.49-.64,30.91,4.36,35.93L54.11,170.79c-4.93,4.92-12.53,7.86-20.33,7.86a25.66,25.66,0,0,1-18.07-7.87,27.15,27.15,0,0,1,0-38.39L40.4,107.7A3.86,3.86,0,0,0,41.53,105V42.9H95.84V97.25Zm0-62.13H88.07V11.85h7.76Zm15.52,0h-7.76V11.85h7.76Z"/><path class="c" d="M619,102.83a21.82,21.82,0,1,0,0-43.64H593.56a36.37,36.37,0,1,0-58.18,0H509.92a21.82,21.82,0,1,0,0,43.64H528.1v2.68l-16.52,39.88a21.82,21.82,0,0,0,40.32,16.7l12.5-30.17L577,162.09a21.82,21.82,0,0,0,40.31-16.7l-16.52-39.88v-2.68ZM633.56,81a14.51,14.51,0,0,1-12.87,14.37l.9-.89a3.63,3.63,0,0,0,0-5.14l-4.7-4.71,4.7-4.7a3.63,3.63,0,0,0,0-5.14l-4.7-4.7,3.5-3.5A14.5,14.5,0,0,1,633.56,81ZM495.37,81A14.51,14.51,0,0,1,508.55,66.6l3.5,3.5-4.7,4.7a3.63,3.63,0,0,0,0,5.14l4.7,4.7-4.7,4.71a3.63,3.63,0,0,0,0,5.14l.89.89A14.52,14.52,0,0,1,495.37,81Zm30.81,86.16a14.52,14.52,0,0,1-8.88-14.49l6.19-2.06,5.68,5.69a3.66,3.66,0,0,0,3.72.88l8.78-2.93,4,4-.45,1.08A14.56,14.56,0,0,1,526.18,167.17Zm76.58,0a14.57,14.57,0,0,1-19-7.87l-.44-1.08,4-4,8.78,2.93a3.64,3.64,0,0,0,3.72-.88l5.68-5.68,6.18,2.06A14.5,14.5,0,0,1,602.76,167.17Zm-8.92-59.55L609,144.13,605.62,143a3.63,3.63,0,0,0-3.72.88l-5.68,5.69-8.78-2.93a3.63,3.63,0,0,0-3.72.88L580.29,151l-10-24.06a3.63,3.63,0,0,0-3.36-2.24h-5a3.63,3.63,0,0,0-3.36,2.24l-10,24.06-3.42-3.42a3.62,3.62,0,0,0-3.72-.88l-8.78,2.93L527,143.89a3.64,3.64,0,0,0-3.72-.88L520,144.13l15.12-36.51a3.67,3.67,0,0,0,.28-1.39v-7a3.64,3.64,0,0,0-3.64-3.64h-13l-3.64-3.63,4.7-4.71a3.63,3.63,0,0,0,0-5.14l-4.7-4.7,4.7-4.7a3.63,3.63,0,0,0,0-5.14l-1.06-1.07h25.22A3.64,3.64,0,0,0,546.21,60a29.09,29.09,0,1,1,36.52,0A3.64,3.64,0,0,0,585,66.46h25.22l-1.07,1.07a3.63,3.63,0,0,0,0,5.14l4.71,4.7-4.71,4.7a3.63,3.63,0,0,0,0,5.14l4.71,4.71-3.64,3.63h-13a3.64,3.64,0,0,0-3.64,3.64v7A3.67,3.67,0,0,0,593.84,107.62ZM549.92,30.09a3.64,3.64,0,1,1,3.64,3.64A3.64,3.64,0,0,1,549.92,30.09ZM568.1,77.37a3.64,3.64,0,1,1-3.63-3.64A3.63,3.63,0,0,1,568.1,77.37Zm0,14.55a3.64,3.64,0,1,1-3.63-3.64A3.63,3.63,0,0,1,568.1,91.92Zm0,14.54a3.64,3.64,0,1,1-3.63-3.63A3.63,3.63,0,0,1,568.1,106.46ZM579,30.09a3.64,3.64,0,1,1-3.63-3.63A3.63,3.63,0,0,1,579,30.09Zm-.23,15.84a15.45,15.45,0,0,1-28.62,0,3.64,3.64,0,1,1,6.8-2.58,8.19,8.19,0,0,0,15,0,3.64,3.64,0,0,1,6.8,2.58Z"/><line class="d" x1="384.88" x2="384.88" y2="378"/><line class="d" x1="813.38" x2="813.38" y2="378"/><path class="b" d="M1656,30V4.31h9.65a10.08,10.08,0,0,1,6.64,2,6.86,6.86,0,0,1,2.39,5.56v.76a6.85,6.85,0,0,1-2.39,5.56,10.08,10.08,0,0,1-6.64,2h-6.52V30Zm3.13-12.46h6.48a6.6,6.6,0,0,0,4.37-1.28,4.49,4.49,0,0,0,1.53-3.65v-.76A4.49,4.49,0,0,0,1670,8.22a6.66,6.66,0,0,0-4.37-1.28h-6.48Z"/><path class="b" d="M1679.44,30V11.15h2.81v3.68a5.52,5.52,0,0,1,2.38-2.74,7.66,7.66,0,0,1,3.88-.94h1.66v2.78h-2.27a5.48,5.48,0,0,0-4.15,1.4,6,6,0,0,0-1.36,4.32V30Z"/><path class="b" d="M1699,30.31a7.07,7.07,0,0,1-4.81-1.53,5.26,5.26,0,0,1-1.74-4.16,5,5,0,0,1,2-4.29,9.89,9.89,0,0,1,5.87-1.47h4.75V17.6a4.48,4.48,0,0,0-1.15-3.42,5.18,5.18,0,0,0-3.63-1.08,6.87,6.87,0,0,0-5.22,2.37l-1.62-1.76a9.19,9.19,0,0,1,3.22-2.25,9.94,9.94,0,0,1,3.9-.77,7.92,7.92,0,0,1,5.49,1.71,6.42,6.42,0,0,1,1.89,5v10.4h1.91V30h-2.48q-2.13,0-2.13-1.77V26.78a5.21,5.21,0,0,1-2.32,2.59A7.84,7.84,0,0,1,1699,30.31Zm.72-2.16c3.58,0,5.36-1.9,5.36-5.69V21h-4.68c-3.36,0-5,1.17-5,3.49a3.34,3.34,0,0,0,1.14,2.72A4.84,4.84,0,0,0,1699.71,28.15Z"/><path class="b" d="M1714.07,30V11.15h2.85v3.14q1.62-3.6,6.37-3.6,6.81,0,6.8,7.09V30h-2.95V18a5.22,5.22,0,0,0-1.11-3.69,4.65,4.65,0,0,0-3.5-1.17,5.38,5.38,0,0,0-4.1,1.48A6.05,6.05,0,0,0,1717,19V30Z"/><path class="b" d="M1734.88,21v-.79a9.82,9.82,0,0,1,2.36-7,8.62,8.62,0,0,1,6.61-2.5,8.91,8.91,0,0,1,6.87,2.8L1749,15.33a6.65,6.65,0,0,0-5-2.12,5.71,5.71,0,0,0-4.57,1.78,7.73,7.73,0,0,0-1.55,5.2V21q0,7,6.16,7a7.07,7.07,0,0,0,5.18-2.16l1.62,1.9a9.47,9.47,0,0,1-7,2.78,8.63,8.63,0,0,1-6.61-2.51A9.8,9.8,0,0,1,1734.88,21Z"/><path class="b" d="M1753.78,21v-.79a9.94,9.94,0,0,1,2.32-7,8.39,8.39,0,0,1,6.47-2.5,7.79,7.79,0,0,1,6,2.21q2.07,2.22,2.07,6.43v2.23H1756.7a7.18,7.18,0,0,0,1.65,4.93,6.26,6.26,0,0,0,4.68,1.58,8.48,8.48,0,0,0,3.14-.55,9.58,9.58,0,0,0,2.77-1.79l1.55,1.91a10.82,10.82,0,0,1-7.6,2.85Q1753.79,30.49,1753.78,21Zm8.75-8q-5.55,0-5.83,6.33h11.12C1767.8,15.14,1766,13,1762.53,13Z"/><path class="b" d="M1775.42,30V11.15h2.81v3.68a5.5,5.5,0,0,1,2.37-2.74,7.7,7.7,0,0,1,3.89-.94h1.66v2.78h-2.27a5.52,5.52,0,0,0-4.16,1.4,6,6,0,0,0-1.35,4.32V30Z"/><path class="b" d="M1867.33,372.78v-1.23q0-6.12,3.08-9.46t8.73-3.35a12,12,0,0,1,9.18,3.71l-2,2.08a9.26,9.26,0,0,0-7.13-3,8,8,0,0,0-6.41,2.56c-1.46,1.7-2.2,4.2-2.2,7.48v1.23c0,3.29.73,5.78,2.18,7.49s3.6,2.55,6.43,2.55a9.7,9.7,0,0,0,7.49-3.17l1.87,2.16a12.34,12.34,0,0,1-9.36,3.78q-5.62,0-8.73-3.36T1867.33,372.78Z"/><path class="b" d="M1892.5,378.39V366.15h3v12a5.27,5.27,0,0,0,1.1,3.69A4.52,4.52,0,0,0,1900,383a5.22,5.22,0,0,0,4-1.49,6.22,6.22,0,0,0,1.37-4.34v-11h2.95V385h-2.85v-3.13q-1.58,3.6-6.26,3.6Q1892.5,385.49,1892.5,378.39Z"/><path class="b" d="M1914.67,391.71V366.15h2.81v3.68a7.19,7.19,0,0,1,2.81-3.08,8.26,8.26,0,0,1,4.28-1.06,7.48,7.48,0,0,1,6,2.5,10.43,10.43,0,0,1,2.15,7V376a10.22,10.22,0,0,1-2.22,7,7.86,7.86,0,0,1-6.24,2.52,7,7,0,0,1-6.66-3.68v9.9Zm2.92-16.52V376a7.65,7.65,0,0,0,1.57,5.19,6.56,6.56,0,0,0,9,0,7.65,7.65,0,0,0,1.57-5.19v-.79a7.62,7.62,0,0,0-1.57-5.18,6.56,6.56,0,0,0-9,0A7.62,7.62,0,0,0,1917.59,375.19Z"/><path class="b" d="M1938.36,385V368.49h-2.59v-2.34h4.28a1.11,1.11,0,0,1,1.26,1.26V385Zm1.12-22.29a2,2,0,1,1,0-4,2,2,0,0,1,1.47.54,2.19,2.19,0,0,1,0,2.88A2,2,0,0,1,1939.48,362.73Z"/><path class="b" d="M1946.25,376v-.79a10.14,10.14,0,0,1,2.23-7,7.89,7.89,0,0,1,6.23-2.5c3.12,0,5.33,1.21,6.66,3.63V358h3V385h-2.81v-3.64a7,7,0,0,1-2.77,3,8.28,8.28,0,0,1-4.29,1.07,7.55,7.55,0,0,1-6.06-2.51C1947,381.32,1946.25,379,1946.25,376Zm3-.79V376a7.65,7.65,0,0,0,1.57,5.19,6.56,6.56,0,0,0,9,0,7.65,7.65,0,0,0,1.57-5.19v-.79a7.62,7.62,0,0,0-1.57-5.18,6.59,6.59,0,0,0-9,0A7.62,7.62,0,0,0,1949.23,375.19Z"/><path class="b" d="M1860.13,17.78V16.55q0-6.12,3.08-9.46t8.73-3.35a12,12,0,0,1,9.18,3.71l-2,2.08a9.26,9.26,0,0,0-7.13-3,8,8,0,0,0-6.41,2.56c-1.46,1.7-2.2,4.2-2.2,7.48v1.23c0,3.29.73,5.78,2.18,7.49s3.6,2.55,6.43,2.55a9.7,9.7,0,0,0,7.49-3.17l1.87,2.16a12.34,12.34,0,0,1-9.36,3.78q-5.62,0-8.73-3.36T1860.13,17.78Z"/><path class="b" d="M1884.33,21v-.79a9.72,9.72,0,0,1,2.41-7,10,10,0,0,1,13.32,0,9.72,9.72,0,0,1,2.41,7V21a9.69,9.69,0,0,1-2.41,7,10.06,10.06,0,0,1-13.32,0A9.69,9.69,0,0,1,1884.33,21Zm3-.79V21a7.7,7.7,0,0,0,1.57,5.19,6.58,6.58,0,0,0,9,0,7.7,7.7,0,0,0,1.56-5.19v-.79a7.67,7.67,0,0,0-1.56-5.18,6.58,6.58,0,0,0-9,0A7.67,7.67,0,0,0,1887.31,20.19Z"/><path class="b" d="M1907.44,30V11.15h2.84v3.14c1-2.4,3-3.6,6-3.6,3.15,0,5.15,1.24,6,3.74,1.1-2.5,3.22-3.74,6.37-3.74q6.43,0,6.44,7.09V30h-2.95V18q0-4.86-4.25-4.86a4.9,4.9,0,0,0-3.85,1.48,6.27,6.27,0,0,0-1.33,4.35V30h-3V18a5.53,5.53,0,0,0-1-3.67,4,4,0,0,0-3.22-1.19q-5.14,0-5.15,5.83V30Z"/><path class="b" d="M1939.91,21v-.79a9.89,9.89,0,0,1,2.32-7,8.37,8.37,0,0,1,6.46-2.5,7.8,7.8,0,0,1,6,2.21q2.07,2.22,2.07,6.43v2.23h-13.93a7.18,7.18,0,0,0,1.65,4.93,6.25,6.25,0,0,0,4.68,1.58,8.43,8.43,0,0,0,3.13-.55,9.62,9.62,0,0,0,2.78-1.79l1.54,1.91a10.78,10.78,0,0,1-7.59,2.85Q1939.92,30.49,1939.91,21Zm8.75-8q-5.55,0-5.83,6.33H1954C1953.93,15.14,1952.16,13,1948.66,13Z"/><path class="b" d="M1962.7,24.08V13.49h-3.28V11.15h2.16A1.19,1.19,0,0,0,1963,9.82V5.57h2.7v5.58h5.87v2.34h-5.87V23.75a4.32,4.32,0,0,0,.79,3,3.9,3.9,0,0,0,2.85.83h2.23V30h-2.74c-2.25,0-3.83-.45-4.73-1.33S1962.7,26.26,1962.7,24.08Z"/><path class="b" d="M2048.75,28.58V4.31h9.36a13.4,13.4,0,0,1,6.46,1.48,10.08,10.08,0,0,1,4.17,4.21,13.68,13.68,0,0,1,1.46,6.55v1.23a13.66,13.66,0,0,1-1.46,6.53,10,10,0,0,1-4.17,4.23,13.29,13.29,0,0,1-6.46,1.48h-7.92A1.27,1.27,0,0,1,2048.75,28.58Zm3.13-1.23h6.23a8.42,8.42,0,0,0,6.51-2.53,10,10,0,0,0,2.34-7V16.55a10,10,0,0,0-2.34-7A8.39,8.39,0,0,0,2058.11,7h-6.23Z"/><path class="b" d="M2073.91,21v-.79a9.72,9.72,0,0,1,2.41-7,10,10,0,0,1,13.32,0,9.72,9.72,0,0,1,2.41,7V21a9.69,9.69,0,0,1-2.41,7,10.06,10.06,0,0,1-13.32,0A9.69,9.69,0,0,1,2073.91,21Zm3-.79V21a7.7,7.7,0,0,0,1.56,5.19,6.58,6.58,0,0,0,9,0,7.7,7.7,0,0,0,1.57-5.19v-.79A7.67,7.67,0,0,0,2087.5,15a6.58,6.58,0,0,0-9,0A7.67,7.67,0,0,0,2076.9,20.19Z"/><path class="b" d="M2097,30V11.15h2.85v3.14q1.62-3.6,6.37-3.6,6.8,0,6.8,7.09V30h-2.95V18a5.17,5.17,0,0,0-1.12-3.69,4.61,4.61,0,0,0-3.49-1.17,5.36,5.36,0,0,0-4.1,1.48A6.06,6.06,0,0,0,2100,19V30Z"/><path class="b" d="M2119.23,30V11.15h2.85v3.14q1.62-3.6,6.37-3.6,6.81,0,6.8,7.09V30h-2.95V18a5.22,5.22,0,0,0-1.11-3.69,4.65,4.65,0,0,0-3.5-1.17,5.38,5.38,0,0,0-4.1,1.48,6.05,6.05,0,0,0-1.4,4.35V30Z"/><path class="b" d="M2140,21v-.79a9.94,9.94,0,0,1,2.32-7,8.39,8.39,0,0,1,6.47-2.5,7.79,7.79,0,0,1,6,2.21q2.07,2.22,2.07,6.43v2.23H2143a7.18,7.18,0,0,0,1.65,4.93,6.28,6.28,0,0,0,4.68,1.58,8.48,8.48,0,0,0,3.14-.55,9.58,9.58,0,0,0,2.77-1.79l1.55,1.91a10.82,10.82,0,0,1-7.6,2.85Q2140,30.49,2140,21Zm8.75-8q-5.55,0-5.83,6.33h11.12C2154.06,15.14,2152.29,13,2148.79,13Z"/><path class="b" d="M2161.68,30V11.15h2.81v3.68a5.5,5.5,0,0,1,2.37-2.74,7.7,7.7,0,0,1,3.89-.94h1.66v2.78h-2.27a5.52,5.52,0,0,0-4.16,1.4,6,6,0,0,0-1.35,4.32V30Z"/><path class="e" d="M2277.43,242.16h40.28l4.15-12.44h-19.54a6.13,6.13,0,0,1-5.9-4.26L2284,188.13a6.22,6.22,0,0,1,5.91-8.19h24.89a6.14,6.14,0,0,1,5.9,4.25l4.8,14.41h53.24c1.86-5.59,3.74-11.18,5.71-16.74,1.85-5.25,3.8-10.53,6.09-15.6,3.36-7.44,7.62-14.81,14.83-19.12,6.47-3.87,14-4.54,21.41-4.54h24.89a6.23,6.23,0,0,1,5.91,8.19l-24.89,74.67a6.15,6.15,0,0,1-5.91,4.26h-13.29l4.15,12.44h37.16a3.11,3.11,0,1,1,0,6.22H2277.43a18.67,18.67,0,1,1,0-37.33h3.11a3.11,3.11,0,1,1,0,6.22h-3.11a12.45,12.45,0,0,0,0,24.89Zm149.32-80.89a3.11,3.11,0,1,0,0-6.22c-4.82,0-10.8.24-15,2.77-4.67,2.78-7.7,8.75-9.88,13.57-2.49,5.51-4.62,11.2-6.6,16.91a3.11,3.11,0,0,0,5.88,2c1.92-5.53,4-11.05,6.39-16.39,1.52-3.36,4.14-8.85,7.4-10.79,3-1.79,8.42-1.89,11.83-1.89Zm-19.85,68.45h-78.48l-4.15,12.44h86.78l-4.15-12.44Zm-104.58-6.23h124.43l24.89-74.67h-24.89c-24.89,0-27.86,8.94-43.56,56H2321l-6.22-18.67h-24.89Z"/><line class="d" x1="1381.88" y1="195.49" x2="2253.88" y2="195.49"/><line class="d" x1="1526.33" y1="143.49" x2="1526.33" y2="247.49"/><path class="b" d="M1566.91,138.23a1.81,1.81,0,0,1-1.31-.55c-.88-.89-5.08-4.65-9.14-8.29-3.71-3.32-7.23-6.49-8.74-7.91-6-.18-15.51-2.19-18.72-8.59a19.24,19.24,0,0,1-7,1.16,28.55,28.55,0,0,1-14.91-4.27,3.41,3.41,0,0,1-3.08,1.59c-1.17,0-3.06-.39-6.77-3,1.59,3.31,3.57,7,4.48,7.88a1.85,1.85,0,0,1-1.33,3.15c-4.51,0-18.46-11.88-18.41-22.29,0-4,2.24-6.4,5.94-6.38,3,0,6.6,1.59,9.16,3.09,1.85-10.57,12.06-15.95,18.93-19.31-2-2.21-4.29-5.38-4.28-8.74,0-.51.21-3,4-3,4.75,0,16.34,4.59,16.31,10.52,0,5-3.31,7.38-6.48,9.71a38.15,38.15,0,0,0-3.43,2.72c-1.35,1.24-3.91,4.82-3.71,7.5a3.22,3.22,0,0,0,1.59,2.55,6.94,6.94,0,0,0,3.92,1,31,31,0,0,0,6.19-.87c3.28-.68,6.3-1.14,8.2-.18s3.09,3.75,4.55,7.24c2.08,5,4.65,11.12,9.35,11.14a1.82,1.82,0,0,1,1.31.55c.43.43,1.36,1.46,2.58,2.82,3.28,3.68,11,12.28,13.53,13.56a1.85,1.85,0,0,1,1,1.66c0,2.54-2.17,4.76-2.41,5A1.89,1.89,0,0,1,1566.91,138.23ZM1530,108.45a2.15,2.15,0,0,1,.66.13,1.85,1.85,0,0,1,1.12,1.28c1.42,5.77,10.75,7.9,16.68,7.93a1.78,1.78,0,0,1,1.31.55c.88.89,5.08,4.65,9.14,8.29l3.93,3.53c-2.82-2.77-6.19-6.48-9.54-10.21l-2-2.19c-6.58-.59-9.66-7.94-11.93-13.37-.82-2-2.08-5-2.8-5.36a2.65,2.65,0,0,0-1.19-.2,25.6,25.6,0,0,0-4.59.7,34.86,34.86,0,0,1-7,.94,10.39,10.39,0,0,1-6-1.64,6.92,6.92,0,0,1-3.21-5.34c-.34-4.59,3.52-9.24,4.9-10.51a43.74,43.74,0,0,1,3.74-3c3.26-2.39,5-3.78,5-6.74,0-2.65-8.38-6.79-12.62-6.81h-.26c.43,2.77,3.43,5.79,4.93,7.31a1.85,1.85,0,0,1-.49,3l-1.41.69c-7.59,3.7-18,8.76-18,19.78a1.85,1.85,0,0,1-3.17,1.3c-1-1-6.18-4-9.42-4.06-1.16,0-2.21.2-2.22,2.7,0,5.56,5.14,11.66,9.46,15.3-2-3.9-3.94-8.31-3.93-9.72a1.84,1.84,0,0,1,1.08-1.68,1.86,1.86,0,0,1,2,.28c6.78,5.87,9.18,6.33,9.75,6.33a3.57,3.57,0,0,0,.12-1.18,1.85,1.85,0,0,1,3.17-1.3c3,3,9,5.13,14.7,5.15a13,13,0,0,0,7-1.58A2,2,0,0,1,1530,108.45Z"/><path class="b" d="M1539.3,101.09a1.85,1.85,0,0,1,0-3.7,9.55,9.55,0,0,0,1.47-1.3c1.13-1.12,2.41-2.39,4.1-2.38a1.85,1.85,0,0,1,0,3.7,7.49,7.49,0,0,0-1.53,1.31C1542.27,99.83,1541,101.1,1539.3,101.09Z"/><path class="b" d="M1528.32,71.43a1.9,1.9,0,0,1-1.1-.38,1.84,1.84,0,0,1-.36-2.59c2.61-3.46,8.53-3.63,15.39-3.83s14.33-.41,17.65-4.13c1.51-1.7,2.11-4.07,1.83-7.27a1.86,1.86,0,0,1,1.69-2,1.84,1.84,0,0,1,2,1.69c.36,4.21-.56,7.59-2.76,10.05-4.38,4.92-12.85,5.16-20.31,5.37-5.4.16-11,.32-12.54,2.36A1.83,1.83,0,0,1,1528.32,71.43Z"/><path class="b" d="M1550.56,67.82a1.85,1.85,0,0,1-.82-3.51,6.27,6.27,0,0,0,3.07-3,4.3,4.3,0,0,0-.17-3.76,1.85,1.85,0,0,1,3.32-1.64c2.18,4.4.25,9.33-4.58,11.72A1.86,1.86,0,0,1,1550.56,67.82Z"/><path class="b" d="M1537.6,67.76a1.85,1.85,0,0,1-.82-3.51c2.44-1.2,6.28-4,4.67-8.84a1.85,1.85,0,1,1,3.51-1.16c1.79,5.44-.66,10.41-6.53,13.32A1.77,1.77,0,0,1,1537.6,67.76Z"/><line class="d" x1="1721.08" y1="143" x2="1721.08" y2="247"/><path class="b" d="M1761.7,137.74a1.85,1.85,0,0,1-1.31-.55c-.88-.89-5.08-4.65-9.14-8.29-3.7-3.33-7.23-6.49-8.74-7.91-6-.18-15.51-2.19-18.72-8.59a19.45,19.45,0,0,1-7,1.16,28.56,28.56,0,0,1-14.91-4.28,3.4,3.4,0,0,1-3.08,1.6c-1.17,0-3.06-.39-6.76-3,1.59,3.31,3.56,7,4.47,7.88a1.85,1.85,0,0,1-1.33,3.15c-4.51,0-18.46-11.89-18.41-22.29,0-4,2.24-6.4,5.94-6.38,3,0,6.6,1.59,9.16,3.09,1.85-10.57,12.06-16,18.93-19.31-2-2.22-4.29-5.39-4.28-8.74,0-.51.21-3.05,4-3,4.74,0,16.33,4.59,16.3,10.52,0,5-3.31,7.38-6.48,9.71a41.48,41.48,0,0,0-3.43,2.71c-1.35,1.24-3.91,4.83-3.71,7.51a3.25,3.25,0,0,0,1.59,2.55,6.94,6.94,0,0,0,3.92,1,31.79,31.79,0,0,0,6.19-.87c3.29-.69,6.3-1.14,8.2-.18s3.1,3.74,4.56,7.23c2.07,5,4.64,11.13,9.34,11.15a1.78,1.78,0,0,1,1.31.55c.43.43,1.36,1.46,2.58,2.82,3.28,3.68,11,12.28,13.53,13.56a1.84,1.84,0,0,1,1,1.66c0,2.54-2.16,4.76-2.41,5A1.89,1.89,0,0,1,1761.7,137.74ZM1724.81,108a1.69,1.69,0,0,1,.66.13,1.85,1.85,0,0,1,1.12,1.28c1.42,5.77,10.75,7.9,16.68,7.93a1.81,1.81,0,0,1,1.31.54c.88.89,5.08,4.66,9.14,8.3,1.36,1.22,2.7,2.43,3.93,3.52-2.82-2.76-6.19-6.47-9.54-10.21l-2-2.18c-6.58-.6-9.65-8-11.92-13.37-.83-2-2.09-5-2.81-5.36a2.65,2.65,0,0,0-1.19-.2,25,25,0,0,0-4.59.7,34.86,34.86,0,0,1-7,.94,10.41,10.41,0,0,1-6-1.64A7,7,0,0,1,1709.5,93c-.34-4.59,3.52-9.24,4.9-10.51a46.06,46.06,0,0,1,3.74-3c3.26-2.39,5-3.77,5-6.73,0-2.65-8.38-6.79-12.62-6.81h-.25c.42,2.77,3.42,5.79,4.92,7.31a1.85,1.85,0,0,1-.49,3l-1.41.69c-7.59,3.7-18,8.75-18,19.78a1.85,1.85,0,0,1-3.17,1.3c-1-1-6.18-4-9.42-4.06-1.16,0-2.21.2-2.22,2.7,0,5.56,5.15,11.66,9.46,15.3-2-3.9-3.94-8.31-3.93-9.73a1.84,1.84,0,0,1,1.08-1.67,1.86,1.86,0,0,1,2,.28c6.78,5.86,9.18,6.33,9.75,6.33a3.57,3.57,0,0,0,.12-1.18,1.85,1.85,0,0,1,3.17-1.3c3,3,9,5.13,14.7,5.15a13,13,0,0,0,7-1.58A1.89,1.89,0,0,1,1724.81,108Z"/><path class="b" d="M1734.09,100.6a1.85,1.85,0,0,1,0-3.7,9.73,9.73,0,0,0,1.47-1.31c1.13-1.11,2.41-2.38,4.1-2.37a1.85,1.85,0,0,1,0,3.7,7.72,7.72,0,0,0-1.53,1.3C1737.06,99.34,1735.79,100.61,1734.09,100.6Z"/><path class="b" d="M1723.12,70.93a1.84,1.84,0,0,1-1.47-3c2.62-3.46,8.54-3.63,15.39-3.83s14.33-.41,17.65-4.13c1.51-1.7,2.11-4.08,1.83-7.27a1.86,1.86,0,0,1,1.69-2,1.84,1.84,0,0,1,2,1.69c.36,4.2-.56,7.59-2.76,10-4.38,4.92-12.84,5.16-20.31,5.37-5.4.16-11,.32-12.54,2.36A1.82,1.82,0,0,1,1723.12,70.93Z"/><path class="b" d="M1745.35,67.33a1.85,1.85,0,0,1-.82-3.51,6.31,6.31,0,0,0,3.07-3,4.3,4.3,0,0,0-.17-3.76,1.85,1.85,0,0,1,3.32-1.64c2.18,4.4.25,9.33-4.58,11.72A1.86,1.86,0,0,1,1745.35,67.33Z"/><path class="b" d="M1732.39,67.27a1.85,1.85,0,0,1-.82-3.51c2.44-1.2,6.28-3.95,4.67-8.84a1.85,1.85,0,0,1,3.52-1.16c1.78,5.43-.66,10.41-6.54,13.32A1.9,1.9,0,0,1,1732.39,67.27Z"/><path class="b" d="M1761.7,335.74a1.85,1.85,0,0,1-1.31-.55c-.88-.89-5.08-4.65-9.14-8.29-3.7-3.33-7.23-6.49-8.74-7.91-6-.18-15.51-2.19-18.72-8.59a19.45,19.45,0,0,1-7,1.16,28.56,28.56,0,0,1-14.91-4.28,3.4,3.4,0,0,1-3.08,1.6c-1.17,0-3.06-.39-6.76-3,1.59,3.31,3.56,7,4.47,7.88a1.85,1.85,0,0,1-1.33,3.15c-4.51,0-18.46-11.89-18.41-22.29,0-4,2.24-6.4,5.94-6.38,3,0,6.6,1.59,9.16,3.09,1.85-10.57,12.06-15.95,18.93-19.31-2-2.22-4.29-5.39-4.28-8.74,0-.51.21-3.05,4-3,4.74,0,16.33,4.59,16.3,10.52,0,5-3.31,7.38-6.48,9.71a41.48,41.48,0,0,0-3.43,2.71c-1.35,1.24-3.91,4.83-3.71,7.51a3.25,3.25,0,0,0,1.59,2.55,6.94,6.94,0,0,0,3.92,1,31.79,31.79,0,0,0,6.19-.87c3.29-.69,6.3-1.14,8.2-.18s3.1,3.74,4.56,7.23c2.07,5,4.64,11.13,9.34,11.15a1.78,1.78,0,0,1,1.31.55c.43.43,1.36,1.46,2.58,2.82,3.28,3.68,11,12.28,13.53,13.56a1.84,1.84,0,0,1,1,1.66c0,2.54-2.16,4.76-2.41,5A1.89,1.89,0,0,1,1761.7,335.74ZM1724.81,306a1.69,1.69,0,0,1,.66.13,1.85,1.85,0,0,1,1.12,1.28c1.42,5.77,10.75,7.9,16.68,7.93a1.81,1.81,0,0,1,1.31.54c.88.89,5.08,4.66,9.14,8.3,1.36,1.22,2.7,2.43,3.93,3.52-2.82-2.76-6.19-6.47-9.54-10.21l-2-2.18c-6.58-.6-9.65-7.95-11.92-13.37-.83-2-2.09-5-2.81-5.36a2.65,2.65,0,0,0-1.19-.2,25,25,0,0,0-4.59.7,34.86,34.86,0,0,1-7,.94,10.41,10.41,0,0,1-6-1.64,7,7,0,0,1-3.21-5.34c-.34-4.59,3.52-9.24,4.9-10.51a46.06,46.06,0,0,1,3.74-3c3.26-2.39,5-3.77,5-6.73,0-2.65-8.38-6.79-12.62-6.81h-.25c.42,2.77,3.42,5.79,4.92,7.31a1.85,1.85,0,0,1-.49,3l-1.41.69c-7.59,3.7-18,8.75-18,19.78a1.85,1.85,0,0,1-3.17,1.3c-1-1-6.18-4-9.42-4.06-1.16,0-2.21.2-2.22,2.7,0,5.56,5.15,11.66,9.46,15.3-2-3.9-3.94-8.31-3.93-9.73a1.84,1.84,0,0,1,1.08-1.67,1.86,1.86,0,0,1,2,.28c6.78,5.86,9.18,6.33,9.75,6.33a3.57,3.57,0,0,0,.12-1.18,1.85,1.85,0,0,1,3.17-1.3c3,3,9,5.13,14.7,5.15a13,13,0,0,0,7-1.58A1.89,1.89,0,0,1,1724.81,306Z"/><path class="b" d="M1734.09,298.6a1.85,1.85,0,1,1,0-3.7,9.73,9.73,0,0,0,1.47-1.31c1.13-1.11,2.41-2.38,4.1-2.37a1.85,1.85,0,0,1,0,3.7,7.72,7.72,0,0,0-1.53,1.3C1737.06,297.34,1735.79,298.61,1734.09,298.6Z"/><path class="b" d="M1723.12,268.93a1.84,1.84,0,0,1-1.47-3c2.62-3.46,8.54-3.63,15.39-3.83s14.33-.41,17.65-4.13c1.51-1.7,2.11-4.08,1.83-7.27a1.86,1.86,0,0,1,1.69-2,1.84,1.84,0,0,1,2,1.69c.36,4.2-.56,7.59-2.76,10.05-4.38,4.92-12.84,5.16-20.31,5.37-5.4.16-11,.32-12.54,2.36A1.82,1.82,0,0,1,1723.12,268.93Z"/><path class="b" d="M1745.35,265.33a1.85,1.85,0,0,1-.82-3.51,6.31,6.31,0,0,0,3.07-3,4.3,4.3,0,0,0-.17-3.76,1.85,1.85,0,0,1,3.32-1.64c2.18,4.4.25,9.33-4.58,11.72A1.86,1.86,0,0,1,1745.35,265.33Z"/><path class="b" d="M1732.39,265.27a1.85,1.85,0,0,1-.82-3.51c2.44-1.2,6.28-3.95,4.67-8.84a1.85,1.85,0,0,1,3.52-1.16c1.78,5.43-.66,10.41-6.54,13.32A1.9,1.9,0,0,1,1732.39,265.27Z"/><path class="b" d="M1567,335.74a1.85,1.85,0,0,1-1.31-.55c-.88-.89-5.08-4.65-9.14-8.29-3.7-3.33-7.23-6.49-8.74-7.91-6-.18-15.51-2.19-18.72-8.59a19.45,19.45,0,0,1-7,1.16,28.56,28.56,0,0,1-14.91-4.28,3.4,3.4,0,0,1-3.08,1.6c-1.17,0-3.06-.39-6.76-3,1.59,3.31,3.56,7,4.47,7.88a1.85,1.85,0,0,1-1.33,3.15c-4.51,0-18.46-11.89-18.41-22.29,0-4,2.24-6.4,5.94-6.38,3,0,6.6,1.59,9.16,3.09,1.85-10.57,12.06-15.95,18.93-19.31-2-2.22-4.29-5.39-4.28-8.74,0-.51.21-3.05,4-3,4.74,0,16.33,4.59,16.3,10.52,0,5-3.31,7.38-6.48,9.71a41.48,41.48,0,0,0-3.43,2.71c-1.35,1.24-3.91,4.83-3.71,7.51a3.25,3.25,0,0,0,1.59,2.55,6.94,6.94,0,0,0,3.92,1,31.79,31.79,0,0,0,6.19-.87c3.29-.69,6.3-1.14,8.2-.18s3.1,3.74,4.56,7.23c2.07,5,4.64,11.13,9.34,11.15a1.78,1.78,0,0,1,1.31.55c.43.43,1.36,1.46,2.58,2.82,3.28,3.68,11,12.28,13.53,13.56a1.84,1.84,0,0,1,1,1.66c0,2.54-2.16,4.76-2.41,5A1.89,1.89,0,0,1,1567,335.74ZM1530.06,306a1.69,1.69,0,0,1,.66.13,1.85,1.85,0,0,1,1.12,1.28c1.42,5.77,10.75,7.9,16.68,7.93a1.81,1.81,0,0,1,1.31.54c.88.89,5.08,4.66,9.14,8.3,1.36,1.22,2.7,2.43,3.93,3.52-2.82-2.76-6.19-6.47-9.54-10.21l-2-2.18c-6.58-.6-9.65-7.95-11.92-13.37-.83-2-2.09-5-2.81-5.36a2.65,2.65,0,0,0-1.19-.2,25,25,0,0,0-4.59.7,34.86,34.86,0,0,1-7,.94,10.41,10.41,0,0,1-6-1.64,7,7,0,0,1-3.21-5.34c-.34-4.59,3.52-9.24,4.9-10.51a46.06,46.06,0,0,1,3.74-3c3.26-2.39,5-3.77,5-6.73,0-2.65-8.38-6.79-12.62-6.81h-.25c.42,2.77,3.42,5.79,4.92,7.31a1.85,1.85,0,0,1-.49,3l-1.41.69c-7.59,3.7-18,8.75-18,19.78a1.85,1.85,0,0,1-3.17,1.3c-1-1-6.18-4-9.42-4.06-1.16,0-2.21.2-2.22,2.7,0,5.56,5.15,11.66,9.46,15.3-2-3.9-3.94-8.31-3.93-9.73a1.84,1.84,0,0,1,1.08-1.67,1.86,1.86,0,0,1,2,.28c6.78,5.86,9.18,6.33,9.75,6.33a3.57,3.57,0,0,0,.12-1.18,1.85,1.85,0,0,1,3.17-1.3c3,3,9,5.13,14.7,5.15a13,13,0,0,0,7-1.58A1.89,1.89,0,0,1,1530.06,306Z"/><path class="b" d="M1539.34,298.6a1.85,1.85,0,1,1,0-3.7,9.73,9.73,0,0,0,1.47-1.31c1.13-1.11,2.41-2.38,4.1-2.37a1.85,1.85,0,0,1,0,3.7,7.72,7.72,0,0,0-1.53,1.3C1542.31,297.34,1541,298.61,1539.34,298.6Z"/><path class="b" d="M1528.37,268.93a1.84,1.84,0,0,1-1.47-3c2.62-3.46,8.54-3.63,15.39-3.83s14.33-.41,17.65-4.13c1.51-1.7,2.11-4.08,1.83-7.27a1.86,1.86,0,0,1,1.69-2,1.84,1.84,0,0,1,2,1.69c.36,4.2-.56,7.59-2.76,10.05-4.38,4.92-12.84,5.16-20.31,5.37-5.4.16-11,.32-12.54,2.36A1.82,1.82,0,0,1,1528.37,268.93Z"/><path class="b" d="M1550.6,265.33a1.85,1.85,0,0,1-.82-3.51,6.31,6.31,0,0,0,3.07-3,4.3,4.3,0,0,0-.17-3.76,1.85,1.85,0,0,1,3.32-1.64c2.18,4.4.25,9.33-4.58,11.72A1.86,1.86,0,0,1,1550.6,265.33Z"/><path class="b" d="M1537.64,265.27a1.85,1.85,0,0,1-.82-3.51c2.44-1.2,6.28-3.95,4.67-8.84a1.85,1.85,0,0,1,3.52-1.16c1.78,5.43-.66,10.41-6.54,13.32A1.9,1.9,0,0,1,1537.64,265.27Z"/><line class="d" x1="1915.83" y1="143" x2="1915.83" y2="247"/><path class="b" d="M1956.45,137.74a1.85,1.85,0,0,1-1.31-.55c-.88-.89-5.08-4.65-9.14-8.29-3.7-3.33-7.23-6.49-8.74-7.91-6-.18-15.51-2.19-18.72-8.59a19.45,19.45,0,0,1-7,1.16,28.56,28.56,0,0,1-14.91-4.28,3.4,3.4,0,0,1-3.08,1.6c-1.17,0-3.06-.39-6.76-3,1.59,3.31,3.56,7,4.47,7.88a1.85,1.85,0,0,1-1.33,3.15c-4.51,0-18.46-11.89-18.41-22.29,0-4,2.24-6.4,5.94-6.38,3,0,6.6,1.59,9.16,3.09,1.85-10.57,12.06-16,18.93-19.31-2-2.22-4.29-5.39-4.28-8.74,0-.51.21-3.05,4-3,4.74,0,16.33,4.59,16.3,10.52,0,5-3.31,7.38-6.48,9.71a41.48,41.48,0,0,0-3.43,2.71c-1.35,1.24-3.91,4.83-3.71,7.51a3.25,3.25,0,0,0,1.59,2.55,6.94,6.94,0,0,0,3.92,1,31.79,31.79,0,0,0,6.19-.87c3.29-.69,6.3-1.14,8.2-.18s3.1,3.74,4.56,7.23c2.07,5,4.64,11.13,9.34,11.15a1.78,1.78,0,0,1,1.31.55c.43.43,1.36,1.46,2.58,2.82,3.28,3.68,11,12.28,13.53,13.56a1.84,1.84,0,0,1,1,1.66c0,2.54-2.16,4.76-2.41,5A1.89,1.89,0,0,1,1956.45,137.74ZM1919.56,108a1.69,1.69,0,0,1,.66.13,1.85,1.85,0,0,1,1.12,1.28c1.42,5.77,10.75,7.9,16.68,7.93a1.81,1.81,0,0,1,1.31.54c.88.89,5.08,4.66,9.14,8.3,1.36,1.22,2.7,2.43,3.93,3.52-2.82-2.76-6.19-6.47-9.54-10.21l-2-2.18c-6.58-.6-9.65-8-11.92-13.37-.83-2-2.09-5-2.81-5.36a2.65,2.65,0,0,0-1.19-.2,25,25,0,0,0-4.59.7,34.86,34.86,0,0,1-7,.94,10.41,10.41,0,0,1-6-1.64,7,7,0,0,1-3.21-5.34c-.34-4.59,3.52-9.24,4.9-10.51a46.06,46.06,0,0,1,3.74-3c3.26-2.39,5-3.77,5-6.73,0-2.65-8.38-6.79-12.62-6.81H1905c.42,2.77,3.42,5.79,4.92,7.31a1.85,1.85,0,0,1-.49,3L1908,77c-7.59,3.7-18,8.75-18,19.78a1.85,1.85,0,0,1-3.17,1.3c-1-1-6.18-4-9.42-4.06-1.16,0-2.21.2-2.22,2.7,0,5.56,5.15,11.66,9.46,15.3-2-3.9-3.94-8.31-3.93-9.73a1.84,1.84,0,0,1,1.08-1.67,1.86,1.86,0,0,1,2,.28c6.78,5.86,9.18,6.33,9.75,6.33a3.57,3.57,0,0,0,.12-1.18,1.85,1.85,0,0,1,3.17-1.3c3,3,9,5.13,14.7,5.15a13,13,0,0,0,7-1.58A1.89,1.89,0,0,1,1919.56,108Z"/><path class="b" d="M1928.84,100.6a1.85,1.85,0,0,1,0-3.7,9.73,9.73,0,0,0,1.47-1.31c1.13-1.11,2.41-2.38,4.1-2.37a1.85,1.85,0,0,1,0,3.7,7.72,7.72,0,0,0-1.53,1.3C1931.81,99.34,1930.54,100.61,1928.84,100.6Z"/><path class="b" d="M1917.87,70.93a1.84,1.84,0,0,1-1.47-3c2.62-3.46,8.54-3.63,15.39-3.83s14.33-.41,17.65-4.13c1.51-1.7,2.11-4.08,1.83-7.27a1.86,1.86,0,0,1,1.69-2,1.84,1.84,0,0,1,2,1.69c.36,4.2-.56,7.59-2.76,10-4.38,4.92-12.84,5.16-20.31,5.37-5.4.16-11,.32-12.54,2.36A1.82,1.82,0,0,1,1917.87,70.93Z"/><path class="b" d="M1940.1,67.33a1.85,1.85,0,0,1-.82-3.51,6.31,6.31,0,0,0,3.07-3,4.3,4.3,0,0,0-.17-3.76,1.85,1.85,0,0,1,3.32-1.64c2.18,4.4.25,9.33-4.58,11.72A1.86,1.86,0,0,1,1940.1,67.33Z"/><path class="b" d="M1927.14,67.27a1.85,1.85,0,0,1-.82-3.51c2.44-1.2,6.28-3.95,4.67-8.84a1.85,1.85,0,0,1,3.52-1.16c1.78,5.43-.66,10.41-6.54,13.32A1.9,1.9,0,0,1,1927.14,67.27Z"/><path class="b" d="M1956.45,335.74a1.85,1.85,0,0,1-1.31-.55c-.88-.89-5.08-4.65-9.14-8.29-3.7-3.33-7.23-6.49-8.74-7.91-6-.18-15.51-2.19-18.72-8.59a19.45,19.45,0,0,1-7,1.16,28.56,28.56,0,0,1-14.91-4.28,3.4,3.4,0,0,1-3.08,1.6c-1.17,0-3.06-.39-6.76-3,1.59,3.31,3.56,7,4.47,7.88a1.85,1.85,0,0,1-1.33,3.15c-4.51,0-18.46-11.89-18.41-22.29,0-4,2.24-6.4,5.94-6.38,3,0,6.6,1.59,9.16,3.09,1.85-10.57,12.06-15.95,18.93-19.31-2-2.22-4.29-5.39-4.28-8.74,0-.51.21-3.05,4-3,4.74,0,16.33,4.59,16.3,10.52,0,5-3.31,7.38-6.48,9.71a41.48,41.48,0,0,0-3.43,2.71c-1.35,1.24-3.91,4.83-3.71,7.51a3.25,3.25,0,0,0,1.59,2.55,6.94,6.94,0,0,0,3.92,1,31.79,31.79,0,0,0,6.19-.87c3.29-.69,6.3-1.14,8.2-.18s3.1,3.74,4.56,7.23c2.07,5,4.64,11.13,9.34,11.15a1.78,1.78,0,0,1,1.31.55c.43.43,1.36,1.46,2.58,2.82,3.28,3.68,11,12.28,13.53,13.56a1.84,1.84,0,0,1,1,1.66c0,2.54-2.16,4.76-2.41,5A1.89,1.89,0,0,1,1956.45,335.74ZM1919.56,306a1.69,1.69,0,0,1,.66.13,1.85,1.85,0,0,1,1.12,1.28c1.42,5.77,10.75,7.9,16.68,7.93a1.81,1.81,0,0,1,1.31.54c.88.89,5.08,4.66,9.14,8.3,1.36,1.22,2.7,2.43,3.93,3.52-2.82-2.76-6.19-6.47-9.54-10.21l-2-2.18c-6.58-.6-9.65-7.95-11.92-13.37-.83-2-2.09-5-2.81-5.36a2.65,2.65,0,0,0-1.19-.2,25,25,0,0,0-4.59.7,34.86,34.86,0,0,1-7,.94,10.41,10.41,0,0,1-6-1.64,7,7,0,0,1-3.21-5.34c-.34-4.59,3.52-9.24,4.9-10.51a46.06,46.06,0,0,1,3.74-3c3.26-2.39,5-3.77,5-6.73,0-2.65-8.38-6.79-12.62-6.81H1905c.42,2.77,3.42,5.79,4.92,7.31a1.85,1.85,0,0,1-.49,3L1908,275c-7.59,3.7-18,8.75-18,19.78a1.85,1.85,0,0,1-3.17,1.3c-1-1-6.18-4-9.42-4.06-1.16,0-2.21.2-2.22,2.7,0,5.56,5.15,11.66,9.46,15.3-2-3.9-3.94-8.31-3.93-9.73a1.84,1.84,0,0,1,1.08-1.67,1.86,1.86,0,0,1,2,.28c6.78,5.86,9.18,6.33,9.75,6.33a3.57,3.57,0,0,0,.12-1.18,1.85,1.85,0,0,1,3.17-1.3c3,3,9,5.13,14.7,5.15a13,13,0,0,0,7-1.58A1.89,1.89,0,0,1,1919.56,306Z"/><path class="b" d="M1928.84,298.6a1.85,1.85,0,1,1,0-3.7,9.73,9.73,0,0,0,1.47-1.31c1.13-1.11,2.41-2.38,4.1-2.37a1.85,1.85,0,0,1,0,3.7,7.72,7.72,0,0,0-1.53,1.3C1931.81,297.34,1930.54,298.61,1928.84,298.6Z"/><path class="b" d="M1917.87,268.93a1.84,1.84,0,0,1-1.47-3c2.62-3.46,8.54-3.63,15.39-3.83s14.33-.41,17.65-4.13c1.51-1.7,2.11-4.08,1.83-7.27a1.86,1.86,0,0,1,1.69-2,1.84,1.84,0,0,1,2,1.69c.36,4.2-.56,7.59-2.76,10.05-4.38,4.92-12.84,5.16-20.31,5.37-5.4.16-11,.32-12.54,2.36A1.82,1.82,0,0,1,1917.87,268.93Z"/><path class="b" d="M1940.1,265.33a1.85,1.85,0,0,1-.82-3.51,6.31,6.31,0,0,0,3.07-3,4.3,4.3,0,0,0-.17-3.76,1.85,1.85,0,0,1,3.32-1.64c2.18,4.4.25,9.33-4.58,11.72A1.86,1.86,0,0,1,1940.1,265.33Z"/><path class="b" d="M1927.14,265.27a1.85,1.85,0,0,1-.82-3.51c2.44-1.2,6.28-3.95,4.67-8.84a1.85,1.85,0,0,1,3.52-1.16c1.78,5.43-.66,10.41-6.54,13.32A1.9,1.9,0,0,1,1927.14,265.27Z"/><line class="d" x1="2110.58" y1="143" x2="2110.58" y2="247"/><path class="b" d="M2151.2,137.74a1.85,1.85,0,0,1-1.31-.55c-.88-.89-5.08-4.65-9.14-8.29-3.7-3.33-7.23-6.49-8.74-7.91-6-.18-15.51-2.19-18.72-8.59a19.45,19.45,0,0,1-7,1.16,28.56,28.56,0,0,1-14.91-4.28,3.4,3.4,0,0,1-3.08,1.6c-1.17,0-3.06-.39-6.76-3,1.59,3.31,3.56,7,4.47,7.88a1.85,1.85,0,0,1-1.33,3.15c-4.51,0-18.46-11.89-18.41-22.29,0-4,2.24-6.4,5.94-6.38,3,0,6.6,1.59,9.16,3.09,1.85-10.57,12.06-16,18.93-19.31-2-2.22-4.29-5.39-4.28-8.74,0-.51.21-3.05,4-3,4.74,0,16.33,4.59,16.3,10.52,0,5-3.31,7.38-6.48,9.71a41.48,41.48,0,0,0-3.43,2.71c-1.35,1.24-3.91,4.83-3.71,7.51a3.25,3.25,0,0,0,1.59,2.55,6.94,6.94,0,0,0,3.92,1,31.79,31.79,0,0,0,6.19-.87c3.29-.69,6.3-1.14,8.2-.18s3.1,3.74,4.56,7.23c2.07,5,4.64,11.13,9.34,11.15a1.78,1.78,0,0,1,1.31.55c.43.43,1.36,1.46,2.58,2.82,3.28,3.68,11,12.28,13.53,13.56a1.84,1.84,0,0,1,1,1.66c0,2.54-2.16,4.76-2.41,5A1.89,1.89,0,0,1,2151.2,137.74ZM2114.31,108a1.69,1.69,0,0,1,.66.13,1.85,1.85,0,0,1,1.12,1.28c1.42,5.77,10.75,7.9,16.68,7.93a1.81,1.81,0,0,1,1.31.54c.88.89,5.08,4.66,9.14,8.3,1.36,1.22,2.7,2.43,3.93,3.52-2.82-2.76-6.19-6.47-9.54-10.21l-2-2.18c-6.58-.6-9.65-8-11.92-13.37-.83-2-2.09-5-2.81-5.36a2.65,2.65,0,0,0-1.19-.2,25,25,0,0,0-4.59.7,34.86,34.86,0,0,1-7,.94,10.41,10.41,0,0,1-6-1.64A7,7,0,0,1,2099,93c-.34-4.59,3.52-9.24,4.9-10.51a46.06,46.06,0,0,1,3.74-3c3.26-2.39,5-3.77,5-6.73,0-2.65-8.38-6.79-12.62-6.81h-.25c.42,2.77,3.42,5.79,4.92,7.31a1.85,1.85,0,0,1-.49,3l-1.41.69c-7.59,3.7-18,8.75-18,19.78a1.85,1.85,0,0,1-3.17,1.3c-1-1-6.18-4-9.42-4.06-1.16,0-2.21.2-2.22,2.7,0,5.56,5.15,11.66,9.46,15.3-2-3.9-3.94-8.31-3.93-9.73a1.84,1.84,0,0,1,1.08-1.67,1.86,1.86,0,0,1,2,.28c6.78,5.86,9.18,6.33,9.75,6.33a3.57,3.57,0,0,0,.12-1.18,1.85,1.85,0,0,1,3.17-1.3c3,3,9,5.13,14.7,5.15a13,13,0,0,0,7-1.58A1.89,1.89,0,0,1,2114.31,108Z"/><path class="b" d="M2123.59,100.6a1.85,1.85,0,0,1,0-3.7,9.73,9.73,0,0,0,1.47-1.31c1.13-1.11,2.41-2.38,4.1-2.37a1.85,1.85,0,0,1,0,3.7,7.72,7.72,0,0,0-1.53,1.3C2126.56,99.34,2125.29,100.61,2123.59,100.6Z"/><path class="b" d="M2112.62,70.93a1.84,1.84,0,0,1-1.47-3c2.62-3.46,8.54-3.63,15.39-3.83s14.33-.41,17.65-4.13c1.51-1.7,2.11-4.08,1.83-7.27a1.86,1.86,0,0,1,1.69-2,1.84,1.84,0,0,1,2,1.69c.36,4.2-.56,7.59-2.76,10-4.38,4.92-12.84,5.16-20.31,5.37-5.4.16-11,.32-12.54,2.36A1.82,1.82,0,0,1,2112.62,70.93Z"/><path class="b" d="M2134.85,67.33a1.85,1.85,0,0,1-.82-3.51,6.31,6.31,0,0,0,3.07-3,4.3,4.3,0,0,0-.17-3.76,1.85,1.85,0,0,1,3.32-1.64c2.18,4.4.25,9.33-4.58,11.72A1.86,1.86,0,0,1,2134.85,67.33Z"/><path class="b" d="M2121.89,67.27a1.85,1.85,0,0,1-.82-3.51c2.44-1.2,6.28-3.95,4.67-8.84a1.85,1.85,0,1,1,3.52-1.16c1.78,5.43-.66,10.41-6.54,13.32A1.9,1.9,0,0,1,2121.89,67.27Z"/><path class="b" d="M2151.2,335.74a1.85,1.85,0,0,1-1.31-.55c-.88-.89-5.08-4.65-9.14-8.29-3.7-3.33-7.23-6.49-8.74-7.91-6-.18-15.51-2.19-18.72-8.59a19.45,19.45,0,0,1-7,1.16,28.56,28.56,0,0,1-14.91-4.28,3.4,3.4,0,0,1-3.08,1.6c-1.17,0-3.06-.39-6.76-3,1.59,3.31,3.56,7,4.47,7.88a1.85,1.85,0,0,1-1.33,3.15c-4.51,0-18.46-11.89-18.41-22.29,0-4,2.24-6.4,5.94-6.38,3,0,6.6,1.59,9.16,3.09,1.85-10.57,12.06-15.95,18.93-19.31-2-2.22-4.29-5.39-4.28-8.74,0-.51.21-3.05,4-3,4.74,0,16.33,4.59,16.3,10.52,0,5-3.31,7.38-6.48,9.71a41.48,41.48,0,0,0-3.43,2.71c-1.35,1.24-3.91,4.83-3.71,7.51a3.25,3.25,0,0,0,1.59,2.55,6.94,6.94,0,0,0,3.92,1,31.79,31.79,0,0,0,6.19-.87c3.29-.69,6.3-1.14,8.2-.18s3.1,3.74,4.56,7.23c2.07,5,4.64,11.13,9.34,11.15a1.78,1.78,0,0,1,1.31.55c.43.43,1.36,1.46,2.58,2.82,3.28,3.68,11,12.28,13.53,13.56a1.84,1.84,0,0,1,1,1.66c0,2.54-2.16,4.76-2.41,5A1.89,1.89,0,0,1,2151.2,335.74ZM2114.31,306a1.69,1.69,0,0,1,.66.13,1.85,1.85,0,0,1,1.12,1.28c1.42,5.77,10.75,7.9,16.68,7.93a1.81,1.81,0,0,1,1.31.54c.88.89,5.08,4.66,9.14,8.3,1.36,1.22,2.7,2.43,3.93,3.52-2.82-2.76-6.19-6.47-9.54-10.21l-2-2.18c-6.58-.6-9.65-7.95-11.92-13.37-.83-2-2.09-5-2.81-5.36a2.65,2.65,0,0,0-1.19-.2,25,25,0,0,0-4.59.7,34.86,34.86,0,0,1-7,.94,10.41,10.41,0,0,1-6-1.64A7,7,0,0,1,2099,291c-.34-4.59,3.52-9.24,4.9-10.51a46.06,46.06,0,0,1,3.74-3c3.26-2.39,5-3.77,5-6.73,0-2.65-8.38-6.79-12.62-6.81h-.25c.42,2.77,3.42,5.79,4.92,7.31a1.85,1.85,0,0,1-.49,3l-1.41.69c-7.59,3.7-18,8.75-18,19.78a1.85,1.85,0,0,1-3.17,1.3c-1-1-6.18-4-9.42-4.06-1.16,0-2.21.2-2.22,2.7,0,5.56,5.15,11.66,9.46,15.3-2-3.9-3.94-8.31-3.93-9.73a1.84,1.84,0,0,1,1.08-1.67,1.86,1.86,0,0,1,2,.28c6.78,5.86,9.18,6.33,9.75,6.33a3.57,3.57,0,0,0,.12-1.18,1.85,1.85,0,0,1,3.17-1.3c3,3,9,5.13,14.7,5.15a13,13,0,0,0,7-1.58A1.89,1.89,0,0,1,2114.31,306Z"/><path class="b" d="M2123.59,298.6a1.85,1.85,0,0,1,0-3.7,9.73,9.73,0,0,0,1.47-1.31c1.13-1.11,2.41-2.38,4.1-2.37a1.85,1.85,0,0,1,0,3.7,7.72,7.72,0,0,0-1.53,1.3C2126.56,297.34,2125.29,298.61,2123.59,298.6Z"/><path class="b" d="M2112.62,268.93a1.84,1.84,0,0,1-1.47-3c2.62-3.46,8.54-3.63,15.39-3.83s14.33-.41,17.65-4.13c1.51-1.7,2.11-4.08,1.83-7.27a1.86,1.86,0,0,1,1.69-2,1.84,1.84,0,0,1,2,1.69c.36,4.2-.56,7.59-2.76,10.05-4.38,4.92-12.84,5.16-20.31,5.37-5.4.16-11,.32-12.54,2.36A1.82,1.82,0,0,1,2112.62,268.93Z"/><path class="b" d="M2134.85,265.33a1.85,1.85,0,0,1-.82-3.51,6.31,6.31,0,0,0,3.07-3,4.3,4.3,0,0,0-.17-3.76,1.85,1.85,0,0,1,3.32-1.64c2.18,4.4.25,9.33-4.58,11.72A1.86,1.86,0,0,1,2134.85,265.33Z"/><path class="b" d="M2121.89,265.27a1.85,1.85,0,0,1-.82-3.51c2.44-1.2,6.28-3.95,4.67-8.84a1.85,1.85,0,1,1,3.52-1.16c1.78,5.43-.66,10.41-6.54,13.32A1.9,1.9,0,0,1,2121.89,265.27Z"/><path class="b" d="M1364.91,227.23a1.81,1.81,0,0,1-1.31-.55c-.88-.89-5.08-4.65-9.14-8.29-3.71-3.32-7.23-6.49-8.74-7.91-6-.18-15.51-2.19-18.72-8.59a19.24,19.24,0,0,1-7,1.16,28.55,28.55,0,0,1-14.91-4.27,3.41,3.41,0,0,1-3.08,1.59c-1.17,0-3.06-.39-6.77-3,1.59,3.31,3.57,7,4.48,7.88a1.85,1.85,0,0,1-1.33,3.15c-4.51,0-18.46-11.88-18.41-22.29,0-4,2.24-6.4,5.94-6.38,3,0,6.6,1.59,9.16,3.09,1.85-10.57,12.06-15.95,18.93-19.31-2-2.21-4.29-5.38-4.28-8.74,0-.51.21-3.05,4-3,4.75,0,16.34,4.59,16.31,10.52,0,5-3.31,7.38-6.48,9.71a38.15,38.15,0,0,0-3.43,2.72c-1.35,1.24-3.91,4.82-3.71,7.5a3.22,3.22,0,0,0,1.59,2.55,6.94,6.94,0,0,0,3.92,1,31,31,0,0,0,6.19-.87c3.28-.68,6.3-1.14,8.2-.18s3.09,3.75,4.55,7.24c2.08,4.95,4.65,11.12,9.35,11.14a1.82,1.82,0,0,1,1.31.55c.43.43,1.36,1.46,2.58,2.82,3.28,3.68,11,12.28,13.53,13.56a1.85,1.85,0,0,1,1,1.66c0,2.54-2.17,4.76-2.41,5A1.89,1.89,0,0,1,1364.91,227.23ZM1328,197.45a2.15,2.15,0,0,1,.66.13,1.85,1.85,0,0,1,1.12,1.28c1.42,5.77,10.75,7.9,16.68,7.93a1.78,1.78,0,0,1,1.31.55c.88.89,5.08,4.65,9.14,8.29l3.93,3.53c-2.82-2.77-6.19-6.48-9.54-10.21l-2-2.19c-6.58-.59-9.66-7.94-11.93-13.37-.82-2-2.08-5-2.8-5.36a2.65,2.65,0,0,0-1.19-.2,25.6,25.6,0,0,0-4.59.7,34.86,34.86,0,0,1-7,.94,10.39,10.39,0,0,1-6-1.64,6.92,6.92,0,0,1-3.21-5.34c-.34-4.59,3.52-9.24,4.9-10.51a43.74,43.74,0,0,1,3.74-3c3.26-2.39,5-3.78,5-6.74,0-2.65-8.38-6.79-12.62-6.81h-.26c.43,2.77,3.43,5.79,4.93,7.31a1.85,1.85,0,0,1-.49,3l-1.41.69c-7.59,3.7-18,8.76-18,19.78a1.85,1.85,0,0,1-3.17,1.3c-1-1-6.18-4-9.42-4.06-1.16,0-2.21.2-2.22,2.7,0,5.56,5.14,11.66,9.46,15.3-2-3.9-3.94-8.31-3.93-9.72a1.84,1.84,0,0,1,1.08-1.68,1.86,1.86,0,0,1,2,.28c6.78,5.87,9.18,6.33,9.75,6.33a3.57,3.57,0,0,0,.12-1.18,1.85,1.85,0,0,1,3.17-1.3c3,3,9,5.13,14.7,5.15a13,13,0,0,0,7-1.58A2,2,0,0,1,1328,197.45Z"/><path class="b" d="M1337.3,190.09a1.85,1.85,0,0,1,0-3.7,9.55,9.55,0,0,0,1.47-1.3c1.13-1.12,2.41-2.39,4.1-2.38a1.85,1.85,0,0,1,0,3.7,7.49,7.49,0,0,0-1.53,1.31C1340.27,188.83,1339,190.1,1337.3,190.09Z"/><path class="b" d="M1326.32,160.43a1.9,1.9,0,0,1-1.1-.38,1.84,1.84,0,0,1-.36-2.59c2.61-3.46,8.53-3.63,15.39-3.83s14.33-.41,17.65-4.13c1.51-1.7,2.11-4.07,1.83-7.27a1.86,1.86,0,0,1,1.69-2,1.84,1.84,0,0,1,2,1.69c.36,4.21-.56,7.59-2.76,10.05-4.38,4.92-12.85,5.16-20.31,5.37-5.4.16-11,.32-12.54,2.36A1.83,1.83,0,0,1,1326.32,160.43Z"/><path class="b" d="M1348.56,156.82a1.85,1.85,0,0,1-.82-3.51,6.27,6.27,0,0,0,3.07-3,4.3,4.3,0,0,0-.17-3.76,1.85,1.85,0,0,1,3.32-1.64c2.18,4.4.25,9.33-4.58,11.72A1.86,1.86,0,0,1,1348.56,156.82Z"/><path class="b" d="M1335.6,156.76a1.85,1.85,0,0,1-.82-3.51c2.44-1.2,6.28-3.95,4.67-8.84a1.85,1.85,0,1,1,3.51-1.16c1.79,5.44-.66,10.41-6.53,13.32A1.77,1.77,0,0,1,1335.6,156.76Z"/><circle class="f" cx="1311.38" cy="151.5" r="3.5"/></svg>