<svg xmlns="http://www.w3.org/2000/svg" viewBox="0 0 2456.43 520.41"><defs><style>.a{fill:#7c6992;}.b{fill:#2e1a47;}.c,.d,.e,.f,.g{fill:none;stroke-miterlimit:10;}.c{stroke:#2e1a47;stroke-width:1.81px;}.d,.e,.f,.g{stroke:#2b1f48;}.d{stroke-width:9.41px;}.e{stroke-width:9.58px;}.f{stroke-width:9.42px;}.g{stroke-width:9.59px;}</style></defs><path class="a" d="M4.31,426.78V397.91h12.5a17.8,17.8,0,0,1,8.27,1.81,12.66,12.66,0,0,1,5.35,5.15,16.12,16.12,0,0,1,1.86,8v1.58a16.16,16.16,0,0,1-1.86,8,12.72,12.72,0,0,1-5.35,5.15,17.8,17.8,0,0,1-8.27,1.8H6.86a2.6,2.6,0,0,1-1.95-.62A2.67,2.67,0,0,1,4.31,426.78Zm6.65-3h5.85a8.26,8.26,0,0,0,6.38-2.42q2.23-2.42,2.24-6.91v-1.58q0-4.49-2.24-6.91a8.3,8.3,0,0,0-6.38-2.42H11Z" transform="translate(-1.45 -7.48)"/><path class="a" d="M37.22,429.33V396.24h6.16V409c1.35-2.34,3.71-3.52,7.09-3.52q8.49,0,8.49,8.8v15.05H52.8V415q0-4.53-4.31-4.53a4.93,4.93,0,0,0-3.79,1.41,5.61,5.61,0,0,0-1.32,4v13.42Z" transform="translate(-1.45 -7.48)"/><path class="a" d="M71,429.68A8.67,8.67,0,0,1,65,427.77a6.67,6.67,0,0,1-2.15-5.26,6.22,6.22,0,0,1,2.63-5.43c1.76-1.25,4.35-1.87,7.75-1.87h4.31v-.93q0-4-4.71-4A8.54,8.54,0,0,0,67,412.83l-3-3.65a12.21,12.21,0,0,1,4.27-2.75,14.54,14.54,0,0,1,5.24-.95c3.23,0,5.7.74,7.41,2.2a7.93,7.93,0,0,1,2.58,6.38V425h2.15v4.36H82.06a5.55,5.55,0,0,1-3.1-.66,2.45,2.45,0,0,1-.95-2.16v-.61Q76.26,429.68,71,429.68Zm1.76-4.13a4.66,4.66,0,0,0,3.59-1.35,5.51,5.51,0,0,0,1.25-3.89v-1.23H73.35c-3,0-4.45,1.05-4.45,3.17a3,3,0,0,0,1,2.44A4.21,4.21,0,0,0,72.73,425.55Z" transform="translate(-1.45 -7.48)"/><path class="a" d="M89.58,429.33V406.05h5.85v3.52c1.29-2.72,3.76-4.09,7.4-4.09q8.49,0,8.49,8.8v15.05h-6.16V415q0-4.53-4.31-4.53a4.93,4.93,0,0,0-3.79,1.41,5.61,5.61,0,0,0-1.32,4v13.42Z" transform="translate(-1.45 -7.48)"/><path class="a" d="M118.18,421.5V410.85h-3.65v-4.8h2.2a2.18,2.18,0,0,0,1.58-.44,2.1,2.1,0,0,0,.44-1.54v-5h5.59v7h6.21v4.8h-6.21v9.81a4,4,0,0,0,.82,2.88,4,4,0,0,0,2.92.82h2.47v5h-3.88q-4.67,0-6.57-1.78T118.18,421.5Z" transform="translate(-1.45 -7.48)"/><path class="a" d="M133.71,418.15v-1c0-3.67,1-6.54,3-8.61a11.18,11.18,0,0,1,8.36-3.1c3.37,0,6,.93,7.81,2.77s2.75,4.48,2.75,7.88v3.39H139.74a6.13,6.13,0,0,0,1.78,4.2,6.67,6.67,0,0,0,4.51,1.34,10,10,0,0,0,3.39-.53,12.45,12.45,0,0,0,3.3-1.89l2.86,3.83a15,15,0,0,1-9.9,3.43q-5.85,0-8.91-3T133.71,418.15Zm11.31-8c-3.23,0-5,1.81-5.28,5.41H150a6.27,6.27,0,0,0-1.36-4.09A4.69,4.69,0,0,0,145,410.1Z" transform="translate(-1.45 -7.48)"/><path class="a" d="M160.25,429.33V406.05h5.85v4.1q1.93-4.09,7.39-4.1h1.67v5.59h-3.47q-5.28,0-5.28,5.28v12.41Z" transform="translate(-1.45 -7.48)"/><path class="a" d="M185.24,429.68a8.64,8.64,0,0,1-5.94-1.91,6.67,6.67,0,0,1-2.16-5.26,6.22,6.22,0,0,1,2.64-5.43q2.64-1.87,7.75-1.87h4.31v-.93q0-4-4.71-4a8.54,8.54,0,0,0-5.85,2.51l-3-3.65a12.12,12.12,0,0,1,4.27-2.75,14.5,14.5,0,0,1,5.24-.95c3.22,0,5.69.74,7.41,2.2a7.93,7.93,0,0,1,2.57,6.38V425h2.16v4.36h-3.56a5.59,5.59,0,0,1-3.11-.66,2.45,2.45,0,0,1-.94-2.16v-.61C191.1,428.42,188.76,429.68,185.24,429.68Zm1.76-4.13a4.64,4.64,0,0,0,3.58-1.35,5.47,5.47,0,0,0,1.26-3.89v-1.23h-4.23c-3,0-4.44,1.05-4.44,3.17a3,3,0,0,0,1,2.44A4.24,4.24,0,0,0,187,425.55Z" transform="translate(-1.45 -7.48)"/><path class="a" d="M202.22,427l2.51-4.27a11.84,11.84,0,0,0,3.5,1.69,13.31,13.31,0,0,0,3.94.6q4,0,4-2.51a1.86,1.86,0,0,0-.79-1.67,8.43,8.43,0,0,0-3.08-.88l-1.67-.27a11.67,11.67,0,0,1-5.83-2.39,5.84,5.84,0,0,1-1.87-4.56,6.27,6.27,0,0,1,2.66-5.28,11.56,11.56,0,0,1,7.06-2,17.69,17.69,0,0,1,5.13.75,12.92,12.92,0,0,1,4.29,2.16l-2.51,4.18a10.64,10.64,0,0,0-3.26-1.65,11.87,11.87,0,0,0-3.69-.6q-3.78,0-3.78,2.25a1.64,1.64,0,0,0,.74,1.49,8.29,8.29,0,0,0,2.73.84l1.63.26c2.9.47,5,1.27,6.25,2.4a6.14,6.14,0,0,1,1.89,4.82,6.63,6.63,0,0,1-2.57,5.5,11.31,11.31,0,0,1-7.16,2,19.84,19.84,0,0,1-5.6-.77A15.24,15.24,0,0,1,202.22,427Z" transform="translate(-1.45 -7.48)"/><path class="b" d="M2.66,465.13v-1q0-5.1,2.57-7.89a9.38,9.38,0,0,1,7.27-2.79,10,10,0,0,1,7.65,3.09l-1.68,1.74a7.69,7.69,0,0,0-5.94-2.52,6.65,6.65,0,0,0-5.34,2.13Q5.36,460,5.36,464.11v1q0,4.11,1.82,6.24a6.63,6.63,0,0,0,5.35,2.13,8.1,8.1,0,0,0,6.24-2.64l1.56,1.8a10.28,10.28,0,0,1-7.8,3.15A9.37,9.37,0,0,1,5.26,473Q2.67,470.2,2.66,465.13Z" transform="translate(-1.45 -7.48)"/><path class="b" d="M23.84,471.52V452.77H26.3v18.57a1.75,1.75,0,0,0,2,2h1v2h-1.5a4.06,4.06,0,0,1-2.92-1A3.76,3.76,0,0,1,23.84,471.52Z" transform="translate(-1.45 -7.48)"/><path class="b" d="M31.58,467.8v-.66a8.28,8.28,0,0,1,1.94-5.84,7,7,0,0,1,5.38-2.08,6.52,6.52,0,0,1,5,1.84,7.57,7.57,0,0,1,1.72,5.36v1.86H34a6,6,0,0,0,1.38,4.11,5.23,5.23,0,0,0,3.9,1.32,7,7,0,0,0,2.61-.47,7.82,7.82,0,0,0,2.31-1.48l1.29,1.59a9,9,0,0,1-6.33,2.37Q31.58,475.72,31.58,467.8Zm7.29-6.63q-4.62,0-4.86,5.28h9.27Q43.25,461.17,38.87,461.17Z" transform="translate(-1.45 -7.48)"/><path class="b" d="M54.11,475.57a5.81,5.81,0,0,1-4-1.28,4.35,4.35,0,0,1-1.46-3.46,4.15,4.15,0,0,1,1.68-3.57A8.21,8.21,0,0,1,55.22,466h4v-1a3.74,3.74,0,0,0-1-2.85,4.32,4.32,0,0,0-3-.9,5.73,5.73,0,0,0-4.35,2l-1.35-1.47a7.79,7.79,0,0,1,2.69-1.88,8.34,8.34,0,0,1,3.25-.64A6.66,6.66,0,0,1,60,460.64a5.37,5.37,0,0,1,1.57,4.19v8.67h1.59v1.83H61.1q-1.77,0-1.77-1.47v-1.23a4.35,4.35,0,0,1-1.93,2.16A6.54,6.54,0,0,1,54.11,475.57Zm.6-1.8q4.47,0,4.47-4.74V467.8h-3.9q-4.2,0-4.2,2.91A2.77,2.77,0,0,0,52,473,4,4,0,0,0,54.71,473.77Z" transform="translate(-1.45 -7.48)"/><path class="b" d="M66.68,475.33V459.61h2.37v2.61q1.35-3,5.31-3,5.67,0,5.67,5.91v10.2H77.57v-10a4.35,4.35,0,0,0-.93-3.08,3.86,3.86,0,0,0-2.91-1,4.5,4.5,0,0,0-3.42,1.23,5.08,5.08,0,0,0-1.17,3.63v9.18Z" transform="translate(-1.45 -7.48)"/><path class="b" d="M83.87,473.71,85,471.94a7.78,7.78,0,0,0,2.41,1.27,8.5,8.5,0,0,0,2.78.47A4.88,4.88,0,0,0,93,473a2.29,2.29,0,0,0,1-2,1.9,1.9,0,0,0-.78-1.7,8.74,8.74,0,0,0-2.94-.91l-1-.15a7.62,7.62,0,0,1-3.81-1.56,3.77,3.77,0,0,1-1.17-2.91,3.84,3.84,0,0,1,.76-2.37,5,5,0,0,1,2.12-1.59,8,8,0,0,1,3.12-.57,10,10,0,0,1,3.3.54,8.06,8.06,0,0,1,2.67,1.5l-1.14,1.68A6.49,6.49,0,0,0,93,461.7a8,8,0,0,0-2.64-.44,4.69,4.69,0,0,0-2.64.64,2.08,2.08,0,0,0-1,1.82,1.7,1.7,0,0,0,.71,1.51,6.73,6.73,0,0,0,2.53.83l.93.18a8.8,8.8,0,0,1,4.26,1.59A3.93,3.93,0,0,1,96.41,471a4.19,4.19,0,0,1-1.65,3.48,7.07,7.07,0,0,1-4.47,1.29,11.57,11.57,0,0,1-3.53-.54A9.25,9.25,0,0,1,83.87,473.71Z" transform="translate(-1.45 -7.48)"/><path class="b" d="M101.24,475.33V461.56H99.08v-1.95h3.57a.93.93,0,0,1,1,1.05v14.67Zm.93-18.57a1.65,1.65,0,1,1,0-3.3,1.66,1.66,0,0,1,1.23.45,1.83,1.83,0,0,1,0,2.4A1.66,1.66,0,0,1,102.17,456.76Z" transform="translate(-1.45 -7.48)"/><path class="b" d="M109,475.33V459.61h2.37v2.61q1.35-3,5.31-3,5.67,0,5.67,5.91v10.2h-2.46v-10a4.35,4.35,0,0,0-.93-3.08,3.86,3.86,0,0,0-2.91-1,4.5,4.5,0,0,0-3.42,1.23,5.08,5.08,0,0,0-1.17,3.63v9.18Z" transform="translate(-1.45 -7.48)"/><path class="b" d="M127.25,479.26l1.14-1.83a8.06,8.06,0,0,0,5.34,1.8,5.18,5.18,0,0,0,3.93-1.34,5.82,5.82,0,0,0,1.26-4.12v-1.59a5.87,5.87,0,0,1-2.3,2.31,7,7,0,0,1-3.46.81,6.37,6.37,0,0,1-5-2,8.42,8.42,0,0,1-1.8-5.76v-.42a8.36,8.36,0,0,1,1.86-5.79,6.62,6.62,0,0,1,5.19-2.07,5.79,5.79,0,0,1,5.67,3.27v-2.88h2.34v13.95q0,7.74-7.59,7.74a12.11,12.11,0,0,1-3.56-.51A9.25,9.25,0,0,1,127.25,479.26Zm1.56-12.18v.42a6.13,6.13,0,0,0,1.32,4.23,5.54,5.54,0,0,0,7.51,0,6,6,0,0,0,1.31-4.18v-.48a6.3,6.3,0,0,0-1.31-4.28,5.53,5.53,0,0,0-7.53,0A6.29,6.29,0,0,0,128.81,467.08Z" transform="translate(-1.45 -7.48)"/><path class="a" d="M484,414.41v-1.58q0-7.4,4-11.51t11.33-4.11a15.23,15.23,0,0,1,11.44,4.49l-3.91,4.35a10,10,0,0,0-7.53-3.12,7.9,7.9,0,0,0-6.31,2.51q-2.18,2.51-2.18,7.39v1.58q0,9.9,8.49,9.9a10.94,10.94,0,0,0,8-3.25l3.69,4.53Q506.68,430,499.37,430t-11.31-4.09Q484,421.85,484,414.41Z" transform="translate(-1.45 -7.48)"/><path class="a" d="M515.12,429.33V396.24h6.16V409c1.35-2.34,3.71-3.52,7.09-3.52q8.49,0,8.49,8.8v15.05H530.7V415q0-4.53-4.31-4.53a4.93,4.93,0,0,0-3.79,1.41,5.61,5.61,0,0,0-1.32,4v13.42Z" transform="translate(-1.45 -7.48)"/><path class="a" d="M541.35,418.2v-1q0-5.51,3.14-8.61c2.1-2.06,5-3.1,8.69-3.1s6.55,1,8.65,3.1,3.15,4.94,3.15,8.61v1q0,5.46-3.15,8.58t-8.65,3.12q-5.53,0-8.69-3.12T541.35,418.2Zm6.24-1v1q0,6.65,5.59,6.64t5.59-6.64v-1q0-6.65-5.59-6.65T547.59,417.19Z" transform="translate(-1.45 -7.48)"/><path class="a" d="M571.09,421.5V410.85h-3.65v-4.8h2.2a2.18,2.18,0,0,0,1.58-.44,2.1,2.1,0,0,0,.44-1.54v-5h5.59v7h6.2v4.8h-6.2v9.81a4,4,0,0,0,.81,2.88,4.09,4.09,0,0,0,2.93.82h2.46v5h-3.87q-4.67,0-6.58-1.78T571.09,421.5Z" transform="translate(-1.45 -7.48)"/><path class="a" d="M589.44,429.33V410.85h-2.86v-4.8h6.6a2.08,2.08,0,0,1,2.42,2.42v20.86Zm2.64-26.22a3.41,3.41,0,0,1-3.65-3.61,3.47,3.47,0,0,1,1-2.6,4.13,4.13,0,0,1,5.32,0,3.47,3.47,0,0,1,1,2.6,3.55,3.55,0,0,1-1,2.62A3.6,3.6,0,0,1,592.08,403.11Z" transform="translate(-1.45 -7.48)"/><path class="a" d="M611.53,426.78V397.91H624a17.74,17.74,0,0,1,8.27,1.81,12.66,12.66,0,0,1,5.35,5.15,16,16,0,0,1,1.87,8v1.58a16.06,16.06,0,0,1-1.87,8,12.72,12.72,0,0,1-5.35,5.15,17.74,17.74,0,0,1-8.27,1.8h-9.94a2.19,2.19,0,0,1-2.55-2.55Zm6.64-3H624a8.23,8.23,0,0,0,6.38-2.42q2.25-2.42,2.25-6.91v-1.58q0-4.49-2.25-6.91A8.27,8.27,0,0,0,624,403.5h-5.85Z" transform="translate(-1.45 -7.48)"/><path class="a" d="M645.8,429.33V410.85h-2.86v-4.8h6.6a2.08,2.08,0,0,1,2.42,2.42v20.86Zm2.64-26.22a3.6,3.6,0,0,1-2.66-1,3.55,3.55,0,0,1-1-2.62,3.47,3.47,0,0,1,1-2.6,4.13,4.13,0,0,1,5.32,0,3.47,3.47,0,0,1,1,2.6,3.41,3.41,0,0,1-3.65,3.61Z" transform="translate(-1.45 -7.48)"/><path class="a" d="M663.05,429.33l-7.22-23.28h6.65l4.35,17.38,4.4-17.38h7.18l4.4,17.34,4.35-17.34h6.34l-7.17,23.28H679l-4.35-17.2-4.4,17.2Z" transform="translate(-1.45 -7.48)"/><path class="a" d="M703,429.68a8.67,8.67,0,0,1-5.94-1.91,6.67,6.67,0,0,1-2.15-5.26,6.22,6.22,0,0,1,2.64-5.43q2.64-1.87,7.74-1.87h4.31v-.93q0-4-4.71-4a8.54,8.54,0,0,0-5.85,2.51l-3-3.65a12.08,12.08,0,0,1,4.26-2.75,14.54,14.54,0,0,1,5.24-.95c3.23,0,5.7.74,7.41,2.2a7.93,7.93,0,0,1,2.58,6.38V425h2.15v4.36h-3.56a5.55,5.55,0,0,1-3.1-.66,2.45,2.45,0,0,1-1-2.16v-.61Q708.29,429.68,703,429.68Zm1.76-4.13a4.66,4.66,0,0,0,3.59-1.35,5.51,5.51,0,0,0,1.25-3.89v-1.23h-4.22c-3,0-4.45,1.05-4.45,3.17a3,3,0,0,0,1,2.44A4.21,4.21,0,0,0,704.76,425.55Z" transform="translate(-1.45 -7.48)"/><path class="a" d="M721.39,422.64v-26.4h6.16v25.65a2.16,2.16,0,0,0,2.42,2.47h1.32v5h-3.16Q721.4,429.33,721.39,422.64Z" transform="translate(-1.45 -7.48)"/><path class="a" d="M736.35,429.33V410.85h-2.86v-4.8h6.6a2.08,2.08,0,0,1,2.42,2.42v20.86ZM739,403.11a3.6,3.6,0,0,1-2.66-1,3.55,3.55,0,0,1-1-2.62,3.47,3.47,0,0,1,1-2.6,4.13,4.13,0,0,1,5.32,0,3.47,3.47,0,0,1,1,2.6,3.41,3.41,0,0,1-3.65,3.61Z" transform="translate(-1.45 -7.48)"/><path class="b" d="M485,474.13V453.91h7.8a11.11,11.11,0,0,1,5.38,1.23,8.41,8.41,0,0,1,3.48,3.51,11.46,11.46,0,0,1,1.22,5.46v1a11.46,11.46,0,0,1-1.22,5.44,8.4,8.4,0,0,1-3.48,3.53,11.11,11.11,0,0,1-5.38,1.23h-6.6A1.06,1.06,0,0,1,485,474.13Zm2.61-1h5.19a7,7,0,0,0,5.43-2.12,8.31,8.31,0,0,0,1.95-5.86v-1a8.34,8.34,0,0,0-1.95-5.87,7,7,0,0,0-5.43-2.11H487.6Z" transform="translate(-1.45 -7.48)"/><path class="b" d="M506,467.8v-.66a8.28,8.28,0,0,1,1.93-5.84,7,7,0,0,1,5.39-2.08,6.49,6.49,0,0,1,5,1.84,7.58,7.58,0,0,1,1.73,5.36v1.86H508.39a6,6,0,0,0,1.38,4.11,5.23,5.23,0,0,0,3.9,1.32,7,7,0,0,0,2.61-.47,7.82,7.82,0,0,0,2.31-1.48l1.29,1.59a9,9,0,0,1-6.33,2.37Q506,475.72,506,467.8Zm7.29-6.63q-4.62,0-4.86,5.28h9.27Q517.63,461.17,513.25,461.17Z" transform="translate(-1.45 -7.48)"/><path class="b" d="M523.12,467.8v-.66a8.2,8.2,0,0,1,2-5.84,7.21,7.21,0,0,1,5.51-2.08,7.43,7.43,0,0,1,5.73,2.34l-1.47,1.53a5.54,5.54,0,0,0-4.14-1.77,4.77,4.77,0,0,0-3.81,1.48,6.45,6.45,0,0,0-1.29,4.34v.66q0,5.82,5.13,5.82a5.89,5.89,0,0,0,4.32-1.8l1.35,1.59a7.89,7.89,0,0,1-5.82,2.31,7.18,7.18,0,0,1-5.51-2.09A8.16,8.16,0,0,1,523.12,467.8Z" transform="translate(-1.45 -7.48)"/><path class="b" d="M538.87,467.8v-.66a8.1,8.1,0,0,1,2-5.81,8.35,8.35,0,0,1,11.1,0,8.1,8.1,0,0,1,2,5.81v.66a8.07,8.07,0,0,1-2,5.82,8.38,8.38,0,0,1-11.1,0A8.07,8.07,0,0,1,538.87,467.8Zm2.49-.66v.66a6.39,6.39,0,0,0,1.3,4.32,5.48,5.48,0,0,0,7.53,0,6.39,6.39,0,0,0,1.31-4.32v-.66a6.39,6.39,0,0,0-1.31-4.32,5.48,5.48,0,0,0-7.53,0A6.39,6.39,0,0,0,541.36,467.14Z" transform="translate(-1.45 -7.48)"/><path class="b" d="M558.13,475.33V459.61h2.34v3.06a4.62,4.62,0,0,1,2-2.28,6.37,6.37,0,0,1,3.24-.78h1.38v2.31h-1.89a4.62,4.62,0,0,0-3.47,1.17,5,5,0,0,0-1.12,3.6v8.64Z" transform="translate(-1.45 -7.48)"/><path class="b" d="M574.42,475.57a5.84,5.84,0,0,1-4-1.28,4.34,4.34,0,0,1-1.45-3.46,4.15,4.15,0,0,1,1.68-3.57,8.21,8.21,0,0,1,4.89-1.23h4v-1a3.74,3.74,0,0,0-1-2.85,4.32,4.32,0,0,0-3-.9,5.73,5.73,0,0,0-4.35,2l-1.35-1.47a7.75,7.75,0,0,1,2.68-1.88,8.39,8.39,0,0,1,3.26-.64,6.63,6.63,0,0,1,4.57,1.42,5.37,5.37,0,0,1,1.58,4.19v8.67h1.59v1.83h-2.07q-1.77,0-1.77-1.47v-1.23a4.37,4.37,0,0,1-1.94,2.16A6.5,6.5,0,0,1,574.42,475.57Zm.6-1.8q4.47,0,4.47-4.74V467.8h-3.9q-4.2,0-4.2,2.91a2.77,2.77,0,0,0,.94,2.26A4,4,0,0,0,575,473.77Z" transform="translate(-1.45 -7.48)"/><path class="b" d="M587.71,470.38v-8.82H585v-1.95h1.8a1,1,0,0,0,1.14-1.11V455h2.25v4.65h4.89v1.95h-4.89v8.55a3.61,3.61,0,0,0,.66,2.49,3.23,3.23,0,0,0,2.37.69h1.86v2h-2.28c-1.88,0-3.2-.37-3.95-1.11S587.71,472.2,587.71,470.38Z" transform="translate(-1.45 -7.48)"/><path class="b" d="M599.83,475.33V461.56h-2.16v-1.95h3.57a.93.93,0,0,1,1,1.05v14.67Zm.92-18.57a1.65,1.65,0,1,1,0-3.3,1.67,1.67,0,0,1,1.24.45,1.82,1.82,0,0,1,0,2.4A1.67,1.67,0,0,1,600.75,456.76Z" transform="translate(-1.45 -7.48)"/><path class="b" d="M607.56,475.33V459.61h2.38v2.61c.89-2,2.67-3,5.31-3q5.67,0,5.67,5.91v10.2h-2.46v-10a4.4,4.4,0,0,0-.93-3.08,3.87,3.87,0,0,0-2.91-1,4.5,4.5,0,0,0-3.42,1.23,5.08,5.08,0,0,0-1.17,3.63v9.18Z" transform="translate(-1.45 -7.48)"/><path class="b" d="M625.83,479.26l1.14-1.83a8.08,8.08,0,0,0,5.34,1.8,5.22,5.22,0,0,0,3.94-1.34,5.87,5.87,0,0,0,1.25-4.12v-1.59a5.85,5.85,0,0,1-2.29,2.31,7,7,0,0,1-3.46.81,6.34,6.34,0,0,1-5-2,8.38,8.38,0,0,1-1.81-5.76v-.42a8.36,8.36,0,0,1,1.86-5.79,6.63,6.63,0,0,1,5.2-2.07,5.81,5.81,0,0,1,5.67,3.27v-2.88H640v13.95q0,7.74-7.58,7.74a12.06,12.06,0,0,1-3.56-.51A9.3,9.3,0,0,1,625.83,479.26Zm1.56-12.18v.42a6.13,6.13,0,0,0,1.32,4.23,5.56,5.56,0,0,0,7.52,0,6,6,0,0,0,1.31-4.18v-.48a6.3,6.3,0,0,0-1.31-4.28,5.53,5.53,0,0,0-7.53,0A6.3,6.3,0,0,0,627.39,467.08Z" transform="translate(-1.45 -7.48)"/><path class="a" d="M1029,426.78V397.91h12.49a17.81,17.81,0,0,1,8.28,1.81,12.64,12.64,0,0,1,5.34,5.15,16,16,0,0,1,1.87,8v1.58a16.06,16.06,0,0,1-1.87,8,12.7,12.7,0,0,1-5.34,5.15,17.81,17.81,0,0,1-8.28,1.8h-9.94a2.65,2.65,0,0,1-2-.62A2.72,2.72,0,0,1,1029,426.78Zm6.64-3h5.85a8.23,8.23,0,0,0,6.38-2.42q2.25-2.42,2.25-6.91v-1.58q0-4.49-2.25-6.91a8.27,8.27,0,0,0-6.38-2.42h-5.85Z" transform="translate(-1.45 -7.48)"/><path class="a" d="M1063.26,429.33V410.85h-2.86v-4.8h6.6a2.08,2.08,0,0,1,2.42,2.42v20.86Zm2.64-26.22a3.6,3.6,0,0,1-2.66-1,3.55,3.55,0,0,1-1-2.62,3.47,3.47,0,0,1,1-2.6,4.15,4.15,0,0,1,5.33,0,3.47,3.47,0,0,1,1,2.6,3.55,3.55,0,0,1-1,2.62A3.61,3.61,0,0,1,1065.9,403.11Z" transform="translate(-1.45 -7.48)"/><path class="a" d="M1080.51,429.33l-7.22-23.28h6.65l4.35,17.38,4.41-17.38h7.17l4.4,17.34,4.35-17.34H1111l-7.17,23.28h-7.31l-4.35-17.2-4.4,17.2Z" transform="translate(-1.45 -7.48)"/><path class="a" d="M1120.46,429.68a8.67,8.67,0,0,1-5.94-1.91,6.7,6.7,0,0,1-2.15-5.26,6.22,6.22,0,0,1,2.64-5.43q2.64-1.87,7.74-1.87h4.31v-.93q0-4-4.7-4a8.54,8.54,0,0,0-5.86,2.51l-3-3.65a12,12,0,0,1,4.27-2.75,14.45,14.45,0,0,1,5.23-.95c3.23,0,5.7.74,7.42,2.2a8,8,0,0,1,2.57,6.38V425h2.16v4.36h-3.57a5.55,5.55,0,0,1-3.1-.66,2.45,2.45,0,0,1-1-2.16v-.61Q1125.74,429.68,1120.46,429.68Zm1.76-4.13a4.66,4.66,0,0,0,3.59-1.35,5.46,5.46,0,0,0,1.25-3.89v-1.23h-4.22c-3,0-4.44,1.05-4.44,3.17a3,3,0,0,0,1,2.44A4.21,4.21,0,0,0,1122.22,425.55Z" transform="translate(-1.45 -7.48)"/><path class="a" d="M1138.86,422.64v-26.4H1145v25.65a2.16,2.16,0,0,0,2.42,2.47h1.31v5h-3.16Q1138.86,429.33,1138.86,422.64Z" transform="translate(-1.45 -7.48)"/><path class="a" d="M1153.81,429.33V410.85H1151v-4.8h6.59a2.49,2.49,0,0,1,1.85.58,2.52,2.52,0,0,1,.58,1.84v20.86Zm2.65-26.22a3.61,3.61,0,0,1-2.67-1,3.55,3.55,0,0,1-1-2.62,3.47,3.47,0,0,1,1-2.6,4.15,4.15,0,0,1,5.33,0,3.47,3.47,0,0,1,1,2.6,3.55,3.55,0,0,1-1,2.62A3.6,3.6,0,0,1,1156.46,403.11Z" transform="translate(-1.45 -7.48)"/><path class="b" d="M1028.51,474.13V453.91h2.61v19.17h11.25v2.25h-12.66A1.06,1.06,0,0,1,1028.51,474.13Z" transform="translate(-1.45 -7.48)"/><path class="b" d="M1050.65,475.57a5.84,5.84,0,0,1-4-1.28,4.34,4.34,0,0,1-1.45-3.46,4.15,4.15,0,0,1,1.68-3.57,8.21,8.21,0,0,1,4.89-1.23h4v-1a3.74,3.74,0,0,0-1-2.85,4.32,4.32,0,0,0-3-.9,5.73,5.73,0,0,0-4.35,2l-1.35-1.47a7.75,7.75,0,0,1,2.68-1.88,8.39,8.39,0,0,1,3.26-.64,6.63,6.63,0,0,1,4.57,1.42,5.37,5.37,0,0,1,1.58,4.19v8.67h1.59v1.83h-2.07q-1.77,0-1.77-1.47v-1.23a4.37,4.37,0,0,1-1.94,2.16A6.5,6.5,0,0,1,1050.65,475.57Zm.6-1.8q4.47,0,4.47-4.74V467.8h-3.9q-4.2,0-4.2,2.91a2.77,2.77,0,0,0,.94,2.26A4,4,0,0,0,1051.25,473.77Z" transform="translate(-1.45 -7.48)"/><path class="b" d="M1063.22,475.33V452.77h2.46v13.11h2.4l5.7-6.27h2.85L1070,467l7.2,8.37h-3l-6.33-7.32h-2.16v7.32Z" transform="translate(-1.45 -7.48)"/><path class="b" d="M1078.76,473.71l1.11-1.77a7.78,7.78,0,0,0,2.41,1.27,8.5,8.5,0,0,0,2.78.47,4.88,4.88,0,0,0,2.85-.72,2.29,2.29,0,0,0,1-2,1.9,1.9,0,0,0-.78-1.7,8.74,8.74,0,0,0-2.94-.91l-1-.15a7.62,7.62,0,0,1-3.81-1.56,3.77,3.77,0,0,1-1.17-2.91,3.84,3.84,0,0,1,.76-2.37,5,5,0,0,1,2.12-1.59,8,8,0,0,1,3.12-.57,10,10,0,0,1,3.3.54,8.06,8.06,0,0,1,2.67,1.5l-1.14,1.68a6.49,6.49,0,0,0-2.22-1.24,8,8,0,0,0-2.64-.44,4.69,4.69,0,0,0-2.64.64,2.08,2.08,0,0,0-1,1.82,1.71,1.71,0,0,0,.7,1.51,6.86,6.86,0,0,0,2.54.83l.93.18a8.8,8.8,0,0,1,4.26,1.59,3.93,3.93,0,0,1,1.23,3.12,4.19,4.19,0,0,1-1.65,3.48,7.07,7.07,0,0,1-4.47,1.29,11.57,11.57,0,0,1-3.53-.54A9.25,9.25,0,0,1,1078.76,473.71Z" transform="translate(-1.45 -7.48)"/><path class="b" d="M1095.56,475.33V452.77H1098V462q1.38-2.82,5.22-2.82,5.67,0,5.67,5.91v10.2h-2.46v-10a4.35,4.35,0,0,0-.93-3.08,3.86,3.86,0,0,0-2.91-1,4.5,4.5,0,0,0-3.42,1.23,5.08,5.08,0,0,0-1.17,3.63v9.18Z" transform="translate(-1.45 -7.48)"/><path class="b" d="M1114.07,475.33V459.61h2.37v2.61q1.29-3,5-3,3.93,0,5,3.12,1.38-3.12,5.31-3.12,5.37,0,5.37,5.91v10.2h-2.46v-10q0-4.05-3.54-4a4.1,4.1,0,0,0-3.21,1.23,5.26,5.26,0,0,0-1.11,3.63v9.18h-2.46v-10a4.6,4.6,0,0,0-.86-3.06,3.35,3.35,0,0,0-2.68-1q-4.29,0-4.29,4.86v9.18Z" transform="translate(-1.45 -7.48)"/><path class="b" d="M1142.87,475.33V461.56h-2.16v-1.95h3.57a.93.93,0,0,1,1,1.05v14.67Zm.93-18.57a1.65,1.65,0,1,1,0-3.3,1.66,1.66,0,0,1,1.23.45,1.82,1.82,0,0,1,0,2.4A1.66,1.66,0,0,1,1143.8,456.76Z" transform="translate(-1.45 -7.48)"/><path class="b" d="M1157.45,475.33V453.91h8a8.37,8.37,0,0,1,5.53,1.66,5.72,5.72,0,0,1,2,4.64v.63a5.7,5.7,0,0,1-2,4.63,8.37,8.37,0,0,1-5.53,1.67h-5.43v8.19Zm2.61-10.38h5.4a5.53,5.53,0,0,0,3.64-1.07,3.72,3.72,0,0,0,1.28-3v-.63a3.76,3.76,0,0,0-1.28-3,5.58,5.58,0,0,0-3.64-1.06h-5.4Z" transform="translate(-1.45 -7.48)"/><path class="b" d="M1176.26,469.81v-10.2h2.46v10a4.4,4.4,0,0,0,.91,3.08,3.81,3.81,0,0,0,2.87,1,4.3,4.3,0,0,0,3.36-1.25,5.16,5.16,0,0,0,1.14-3.61v-9.18h2.46v15.72h-2.37v-2.61q-1.32,3-5.22,3Q1176.26,475.72,1176.26,469.81Z" transform="translate(-1.45 -7.48)"/><path class="b" d="M1191.83,480.91v-2h.9a2.6,2.6,0,0,0,2-.66,3,3,0,0,0,.63-2.13V461.56h-2.16v-1.95h3.57a.93.93,0,0,1,1,1.05v15.51a4.15,4.15,0,0,1-4.77,4.74Zm4.41-24.15a1.61,1.61,0,0,1-1.2-.45,1.8,1.8,0,0,1,0-2.4,1.61,1.61,0,0,1,1.2-.45,1.68,1.68,0,0,1,1.23.45,1.82,1.82,0,0,1,0,2.4A1.68,1.68,0,0,1,1196.24,456.76Z" transform="translate(-1.45 -7.48)"/><path class="b" d="M1207,475.57a5.82,5.82,0,0,1-4-1.28,4.34,4.34,0,0,1-1.45-3.46,4.13,4.13,0,0,1,1.68-3.57,8.15,8.15,0,0,1,4.88-1.23h4v-1a3.74,3.74,0,0,0-1-2.85,4.3,4.3,0,0,0-3-.9,5.71,5.71,0,0,0-4.34,2l-1.35-1.47a7.75,7.75,0,0,1,2.68-1.88,8.37,8.37,0,0,1,3.25-.64,6.66,6.66,0,0,1,4.58,1.42,5.37,5.37,0,0,1,1.58,4.19v8.67H1216v1.83H1214c-1.18,0-1.76-.49-1.76-1.47v-1.23a4.42,4.42,0,0,1-1.94,2.16A6.53,6.53,0,0,1,1207,475.57Zm.6-1.8q4.45,0,4.46-4.74V467.8h-3.89c-2.81,0-4.2,1-4.2,2.91a2.77,2.77,0,0,0,.94,2.26A4,4,0,0,0,1207.58,473.77Z" transform="translate(-1.45 -7.48)"/><path class="a" d="M1484.6,429.33V397.91h12.67q5.58,0,8.73,2.67a9.12,9.12,0,0,1,3.15,7.37v.88a9.13,9.13,0,0,1-3.15,7.37q-3.15,2.66-8.73,2.66h-6.12v10.47Zm6.55-15.93h6a5.86,5.86,0,0,0,4-1.21,4.28,4.28,0,0,0,1.38-3.41V408a4.35,4.35,0,0,0-1.38-3.43,5.82,5.82,0,0,0-4-1.23h-6Z" transform="translate(-1.45 -7.48)"/><path class="a" d="M1519.75,429.68a8.67,8.67,0,0,1-5.94-1.91,6.67,6.67,0,0,1-2.16-5.26,6.22,6.22,0,0,1,2.64-5.43c1.76-1.25,4.35-1.87,7.75-1.87h4.31v-.93q0-4-4.71-4a8.54,8.54,0,0,0-5.85,2.51l-3-3.65a12.21,12.21,0,0,1,4.27-2.75,14.54,14.54,0,0,1,5.24-.95c3.23,0,5.7.74,7.41,2.2a7.93,7.93,0,0,1,2.58,6.38V425h2.15v4.36h-3.56a5.55,5.55,0,0,1-3.1-.66,2.45,2.45,0,0,1-1-2.16v-.61Q1525,429.68,1519.75,429.68Zm1.76-4.13a4.66,4.66,0,0,0,3.59-1.35,5.51,5.51,0,0,0,1.25-3.89v-1.23h-4.22c-3,0-4.45,1.05-4.45,3.17a3,3,0,0,0,1,2.44A4.26,4.26,0,0,0,1521.51,425.55Z" transform="translate(-1.45 -7.48)"/><path class="a" d="M1536.91,418.2v-1q0-5.6,2.64-8.65a9.3,9.3,0,0,1,7.44-3.06,8.14,8.14,0,0,1,7.21,3.48V396.24h6.16v33.09h-5.85v-3.65q-2.46,4.21-7.88,4.22a8.9,8.9,0,0,1-7.21-3C1537.75,424.92,1536.91,422,1536.91,418.2Zm6.25-1v1q0,6.65,5.54,6.64t5.55-6.64v-1q0-6.65-5.55-6.65T1543.16,417.19Z" transform="translate(-1.45 -7.48)"/><path class="a" d="M1571.45,429.33l-7.22-23.28h6.65l4.35,17.38,4.4-17.38h7.18l4.4,17.34,4.35-17.34h6.34l-7.17,23.28h-7.31l-4.35-17.2-4.4,17.2Z" transform="translate(-1.45 -7.48)"/><path class="a" d="M1611.4,429.68a8.67,8.67,0,0,1-5.94-1.91,6.67,6.67,0,0,1-2.15-5.26,6.22,6.22,0,0,1,2.64-5.43q2.64-1.87,7.74-1.87H1618v-.93q0-4-4.71-4a8.54,8.54,0,0,0-5.85,2.51l-3-3.65a12.08,12.08,0,0,1,4.26-2.75,14.54,14.54,0,0,1,5.24-.95c3.23,0,5.7.74,7.41,2.2a7.93,7.93,0,0,1,2.58,6.38V425h2.15v4.36h-3.56a5.55,5.55,0,0,1-3.1-.66,2.45,2.45,0,0,1-1-2.16v-.61Q1616.69,429.68,1611.4,429.68Zm1.76-4.13a4.66,4.66,0,0,0,3.59-1.35,5.51,5.51,0,0,0,1.25-3.89v-1.23h-4.22c-3,0-4.45,1.05-4.45,3.17a3,3,0,0,0,1,2.44A4.21,4.21,0,0,0,1613.16,425.55Z" transform="translate(-1.45 -7.48)"/><path class="b" d="M1483,465.13v-1q0-5.1,2.56-7.89a9.4,9.4,0,0,1,7.28-2.79,10,10,0,0,1,7.65,3.09l-1.68,1.74a7.71,7.71,0,0,0-5.94-2.52,6.65,6.65,0,0,0-5.34,2.13q-1.83,2.13-1.83,6.24v1q0,4.11,1.81,6.24a6.66,6.66,0,0,0,5.36,2.13,8.1,8.1,0,0,0,6.24-2.64l1.56,1.8a10.28,10.28,0,0,1-7.8,3.15,9.4,9.4,0,0,1-7.28-2.81Q1482.95,470.2,1483,465.13Z" transform="translate(-1.45 -7.48)"/><path class="b" d="M1503.11,467.8v-.66a8.28,8.28,0,0,1,1.93-5.84,7,7,0,0,1,5.39-2.08,6.49,6.49,0,0,1,5,1.84,7.58,7.58,0,0,1,1.73,5.36v1.86h-11.61a6,6,0,0,0,1.38,4.11,5.21,5.21,0,0,0,3.9,1.32,7,7,0,0,0,2.61-.47,8,8,0,0,0,2.31-1.48l1.29,1.59a9,9,0,0,1-6.33,2.37C1505.63,475.72,1503.11,473.08,1503.11,467.8Zm7.29-6.63q-4.62,0-4.86,5.28h9.27Q1514.78,461.17,1510.4,461.17Z" transform="translate(-1.45 -7.48)"/><path class="b" d="M1521,471.52V452.77h2.46v18.57a1.75,1.75,0,0,0,2,2h1v2h-1.5a4.07,4.07,0,0,1-2.93-1A3.76,3.76,0,0,1,1521,471.52Z" transform="translate(-1.45 -7.48)"/><path class="b" d="M1528.72,467.8v-.66a8.28,8.28,0,0,1,1.94-5.84,7,7,0,0,1,5.38-2.08,6.52,6.52,0,0,1,5,1.84,7.57,7.57,0,0,1,1.72,5.36v1.86h-11.61a5.93,5.93,0,0,0,1.39,4.11,5.2,5.2,0,0,0,3.89,1.32,7,7,0,0,0,2.61-.47,7.86,7.86,0,0,0,2.32-1.48l1.28,1.59a9,9,0,0,1-6.33,2.37Q1528.72,475.72,1528.72,467.8Zm7.29-6.63q-4.62,0-4.86,5.28h9.27Q1540.39,461.17,1536,461.17Z" transform="translate(-1.45 -7.48)"/><path class="b" d="M1546.75,475.33V452.77h2.46v9.66a5.85,5.85,0,0,1,2.31-2.39,7,7,0,0,1,3.48-.82,6.25,6.25,0,0,1,5,2.08,8.73,8.73,0,0,1,1.78,5.84v.66a8.52,8.52,0,0,1-1.84,5.82,6.57,6.57,0,0,1-5.21,2.1,5.79,5.79,0,0,1-5.67-3.3v2.91Zm2.43-8.19v.66a6.39,6.39,0,0,0,1.31,4.32,5.48,5.48,0,0,0,7.53,0,6.39,6.39,0,0,0,1.3-4.32v-.66a6.39,6.39,0,0,0-1.3-4.32,5.48,5.48,0,0,0-7.53,0A6.39,6.39,0,0,0,1549.18,467.14Z" transform="translate(-1.45 -7.48)"/><path class="b" d="M1565.92,475.33V459.61h2.34v3.06a4.62,4.62,0,0,1,2-2.28,6.37,6.37,0,0,1,3.24-.78h1.38v2.31H1573a4.6,4.6,0,0,0-3.46,1.17,5,5,0,0,0-1.13,3.6v8.64Z" transform="translate(-1.45 -7.48)"/><path class="b" d="M1582.21,475.57a5.81,5.81,0,0,1-4-1.28,4.35,4.35,0,0,1-1.46-3.46,4.15,4.15,0,0,1,1.68-3.57,8.21,8.21,0,0,1,4.89-1.23h4v-1a3.74,3.74,0,0,0-1-2.85,4.32,4.32,0,0,0-3-.9,5.73,5.73,0,0,0-4.35,2l-1.35-1.47a7.79,7.79,0,0,1,2.69-1.88,8.34,8.34,0,0,1,3.25-.64,6.66,6.66,0,0,1,4.58,1.42,5.37,5.37,0,0,1,1.57,4.19v8.67h1.59v1.83h-2.07q-1.77,0-1.77-1.47v-1.23a4.35,4.35,0,0,1-1.93,2.16A6.54,6.54,0,0,1,1582.21,475.57Zm.6-1.8q4.47,0,4.47-4.74V467.8h-3.9q-4.2,0-4.2,2.91a2.77,2.77,0,0,0,1,2.26A4,4,0,0,0,1582.81,473.77Z" transform="translate(-1.45 -7.48)"/><path class="b" d="M1595.5,470.38v-8.82h-2.73v-1.95h1.8a1,1,0,0,0,1.14-1.11V455H1598v4.65h4.89v1.95H1598v8.55a3.61,3.61,0,0,0,.66,2.49,3.23,3.23,0,0,0,2.37.69h1.86v2h-2.28c-1.88,0-3.19-.37-3.94-1.11A5.29,5.29,0,0,1,1595.5,470.38Z" transform="translate(-1.45 -7.48)"/><path class="b" d="M1607.62,475.33V461.56h-2.16v-1.95H1609a.93.93,0,0,1,1,1.05v14.67Zm.93-18.57a1.65,1.65,0,1,1,0-3.3,1.66,1.66,0,0,1,1.23.45,1.82,1.82,0,0,1,0,2.4A1.66,1.66,0,0,1,1608.55,456.76Z" transform="translate(-1.45 -7.48)"/><path class="b" d="M1614.19,467.8v-.66a8.1,8.1,0,0,1,2-5.81,8.35,8.35,0,0,1,11.1,0,8.1,8.1,0,0,1,2,5.81v.66a8.07,8.07,0,0,1-2,5.82,8.38,8.38,0,0,1-11.1,0A8.07,8.07,0,0,1,1614.19,467.8Zm2.49-.66v.66a6.39,6.39,0,0,0,1.31,4.32,5.48,5.48,0,0,0,7.53,0,6.39,6.39,0,0,0,1.3-4.32v-.66a6.39,6.39,0,0,0-1.3-4.32,5.48,5.48,0,0,0-7.53,0A6.39,6.39,0,0,0,1616.68,467.14Z" transform="translate(-1.45 -7.48)"/><path class="b" d="M1633.45,475.33V459.61h2.37v2.61q1.35-3,5.31-3,5.67,0,5.67,5.91v10.2h-2.46v-10a4.35,4.35,0,0,0-.93-3.08,3.86,3.86,0,0,0-2.91-1,4.5,4.5,0,0,0-3.42,1.23,5.08,5.08,0,0,0-1.17,3.63v9.18Z" transform="translate(-1.45 -7.48)"/><path class="b" d="M1650.64,473.71l1.11-1.77a7.84,7.84,0,0,0,2.42,1.27,8.44,8.44,0,0,0,2.77.47,4.88,4.88,0,0,0,2.85-.72,2.29,2.29,0,0,0,1-2,1.9,1.9,0,0,0-.78-1.7,8.74,8.74,0,0,0-2.94-.91l-1-.15a7.62,7.62,0,0,1-3.81-1.56,3.77,3.77,0,0,1-1.17-2.91,3.85,3.85,0,0,1,.77-2.37,5,5,0,0,1,2.11-1.59,8,8,0,0,1,3.12-.57,10,10,0,0,1,3.3.54,8.06,8.06,0,0,1,2.67,1.5l-1.14,1.68a6.49,6.49,0,0,0-2.22-1.24,8,8,0,0,0-2.64-.44,4.69,4.69,0,0,0-2.64.64,2.08,2.08,0,0,0-1,1.82,1.72,1.72,0,0,0,.71,1.51,6.8,6.8,0,0,0,2.53.83l.93.18a8.8,8.8,0,0,1,4.26,1.59,3.93,3.93,0,0,1,1.23,3.12,4.19,4.19,0,0,1-1.65,3.48,7.07,7.07,0,0,1-4.47,1.29,11.51,11.51,0,0,1-3.52-.54A9.3,9.3,0,0,1,1650.64,473.71Z" transform="translate(-1.45 -7.48)"/><path class="b" d="M1672.93,467.8v-.66a8.1,8.1,0,0,1,2-5.81,8.35,8.35,0,0,1,11.1,0,8.1,8.1,0,0,1,2,5.81v.66a8.07,8.07,0,0,1-2,5.82,8.38,8.38,0,0,1-11.1,0A8.07,8.07,0,0,1,1672.93,467.8Zm2.49-.66v.66a6.39,6.39,0,0,0,1.31,4.32,5.48,5.48,0,0,0,7.53,0,6.39,6.39,0,0,0,1.3-4.32v-.66a6.39,6.39,0,0,0-1.3-4.32,5.48,5.48,0,0,0-7.53,0A6.39,6.39,0,0,0,1675.42,467.14Z" transform="translate(-1.45 -7.48)"/><path class="b" d="M1692.61,475.33V461.56h-2.73v-1.95h2.73v-1.5q0-5.34,5.52-5.34h2.13v2h-2a3.21,3.21,0,0,0-2.4.79,3.64,3.64,0,0,0-.75,2.54v1.5H1700v1.95h-4.89v13.77Z" transform="translate(-1.45 -7.48)"/><path class="b" d="M1710,471.52V452.77h2.46v18.57a1.75,1.75,0,0,0,2,2h1v2h-1.5a4.06,4.06,0,0,1-2.92-1A3.76,3.76,0,0,1,1710,471.52Z" transform="translate(-1.45 -7.48)"/><path class="b" d="M1717.69,467.8v-.66a8.1,8.1,0,0,1,2-5.81,8.35,8.35,0,0,1,11.1,0,8.1,8.1,0,0,1,2,5.81v.66a8.07,8.07,0,0,1-2,5.82,8.38,8.38,0,0,1-11.1,0A8.07,8.07,0,0,1,1717.69,467.8Zm2.49-.66v.66a6.39,6.39,0,0,0,1.31,4.32,5.48,5.48,0,0,0,7.53,0,6.39,6.39,0,0,0,1.3-4.32v-.66a6.39,6.39,0,0,0-1.3-4.32,5.48,5.48,0,0,0-7.53,0A6.39,6.39,0,0,0,1720.18,467.14Z" transform="translate(-1.45 -7.48)"/><path class="b" d="M1740.82,475.33l-6.36-15.72h2.67l5.22,13.62,5.16-13.62h2.61l-6.36,15.72Z" transform="translate(-1.45 -7.48)"/><path class="b" d="M1751.74,467.8v-.66a8.28,8.28,0,0,1,1.94-5.84,7,7,0,0,1,5.38-2.08,6.52,6.52,0,0,1,5,1.84,7.57,7.57,0,0,1,1.72,5.36v1.86h-11.61a6,6,0,0,0,1.38,4.11,5.23,5.23,0,0,0,3.9,1.32,7,7,0,0,0,2.61-.47,7.82,7.82,0,0,0,2.31-1.48l1.29,1.59a9,9,0,0,1-6.33,2.37Q1751.74,475.72,1751.74,467.8Zm7.29-6.63q-4.62,0-4.86,5.28h9.27Q1763.41,461.17,1759,461.17Z" transform="translate(-1.45 -7.48)"/><path class="b" d="M1483.94,511.33V488.77h2.46v9.66a5.85,5.85,0,0,1,2.31-2.39,7,7,0,0,1,3.48-.82,6.24,6.24,0,0,1,5,2.08,8.73,8.73,0,0,1,1.79,5.84v.66a8.52,8.52,0,0,1-1.85,5.82,6.55,6.55,0,0,1-5.2,2.1,5.79,5.79,0,0,1-5.67-3.3v2.91Zm2.43-8.19v.66a6.39,6.39,0,0,0,1.3,4.32,5.48,5.48,0,0,0,7.53,0,6.39,6.39,0,0,0,1.31-4.32v-.66a6.39,6.39,0,0,0-1.31-4.32,5.48,5.48,0,0,0-7.53,0A6.39,6.39,0,0,0,1486.37,503.14Z" transform="translate(-1.45 -7.48)"/><path class="b" d="M1501.94,503.8v-.66a8.28,8.28,0,0,1,1.93-5.84,7,7,0,0,1,5.38-2.08,6.52,6.52,0,0,1,5,1.84,7.58,7.58,0,0,1,1.73,5.36v1.86h-11.61a5.88,5.88,0,0,0,1.38,4.11,5.21,5.21,0,0,0,3.9,1.32,6.92,6.92,0,0,0,2.6-.47,7.86,7.86,0,0,0,2.32-1.48l1.29,1.59a9,9,0,0,1-6.33,2.37C1504.46,511.72,1501.94,509.08,1501.94,503.8Zm7.29-6.63c-3.08,0-4.71,1.76-4.86,5.28h9.26Q1513.61,497.17,1509.23,497.17Z" transform="translate(-1.45 -7.48)"/><path class="b" d="M1520.92,506.38v-8.82h-2.73v-1.95h1.8a1,1,0,0,0,1.14-1.11V491h2.25v4.65h4.89v1.95h-4.89v8.55a3.61,3.61,0,0,0,.66,2.49,3.24,3.24,0,0,0,2.38.69h1.85v2H1526c-1.88,0-3.19-.37-3.94-1.11A5.29,5.29,0,0,1,1520.92,506.38Z" transform="translate(-1.45 -7.48)"/><path class="b" d="M1535.26,511.33l-5-15.72h2.64l4,13.41,4-13.41h2.85l4.11,13.35,3.93-13.35h2.56l-5,15.72h-3l-4-13.14-4,13.14Z" transform="translate(-1.45 -7.48)"/><path class="b" d="M1556.2,503.8v-.66a8.28,8.28,0,0,1,1.94-5.84,7,7,0,0,1,5.38-2.08,6.52,6.52,0,0,1,5,1.84,7.57,7.57,0,0,1,1.72,5.36v1.86h-11.61a6,6,0,0,0,1.38,4.11,5.23,5.23,0,0,0,3.9,1.32,7,7,0,0,0,2.61-.47,7.82,7.82,0,0,0,2.31-1.48l1.29,1.59a9,9,0,0,1-6.33,2.37Q1556.2,511.72,1556.2,503.8Zm7.29-6.63q-4.62,0-4.86,5.28h9.27Q1567.87,497.17,1563.49,497.17Z" transform="translate(-1.45 -7.48)"/><path class="b" d="M1573.36,503.8v-.66a8.28,8.28,0,0,1,1.94-5.84,7,7,0,0,1,5.38-2.08,6.52,6.52,0,0,1,5,1.84,7.57,7.57,0,0,1,1.72,5.36v1.86h-11.61a6,6,0,0,0,1.38,4.11,5.23,5.23,0,0,0,3.9,1.32,7,7,0,0,0,2.61-.47,7.82,7.82,0,0,0,2.31-1.48l1.29,1.59a9,9,0,0,1-6.33,2.37Q1573.36,511.72,1573.36,503.8Zm7.29-6.63q-4.62,0-4.86,5.28h9.27Q1585,497.17,1580.65,497.17Z" transform="translate(-1.45 -7.48)"/><path class="b" d="M1591.39,511.33V495.61h2.37v2.61q1.35-3,5.31-3,5.67,0,5.67,5.91v10.2h-2.46v-10a4.35,4.35,0,0,0-.93-3.08,3.86,3.86,0,0,0-2.91-1,4.5,4.5,0,0,0-3.42,1.23,5.08,5.08,0,0,0-1.17,3.63v9.18Z" transform="translate(-1.45 -7.48)"/><path class="b" d="M1616.56,511.33V488.77H1619V498q1.38-2.82,5.22-2.82,5.67,0,5.67,5.91v10.2h-2.46v-10a4.35,4.35,0,0,0-.93-3.08,3.86,3.86,0,0,0-2.91-1,4.5,4.5,0,0,0-3.42,1.23,5.08,5.08,0,0,0-1.17,3.63v9.18Z" transform="translate(-1.45 -7.48)"/><path class="b" d="M1634.71,505.81v-10.2h2.46v10a4.4,4.4,0,0,0,.92,3.08,3.79,3.79,0,0,0,2.86,1,4.3,4.3,0,0,0,3.36-1.25,5.16,5.16,0,0,0,1.14-3.61v-9.18h2.46v15.72h-2.37v-2.61q-1.32,3-5.22,3Q1634.71,511.72,1634.71,505.81Z" transform="translate(-1.45 -7.48)"/><path class="b" d="M1651.87,509.71l1.11-1.77a7.84,7.84,0,0,0,2.42,1.27,8.44,8.44,0,0,0,2.77.47A4.88,4.88,0,0,0,1661,509a2.29,2.29,0,0,0,1-2,1.9,1.9,0,0,0-.78-1.7,8.74,8.74,0,0,0-2.94-.91l-1-.15a7.62,7.62,0,0,1-3.81-1.56,3.77,3.77,0,0,1-1.17-2.91,3.85,3.85,0,0,1,.77-2.37,5,5,0,0,1,2.11-1.59,8,8,0,0,1,3.12-.57,10,10,0,0,1,3.3.54,8.06,8.06,0,0,1,2.67,1.5l-1.14,1.68a6.49,6.49,0,0,0-2.22-1.24,8,8,0,0,0-2.64-.44,4.69,4.69,0,0,0-2.64.64,2.08,2.08,0,0,0-1,1.82,1.72,1.72,0,0,0,.71,1.51,6.8,6.8,0,0,0,2.53.83l.93.18a8.8,8.8,0,0,1,4.26,1.59,3.93,3.93,0,0,1,1.23,3.12,4.19,4.19,0,0,1-1.65,3.48,7.07,7.07,0,0,1-4.47,1.29,11.51,11.51,0,0,1-3.52-.54A9.3,9.3,0,0,1,1651.87,509.71Z" transform="translate(-1.45 -7.48)"/><path class="b" d="M1668.67,511.33V488.77h2.46v9.66a5.85,5.85,0,0,1,2.31-2.39,7,7,0,0,1,3.48-.82,6.26,6.26,0,0,1,5,2.08,8.73,8.73,0,0,1,1.78,5.84v.66a8.52,8.52,0,0,1-1.84,5.82,6.57,6.57,0,0,1-5.21,2.1,5.79,5.79,0,0,1-5.67-3.3v2.91Zm2.43-8.19v.66a6.39,6.39,0,0,0,1.31,4.32,5.48,5.48,0,0,0,7.53,0,6.39,6.39,0,0,0,1.3-4.32v-.66a6.39,6.39,0,0,0-1.3-4.32,5.48,5.48,0,0,0-7.53,0A6.39,6.39,0,0,0,1671.1,503.14Z" transform="translate(-1.45 -7.48)"/><path class="b" d="M1692.07,511.57a5.81,5.81,0,0,1-4-1.28,4.35,4.35,0,0,1-1.46-3.46,4.15,4.15,0,0,1,1.68-3.57,8.21,8.21,0,0,1,4.89-1.23h4v-1a3.74,3.74,0,0,0-1-2.85,4.32,4.32,0,0,0-3-.9,5.73,5.73,0,0,0-4.35,2l-1.35-1.47a7.79,7.79,0,0,1,2.69-1.88,8.34,8.34,0,0,1,3.25-.64,6.66,6.66,0,0,1,4.58,1.42,5.37,5.37,0,0,1,1.57,4.19v8.67h1.59v1.83h-2.07q-1.77,0-1.77-1.47v-1.23a4.35,4.35,0,0,1-1.93,2.16A6.54,6.54,0,0,1,1692.07,511.57Zm.6-1.8q4.47,0,4.47-4.74V503.8h-3.9q-4.2,0-4.2,2.91a2.77,2.77,0,0,0,1,2.26A4,4,0,0,0,1692.67,509.77Z" transform="translate(-1.45 -7.48)"/><path class="b" d="M1704.64,511.33V495.61H1707v2.61q1.35-3,5.31-3,5.67,0,5.67,5.91v10.2h-2.46v-10a4.35,4.35,0,0,0-.93-3.08,3.86,3.86,0,0,0-2.91-1,4.5,4.5,0,0,0-3.42,1.23,5.08,5.08,0,0,0-1.17,3.63v9.18Z" transform="translate(-1.45 -7.48)"/><path class="b" d="M1722,503.8v-.66a8.5,8.5,0,0,1,1.86-5.84,6.59,6.59,0,0,1,5.19-2.08,5.81,5.81,0,0,1,5.55,3v-9.48H1737v22.56h-2.34v-3a5.8,5.8,0,0,1-2.31,2.53,6.9,6.9,0,0,1-3.57.89,6.25,6.25,0,0,1-5-2.09A8.69,8.69,0,0,1,1722,503.8Zm2.49-.66v.66a6.39,6.39,0,0,0,1.31,4.32,5.48,5.48,0,0,0,7.53,0,6.39,6.39,0,0,0,1.3-4.32v-.66a6.39,6.39,0,0,0-1.3-4.32,5.5,5.5,0,0,0-7.53,0A6.4,6.4,0,0,0,1724.47,503.14Z" transform="translate(-1.45 -7.48)"/><path class="b" d="M1752.91,511.57a5.81,5.81,0,0,1-4-1.28,4.32,4.32,0,0,1-1.46-3.46,4.15,4.15,0,0,1,1.68-3.57A8.21,8.21,0,0,1,1754,502h4v-1a3.74,3.74,0,0,0-1-2.85,4.32,4.32,0,0,0-3-.9,5.73,5.73,0,0,0-4.35,2l-1.35-1.47a7.85,7.85,0,0,1,2.68-1.88,8.39,8.39,0,0,1,3.26-.64,6.63,6.63,0,0,1,4.57,1.42,5.34,5.34,0,0,1,1.58,4.19v8.67H1762v1.83h-2.07q-1.77,0-1.77-1.47v-1.23a4.35,4.35,0,0,1-1.93,2.16A6.54,6.54,0,0,1,1752.91,511.57Zm.6-1.8q4.47,0,4.47-4.74V503.8h-3.9q-4.2,0-4.2,2.91a2.77,2.77,0,0,0,.95,2.26A4,4,0,0,0,1753.51,509.77Z" transform="translate(-1.45 -7.48)"/><path class="b" d="M1765.48,511.33V495.61h2.37v2.61q1.35-3,5.31-3,5.67,0,5.67,5.91v10.2h-2.46v-10a4.35,4.35,0,0,0-.93-3.08,3.86,3.86,0,0,0-2.91-1,4.5,4.5,0,0,0-3.42,1.23,5.08,5.08,0,0,0-1.17,3.63v9.18Z" transform="translate(-1.45 -7.48)"/><path class="b" d="M1782.82,503.8v-.66a8.5,8.5,0,0,1,1.86-5.84,6.59,6.59,0,0,1,5.19-2.08,5.81,5.81,0,0,1,5.55,3v-9.48h2.46v22.56h-2.34v-3a5.8,5.8,0,0,1-2.31,2.53,6.9,6.9,0,0,1-3.57.89,6.27,6.27,0,0,1-5.06-2.09A8.68,8.68,0,0,1,1782.82,503.8Zm2.49-.66v.66a6.39,6.39,0,0,0,1.3,4.32,5.48,5.48,0,0,0,7.53,0,6.39,6.39,0,0,0,1.31-4.32v-.66a6.39,6.39,0,0,0-1.31-4.32,5.5,5.5,0,0,0-7.53,0A6.39,6.39,0,0,0,1785.31,503.14Z" transform="translate(-1.45 -7.48)"/><path class="b" d="M1812.91,511.33l-5-15.72h2.64l4,13.41,4-13.41h2.85l4.11,13.35,3.93-13.35H1832l-5,15.72h-3l-4-13.14-4,13.14Z" transform="translate(-1.45 -7.48)"/><path class="b" d="M1836.4,511.33V497.56h-2.16v-1.95h3.57a.93.93,0,0,1,1,1.05v14.67Zm.93-18.57a1.65,1.65,0,1,1,0-3.3,1.66,1.66,0,0,1,1.23.45,1.82,1.82,0,0,1,0,2.4A1.66,1.66,0,0,1,1837.33,492.76Z" transform="translate(-1.45 -7.48)"/><path class="b" d="M1844.56,511.33V497.56h-2.73v-1.95h2.73v-1.5q0-5.34,5.52-5.34h2.13v2h-2a3.21,3.21,0,0,0-2.4.79,3.64,3.64,0,0,0-.75,2.54v1.5h4.89v1.95H1847v13.77Z" transform="translate(-1.45 -7.48)"/><path class="b" d="M1853.92,503.8v-.66a8.28,8.28,0,0,1,1.93-5.84,7,7,0,0,1,5.39-2.08,6.49,6.49,0,0,1,5,1.84,7.58,7.58,0,0,1,1.73,5.36v1.86h-11.61a6,6,0,0,0,1.38,4.11,5.23,5.23,0,0,0,3.9,1.32,7,7,0,0,0,2.61-.47,7.82,7.82,0,0,0,2.31-1.48l1.29,1.59a9,9,0,0,1-6.33,2.37Q1853.92,511.72,1853.92,503.8Zm7.29-6.63q-4.62,0-4.86,5.28h9.27Q1865.59,497.17,1861.21,497.17Z" transform="translate(-1.45 -7.48)"/><path class="a" d="M2129.3,426.78V397.91h13.77q5.28,0,8,2a6.75,6.75,0,0,1,2.75,5.83v.66a6.57,6.57,0,0,1-1.21,4,7.43,7.43,0,0,1-3.45,2.57,7.9,7.9,0,0,1,4.09,2.65,7,7,0,0,1,1.45,4.5v.75a7.52,7.52,0,0,1-2.79,6.31q-2.8,2.18-8.17,2.18h-11.92A2.25,2.25,0,0,1,2129.3,426.78Zm6.51-15.89h6.69a5.61,5.61,0,0,0,3.5-.94,3.25,3.25,0,0,0,1.21-2.71v-.57A3.18,3.18,0,0,0,2146,404a5.68,5.68,0,0,0-3.5-.93h-6.69Zm0,13.29h7.39a5.7,5.7,0,0,0,3.61-1,3.43,3.43,0,0,0,1.27-2.86v-.62a3.45,3.45,0,0,0-1.27-2.86,5.7,5.7,0,0,0-3.61-1h-7.39Z" transform="translate(-1.45 -7.48)"/><path class="a" d="M2159.39,429.33V396.24h6.16V409c1.35-2.34,3.71-3.52,7.09-3.52q8.49,0,8.49,8.8v15.05H2175V415q0-4.53-4.31-4.53a4.93,4.93,0,0,0-3.79,1.41,5.61,5.61,0,0,0-1.32,4v13.42Z" transform="translate(-1.45 -7.48)"/><path class="a" d="M2193.14,429.68a8.67,8.67,0,0,1-5.94-1.91,6.67,6.67,0,0,1-2.16-5.26,6.22,6.22,0,0,1,2.64-5.43q2.66-1.87,7.75-1.87h4.31v-.93q0-4-4.71-4a8.54,8.54,0,0,0-5.85,2.51l-3-3.65a12.21,12.21,0,0,1,4.27-2.75,14.5,14.5,0,0,1,5.24-.95c3.23,0,5.7.74,7.41,2.2a7.93,7.93,0,0,1,2.58,6.38V425h2.15v4.36h-3.56a5.55,5.55,0,0,1-3.1-.66,2.45,2.45,0,0,1-1-2.16v-.61Q2198.43,429.68,2193.14,429.68Zm1.76-4.13a4.66,4.66,0,0,0,3.59-1.35,5.51,5.51,0,0,0,1.25-3.89v-1.23h-4.22c-3,0-4.45,1.05-4.45,3.17a3,3,0,0,0,1,2.44A4.26,4.26,0,0,0,2194.9,425.55Z" transform="translate(-1.45 -7.48)"/><path class="a" d="M2212.68,429.33V410.85h-2.86v-4.8h6.6a2.09,2.09,0,0,1,2.42,2.42v20.86Zm2.64-26.22a3.61,3.61,0,0,1-2.67-1,3.55,3.55,0,0,1-1-2.62,3.47,3.47,0,0,1,1-2.6,4.15,4.15,0,0,1,5.33,0,3.47,3.47,0,0,1,1,2.6,3.55,3.55,0,0,1-1,2.62A3.6,3.6,0,0,1,2215.32,403.11Z" transform="translate(-1.45 -7.48)"/><path class="a" d="M2234.76,426.78V397.91h12.5a17.77,17.77,0,0,1,8.27,1.81,12.66,12.66,0,0,1,5.35,5.15,16.13,16.13,0,0,1,1.87,8v1.58a16.17,16.17,0,0,1-1.87,8,12.72,12.72,0,0,1-5.35,5.15,17.77,17.77,0,0,1-8.27,1.8h-9.94a2.63,2.63,0,0,1-2-.62A2.67,2.67,0,0,1,2234.76,426.78Zm6.65-3h5.85a8.25,8.25,0,0,0,6.38-2.42c1.5-1.61,2.24-3.91,2.24-6.91v-1.58c0-3-.74-5.29-2.24-6.91a8.28,8.28,0,0,0-6.38-2.42h-5.85Z" transform="translate(-1.45 -7.48)"/><path class="a" d="M2267.19,421.06v-15h6.16v14.3a4.79,4.79,0,0,0,1,3.39,4.14,4.14,0,0,0,3.19,1.1,4.78,4.78,0,0,0,3.69-1.38,5.71,5.71,0,0,0,1.28-4V406.05h6.16v23.28h-5.85v-3.52q-1.91,4.1-7.26,4.09-4.14,0-6.27-2.24T2267.19,421.06Z" transform="translate(-1.45 -7.48)"/><path class="a" d="M2291.61,437.51v-4.84h1.15a3.13,3.13,0,0,0,2.33-.74,3.62,3.62,0,0,0,.7-2.51V410.85h-2.86v-4.8h6.6a2.08,2.08,0,0,1,2.42,2.42v21.17q0,7.88-8,7.87Zm6.82-34.4a3.6,3.6,0,0,1-2.66-1,3.55,3.55,0,0,1-1-2.62,3.47,3.47,0,0,1,1-2.6,4.13,4.13,0,0,1,5.32,0,3.47,3.47,0,0,1,1,2.6,3.41,3.41,0,0,1-3.65,3.61Z" transform="translate(-1.45 -7.48)"/><path class="b" d="M2127.65,465.13v-1q0-5.1,2.56-7.89a9.4,9.4,0,0,1,7.28-2.79,10,10,0,0,1,7.65,3.09l-1.68,1.74a7.69,7.69,0,0,0-5.94-2.52,6.65,6.65,0,0,0-5.34,2.13q-1.83,2.13-1.83,6.24v1q0,4.11,1.81,6.24a6.66,6.66,0,0,0,5.36,2.13,8.1,8.1,0,0,0,6.24-2.64l1.56,1.8a10.28,10.28,0,0,1-7.8,3.15,9.4,9.4,0,0,1-7.28-2.81Q2127.65,470.2,2127.65,465.13Z" transform="translate(-1.45 -7.48)"/><path class="b" d="M2147.81,467.8v-.66a8.28,8.28,0,0,1,1.93-5.84,7,7,0,0,1,5.39-2.08,6.49,6.49,0,0,1,5,1.84,7.58,7.58,0,0,1,1.73,5.36v1.86h-11.61a6,6,0,0,0,1.38,4.11,5.23,5.23,0,0,0,3.9,1.32,7,7,0,0,0,2.61-.47,7.82,7.82,0,0,0,2.31-1.48l1.29,1.59a9,9,0,0,1-6.33,2.37Q2147.81,475.72,2147.81,467.8Zm7.29-6.63q-4.62,0-4.86,5.28h9.27Q2159.48,461.17,2155.1,461.17Z" transform="translate(-1.45 -7.48)"/><path class="b" d="M2165.69,471.52V452.77h2.46v18.57a1.75,1.75,0,0,0,2,2h1v2h-1.5a4.09,4.09,0,0,1-2.93-1A3.76,3.76,0,0,1,2165.69,471.52Z" transform="translate(-1.45 -7.48)"/><path class="b" d="M2173.43,467.8v-.66a8.28,8.28,0,0,1,1.93-5.84,7,7,0,0,1,5.39-2.08,6.49,6.49,0,0,1,5,1.84,7.58,7.58,0,0,1,1.73,5.36v1.86h-11.61a6,6,0,0,0,1.38,4.11,5.23,5.23,0,0,0,3.9,1.32,7,7,0,0,0,2.61-.47,7.82,7.82,0,0,0,2.31-1.48l1.29,1.59a9,9,0,0,1-6.33,2.37Q2173.43,475.72,2173.43,467.8Zm7.29-6.63q-4.62,0-4.86,5.28h9.27Q2185.1,461.17,2180.72,461.17Z" transform="translate(-1.45 -7.48)"/><path class="b" d="M2191.46,475.33V452.77h2.46v9.66a5.85,5.85,0,0,1,2.31-2.39,7,7,0,0,1,3.48-.82,6.24,6.24,0,0,1,5,2.08,8.73,8.73,0,0,1,1.79,5.84v.66a8.52,8.52,0,0,1-1.85,5.82,6.55,6.55,0,0,1-5.2,2.1,5.79,5.79,0,0,1-5.67-3.3v2.91Zm2.43-8.19v.66a6.39,6.39,0,0,0,1.3,4.32,5.48,5.48,0,0,0,7.53,0,6.39,6.39,0,0,0,1.31-4.32v-.66a6.39,6.39,0,0,0-1.31-4.32,5.48,5.48,0,0,0-7.53,0A6.39,6.39,0,0,0,2193.89,467.14Z" transform="translate(-1.45 -7.48)"/><path class="b" d="M2210.63,475.33V459.61H2213v3.06a4.62,4.62,0,0,1,2-2.28,6.37,6.37,0,0,1,3.24-.78h1.38v2.31h-1.89a4.62,4.62,0,0,0-3.47,1.17,5,5,0,0,0-1.12,3.6v8.64Z" transform="translate(-1.45 -7.48)"/><path class="b" d="M2226.92,475.57a5.84,5.84,0,0,1-4-1.28,4.34,4.34,0,0,1-1.45-3.46,4.15,4.15,0,0,1,1.68-3.57A8.21,8.21,0,0,1,2228,466h4v-1a3.74,3.74,0,0,0-1-2.85,4.32,4.32,0,0,0-3-.9,5.73,5.73,0,0,0-4.35,2l-1.35-1.47a7.75,7.75,0,0,1,2.68-1.88,8.39,8.39,0,0,1,3.26-.64,6.63,6.63,0,0,1,4.57,1.42,5.37,5.37,0,0,1,1.58,4.19v8.67H2236v1.83h-2.07q-1.77,0-1.77-1.47v-1.23a4.37,4.37,0,0,1-1.94,2.16A6.5,6.5,0,0,1,2226.92,475.57Zm.6-1.8q4.47,0,4.47-4.74V467.8h-3.9q-4.2,0-4.2,2.91a2.77,2.77,0,0,0,.94,2.26A4,4,0,0,0,2227.52,473.77Z" transform="translate(-1.45 -7.48)"/><path class="b" d="M2240.21,470.38v-8.82h-2.74v-1.95h1.81a1,1,0,0,0,1.14-1.11V455h2.25v4.65h4.88v1.95h-4.88v8.55a3.56,3.56,0,0,0,.66,2.49,3.19,3.19,0,0,0,2.37.69h1.85v2h-2.27c-1.89,0-3.2-.37-4-1.11S2240.21,472.2,2240.21,470.38Z" transform="translate(-1.45 -7.48)"/><path class="b" d="M2252.32,475.33V461.56h-2.16v-1.95h3.57a.93.93,0,0,1,1.05,1.05v14.67Zm.93-18.57a1.65,1.65,0,1,1,0-3.3,1.66,1.66,0,0,1,1.23.45,1.82,1.82,0,0,1,0,2.4A1.66,1.66,0,0,1,2253.25,456.76Z" transform="translate(-1.45 -7.48)"/><path class="b" d="M2258.89,467.8v-.66a8.1,8.1,0,0,1,2-5.81,8.35,8.35,0,0,1,11.1,0,8.1,8.1,0,0,1,2,5.81v.66a8.07,8.07,0,0,1-2,5.82,8.38,8.38,0,0,1-11.1,0A8.07,8.07,0,0,1,2258.89,467.8Zm2.49-.66v.66a6.39,6.39,0,0,0,1.31,4.32,5.48,5.48,0,0,0,7.53,0,6.39,6.39,0,0,0,1.3-4.32v-.66a6.39,6.39,0,0,0-1.3-4.32,5.48,5.48,0,0,0-7.53,0A6.39,6.39,0,0,0,2261.38,467.14Z" transform="translate(-1.45 -7.48)"/><path class="b" d="M2278.15,475.33V459.61h2.37v2.61q1.35-3,5.31-3,5.67,0,5.67,5.91v10.2H2289v-10a4.35,4.35,0,0,0-.93-3.08,3.86,3.86,0,0,0-2.91-1,4.5,4.5,0,0,0-3.42,1.23,5.08,5.08,0,0,0-1.17,3.63v9.18Z" transform="translate(-1.45 -7.48)"/><path class="b" d="M2295.34,473.71l1.11-1.77a7.84,7.84,0,0,0,2.42,1.27,8.44,8.44,0,0,0,2.77.47,4.88,4.88,0,0,0,2.85-.72,2.29,2.29,0,0,0,1-2,1.9,1.9,0,0,0-.78-1.7,8.74,8.74,0,0,0-2.94-.91l-1-.15a7.62,7.62,0,0,1-3.81-1.56,3.77,3.77,0,0,1-1.17-2.91,3.85,3.85,0,0,1,.77-2.37,5,5,0,0,1,2.11-1.59,8,8,0,0,1,3.12-.57,10,10,0,0,1,3.3.54,8.06,8.06,0,0,1,2.67,1.5l-1.14,1.68a6.49,6.49,0,0,0-2.22-1.24,8,8,0,0,0-2.64-.44,4.69,4.69,0,0,0-2.64.64,2.08,2.08,0,0,0-1,1.82,1.72,1.72,0,0,0,.71,1.51,6.8,6.8,0,0,0,2.53.83l.93.18a8.8,8.8,0,0,1,4.26,1.59,3.93,3.93,0,0,1,1.23,3.12,4.19,4.19,0,0,1-1.65,3.48,7.07,7.07,0,0,1-4.47,1.29,11.51,11.51,0,0,1-3.52-.54A9.3,9.3,0,0,1,2295.34,473.71Z" transform="translate(-1.45 -7.48)"/><path class="b" d="M2317.63,467.8v-.66a8.5,8.5,0,0,1,1.86-5.84,6.59,6.59,0,0,1,5.19-2.08,5.81,5.81,0,0,1,5.55,3v-9.48h2.46v22.56h-2.34v-3a5.8,5.8,0,0,1-2.31,2.53,6.9,6.9,0,0,1-3.57.89,6.25,6.25,0,0,1-5-2.09A8.69,8.69,0,0,1,2317.63,467.8Zm2.49-.66v.66a6.39,6.39,0,0,0,1.31,4.32,5.48,5.48,0,0,0,7.53,0,6.39,6.39,0,0,0,1.3-4.32v-.66a6.39,6.39,0,0,0-1.3-4.32,5.5,5.5,0,0,0-7.53,0A6.4,6.4,0,0,0,2320.12,467.14Z" transform="translate(-1.45 -7.48)"/><path class="b" d="M2336.8,467.8v-.66a8.28,8.28,0,0,1,1.94-5.84,7,7,0,0,1,5.38-2.08,6.52,6.52,0,0,1,5,1.84,7.57,7.57,0,0,1,1.72,5.36v1.86h-11.61a6,6,0,0,0,1.38,4.11,5.23,5.23,0,0,0,3.9,1.32,7,7,0,0,0,2.61-.47,7.82,7.82,0,0,0,2.31-1.48l1.29,1.59a9,9,0,0,1-6.33,2.37Q2336.8,475.72,2336.8,467.8Zm7.29-6.63q-4.62,0-4.86,5.28h9.27Q2348.47,461.17,2344.09,461.17Z" transform="translate(-1.45 -7.48)"/><path class="b" d="M2354,467.8v-.66a8.5,8.5,0,0,1,1.86-5.84,6.59,6.59,0,0,1,5.19-2.08,5.81,5.81,0,0,1,5.55,3v-9.48H2369v22.56h-2.34v-3a5.8,5.8,0,0,1-2.31,2.53,6.9,6.9,0,0,1-3.57.89,6.25,6.25,0,0,1-5.05-2.09A8.69,8.69,0,0,1,2354,467.8Zm2.49-.66v.66a6.39,6.39,0,0,0,1.31,4.32,5.48,5.48,0,0,0,7.53,0,6.39,6.39,0,0,0,1.3-4.32v-.66a6.39,6.39,0,0,0-1.3-4.32,5.5,5.5,0,0,0-7.53,0A6.4,6.4,0,0,0,2356.45,467.14Z" transform="translate(-1.45 -7.48)"/><path class="b" d="M2374.87,475.33V461.56h-2.16v-1.95h3.57a.93.93,0,0,1,1,1.05v14.67Zm.93-18.57a1.65,1.65,0,1,1,0-3.3,1.66,1.66,0,0,1,1.23.45,1.82,1.82,0,0,1,0,2.4A1.66,1.66,0,0,1,2375.8,456.76Z" transform="translate(-1.45 -7.48)"/><path class="b" d="M2381.44,467.8v-.66a8.21,8.21,0,0,1,2-5.84,7.18,7.18,0,0,1,5.5-2.08,7.43,7.43,0,0,1,5.73,2.34l-1.47,1.53a5.54,5.54,0,0,0-4.14-1.77,4.77,4.77,0,0,0-3.81,1.48,6.45,6.45,0,0,0-1.29,4.34v.66q0,5.82,5.13,5.82a5.89,5.89,0,0,0,4.32-1.8l1.35,1.59a7.89,7.89,0,0,1-5.82,2.31,7.15,7.15,0,0,1-5.5-2.09A8.16,8.16,0,0,1,2381.44,467.8Z" transform="translate(-1.45 -7.48)"/><path class="b" d="M2402.29,475.57a5.81,5.81,0,0,1-4-1.28,4.35,4.35,0,0,1-1.46-3.46,4.15,4.15,0,0,1,1.68-3.57,8.21,8.21,0,0,1,4.89-1.23h4v-1a3.74,3.74,0,0,0-1-2.85,4.32,4.32,0,0,0-3-.9,5.73,5.73,0,0,0-4.35,2l-1.35-1.47a7.79,7.79,0,0,1,2.69-1.88,8.34,8.34,0,0,1,3.25-.64,6.66,6.66,0,0,1,4.58,1.42,5.37,5.37,0,0,1,1.57,4.19v8.67h1.59v1.83h-2.07q-1.77,0-1.77-1.47v-1.23a4.35,4.35,0,0,1-1.93,2.16A6.54,6.54,0,0,1,2402.29,475.57Zm.6-1.8q4.47,0,4.47-4.74V467.8h-3.9q-4.2,0-4.2,2.91a2.77,2.77,0,0,0,.95,2.26A4,4,0,0,0,2402.89,473.77Z" transform="translate(-1.45 -7.48)"/><path class="b" d="M2415.58,470.38v-8.82h-2.73v-1.95h1.8a1,1,0,0,0,1.14-1.11V455H2418v4.65h4.89v1.95H2418v8.55a3.61,3.61,0,0,0,.66,2.49,3.23,3.23,0,0,0,2.37.69h1.86v2h-2.28c-1.88,0-3.19-.37-3.94-1.11A5.29,5.29,0,0,1,2415.58,470.38Z" transform="translate(-1.45 -7.48)"/><path class="b" d="M2425.66,467.8v-.66a8.28,8.28,0,0,1,1.94-5.84,7,7,0,0,1,5.38-2.08,6.52,6.52,0,0,1,5,1.84,7.57,7.57,0,0,1,1.72,5.36v1.86h-11.61a6,6,0,0,0,1.38,4.11,5.23,5.23,0,0,0,3.9,1.32,7,7,0,0,0,2.61-.47,7.82,7.82,0,0,0,2.31-1.48l1.29,1.59a9,9,0,0,1-6.33,2.37Q2425.66,475.72,2425.66,467.8Zm7.29-6.63q-4.62,0-4.86,5.28h9.27Q2437.33,461.17,2433,461.17Z" transform="translate(-1.45 -7.48)"/><path class="b" d="M2442.82,467.8v-.66a8.5,8.5,0,0,1,1.86-5.84,6.59,6.59,0,0,1,5.19-2.08,5.81,5.81,0,0,1,5.55,3v-9.48h2.46v22.56h-2.34v-3a5.8,5.8,0,0,1-2.31,2.53,6.9,6.9,0,0,1-3.57.89,6.24,6.24,0,0,1-5-2.09A8.69,8.69,0,0,1,2442.82,467.8Zm2.49-.66v.66a6.39,6.39,0,0,0,1.31,4.32,5.48,5.48,0,0,0,7.53,0,6.39,6.39,0,0,0,1.3-4.32v-.66a6.39,6.39,0,0,0-1.3-4.32,5.5,5.5,0,0,0-7.53,0A6.4,6.4,0,0,0,2445.31,467.14Z" transform="translate(-1.45 -7.48)"/><path class="b" d="M2129.06,506.38v-8.82h-2.73v-1.95h1.8a1,1,0,0,0,1.14-1.11V491h2.25v4.65h4.89v1.95h-4.89v8.55a3.61,3.61,0,0,0,.66,2.49,3.23,3.23,0,0,0,2.37.69h1.86v2h-2.28c-1.88,0-3.2-.37-4-1.11S2129.06,508.2,2129.06,506.38Z" transform="translate(-1.45 -7.48)"/><path class="b" d="M2139.14,503.8v-.66a8.1,8.1,0,0,1,2-5.81,8.35,8.35,0,0,1,11.1,0,8.1,8.1,0,0,1,2,5.81v.66a8.07,8.07,0,0,1-2,5.82,8.38,8.38,0,0,1-11.1,0A8.07,8.07,0,0,1,2139.14,503.8Zm2.49-.66v.66a6.39,6.39,0,0,0,1.3,4.32,5.48,5.48,0,0,0,7.53,0,6.39,6.39,0,0,0,1.31-4.32v-.66a6.39,6.39,0,0,0-1.31-4.32,5.48,5.48,0,0,0-7.53,0A6.39,6.39,0,0,0,2141.63,503.14Z" transform="translate(-1.45 -7.48)"/><path class="b" d="M2165.06,511.33V488.77h2.46v9.66a5.85,5.85,0,0,1,2.31-2.39,7,7,0,0,1,3.48-.82,6.24,6.24,0,0,1,5,2.08,8.73,8.73,0,0,1,1.79,5.84v.66a8.52,8.52,0,0,1-1.85,5.82,6.55,6.55,0,0,1-5.2,2.1,5.79,5.79,0,0,1-5.67-3.3v2.91Zm2.43-8.19v.66a6.39,6.39,0,0,0,1.3,4.32,5.48,5.48,0,0,0,7.53,0,6.39,6.39,0,0,0,1.31-4.32v-.66a6.39,6.39,0,0,0-1.31-4.32,5.48,5.48,0,0,0-7.53,0A6.39,6.39,0,0,0,2167.49,503.14Z" transform="translate(-1.45 -7.48)"/><path class="b" d="M2184.23,511.33V495.61h2.34v3.06a4.62,4.62,0,0,1,2-2.28,6.37,6.37,0,0,1,3.24-.78h1.38v2.31h-1.89a4.62,4.62,0,0,0-3.47,1.17,5,5,0,0,0-1.12,3.6v8.64Z" transform="translate(-1.45 -7.48)"/><path class="b" d="M2195.42,503.8v-.66a8.05,8.05,0,0,1,2-5.81,8.35,8.35,0,0,1,11.1,0,8.1,8.1,0,0,1,2,5.81v.66a8.07,8.07,0,0,1-2,5.82,8.38,8.38,0,0,1-11.1,0A8,8,0,0,1,2195.42,503.8Zm2.49-.66v.66a6.39,6.39,0,0,0,1.3,4.32,5.48,5.48,0,0,0,7.53,0,6.39,6.39,0,0,0,1.3-4.32v-.66a6.39,6.39,0,0,0-1.3-4.32,5.48,5.48,0,0,0-7.53,0A6.39,6.39,0,0,0,2197.91,503.14Z" transform="translate(-1.45 -7.48)"/><path class="b" d="M2215.39,506.38v-8.82h-2.72v-1.95h1.79a1,1,0,0,0,1.15-1.11V491h2.25v4.65h4.89v1.95h-4.89v8.55a3.61,3.61,0,0,0,.65,2.49,3.26,3.26,0,0,0,2.37.69h1.87v2h-2.29c-1.88,0-3.19-.37-3.94-1.11A5.29,5.29,0,0,1,2215.39,506.38Z" transform="translate(-1.45 -7.48)"/><path class="b" d="M2226.64,511.33V488.77h2.46V498q1.38-2.82,5.22-2.82,5.67,0,5.67,5.91v10.2h-2.45v-10a4.35,4.35,0,0,0-.94-3.08,3.86,3.86,0,0,0-2.91-1,4.5,4.5,0,0,0-3.42,1.23,5.08,5.08,0,0,0-1.17,3.63v9.18Z" transform="translate(-1.45 -7.48)"/><path class="b" d="M2244,503.8v-.66a8.28,8.28,0,0,1,1.94-5.84,7,7,0,0,1,5.38-2.08,6.52,6.52,0,0,1,5,1.84,7.57,7.57,0,0,1,1.72,5.36v1.86h-11.61a6,6,0,0,0,1.38,4.11,5.23,5.23,0,0,0,3.9,1.32,7,7,0,0,0,2.61-.47,7.82,7.82,0,0,0,2.31-1.48l1.29,1.59a9,9,0,0,1-6.33,2.37Q2244,511.72,2244,503.8Zm7.29-6.63q-4.62,0-4.86,5.28h9.27Q2255.65,497.17,2251.27,497.17Z" transform="translate(-1.45 -7.48)"/><path class="b" d="M2262,511.33V495.61h2.34v3.06a4.62,4.62,0,0,1,2-2.28,6.37,6.37,0,0,1,3.24-.78H2271v2.31h-1.89a4.6,4.6,0,0,0-3.46,1.17,5,5,0,0,0-1.13,3.6v8.64Z" transform="translate(-1.45 -7.48)"/><path class="b" d="M2273.05,509.71l1.11-1.77a7.84,7.84,0,0,0,2.42,1.27,8.44,8.44,0,0,0,2.77.47,4.88,4.88,0,0,0,2.85-.72,2.29,2.29,0,0,0,1-2,1.9,1.9,0,0,0-.78-1.7,8.74,8.74,0,0,0-2.94-.91l-1-.15a7.62,7.62,0,0,1-3.81-1.56,3.77,3.77,0,0,1-1.17-2.91,3.85,3.85,0,0,1,.77-2.37,5,5,0,0,1,2.11-1.59,8,8,0,0,1,3.12-.57,10,10,0,0,1,3.3.54,8.06,8.06,0,0,1,2.67,1.5l-1.14,1.68a6.49,6.49,0,0,0-2.22-1.24,8,8,0,0,0-2.64-.44,4.69,4.69,0,0,0-2.64.64,2.08,2.08,0,0,0-1,1.82,1.72,1.72,0,0,0,.71,1.51,6.8,6.8,0,0,0,2.53.83l.93.18a8.8,8.8,0,0,1,4.26,1.59,3.93,3.93,0,0,1,1.23,3.12,4.19,4.19,0,0,1-1.65,3.48,7.07,7.07,0,0,1-4.47,1.29,11.51,11.51,0,0,1-3.52-.54A9.3,9.3,0,0,1,2273.05,509.71Z" transform="translate(-1.45 -7.48)"/><path class="b" d="M2300.44,511.57a5.81,5.81,0,0,1-4-1.28,4.35,4.35,0,0,1-1.46-3.46,4.15,4.15,0,0,1,1.68-3.57,8.21,8.21,0,0,1,4.89-1.23h4v-1a3.74,3.74,0,0,0-1-2.85,4.32,4.32,0,0,0-3-.9,5.73,5.73,0,0,0-4.35,2l-1.35-1.47a7.79,7.79,0,0,1,2.69-1.88,8.34,8.34,0,0,1,3.25-.64,6.66,6.66,0,0,1,4.58,1.42,5.37,5.37,0,0,1,1.57,4.19v8.67h1.59v1.83h-2.07q-1.77,0-1.77-1.47v-1.23a4.35,4.35,0,0,1-1.93,2.16A6.54,6.54,0,0,1,2300.44,511.57Zm.6-1.8q4.47,0,4.47-4.74V503.8h-3.9q-4.2,0-4.2,2.91a2.77,2.77,0,0,0,1,2.26A4,4,0,0,0,2301,509.77Z" transform="translate(-1.45 -7.48)"/><path class="b" d="M2313,511.33V495.61h2.37v2.61q1.35-3,5.31-3,5.67,0,5.67,5.91v10.2h-2.46v-10a4.35,4.35,0,0,0-.93-3.08,3.86,3.86,0,0,0-2.91-1,4.5,4.5,0,0,0-3.42,1.23,5.08,5.08,0,0,0-1.17,3.63v9.18Z" transform="translate(-1.45 -7.48)"/><path class="b" d="M2330.35,503.8v-.66a8.5,8.5,0,0,1,1.86-5.84,6.59,6.59,0,0,1,5.19-2.08,5.81,5.81,0,0,1,5.55,3v-9.48h2.46v22.56h-2.34v-3a5.8,5.8,0,0,1-2.31,2.53,6.9,6.9,0,0,1-3.57.89,6.25,6.25,0,0,1-5.05-2.09A8.69,8.69,0,0,1,2330.35,503.8Zm2.49-.66v.66a6.39,6.39,0,0,0,1.31,4.32,5.48,5.48,0,0,0,7.53,0,6.39,6.39,0,0,0,1.3-4.32v-.66a6.39,6.39,0,0,0-1.3-4.32,5.5,5.5,0,0,0-7.53,0A6.4,6.4,0,0,0,2332.84,503.14Z" transform="translate(-1.45 -7.48)"/><path class="b" d="M2356,509.71l1.11-1.77a7.84,7.84,0,0,0,2.42,1.27,8.44,8.44,0,0,0,2.77.47,4.88,4.88,0,0,0,2.85-.72,2.29,2.29,0,0,0,1-2,1.9,1.9,0,0,0-.78-1.7,8.74,8.74,0,0,0-2.94-.91l-1-.15a7.62,7.62,0,0,1-3.81-1.56,3.77,3.77,0,0,1-1.17-2.91,3.85,3.85,0,0,1,.77-2.37,5,5,0,0,1,2.11-1.59,8,8,0,0,1,3.12-.57,10,10,0,0,1,3.3.54,8.06,8.06,0,0,1,2.67,1.5l-1.14,1.68a6.49,6.49,0,0,0-2.22-1.24,8,8,0,0,0-2.64-.44,4.69,4.69,0,0,0-2.64.64,2.08,2.08,0,0,0-1,1.82,1.72,1.72,0,0,0,.71,1.51,6.8,6.8,0,0,0,2.53.83l.93.18a8.8,8.8,0,0,1,4.26,1.59,3.93,3.93,0,0,1,1.23,3.12,4.19,4.19,0,0,1-1.65,3.48,7.07,7.07,0,0,1-4.47,1.29,11.51,11.51,0,0,1-3.52-.54A9.3,9.3,0,0,1,2356,509.71Z" transform="translate(-1.45 -7.48)"/><path class="b" d="M2373.4,511.33V497.56h-2.16v-1.95h3.57a.93.93,0,0,1,1.05,1.05v14.67Zm.93-18.57a1.65,1.65,0,1,1,0-3.3,1.66,1.66,0,0,1,1.23.45,1.82,1.82,0,0,1,0,2.4A1.66,1.66,0,0,1,2374.33,492.76Z" transform="translate(-1.45 -7.48)"/><path class="b" d="M2379.82,509.71l1.11-1.77a7.84,7.84,0,0,0,2.42,1.27,8.44,8.44,0,0,0,2.77.47A4.88,4.88,0,0,0,2389,509a2.29,2.29,0,0,0,1-2,1.9,1.9,0,0,0-.78-1.7,8.74,8.74,0,0,0-2.94-.91l-1-.15a7.62,7.62,0,0,1-3.81-1.56,3.77,3.77,0,0,1-1.17-2.91,3.85,3.85,0,0,1,.77-2.37,5,5,0,0,1,2.11-1.59,8,8,0,0,1,3.12-.57,10,10,0,0,1,3.3.54,8.06,8.06,0,0,1,2.67,1.5l-1.14,1.68a6.49,6.49,0,0,0-2.22-1.24,8,8,0,0,0-2.64-.44,4.69,4.69,0,0,0-2.64.64,2.08,2.08,0,0,0-1,1.82,1.72,1.72,0,0,0,.71,1.51,6.8,6.8,0,0,0,2.53.83l.93.18a8.8,8.8,0,0,1,4.26,1.59,3.93,3.93,0,0,1,1.23,3.12,4.19,4.19,0,0,1-1.65,3.48,7.07,7.07,0,0,1-4.47,1.29,11.51,11.51,0,0,1-3.52-.54A9.3,9.3,0,0,1,2379.82,509.71Z" transform="translate(-1.45 -7.48)"/><path class="b" d="M2397.34,506.38v-8.82h-2.73v-1.95h1.8a1,1,0,0,0,1.14-1.11V491h2.25v4.65h4.89v1.95h-4.89v8.55a3.61,3.61,0,0,0,.66,2.49,3.23,3.23,0,0,0,2.37.69h1.86v2h-2.28c-1.88,0-3.19-.37-3.94-1.11A5.29,5.29,0,0,1,2397.34,506.38Z" transform="translate(-1.45 -7.48)"/><path class="b" d="M2407.42,503.8v-.66a8.28,8.28,0,0,1,1.94-5.84,7,7,0,0,1,5.38-2.08,6.53,6.53,0,0,1,5,1.84,7.62,7.62,0,0,1,1.72,5.36v1.86h-11.61a6,6,0,0,0,1.38,4.11,5.23,5.23,0,0,0,3.9,1.32,7,7,0,0,0,2.61-.47,7.82,7.82,0,0,0,2.31-1.48l1.29,1.59a9,9,0,0,1-6.33,2.37Q2407.42,511.72,2407.42,503.8Zm7.29-6.63q-4.62,0-4.86,5.28h9.27Q2419.09,497.17,2414.71,497.17Z" transform="translate(-1.45 -7.48)"/><path class="b" d="M2425.45,511.33V495.61h2.34v3.06a4.62,4.62,0,0,1,2-2.28,6.37,6.37,0,0,1,3.24-.78h1.38v2.31h-1.89a4.6,4.6,0,0,0-3.46,1.17,5,5,0,0,0-1.13,3.6v8.64Z" transform="translate(-1.45 -7.48)"/><path class="b" d="M2436.49,509.71l1.11-1.77a7.78,7.78,0,0,0,2.41,1.27,8.5,8.5,0,0,0,2.78.47,4.88,4.88,0,0,0,2.85-.72,2.29,2.29,0,0,0,1-2,1.9,1.9,0,0,0-.78-1.7,8.74,8.74,0,0,0-2.94-.91l-1-.15a7.62,7.62,0,0,1-3.81-1.56,3.77,3.77,0,0,1-1.17-2.91,3.84,3.84,0,0,1,.76-2.37,5,5,0,0,1,2.12-1.59,8,8,0,0,1,3.12-.57,10,10,0,0,1,3.3.54,8.06,8.06,0,0,1,2.67,1.5l-1.14,1.68a6.49,6.49,0,0,0-2.22-1.24,8,8,0,0,0-2.64-.44,4.69,4.69,0,0,0-2.64.64,2.08,2.08,0,0,0-1,1.82,1.71,1.71,0,0,0,.7,1.51,6.86,6.86,0,0,0,2.54.83l.93.18a8.8,8.8,0,0,1,4.26,1.59A3.93,3.93,0,0,1,2449,507a4.19,4.19,0,0,1-1.65,3.48,7.07,7.07,0,0,1-4.47,1.29,11.57,11.57,0,0,1-3.53-.54A9.25,9.25,0,0,1,2436.49,509.71Z" transform="translate(-1.45 -7.48)"/><path class="b" d="M4.29,56.09l5-7.34a20.35,20.35,0,0,0,6,3.86A17.34,17.34,0,0,0,22,54c3.26,0,5.76-.68,7.49-2a7,7,0,0,0,2.59-5.87v-.43q0-7.84-11.65-7.86h-14L8.73,10.3l31.32,0v8.85l-22.82,0-.88,10.3h4.47q21.74,0,21.72,16.08v.5a16,16,0,0,1-2.45,8.89,16.21,16.21,0,0,1-6.89,5.86,24.36,24.36,0,0,1-10.47,2.08A28.36,28.36,0,0,1,12.78,61,26.81,26.81,0,0,1,4.29,56.09Z" transform="translate(-1.45 -7.48)"/><path class="b" d="M65.43,43.56V41.9q0-9.13,4.34-14.14t12.17-5q7.92,0,11.8,5.7l0-20.81h10.07l0,54.14H94.21v-6q-4.05,6.9-12.9,6.9-7.69,0-11.8-4.91T65.43,43.56Zm10.23-1.65v1.66q0,10.88,9.06,10.88T93.8,43.59V41.93q0-10.87-9.06-10.88T75.66,41.91Z" transform="translate(-1.45 -7.48)"/><path class="b" d="M123.8,62.41q-6.19,0-9.71-3.14a10.9,10.9,0,0,1-3.52-8.61,10.19,10.19,0,0,1,4.33-8.89q4.32-3,12.67-3h7.06V37.22q0-6.48-7.7-6.49a14,14,0,0,0-9.58,4.1l-5-6a19.74,19.74,0,0,1,7-4.5A23.72,23.72,0,0,1,128,22.82q7.92,0,12.13,3.61t4.2,10.44l0,17.86h3.53v7.13H142q-3.54,0-5.08-1.08a4,4,0,0,1-1.54-3.53v-1Q132.44,62.43,123.8,62.41Zm2.89-6.76a7.66,7.66,0,0,0,5.87-2.19q2.06-2.2,2.06-6.37v-2h-6.91q-7.27,0-7.28,5.18a5,5,0,0,0,1.65,4A7,7,0,0,0,126.69,55.65Z" transform="translate(-1.45 -7.48)"/><path class="b" d="M155,75.26V66.48h3.88a7.39,7.39,0,0,0,4.25-1,8.15,8.15,0,0,0,2.45-3.63l.51-1.23H163.4L149.12,23.77l11.08,0,9.69,29,9.68-29h10.8L173.91,66Q172,71,169,73.15t-8,2.12Z" transform="translate(-1.45 -7.48)"/><path class="b" d="M192.28,58.09l4.11-7a19.5,19.5,0,0,0,5.72,2.78,22,22,0,0,0,6.44,1c4.42,0,6.63-1.36,6.63-4.1A3.07,3.07,0,0,0,213.89,48a14.18,14.18,0,0,0-5-1.44l-2.74-.44q-6.48-1.15-9.53-3.93a9.52,9.52,0,0,1-3.05-7.46,10.21,10.21,0,0,1,4.36-8.63q4.37-3.24,11.56-3.23a29.17,29.17,0,0,1,8.39,1.23,21.12,21.12,0,0,1,7,3.54l-4.11,6.84a17.79,17.79,0,0,0-5.32-2.71,19.63,19.63,0,0,0-6-1c-4.13,0-6.19,1.22-6.2,3.67a2.72,2.72,0,0,0,1.23,2.45,13.24,13.24,0,0,0,4.46,1.37l2.66.43q7.13,1.17,10.22,3.94t3.09,7.89a10.81,10.81,0,0,1-4.22,9q-4.22,3.31-11.71,3.3a32.31,32.31,0,0,1-9.17-1.27A25,25,0,0,1,192.28,58.09Z" transform="translate(-1.45 -7.48)"/><path class="b" d="M246.15,43.75V42.09q0-9,5.16-14.07T265.54,23q9,0,14.14,5.09t5.13,14.08v1.66q0,8.93-5.16,14t-14.15,5.1q-9.08,0-14.22-5.13T246.15,43.75Zm10.22-1.65v1.66q0,10.88,9.13,10.88t9.16-10.86V42.12q0-10.86-9.13-10.88T256.37,42.1Z" transform="translate(-1.45 -7.48)"/><path class="b" d="M294.08,62l0-30.23h-6V23.92h6V21.77q0-13.9,15.5-13.88h5.47v7.92h-4.9a6.19,6.19,0,0,0-4.53,1.43,6.22,6.22,0,0,0-1.45,4.54v2.16h10.15V31.8H304.19l0,30.24Z" transform="translate(-1.45 -7.48)"/><path class="b" d="M337.21,57.88l.05-47.23,20.45,0a29.11,29.11,0,0,1,13.53,3A20.79,20.79,0,0,1,380,22.07a26.33,26.33,0,0,1,3,13V37.7a26.29,26.29,0,0,1-3.07,13,20.62,20.62,0,0,1-8.76,8.41,28.87,28.87,0,0,1-13.54,2.94H341.38a4.31,4.31,0,0,1-3.2-1A4.42,4.42,0,0,1,337.21,57.88Zm10.88-5h9.57q6.78,0,10.45-3.95t3.68-11.3V35.1q0-7.35-3.66-11.31t-10.43-4h-9.58Z" transform="translate(-1.45 -7.48)"/><path class="b" d="M393.29,62.12l0-30.24h-4.68V24h10.8a4.15,4.15,0,0,1,3,.94,4.15,4.15,0,0,1,.93,3l0,34.13Zm4.37-42.91a5.89,5.89,0,0,1-4.36-1.62,5.83,5.83,0,0,1-1.61-4.29,5.65,5.65,0,0,1,1.62-4.24,6.79,6.79,0,0,1,8.72,0,5.69,5.69,0,0,1,1.61,4.25A5.79,5.79,0,0,1,402,17.6,5.87,5.87,0,0,1,397.66,19.21Z" transform="translate(-1.45 -7.48)"/><path class="b" d="M421.52,62.15l-11.77-38.1h10.87l7.1,28.45L435,24.08h11.73l7.17,28.37L461,24.1l10.37,0L459.6,62.19h-12L440.55,34l-7.23,28.14Z" transform="translate(-1.45 -7.48)"/><path class="b" d="M486.89,62.8q-6.19,0-9.72-3.15a10.88,10.88,0,0,1-3.51-8.6A10.19,10.19,0,0,1,478,42.16q4.32-3.06,12.67-3h7.06V37.61q0-6.48-7.7-6.49a14,14,0,0,0-9.58,4.09l-5-6a19.85,19.85,0,0,1,7-4.49A23.73,23.73,0,0,1,491,23.2q7.92,0,12.13,3.61t4.2,10.45l0,17.85h3.53v7.12H505c-2.36,0-4.05-.37-5.08-1.09a4,4,0,0,1-1.54-3.53v-1Q495.53,62.8,486.89,62.8ZM489.78,56a7.66,7.66,0,0,0,5.87-2.19c1.37-1.46,2.05-3.58,2.06-6.37v-2H490.8q-7.28,0-7.28,5.17a5,5,0,0,0,1.65,4A6.89,6.89,0,0,0,489.78,56Z" transform="translate(-1.45 -7.48)"/><path class="b" d="M517,51.31l0-43.2h10.08l0,42q0,4,4,4h2.16v8.14H528Q517,62.26,517,51.31Z" transform="translate(-1.45 -7.48)"/><path class="b" d="M541.47,62.28l0-30.24h-4.68V24.18l10.8,0a4.11,4.11,0,0,1,3,.94,4.15,4.15,0,0,1,.93,3l0,34.13Zm4.36-42.91a5.88,5.88,0,0,1-4.35-1.62,5.81,5.81,0,0,1-1.62-4.29,5.68,5.68,0,0,1,1.63-4.25,6.78,6.78,0,0,1,8.71,0,5.65,5.65,0,0,1,1.61,4.25,5.76,5.76,0,0,1-1.62,4.28A5.89,5.89,0,0,1,545.83,19.37Z" transform="translate(-1.45 -7.48)"/><line class="c" x1="338.33" y1="203.34" x2="338.33" y2="520.41"/><line class="c" x1="886.59" y1="203.34" x2="886.59" y2="520.41"/><line class="c" x1="1350.29" y1="203.34" x2="1350.29" y2="520.41"/><line class="c" x1="1991.03" y1="203.34" x2="1991.03" y2="520.41"/><path class="b" d="M40.6,325.42v-8.06H54.5l0-30.61L41.92,292.3l-3.37-7.46L56,277.07h8.33l0,40.3H75.08v8.06Z" transform="translate(-1.45 -7.48)"/><rect class="d" x="4.7" y="226.05" width="102.82" height="109.35" rx="13.29"/><line class="e" x1="7.27" y1="254.4" x2="104.2" y2="254.4"/><line class="e" x1="34.61" y1="209.66" x2="34.61" y2="239.48"/><line class="e" x1="76.86" y1="209.66" x2="76.86" y2="239.48"/><path class="b" d="M515.71,328.05v-7.13q0-12.81,12.23-18.92l5.27-2.59a28.11,28.11,0,0,0,6.79-4.27,5.78,5.78,0,0,0,1.89-4.28v-.65a5.08,5.08,0,0,0-2.06-4.29,9.24,9.24,0,0,0-5.66-1.55,17.9,17.9,0,0,0-7,1.32,23.29,23.29,0,0,0-6.54,4.5L515,283.63a27.51,27.51,0,0,1,20.24-8.12q8,0,12.67,3.9a13.13,13.13,0,0,1,4.64,10.66v1a12.85,12.85,0,0,1-2.82,8.14,25.19,25.19,0,0,1-8.75,6.54l-6.79,3.38a15.81,15.81,0,0,0-5.78,4.31,9.19,9.19,0,0,0-1.81,5.76l25.92,0v8.86Z" transform="translate(-1.45 -7.48)"/><rect class="f" x="480.72" y="226.05" width="103.14" height="109.35" rx="13.31"/><line class="g" x1="483.29" y1="254.4" x2="580.53" y2="254.4"/><line class="g" x1="510.72" y1="209.66" x2="510.72" y2="239.48"/><line class="g" x1="553.1" y1="209.66" x2="553.1" y2="239.48"/><path class="b" d="M1077.43,327.54q-12.53,0-20.16-6.86l5-7.48a21.59,21.59,0,0,0,14.39,5.48q4.68,0,7.17-1.82a6.18,6.18,0,0,0,2.49-5.29v-.51q0-6.84-9.14-6.85h-7.05v-8.36h6.33q9.15,0,9.15-6.25v-.51a5.64,5.64,0,0,0-2.15-4.72,9.9,9.9,0,0,0-6.19-1.69,17.73,17.73,0,0,0-12.75,5.09l-5.61-6.55a27,27,0,0,1,19.3-7.4,24.86,24.86,0,0,1,9.76,1.78,14.62,14.62,0,0,1,6.4,5,12.72,12.72,0,0,1,2.26,7.53v.5a11.4,11.4,0,0,1-7.43,11.12,12,12,0,0,1,6,4.52,12.76,12.76,0,0,1,2.08,7.4v.5a13.49,13.49,0,0,1-5.3,11.3Q1086.65,327.56,1077.43,327.54Z" transform="translate(-1.45 -7.48)"/><rect class="f" x="1024.24" y="226.05" width="103.14" height="109.35" rx="13.31"/><line class="g" x1="1026.81" y1="254.4" x2="1124.05" y2="254.4"/><line class="g" x1="1054.24" y1="209.66" x2="1054.24" y2="239.48"/><line class="g" x1="1096.62" y1="209.66" x2="1096.62" y2="239.48"/><path class="b" d="M1510.79,315.86v-9.29l19.11-32.74H1541l-19.4,33.46,15.19,0V293.21h10.3l0,14.11h6.27v8.56h-6.27v9.36h-10.29v-9.36Z" transform="translate(-1.45 -7.48)"/><rect class="f" x="1479.85" y="226.05" width="103.14" height="109.35" rx="13.31"/><line class="g" x1="1482.42" y1="254.4" x2="1579.66" y2="254.4"/><line class="g" x1="1509.84" y1="209.66" x2="1509.84" y2="239.48"/><line class="g" x1="1552.23" y1="209.66" x2="1552.23" y2="239.48"/><path class="b" d="M2159.39,319.62l5-7.34a20.6,20.6,0,0,0,6,3.86,17.25,17.25,0,0,0,6.69,1.41c3.27,0,5.76-.68,7.49-2a7.06,7.06,0,0,0,2.6-5.87v-.43q0-7.84-11.66-7.86l-14,0,2.26-27.5,31.32,0v8.86l-22.82,0-.88,10.29h4.46q21.75,0,21.73,16.07v.51a15.92,15.92,0,0,1-2.46,8.89,16.18,16.18,0,0,1-6.88,5.86,24.4,24.4,0,0,1-10.48,2.08,28.57,28.57,0,0,1-9.93-1.85A27,27,0,0,1,2159.39,319.62Z" transform="translate(-1.45 -7.48)"/><rect class="f" x="2124.55" y="226.05" width="103.14" height="109.35" rx="13.31"/><line class="g" x1="2127.12" y1="254.4" x2="2224.36" y2="254.4"/><line class="g" x1="2154.55" y1="209.66" x2="2154.55" y2="239.48"/><line class="g" x1="2196.93" y1="209.66" x2="2196.93" y2="239.48"/></svg>