<svg xmlns="http://www.w3.org/2000/svg" viewBox="0 0 112.97 112.84"><defs><style>.cls-1{fill:none;stroke:#2b1f48;stroke-miterlimit:10;stroke-width:6px;}</style></defs><g id="Layer_2" data-name="Layer 2"><g id="Chanuka"><g id="BUTTON_-_Back_to_All_Traditions" data-name="BUTTON - Back to All Traditions"><path class="cls-1" d="M70.42,4.83A53.49,53.49,0,1,0,87.69,13l-4.4-2.94"/><path class="cls-1" d="M108.44,44.77H85a10.73,10.73,0,0,0-10.53,8.71l-2.19,12a7.19,7.19,0,0,0,3.65,7.68l13.69,7.4L90.69,97"/><path class="cls-1" d="M28.36,10.62l22.13,6.1A3.22,3.22,0,0,1,52.63,21l-1,2.44-14,7.4L31.49,44.67,16.26,44.3l-.62,9.18L32.06,55.9l17.38,9.84a6.72,6.72,0,0,1,3.18,7.57L49.75,84.16,39.83,95.5l-4.77,9.6"/><polyline class="cls-1" points="2.96 56.11 15.59 67.41 23.41 75.86 28.03 101.53"/><polyline class="cls-1" points="90.11 16.84 78.31 25.72 83.33 35.28 104.89 35.28"/></g></g></g></svg>