<svg xmlns="http://www.w3.org/2000/svg" viewBox="0 0 2454.04 536.03"><defs><style>.a,.d{fill:#2e1a47;}.b{fill:#7c6992;}.c,.e,.f,.g{fill:none;}.c,.d,.e,.f,.g,.h{stroke:#2e1a47;}.c,.e{stroke-linejoin:round;}.c{stroke-width:5px;}.d,.f,.g,.h{stroke-miterlimit:10;}.e,.g,.h{stroke-width:6px;}.f{stroke-width:2px;}.h{fill:#c9e8ea;}</style></defs><path class="a" d="M1981.52,439.66v-1q0-5.1,2.56-7.89a9.4,9.4,0,0,1,7.28-2.79,10,10,0,0,1,7.65,3.09l-1.68,1.74a7.69,7.69,0,0,0-5.94-2.52,6.65,6.65,0,0,0-5.34,2.13q-1.83,2.13-1.83,6.24v1q0,4.11,1.81,6.24a6.66,6.66,0,0,0,5.36,2.13,8.1,8.1,0,0,0,6.24-2.64l1.56,1.8a10.28,10.28,0,0,1-7.8,3.15,9.43,9.43,0,0,1-7.28-2.81Q1981.52,444.73,1981.52,439.66Z" transform="translate(-0.75)"/><path class="a" d="M2001.68,442.33v-.66a8.1,8.1,0,0,1,2-5.81,8.35,8.35,0,0,1,11.1,0,8.1,8.1,0,0,1,2,5.81v.66a8.07,8.07,0,0,1-2,5.82,8.38,8.38,0,0,1-11.1,0A8.07,8.07,0,0,1,2001.68,442.33Zm2.49-.66v.66a6.39,6.39,0,0,0,1.3,4.32,5.48,5.48,0,0,0,7.53,0,6.39,6.39,0,0,0,1.31-4.32v-.66a6.39,6.39,0,0,0-1.31-4.32,5.48,5.48,0,0,0-7.53,0A6.39,6.39,0,0,0,2004.17,441.67Z" transform="translate(-0.75)"/><path class="a" d="M2020.94,449.86V434.14h2.37v2.61q1.29-3,5-3,3.93,0,5,3.12,1.38-3.12,5.31-3.12,5.37,0,5.37,5.91v10.2h-2.46v-10q0-4-3.54-4.05a4.1,4.1,0,0,0-3.21,1.23,5.26,5.26,0,0,0-1.11,3.63v9.18h-2.46v-10a4.6,4.6,0,0,0-.86-3.06,3.35,3.35,0,0,0-2.68-1q-4.29,0-4.29,4.86v9.18Z" transform="translate(-0.75)"/><path class="a" d="M2049.17,449.86V434.14h2.37v2.61q1.29-3,5-3,3.93,0,5,3.12,1.38-3.12,5.31-3.12,5.37,0,5.37,5.91v10.2h-2.46v-10q0-4-3.54-4.05a4.1,4.1,0,0,0-3.21,1.23,5.26,5.26,0,0,0-1.11,3.63v9.18h-2.46v-10a4.6,4.6,0,0,0-.86-3.06,3.35,3.35,0,0,0-2.68-1q-4.29,0-4.29,4.86v9.18Z" transform="translate(-0.75)"/><path class="a" d="M2076.23,442.33v-.66a8.26,8.26,0,0,1,1.93-5.84,7,7,0,0,1,5.39-2.08,6.49,6.49,0,0,1,5,1.84,7.58,7.58,0,0,1,1.73,5.36v1.86h-11.61a6,6,0,0,0,1.38,4.11,5.23,5.23,0,0,0,3.9,1.32,7,7,0,0,0,2.61-.47,7.82,7.82,0,0,0,2.31-1.48l1.29,1.59a9,9,0,0,1-6.33,2.37Q2076.23,450.25,2076.23,442.33Zm7.29-6.63q-4.62,0-4.86,5.28h9.27Q2087.9,435.7,2083.52,435.7Z" transform="translate(-0.75)"/><path class="a" d="M2094.26,449.86V434.14h2.37v2.61q1.29-3,5-3,3.93,0,5,3.12,1.38-3.12,5.31-3.12,5.37,0,5.37,5.91v10.2h-2.46v-10q0-4-3.54-4.05a4.1,4.1,0,0,0-3.21,1.23,5.26,5.26,0,0,0-1.11,3.63v9.18h-2.46v-10a4.6,4.6,0,0,0-.86-3.06,3.35,3.35,0,0,0-2.68-1q-4.29,0-4.29,4.86v9.18Z" transform="translate(-0.75)"/><path class="a" d="M2121.32,442.33v-.66a8.1,8.1,0,0,1,2-5.81,8.35,8.35,0,0,1,11.1,0,8.1,8.1,0,0,1,2,5.81v.66a8.07,8.07,0,0,1-2,5.82,8.38,8.38,0,0,1-11.1,0A8.07,8.07,0,0,1,2121.32,442.33Zm2.49-.66v.66a6.39,6.39,0,0,0,1.3,4.32,5.48,5.48,0,0,0,7.53,0,6.39,6.39,0,0,0,1.31-4.32v-.66a6.39,6.39,0,0,0-1.31-4.32,5.48,5.48,0,0,0-7.53,0A6.39,6.39,0,0,0,2123.81,441.67Z" transform="translate(-0.75)"/><path class="a" d="M2140.58,449.86V434.14h2.34v3.06a4.62,4.62,0,0,1,2-2.28,6.37,6.37,0,0,1,3.24-.78h1.38v2.31h-1.89a4.62,4.62,0,0,0-3.47,1.17,5,5,0,0,0-1.12,3.6v8.64Z" transform="translate(-0.75)"/><path class="a" d="M2156.87,450.1a5.89,5.89,0,0,1-4-1.28,4.36,4.36,0,0,1-1.45-3.46,4.15,4.15,0,0,1,1.68-3.57,8.21,8.21,0,0,1,4.89-1.23h4v-1.05a3.74,3.74,0,0,0-1-2.85,4.32,4.32,0,0,0-3-.9,5.73,5.73,0,0,0-4.35,2l-1.35-1.47a7.62,7.62,0,0,1,2.68-1.88,8.39,8.39,0,0,1,3.26-.64,6.59,6.59,0,0,1,4.57,1.42,5.37,5.37,0,0,1,1.58,4.19V448h1.59v1.83h-2.07q-1.77,0-1.77-1.47v-1.23a4.37,4.37,0,0,1-1.94,2.16A6.5,6.5,0,0,1,2156.87,450.1Zm.6-1.8q4.47,0,4.47-4.74v-1.23H2158q-4.2,0-4.2,2.91a2.78,2.78,0,0,0,.94,2.26A4.07,4.07,0,0,0,2157.47,448.3Z" transform="translate(-0.75)"/><path class="a" d="M2170.16,444.91v-8.82h-2.73v-1.95h1.8a1,1,0,0,0,1.14-1.11v-3.54h2.25v4.65h4.89v1.95h-4.89v8.55a3.61,3.61,0,0,0,.66,2.49,3.21,3.21,0,0,0,2.37.69h1.86v2h-2.28c-1.88,0-3.2-.37-3.95-1.11S2170.16,446.73,2170.16,444.91Z" transform="translate(-0.75)"/><path class="a" d="M2180.24,442.33v-.66a8.26,8.26,0,0,1,1.93-5.84,7,7,0,0,1,5.39-2.08,6.49,6.49,0,0,1,5,1.84,7.58,7.58,0,0,1,1.73,5.36v1.86h-11.61a6,6,0,0,0,1.37,4.11,5.27,5.27,0,0,0,3.91,1.32,7,7,0,0,0,2.61-.47,7.82,7.82,0,0,0,2.31-1.48l1.29,1.59a9,9,0,0,1-6.33,2.37Q2180.24,450.25,2180.24,442.33Zm7.29-6.63q-4.62,0-4.86,5.28h9.27Q2191.91,435.7,2187.53,435.7Z" transform="translate(-0.75)"/><path class="a" d="M2197.39,442.33v-.66a8.48,8.48,0,0,1,1.86-5.84,6.61,6.61,0,0,1,5.2-2.08,5.83,5.83,0,0,1,5.55,3V427.3h2.46v22.56h-2.34v-3a5.87,5.87,0,0,1-2.32,2.53,6.87,6.87,0,0,1-3.56.89,6.29,6.29,0,0,1-5.06-2.09A8.69,8.69,0,0,1,2197.39,442.33Zm2.49-.66v.66a6.39,6.39,0,0,0,1.31,4.32,5.48,5.48,0,0,0,7.53,0,6.39,6.39,0,0,0,1.31-4.32v-.66a6.39,6.39,0,0,0-1.31-4.32,5.5,5.5,0,0,0-7.53,0A6.4,6.4,0,0,0,2199.88,441.67Z" transform="translate(-0.75)"/><path class="a" d="M2225,449.86V436.09h-2.16v-1.95h3.58a.93.93,0,0,1,1,1.05v14.67Zm.93-18.57a1.65,1.65,0,1,1,0-3.3,1.7,1.7,0,0,1,1.24.45,1.86,1.86,0,0,1,0,2.4A1.7,1.7,0,0,1,2225.89,431.29Z" transform="translate(-0.75)"/><path class="a" d="M2232.7,449.86V434.14h2.37v2.61q1.35-3,5.31-3,5.67,0,5.67,5.91v10.2h-2.46v-10a4.35,4.35,0,0,0-.93-3.08,3.86,3.86,0,0,0-2.91-1,4.5,4.5,0,0,0-3.42,1.23,5.08,5.08,0,0,0-1.17,3.63v9.18Z" transform="translate(-0.75)"/><path class="a" d="M2258.29,444.91v-8.82h-2.73v-1.95h1.8a1,1,0,0,0,1.14-1.11v-3.54h2.25v4.65h4.89v1.95h-4.89v8.55a3.61,3.61,0,0,0,.66,2.49,3.23,3.23,0,0,0,2.37.69h1.86v2h-2.28c-1.88,0-3.19-.37-3.94-1.11A5.29,5.29,0,0,1,2258.29,444.91Z" transform="translate(-0.75)"/><path class="a" d="M2269.54,449.86V427.3H2272v9.27q1.38-2.82,5.22-2.82,5.67,0,5.67,5.91v10.2h-2.46v-10a4.35,4.35,0,0,0-.93-3.08,3.86,3.86,0,0,0-2.91-1,4.5,4.5,0,0,0-3.42,1.23,5.08,5.08,0,0,0-1.17,3.63v9.18Z" transform="translate(-0.75)"/><path class="a" d="M2286.88,442.33v-.66a8.27,8.27,0,0,1,1.94-5.84,7,7,0,0,1,5.38-2.08,6.52,6.52,0,0,1,5,1.84,7.57,7.57,0,0,1,1.72,5.36v1.86h-11.61a6,6,0,0,0,1.38,4.11,5.23,5.23,0,0,0,3.9,1.32,7,7,0,0,0,2.61-.47,7.82,7.82,0,0,0,2.31-1.48l1.29,1.59a9,9,0,0,1-6.33,2.37Q2286.88,450.25,2286.88,442.33Zm7.29-6.63q-4.62,0-4.86,5.28h9.27Q2298.55,435.7,2294.17,435.7Z" transform="translate(-0.75)"/><path class="a" d="M2310.58,439.66v-1q0-5.1,2.57-7.89a9.38,9.38,0,0,1,7.27-2.79,10,10,0,0,1,7.65,3.09l-1.68,1.74a7.69,7.69,0,0,0-5.94-2.52,6.65,6.65,0,0,0-5.34,2.13q-1.83,2.13-1.83,6.24v1q0,4.11,1.82,6.24a6.63,6.63,0,0,0,5.35,2.13,8.1,8.1,0,0,0,6.24-2.64l1.56,1.8a10.28,10.28,0,0,1-7.8,3.15,9.41,9.41,0,0,1-7.27-2.81Q2310.59,444.73,2310.58,439.66Z" transform="translate(-0.75)"/><path class="a" d="M2331.91,449.86V427.3h2.46v9.27q1.38-2.82,5.22-2.82,5.67,0,5.67,5.91v10.2h-2.46v-10a4.35,4.35,0,0,0-.93-3.08,3.86,3.86,0,0,0-2.91-1,4.5,4.5,0,0,0-3.42,1.23,5.08,5.08,0,0,0-1.17,3.63v9.18Z" transform="translate(-0.75)"/><path class="a" d="M2350.42,449.86V434.14h2.34v3.06a4.62,4.62,0,0,1,2-2.28,6.37,6.37,0,0,1,3.24-.78h1.38v2.31h-1.89a4.6,4.6,0,0,0-3.46,1.17,5,5,0,0,0-1.13,3.6v8.64Z" transform="translate(-0.75)"/><path class="a" d="M2364,449.86V436.09h-2.16v-1.95h3.57a.93.93,0,0,1,1,1.05v14.67Zm.93-18.57a1.65,1.65,0,1,1,0-3.3,1.66,1.66,0,0,1,1.23.45,1.82,1.82,0,0,1,0,2.4A1.66,1.66,0,0,1,2364.88,431.29Z" transform="translate(-0.75)"/><path class="a" d="M2370.37,448.24l1.11-1.77a7.84,7.84,0,0,0,2.42,1.27,8.71,8.71,0,0,0,2.77.47,4.88,4.88,0,0,0,2.85-.72,2.29,2.29,0,0,0,1-2,1.9,1.9,0,0,0-.78-1.7,8.51,8.51,0,0,0-2.94-.91l-1-.15a7.62,7.62,0,0,1-3.81-1.56,3.77,3.77,0,0,1-1.17-2.91,3.85,3.85,0,0,1,.77-2.37,5,5,0,0,1,2.11-1.59,8,8,0,0,1,3.12-.57,10,10,0,0,1,3.3.54,8.06,8.06,0,0,1,2.67,1.5l-1.14,1.68a6.51,6.51,0,0,0-2.22-1.25,8.2,8.2,0,0,0-2.64-.43,4.69,4.69,0,0,0-2.64.64,2.07,2.07,0,0,0-1,1.82,1.72,1.72,0,0,0,.71,1.51,6.8,6.8,0,0,0,2.53.83l.93.18a8.8,8.8,0,0,1,4.26,1.59,3.93,3.93,0,0,1,1.23,3.12,4.19,4.19,0,0,1-1.65,3.48,7.07,7.07,0,0,1-4.47,1.29,11.51,11.51,0,0,1-3.52-.54A9.3,9.3,0,0,1,2370.37,448.24Z" transform="translate(-0.75)"/><path class="a" d="M2387.89,444.91v-8.82h-2.73v-1.95h1.8a1,1,0,0,0,1.14-1.11v-3.54h2.25v4.65h4.89v1.95h-4.89v8.55a3.61,3.61,0,0,0,.66,2.49,3.23,3.23,0,0,0,2.37.69h1.86v2H2393c-1.88,0-3.19-.37-3.94-1.11A5.29,5.29,0,0,1,2387.89,444.91Z" transform="translate(-0.75)"/><path class="a" d="M2398.84,449.86V434.14h2.37v2.61q1.29-3,5-3,3.93,0,5,3.12,1.38-3.12,5.31-3.12,5.37,0,5.37,5.91v10.2h-2.46v-10q0-4-3.54-4.05a4.1,4.1,0,0,0-3.21,1.23,5.26,5.26,0,0,0-1.11,3.63v9.18h-2.46v-10a4.6,4.6,0,0,0-.85-3.06,3.37,3.37,0,0,0-2.69-1q-4.29,0-4.29,4.86v9.18Z" transform="translate(-0.75)"/><path class="a" d="M2431,450.1a5.84,5.84,0,0,1-4-1.28,4.36,4.36,0,0,1-1.46-3.46,4.15,4.15,0,0,1,1.68-3.57,8.21,8.21,0,0,1,4.89-1.23h4v-1.05a3.74,3.74,0,0,0-1-2.85,4.32,4.32,0,0,0-3-.9,5.73,5.73,0,0,0-4.35,2l-1.35-1.47a7.66,7.66,0,0,1,2.69-1.88,8.3,8.3,0,0,1,3.25-.64,6.61,6.61,0,0,1,4.58,1.42,5.37,5.37,0,0,1,1.57,4.19V448h1.59v1.83H2438q-1.77,0-1.77-1.47v-1.23a4.35,4.35,0,0,1-1.93,2.16A6.54,6.54,0,0,1,2431,450.1Zm.6-1.8q4.47,0,4.47-4.74v-1.23h-3.9q-4.2,0-4.2,2.91a2.79,2.79,0,0,0,1,2.26A4,4,0,0,0,2431.6,448.3Z" transform="translate(-0.75)"/><path class="a" d="M2442.25,448.24l1.11-1.77a7.78,7.78,0,0,0,2.41,1.27,8.82,8.82,0,0,0,2.78.47,4.88,4.88,0,0,0,2.85-.72,2.29,2.29,0,0,0,1-2,1.9,1.9,0,0,0-.78-1.7,8.51,8.51,0,0,0-2.94-.91l-1-.15a7.62,7.62,0,0,1-3.81-1.56,3.77,3.77,0,0,1-1.17-2.91,3.84,3.84,0,0,1,.76-2.37,5.08,5.08,0,0,1,2.12-1.59,8,8,0,0,1,3.12-.57,10,10,0,0,1,3.3.54,8.06,8.06,0,0,1,2.67,1.5l-1.14,1.68a6.51,6.51,0,0,0-2.22-1.25,8.2,8.2,0,0,0-2.64-.43,4.69,4.69,0,0,0-2.64.64,2.07,2.07,0,0,0-1,1.82,1.71,1.71,0,0,0,.7,1.51,6.86,6.86,0,0,0,2.54.83l.93.18a8.8,8.8,0,0,1,4.26,1.59,3.93,3.93,0,0,1,1.23,3.12,4.19,4.19,0,0,1-1.65,3.48,7.07,7.07,0,0,1-4.47,1.29,11.57,11.57,0,0,1-3.53-.54A9.25,9.25,0,0,1,2442.25,448.24Z" transform="translate(-0.75)"/><path class="a" d="M1981.34,478.33v-.66a8.19,8.19,0,0,1,2-5.84,7.21,7.21,0,0,1,5.51-2.08,7.43,7.43,0,0,1,5.73,2.34l-1.47,1.53a5.54,5.54,0,0,0-4.14-1.77,4.77,4.77,0,0,0-3.81,1.48,6.45,6.45,0,0,0-1.29,4.34v.66q0,5.82,5.13,5.82a5.89,5.89,0,0,0,4.32-1.8l1.35,1.59a7.89,7.89,0,0,1-5.82,2.31,7.21,7.21,0,0,1-5.51-2.09A8.16,8.16,0,0,1,1981.34,478.33Z" transform="translate(-0.75)"/><path class="a" d="M2002.19,486.1a5.89,5.89,0,0,1-4-1.28,4.36,4.36,0,0,1-1.45-3.46,4.15,4.15,0,0,1,1.68-3.57,8.21,8.21,0,0,1,4.89-1.23h4v-1.05a3.74,3.74,0,0,0-1-2.85,4.32,4.32,0,0,0-3-.9,5.73,5.73,0,0,0-4.35,2l-1.35-1.47a7.62,7.62,0,0,1,2.68-1.88,8.39,8.39,0,0,1,3.26-.64,6.59,6.59,0,0,1,4.57,1.42,5.37,5.37,0,0,1,1.58,4.19V484h1.59v1.83h-2.07q-1.77,0-1.77-1.47v-1.23a4.37,4.37,0,0,1-1.94,2.16A6.5,6.5,0,0,1,2002.19,486.1Zm.6-1.8q4.47,0,4.47-4.74v-1.23h-3.9q-4.2,0-4.2,2.91a2.78,2.78,0,0,0,.94,2.26A4.07,4.07,0,0,0,2002.79,484.3Z" transform="translate(-0.75)"/><path class="a" d="M2014.76,485.86V470.14h2.34v3.06a4.62,4.62,0,0,1,2-2.28,6.37,6.37,0,0,1,3.24-.78h1.38v2.31h-1.89a4.62,4.62,0,0,0-3.47,1.17,5,5,0,0,0-1.12,3.6v8.64Z" transform="translate(-0.75)"/><path class="a" d="M2026,478.33v-.66a8.1,8.1,0,0,1,2-5.81,8.35,8.35,0,0,1,11.1,0,8.1,8.1,0,0,1,2,5.81v.66a8.07,8.07,0,0,1-2,5.82,8.38,8.38,0,0,1-11.1,0A8.07,8.07,0,0,1,2026,478.33Zm2.49-.66v.66a6.39,6.39,0,0,0,1.3,4.32,5.48,5.48,0,0,0,7.53,0,6.39,6.39,0,0,0,1.31-4.32v-.66a6.39,6.39,0,0,0-1.31-4.32,5.48,5.48,0,0,0-7.53,0A6.39,6.39,0,0,0,2028.44,477.67Z" transform="translate(-0.75)"/><path class="a" d="M2045.06,482.05V463.3h2.46v18.57a1.75,1.75,0,0,0,2,1.95h1v2H2049a4.09,4.09,0,0,1-2.93-1A3.76,3.76,0,0,1,2045.06,482.05Z" transform="translate(-0.75)"/><path class="a" d="M2059.85,472.09l-.3-5.46v-2.19H2062v2.19l-.3,5.46Zm4.77,0-.3-5.46v-2.19h2.46v2.19l-.3,5.46Z" transform="translate(-0.75)"/><path class="a" d="M2075.24,485.86,2069,464.44h2.79l5,18.36,4.95-18.36h3l4.95,18.48,5-18.48h2.67l-6.24,21.42h-3.09l-4.86-18.12-4.89,18.12Z" transform="translate(-0.75)"/><path class="a" d="M2098.58,478.33v-.66a8.26,8.26,0,0,1,1.93-5.84,7,7,0,0,1,5.39-2.08,6.49,6.49,0,0,1,5,1.84,7.58,7.58,0,0,1,1.73,5.36v1.86H2101a6,6,0,0,0,1.38,4.11,5.23,5.23,0,0,0,3.9,1.32,7,7,0,0,0,2.61-.47,7.82,7.82,0,0,0,2.31-1.48l1.29,1.59a9,9,0,0,1-6.33,2.37Q2098.58,486.25,2098.58,478.33Zm7.29-6.63q-4.62,0-4.86,5.28h9.27Q2110.25,471.7,2105.87,471.7Z" transform="translate(-0.75)"/><path class="a" d="M2129.06,485.86v-19.2h-7.23v-2.22h17.07v2.22h-7.23v19.2Z" transform="translate(-0.75)"/><path class="a" d="M2142.74,485.86V463.3h2.46v9.27q1.38-2.82,5.22-2.82c3.78,0,5.66,2,5.66,5.91v10.2h-2.45v-10a4.4,4.4,0,0,0-.93-3.08,3.86,3.86,0,0,0-2.91-1,4.5,4.5,0,0,0-3.42,1.23,5,5,0,0,0-1.17,3.63v9.18Z" transform="translate(-0.75)"/><path class="a" d="M2161.25,485.86V470.14h2.33v3.06a4.66,4.66,0,0,1,2-2.28,6.37,6.37,0,0,1,3.24-.78h1.39v2.31h-1.9a4.6,4.6,0,0,0-3.46,1.17,5,5,0,0,0-1.12,3.6v8.64Z" transform="translate(-0.75)"/><path class="a" d="M2172.43,478.33v-.66a8.27,8.27,0,0,1,1.94-5.84,7,7,0,0,1,5.38-2.08,6.52,6.52,0,0,1,5,1.84,7.57,7.57,0,0,1,1.72,5.36v1.86h-11.61a6,6,0,0,0,1.38,4.11,5.23,5.23,0,0,0,3.9,1.32,7,7,0,0,0,2.61-.47,7.7,7.7,0,0,0,2.31-1.48l1.29,1.59a9,9,0,0,1-6.33,2.37Q2172.43,486.25,2172.43,478.33Zm7.29-6.63q-4.62,0-4.86,5.28h9.27Q2184.1,471.7,2179.72,471.7Z" transform="translate(-0.75)"/><path class="a" d="M2189.59,478.33v-.66a8.27,8.27,0,0,1,1.94-5.84,7,7,0,0,1,5.38-2.08,6.52,6.52,0,0,1,5,1.84,7.57,7.57,0,0,1,1.72,5.36v1.86H2192a6,6,0,0,0,1.38,4.11,5.23,5.23,0,0,0,3.9,1.32,7,7,0,0,0,2.61-.47,7.82,7.82,0,0,0,2.31-1.48l1.29,1.59a9,9,0,0,1-6.33,2.37Q2189.59,486.25,2189.59,478.33Zm7.29-6.63q-4.62,0-4.86,5.28h9.27Q2201.26,471.7,2196.88,471.7Z" transform="translate(-0.75)"/><path class="a" d="M2214.46,485.86V464.44h2.61V474h3l7.44-9.54h3l-8.25,10.62,5.37,6.81a6,6,0,0,0,1.46,1.41,3.2,3.2,0,0,0,1.63.36h.54v2.22h-.93a7.64,7.64,0,0,1-2-.21,3.74,3.74,0,0,1-1.44-.77,10.88,10.88,0,0,1-1.5-1.63l-5.49-7h-2.85v9.63Z" transform="translate(-0.75)"/><path class="a" d="M2235.31,485.86V472.09h-2.16v-1.95h3.57a.93.93,0,0,1,1.05,1.05v14.67Zm.93-18.57a1.65,1.65,0,1,1,0-3.3,1.66,1.66,0,0,1,1.23.45,1.82,1.82,0,0,1,0,2.4A1.66,1.66,0,0,1,2236.24,467.29Z" transform="translate(-0.75)"/><path class="a" d="M2243.05,485.86V470.14h2.37v2.61q1.35-3,5.31-3,5.67,0,5.67,5.91v10.2h-2.46v-10a4.35,4.35,0,0,0-.93-3.08,3.86,3.86,0,0,0-2.91-1,4.5,4.5,0,0,0-3.42,1.23,5.08,5.08,0,0,0-1.17,3.63v9.18Z" transform="translate(-0.75)"/><path class="a" d="M2261.32,489.79l1.14-1.83a8.06,8.06,0,0,0,5.34,1.8,5.18,5.18,0,0,0,3.93-1.34,5.82,5.82,0,0,0,1.26-4.12v-1.59a5.85,5.85,0,0,1-2.29,2.31,7,7,0,0,1-3.47.81,6.37,6.37,0,0,1-5-2,8.42,8.42,0,0,1-1.8-5.76v-.42a8.36,8.36,0,0,1,1.86-5.79,6.62,6.62,0,0,1,5.19-2.07,5.79,5.79,0,0,1,5.67,3.27v-2.88h2.34v13.95q0,7.74-7.59,7.74a12,12,0,0,1-3.55-.51A9.3,9.3,0,0,1,2261.32,489.79Zm1.56-12.18V478a6.13,6.13,0,0,0,1.32,4.23,5.56,5.56,0,0,0,7.52,0,6.05,6.05,0,0,0,1.3-4.18v-.48a6.29,6.29,0,0,0-1.3-4.28,5.53,5.53,0,0,0-7.53,0A6.3,6.3,0,0,0,2262.88,477.61Z" transform="translate(-0.75)"/><path class="a" d="M2279.17,484.24l1.11-1.77a7.84,7.84,0,0,0,2.42,1.27,8.71,8.71,0,0,0,2.77.47,4.88,4.88,0,0,0,2.85-.72,2.29,2.29,0,0,0,1-2,1.9,1.9,0,0,0-.78-1.7,8.51,8.51,0,0,0-2.94-.91l-1-.15a7.62,7.62,0,0,1-3.81-1.56,3.77,3.77,0,0,1-1.17-2.91,3.85,3.85,0,0,1,.77-2.37,5,5,0,0,1,2.11-1.59,8,8,0,0,1,3.12-.57,10,10,0,0,1,3.3.54,8.06,8.06,0,0,1,2.67,1.5l-1.14,1.68a6.51,6.51,0,0,0-2.22-1.25,8.2,8.2,0,0,0-2.64-.43,4.69,4.69,0,0,0-2.64.64,2.07,2.07,0,0,0-1,1.82,1.72,1.72,0,0,0,.71,1.51,6.8,6.8,0,0,0,2.53.83l.93.18a8.8,8.8,0,0,1,4.26,1.59,3.93,3.93,0,0,1,1.23,3.12,4.19,4.19,0,0,1-1.65,3.48,7.07,7.07,0,0,1-4.47,1.29,11.51,11.51,0,0,1-3.52-.54A9.3,9.3,0,0,1,2279.17,484.24Z" transform="translate(-0.75)"/><path class="a" d="M2294.92,471.43l1.35-7h2.7l-2.13,7Zm4.83,0,1.35-7h2.7l-2.13,7Z" transform="translate(-0.75)"/><path class="b" d="M3.31,461.84V430.42H12.6l8.14,19,8.36-19h8.75v31.42H31.38V438.69l-8,18H17.88l-8.1-18v23.19Z" transform="translate(-0.75)"/><path class="b" d="M42.78,450.66v-1q0-5.49,3-8.6c2-2.07,4.81-3.1,8.35-3.1,3.38,0,6,.92,7.82,2.77s2.75,4.47,2.75,7.88V452H48.81a6.13,6.13,0,0,0,1.78,4.2,6.64,6.64,0,0,0,4.51,1.34,10.22,10.22,0,0,0,3.39-.53,12.76,12.76,0,0,0,3.3-1.89L64.65,459a15,15,0,0,1-9.9,3.43c-3.9,0-6.87-1-8.91-3S42.78,454.48,42.78,450.66Zm11.31-8.05q-4.85,0-5.28,5.41H59.06a6.3,6.3,0,0,0-1.36-4.09A4.72,4.72,0,0,0,54.09,442.61Z" transform="translate(-0.75)"/><path class="b" d="M69.09,455.15v-26.4h6.16V454.4a2.17,2.17,0,0,0,2.42,2.47H79v5H75.82Q69.09,461.84,69.09,455.15Z" transform="translate(-0.75)"/><path class="b" d="M81.67,450.71v-1c0-3.69,1-6.57,3.15-8.62s5-3.08,8.73-3.08a11.57,11.57,0,0,1,8.76,3.34l-3.39,3.83a7.07,7.07,0,0,0-5.06-2.11q-5.94,0-5.94,6.64v1q0,6.63,6,6.64a7.52,7.52,0,0,0,5.32-2.2l3.17,4a12.34,12.34,0,0,1-8.93,3.3c-3.72,0-6.63-1-8.71-3.1S81.67,454.37,81.67,450.71Z" transform="translate(-0.75)"/><path class="b" d="M106.36,461.84V428.75h6.16v12.76q2-3.52,7.08-3.52,8.49,0,8.49,8.8v15h-6.16v-14.3c0-3-1.43-4.53-4.31-4.53a5,5,0,0,0-3.78,1.4,5.65,5.65,0,0,0-1.32,4v13.42Z" transform="translate(-0.75)"/><path class="b" d="M135,461.84V443.36H132.1v-4.8h6.6a2.07,2.07,0,0,1,2.42,2.42v20.86Zm2.64-26.23a3.58,3.58,0,0,1-2.66-1,3.53,3.53,0,0,1-1-2.61,3.47,3.47,0,0,1,1-2.6,4.13,4.13,0,0,1,5.32,0,3.47,3.47,0,0,1,1,2.6,3.53,3.53,0,0,1-1,2.61A3.6,3.6,0,0,1,137.6,435.61Z" transform="translate(-0.75)"/><path class="b" d="M145.83,450.71v-1c0-3.66,1-6.53,3.14-8.6s5-3.1,8.69-3.1,6.55,1,8.65,3.1,3.14,4.94,3.14,8.6v1q0,5.44-3.14,8.58t-8.65,3.12q-5.53,0-8.69-3.12C146.87,457.2,145.83,454.34,145.83,450.71Zm6.24-1v1q0,6.63,5.59,6.64t5.59-6.64v-1q0-6.65-5.59-6.64T152.07,449.69Z" transform="translate(-0.75)"/><path class="b" d="M174.21,461.84V438.56h5.85v4.09c1.29-2.72,3.75-4.09,7.39-4.09h1.67v5.59h-3.47q-5.28,0-5.28,5.28v12.41Z" transform="translate(-0.75)"/><path class="a" d="M1.66,497.64v-1a12.48,12.48,0,0,1,1.22-5.7,8.59,8.59,0,0,1,3.49-3.69,10.79,10.79,0,0,1,5.4-1.29A10.29,10.29,0,0,1,20,489.39l-1.74,1.74a8,8,0,0,0-6.36-2.88,7,7,0,0,0-5.52,2.2,8.92,8.92,0,0,0-2,6.17v1a9.44,9.44,0,0,0,1.86,6.24,6.5,6.5,0,0,0,5.28,2.22,6.71,6.71,0,0,0,4.82-1.62A6,6,0,0,0,18,499.89v-.75H12.25v-2h7.08a1,1,0,0,1,1.17,1.2v9.54H18.19v-3.66q-1.68,4.14-7.26,4.14A9.23,9.23,0,0,1,6,507a8.36,8.36,0,0,1-3.2-3.68A13.43,13.43,0,0,1,1.66,497.64Z" transform="translate(-0.75)"/><path class="a" d="M24.19,500.31v-.66a8.1,8.1,0,0,1,2-5.81,7.29,7.29,0,0,1,5.55-2.11,7.29,7.29,0,0,1,5.55,2.11,8.1,8.1,0,0,1,2,5.81v.66a8.07,8.07,0,0,1-2,5.82,7.32,7.32,0,0,1-5.55,2.1,7.32,7.32,0,0,1-5.55-2.1A8.07,8.07,0,0,1,24.19,500.31Zm2.49-.66v.66A6.39,6.39,0,0,0,28,504.63a4.71,4.71,0,0,0,3.76,1.5,4.73,4.73,0,0,0,3.77-1.5,6.39,6.39,0,0,0,1.3-4.32v-.66a6.39,6.39,0,0,0-1.3-4.32,4.73,4.73,0,0,0-3.77-1.5,4.71,4.71,0,0,0-3.76,1.5A6.39,6.39,0,0,0,26.68,499.65Z" transform="translate(-0.75)"/><path class="a" d="M43.3,504V485.28h2.46v18.57a1.75,1.75,0,0,0,2,1.95h1v2h-1.5a4.06,4.06,0,0,1-2.92-1A3.76,3.76,0,0,1,43.3,504Z" transform="translate(-0.75)"/><path class="a" d="M51,500.31v-.66a8.48,8.48,0,0,1,1.86-5.84,6.59,6.59,0,0,1,5.19-2.08,5.81,5.81,0,0,1,5.55,3v-9.48H66.1v22.56H63.76v-3a5.85,5.85,0,0,1-2.31,2.53,6.9,6.9,0,0,1-3.57.89,6.28,6.28,0,0,1-5.05-2.09A8.69,8.69,0,0,1,51,500.31Zm2.49-.66v.66a6.39,6.39,0,0,0,1.31,4.32,4.71,4.71,0,0,0,3.76,1.5,4.73,4.73,0,0,0,3.77-1.5,6.39,6.39,0,0,0,1.3-4.32v-.66a6.39,6.39,0,0,0-1.3-4.32,4.73,4.73,0,0,0-3.77-1.5,4.73,4.73,0,0,0-3.76,1.48A6.4,6.4,0,0,0,53.53,499.65Z" transform="translate(-0.75)"/><path class="b" d="M341,446.92v-1.58q0-7.39,4-11.51t11.33-4.11a15.21,15.21,0,0,1,11.44,4.49l-3.91,4.35a10,10,0,0,0-7.53-3.12,7.92,7.92,0,0,0-6.31,2.51q-2.18,2.51-2.18,7.39v1.58q0,9.9,8.49,9.9a10.94,10.94,0,0,0,8-3.25L368,458.1q-4.35,4.44-11.66,4.44t-11.3-4.09Q341,454.36,341,446.92Z" transform="translate(-0.75)"/><path class="b" d="M379,462.19a8.68,8.68,0,0,1-5.95-1.91,6.7,6.7,0,0,1-2.15-5.26,6.22,6.22,0,0,1,2.64-5.43q2.64-1.87,7.74-1.87h4.31v-.93c0-2.64-1.56-4-4.7-4a8.54,8.54,0,0,0-5.86,2.51l-3-3.65a11.89,11.89,0,0,1,4.27-2.75,14.45,14.45,0,0,1,5.23-.95c3.23,0,5.7.74,7.42,2.2a8,8,0,0,1,2.57,6.38v10.91h2.16v4.36H390a5.58,5.58,0,0,1-3.1-.66A2.45,2.45,0,0,1,386,459v-.61C384.82,460.93,382.47,462.19,379,462.19Zm1.75-4.13a4.66,4.66,0,0,0,3.59-1.35,5.46,5.46,0,0,0,1.25-3.89v-1.23h-4.22c-3,0-4.44,1.05-4.44,3.17a3,3,0,0,0,1,2.44A4.21,4.21,0,0,0,380.71,458.06Z" transform="translate(-0.75)"/><path class="b" d="M395.94,459.51l2.51-4.27a11.78,11.78,0,0,0,3.49,1.69,13.41,13.41,0,0,0,3.94.6q4,0,4.05-2.51a1.86,1.86,0,0,0-.79-1.67,8.5,8.5,0,0,0-3.08-.88l-1.67-.27a11.63,11.63,0,0,1-5.83-2.39,5.84,5.84,0,0,1-1.87-4.56,6.24,6.24,0,0,1,2.66-5.28,11.54,11.54,0,0,1,7.06-2,17.69,17.69,0,0,1,5.13.75,13.11,13.11,0,0,1,4.29,2.16l-2.51,4.18a10.76,10.76,0,0,0-3.26-1.65,11.87,11.87,0,0,0-3.69-.6q-3.8,0-3.79,2.25a1.65,1.65,0,0,0,.75,1.49,8.29,8.29,0,0,0,2.73.84l1.63.26q4.35.7,6.24,2.4a6.1,6.1,0,0,1,1.9,4.82,6.61,6.61,0,0,1-2.58,5.5,11.28,11.28,0,0,1-7.15,2,20,20,0,0,1-5.61-.77A15.3,15.3,0,0,1,395.94,459.51Z" transform="translate(-0.75)"/><path class="b" d="M420.75,470V438.56h5.86v3.7q2.5-4.27,8-4.27a8.66,8.66,0,0,1,7.11,3c1.63,2,2.44,4.9,2.44,8.72v1q0,5.58-2.62,8.64a9.26,9.26,0,0,1-7.45,3.06,8.13,8.13,0,0,1-7.18-3.47V470Zm6.08-20.32v1q0,6.65,5.54,6.64t5.59-6.64v-1q0-6.65-5.59-6.65T426.83,449.7Z" transform="translate(-0.75)"/><path class="b" d="M455.43,462.19a8.64,8.64,0,0,1-5.94-1.91,6.67,6.67,0,0,1-2.16-5.26,6.22,6.22,0,0,1,2.64-5.43q2.64-1.87,7.74-1.87H462v-.93q0-4-4.71-4a8.5,8.5,0,0,0-5.85,2.51l-3-3.65a11.89,11.89,0,0,1,4.27-2.75,14.49,14.49,0,0,1,5.23-.95c3.23,0,5.7.74,7.42,2.2a8,8,0,0,1,2.57,6.38v10.91h2.16v4.36h-3.57a5.58,5.58,0,0,1-3.1-.66,2.45,2.45,0,0,1-.94-2.16v-.61C461.29,460.93,459,462.19,455.43,462.19Zm1.76-4.13a4.64,4.64,0,0,0,3.58-1.35,5.47,5.47,0,0,0,1.26-3.89v-1.23H457.8c-3,0-4.44,1.05-4.44,3.17a3,3,0,0,0,1,2.44A4.22,4.22,0,0,0,457.19,458.06Z" transform="translate(-0.75)"/><path class="b" d="M474,461.84V438.56h5.85v4.1q1.94-4.1,7.39-4.1H489v5.59h-3.47q-5.28,0-5.28,5.28v12.41Z" transform="translate(-0.75)"/><path class="a" d="M342,507.84V486.42h14.1v2.19H344.58v7.68H354v2.16h-9.39v9.39Z" transform="translate(-0.75)"/><path class="a" d="M359.28,507.84V492.12h2.34v3.06a4.62,4.62,0,0,1,2-2.28,6.37,6.37,0,0,1,3.24-.78h1.38v2.31h-1.89a4.62,4.62,0,0,0-3.47,1.17,5,5,0,0,0-1.12,3.6v8.64Z" transform="translate(-0.75)"/><path class="a" d="M375.57,508.08a5.89,5.89,0,0,1-4-1.28,4.36,4.36,0,0,1-1.45-3.46,4.15,4.15,0,0,1,1.68-3.57,8.21,8.21,0,0,1,4.89-1.23h4v-1.05a3.74,3.74,0,0,0-1-2.85,4.32,4.32,0,0,0-3-.9,5.73,5.73,0,0,0-4.35,2L371,494.25a7.62,7.62,0,0,1,2.68-1.88,8.39,8.39,0,0,1,3.26-.64,6.59,6.59,0,0,1,4.57,1.42,5.37,5.37,0,0,1,1.58,4.19V506h1.59v1.83h-2.07q-1.77,0-1.77-1.47v-1.23a4.37,4.37,0,0,1-1.94,2.16A6.5,6.5,0,0,1,375.57,508.08Zm.6-1.8q4.47,0,4.47-4.74v-1.23h-3.9q-4.2,0-4.2,2.91a2.78,2.78,0,0,0,.94,2.26A4.07,4.07,0,0,0,376.17,506.28Z" transform="translate(-0.75)"/><path class="a" d="M388.14,507.84V492.12h2.37v2.61q1.35-3,5.31-3,5.67,0,5.67,5.91v10.2H399v-10a4.35,4.35,0,0,0-.93-3.08,3.86,3.86,0,0,0-2.91-1,4.5,4.5,0,0,0-3.42,1.23,5.08,5.08,0,0,0-1.17,3.63v9.18Z" transform="translate(-0.75)"/><path class="a" d="M406.65,507.84V485.28h2.46v13.11h2.4l5.7-6.27h2.85l-6.63,7.35,7.2,8.37h-3l-6.33-7.32h-2.16v7.32Z" transform="translate(-0.75)"/><path class="a" d="M424.38,507.84V494.07h-2.16v-1.95h3.57a.93.93,0,0,1,1,1.05v14.67Zm.93-18.57a1.65,1.65,0,1,1,0-3.3,1.66,1.66,0,0,1,1.23.45,1.83,1.83,0,0,1,0,2.4A1.66,1.66,0,0,1,425.31,489.27Z" transform="translate(-0.75)"/><path class="a" d="M432.12,507.84V492.12h2.37v2.61q1.35-3,5.31-3,5.67,0,5.67,5.91v10.2H443v-10a4.35,4.35,0,0,0-.93-3.08,3.86,3.86,0,0,0-2.91-1,4.5,4.5,0,0,0-3.42,1.23,5.08,5.08,0,0,0-1.17,3.63v9.18Z" transform="translate(-0.75)"/><path class="a" d="M449.46,500.31v-.66a8.19,8.19,0,0,1,2-5.84,7.21,7.21,0,0,1,5.51-2.08,7.43,7.43,0,0,1,5.73,2.34l-1.47,1.53a5.54,5.54,0,0,0-4.14-1.77,4.77,4.77,0,0,0-3.81,1.48,6.45,6.45,0,0,0-1.29,4.34v.66q0,5.82,5.13,5.82a5.89,5.89,0,0,0,4.32-1.8l1.35,1.59a7.89,7.89,0,0,1-5.82,2.31,7.21,7.21,0,0,1-5.51-2.09A8.16,8.16,0,0,1,449.46,500.31Z" transform="translate(-0.75)"/><path class="a" d="M465.21,500.31v-.66a8.26,8.26,0,0,1,1.93-5.84,7,7,0,0,1,5.39-2.08,6.49,6.49,0,0,1,5,1.84,7.58,7.58,0,0,1,1.73,5.36v1.86H467.64A6,6,0,0,0,469,504.9a5.23,5.23,0,0,0,3.9,1.32,7,7,0,0,0,2.61-.47,7.82,7.82,0,0,0,2.31-1.48l1.29,1.59a9,9,0,0,1-6.33,2.37Q465.21,508.23,465.21,500.31Zm7.29-6.63q-4.62,0-4.86,5.28h9.27Q476.88,493.68,472.5,493.68Z" transform="translate(-0.75)"/><path class="a" d="M483.24,507.84V492.12h2.37v2.61q1.35-3,5.31-3,5.67,0,5.67,5.91v10.2h-2.46v-10a4.35,4.35,0,0,0-.93-3.08,3.86,3.86,0,0,0-2.91-1,4.5,4.5,0,0,0-3.42,1.23,5.08,5.08,0,0,0-1.17,3.63v9.18Z" transform="translate(-0.75)"/><path class="a" d="M500.43,506.22l1.11-1.77a7.78,7.78,0,0,0,2.41,1.27,8.77,8.77,0,0,0,2.78.47,4.88,4.88,0,0,0,2.85-.72,2.29,2.29,0,0,0,1-2,1.9,1.9,0,0,0-.78-1.7,8.51,8.51,0,0,0-2.94-.91l-1-.15a7.62,7.62,0,0,1-3.81-1.56,3.77,3.77,0,0,1-1.17-2.91,3.84,3.84,0,0,1,.76-2.37,5,5,0,0,1,2.12-1.59,8,8,0,0,1,3.12-.57,10,10,0,0,1,3.3.54,8.06,8.06,0,0,1,2.67,1.5l-1.14,1.68a6.51,6.51,0,0,0-2.22-1.25,8.2,8.2,0,0,0-2.64-.43,4.69,4.69,0,0,0-2.64.64,2.07,2.07,0,0,0-1,1.82,1.71,1.71,0,0,0,.7,1.51,6.86,6.86,0,0,0,2.54.83l.93.18a8.8,8.8,0,0,1,4.26,1.59,3.93,3.93,0,0,1,1.23,3.12,4.19,4.19,0,0,1-1.65,3.48,7.07,7.07,0,0,1-4.47,1.29,11.57,11.57,0,0,1-3.53-.54A9.25,9.25,0,0,1,500.43,506.22Z" transform="translate(-0.75)"/><path class="a" d="M516.06,500.31v-.66a8.26,8.26,0,0,1,1.93-5.84,7,7,0,0,1,5.39-2.08,6.49,6.49,0,0,1,5,1.84,7.58,7.58,0,0,1,1.73,5.36v1.86H518.49a6,6,0,0,0,1.38,4.11,5.23,5.23,0,0,0,3.9,1.32,7,7,0,0,0,2.61-.47,7.82,7.82,0,0,0,2.31-1.48l1.29,1.59a9,9,0,0,1-6.33,2.37Q516.06,508.23,516.06,500.31Zm7.29-6.63q-4.62,0-4.86,5.28h9.27Q527.73,493.68,523.35,493.68Z" transform="translate(-0.75)"/><path class="b" d="M700.13,459.29V430.42H713.9q5.28,0,8,2a6.73,6.73,0,0,1,2.75,5.83v.66a6.62,6.62,0,0,1-1.21,4,7.38,7.38,0,0,1-3.45,2.56,7.9,7.9,0,0,1,4.09,2.65,7.06,7.06,0,0,1,1.45,4.5v.75a7.52,7.52,0,0,1-2.79,6.31q-2.79,2.18-8.16,2.18H702.68A2.25,2.25,0,0,1,700.13,459.29Zm6.51-15.89h6.69a5.59,5.59,0,0,0,3.5-.94,3.22,3.22,0,0,0,1.21-2.71v-.57a3.15,3.15,0,0,0-1.21-2.68,5.66,5.66,0,0,0-3.5-.93h-6.69Zm0,13.29H714a5.63,5.63,0,0,0,3.6-1,3.44,3.44,0,0,0,1.28-2.86v-.62a3.45,3.45,0,0,0-1.28-2.86,5.69,5.69,0,0,0-3.6-1h-7.4Z" transform="translate(-0.75)"/><path class="b" d="M737.18,462.19a8.67,8.67,0,0,1-5.94-1.91,6.67,6.67,0,0,1-2.16-5.26,6.22,6.22,0,0,1,2.64-5.43q2.64-1.87,7.75-1.87h4.31v-.93q0-4-4.71-4a8.54,8.54,0,0,0-5.85,2.51l-3-3.65a12.21,12.21,0,0,1,4.27-2.75,14.5,14.5,0,0,1,5.24-.95c3.22,0,5.69.74,7.41,2.2a7.93,7.93,0,0,1,2.57,6.38v10.91h2.16v4.36h-3.56a5.55,5.55,0,0,1-3.1-.66,2.43,2.43,0,0,1-.95-2.16v-.61Q742.46,462.19,737.18,462.19Zm1.76-4.13a4.64,4.64,0,0,0,3.58-1.35,5.47,5.47,0,0,0,1.26-3.89v-1.23h-4.23c-3,0-4.44,1.05-4.44,3.17a3,3,0,0,0,1,2.44A4.26,4.26,0,0,0,738.94,458.06Z" transform="translate(-0.75)"/><path class="b" d="M755.57,455.15v-26.4h6.16V454.4a2.16,2.16,0,0,0,2.42,2.47h1.32v5H762.3Q755.57,461.84,755.57,455.15Z" transform="translate(-0.75)"/><path class="b" d="M770.53,454V443.36h-3.65v-4.8h2.2a2.18,2.18,0,0,0,1.58-.44,2.1,2.1,0,0,0,.44-1.54v-5h5.59v7h6.2v4.8h-6.2v9.81a4,4,0,0,0,.81,2.88,4.09,4.09,0,0,0,2.93.82h2.46v5H779q-4.66,0-6.58-1.78T770.53,454Z" transform="translate(-0.75)"/><path class="b" d="M787.51,461.84V428.75h6.16v12.76c1.35-2.34,3.71-3.52,7.09-3.52q8.49,0,8.49,8.8v15h-6.16v-14.3q0-4.53-4.31-4.53a5,5,0,0,0-3.79,1.41,5.63,5.63,0,0,0-1.32,4v13.42Z" transform="translate(-0.75)"/><path class="b" d="M821.26,462.19a8.67,8.67,0,0,1-5.94-1.91,6.67,6.67,0,0,1-2.15-5.26,6.22,6.22,0,0,1,2.64-5.43q2.64-1.87,7.74-1.87h4.31v-.93q0-4-4.71-4a8.54,8.54,0,0,0-5.85,2.51l-3-3.65a12.08,12.08,0,0,1,4.26-2.75,14.54,14.54,0,0,1,5.24-.95c3.23,0,5.7.74,7.41,2.2a7.93,7.93,0,0,1,2.58,6.38v10.91h2.15v4.36h-3.56a5.55,5.55,0,0,1-3.1-.66,2.45,2.45,0,0,1-1-2.16v-.61Q826.55,462.19,821.26,462.19Zm1.76-4.13a4.66,4.66,0,0,0,3.59-1.35,5.51,5.51,0,0,0,1.25-3.89v-1.23h-4.22c-3,0-4.45,1.05-4.45,3.17a3,3,0,0,0,1,2.44A4.21,4.21,0,0,0,823,458.06Z" transform="translate(-0.75)"/><path class="b" d="M839.13,461.84v-5.1l12.1-13.38H839.35v-4.8h19.22v5.11L846.52,457h12.27v4.84Z" transform="translate(-0.75)"/><path class="b" d="M869.84,462.19a8.64,8.64,0,0,1-5.94-1.91,6.67,6.67,0,0,1-2.16-5.26,6.22,6.22,0,0,1,2.64-5.43q2.64-1.87,7.75-1.87h4.31v-.93q0-4-4.71-4a8.54,8.54,0,0,0-5.85,2.51l-3-3.65a12.12,12.12,0,0,1,4.27-2.75,14.5,14.5,0,0,1,5.24-.95c3.22,0,5.69.74,7.41,2.2a7.93,7.93,0,0,1,2.57,6.38v10.91h2.16v4.36h-3.56a5.59,5.59,0,0,1-3.11-.66,2.45,2.45,0,0,1-.94-2.16v-.61C875.7,460.93,873.36,462.19,869.84,462.19Zm1.76-4.13a4.64,4.64,0,0,0,3.58-1.35,5.47,5.47,0,0,0,1.26-3.89v-1.23h-4.23c-3,0-4.44,1.05-4.44,3.17a3,3,0,0,0,1,2.44A4.24,4.24,0,0,0,871.6,458.06Z" transform="translate(-0.75)"/><path class="b" d="M888.45,461.84V438.56h5.85v4.1c1.29-2.73,3.76-4.1,7.39-4.1h1.68v5.59h-3.48q-5.28,0-5.28,5.28v12.41Z" transform="translate(-0.75)"/><path class="a" d="M699.65,507.84V486.42h3.63L710.75,501l7.62-14.61h3.39v21.42h-2.55V489.66l-7.32,14h-2.34l-7.35-14v18.21Z" transform="translate(-0.75)"/><path class="a" d="M727.46,513.42v-2.25h1A5.19,5.19,0,0,0,730,511a2.06,2.06,0,0,0,1-.72,6.38,6.38,0,0,0,.79-1.52l.42-1.08h-.87l-6.15-15.54h2.67L733,506l5.19-13.89h2.61l-7,17.58a10.1,10.1,0,0,1-1.21,2.31,3.11,3.11,0,0,1-1.53,1.11,8.11,8.11,0,0,1-2.45.3Z" transform="translate(-0.75)"/><path class="a" d="M744.08,507.84V492.12h2.34v3.06a4.62,4.62,0,0,1,2-2.28,6.37,6.37,0,0,1,3.24-.78H753v2.31h-1.89a4.6,4.6,0,0,0-3.46,1.17,5,5,0,0,0-1.13,3.6v8.64Z" transform="translate(-0.75)"/><path class="a" d="M756.44,507.84V492.12h2.34v3.06a4.62,4.62,0,0,1,2-2.28,6.37,6.37,0,0,1,3.24-.78h1.38v2.31h-1.89A4.6,4.6,0,0,0,760,495.6a5,5,0,0,0-1.13,3.6v8.64Z" transform="translate(-0.75)"/><path class="a" d="M768.8,507.84V485.28h2.46v9.27q1.38-2.82,5.22-2.82,5.67,0,5.67,5.91v10.2h-2.46v-10a4.32,4.32,0,0,0-.93-3.07,3.86,3.86,0,0,0-2.91-1,4.5,4.5,0,0,0-3.42,1.23,5.08,5.08,0,0,0-1.17,3.63v9.18Z" transform="translate(-0.75)"/><path class="a" d="M1212.87,449.86v-2.07h6.54V430.93l-6.33,2.88-.9-1.95,7.56-3.42H1222v19.35h5.28v2.07Z" transform="translate(-0.75)"/><path class="a" d="M1231.47,449.86V447.4q0-5.07,5-7.56l2.88-1.44a10.53,10.53,0,0,0,3.08-2.1,3.4,3.4,0,0,0,.91-2.34v-.33a3.08,3.08,0,0,0-1.11-2.56,5.05,5.05,0,0,0-3.21-.89,7.87,7.87,0,0,0-6,2.7l-1.5-1.59a9.75,9.75,0,0,1,7.62-3.33,7.58,7.58,0,0,1,5,1.5,5,5,0,0,1,1.81,4.11V434a5.17,5.17,0,0,1-1.17,3.36,11.59,11.59,0,0,1-3.75,2.76l-3.06,1.53a7.52,7.52,0,0,0-3,2.36,5.51,5.51,0,0,0-1,3.22v.51h11.88v2.16Z" transform="translate(-0.75)"/><path class="a" d="M1256.79,442.33v-.66a8.45,8.45,0,0,1,1.86-5.83,6.6,6.6,0,0,1,5.19-2.09,5.81,5.81,0,0,1,5.55,3V427.3h2.46v22.56h-2.34v-3a5.88,5.88,0,0,1-2.31,2.54,6.9,6.9,0,0,1-3.57.88,6.28,6.28,0,0,1-5.05-2.08A8.71,8.71,0,0,1,1256.79,442.33Zm2.49-.66v.66a6.39,6.39,0,0,0,1.31,4.32,5.48,5.48,0,0,0,7.53,0,6.39,6.39,0,0,0,1.3-4.32v-.66a6.39,6.39,0,0,0-1.3-4.32,5.49,5.49,0,0,0-7.53,0A6.37,6.37,0,0,0,1259.28,441.67Z" transform="translate(-0.75)"/><path class="a" d="M1281.06,450.1a5.85,5.85,0,0,1-4-1.27,4.39,4.39,0,0,1-1.46-3.47,4.15,4.15,0,0,1,1.68-3.57,8.21,8.21,0,0,1,4.89-1.23h4v-1.05a3.74,3.74,0,0,0-1-2.85,4.32,4.32,0,0,0-3-.9,5.73,5.73,0,0,0-4.35,2l-1.35-1.47a7.63,7.63,0,0,1,2.69-1.87,8.34,8.34,0,0,1,3.25-.65,6.61,6.61,0,0,1,4.58,1.43,5.34,5.34,0,0,1,1.57,4.18V448h1.59v1.83h-2.07q-1.77,0-1.77-1.47v-1.23a4.35,4.35,0,0,1-1.93,2.16A6.54,6.54,0,0,1,1281.06,450.1Zm.6-1.8q4.47,0,4.47-4.74v-1.23h-3.9q-4.2,0-4.2,2.91a2.81,2.81,0,0,0,1,2.27A4,4,0,0,0,1281.66,448.3Z" transform="translate(-0.75)"/><path class="a" d="M1293.57,455.44v-2.25h1a5.19,5.19,0,0,0,1.58-.19,2.06,2.06,0,0,0,1-.72,6.38,6.38,0,0,0,.79-1.52l.42-1.08h-.87l-6.15-15.54H1294l5.19,13.89,5.19-13.89H1307l-7,17.58a10.1,10.1,0,0,1-1.21,2.31,3.11,3.11,0,0,1-1.53,1.11,8.11,8.11,0,0,1-2.45.3Z" transform="translate(-0.75)"/><path class="a" d="M1316.85,455.44v-21.3h2.34v3.06a6,6,0,0,1,2.34-2.56,6.9,6.9,0,0,1,3.57-.89,6.27,6.27,0,0,1,5,2.09,8.68,8.68,0,0,1,1.78,5.83v.66a8.52,8.52,0,0,1-1.84,5.82,6.57,6.57,0,0,1-5.21,2.1,5.84,5.84,0,0,1-5.55-3.06v8.25Zm2.43-13.77v.66a6.39,6.39,0,0,0,1.31,4.32,5.48,5.48,0,0,0,7.53,0,6.39,6.39,0,0,0,1.3-4.32v-.66a6.39,6.39,0,0,0-1.3-4.32,5.48,5.48,0,0,0-7.53,0A6.39,6.39,0,0,0,1319.28,441.67Z" transform="translate(-0.75)"/><path class="a" d="M1334.85,442.33v-.66a8.24,8.24,0,0,1,1.94-5.83,7,7,0,0,1,5.38-2.09,6.52,6.52,0,0,1,5,1.85,7.55,7.55,0,0,1,1.72,5.35v1.86h-11.61a6,6,0,0,0,1.38,4.11,5.23,5.23,0,0,0,3.9,1.32,7,7,0,0,0,2.61-.46,7.87,7.87,0,0,0,2.31-1.49l1.29,1.59a9,9,0,0,1-6.33,2.37Q1334.85,450.25,1334.85,442.33Zm7.29-6.63q-4.62,0-4.86,5.28h9.27Q1346.52,435.7,1342.14,435.7Z" transform="translate(-0.75)"/><path class="a" d="M1352.88,449.86V434.14h2.34v3.06a4.62,4.62,0,0,1,2-2.28,6.37,6.37,0,0,1,3.24-.78h1.38v2.31h-1.89a4.6,4.6,0,0,0-3.46,1.17,5,5,0,0,0-1.13,3.6v8.64Z" transform="translate(-0.75)"/><path class="a" d="M1366.41,449.86V436.09h-2.16v-1.95h3.57a.93.93,0,0,1,1,1.05v14.67Zm.93-18.57a1.65,1.65,0,1,1,0-3.3,1.66,1.66,0,0,1,1.23.45,1.82,1.82,0,0,1,0,2.4A1.66,1.66,0,0,1,1367.34,431.29Z" transform="translate(-0.75)"/><path class="a" d="M1373,442.33v-.66a8.07,8.07,0,0,1,2-5.8,8.32,8.32,0,0,1,11.1,0,8.07,8.07,0,0,1,2,5.8v.66a8.07,8.07,0,0,1-2,5.82,8.38,8.38,0,0,1-11.1,0A8.07,8.07,0,0,1,1373,442.33Zm2.49-.66v.66a6.44,6.44,0,0,0,1.3,4.32,4.75,4.75,0,0,0,3.77,1.5,4.7,4.7,0,0,0,3.76-1.5,6.39,6.39,0,0,0,1.31-4.32v-.66a6.39,6.39,0,0,0-1.31-4.32,4.7,4.7,0,0,0-3.76-1.5,4.75,4.75,0,0,0-3.77,1.5A6.44,6.44,0,0,0,1375.47,441.67Z" transform="translate(-0.75)"/><path class="a" d="M1391.07,442.33v-.66a8.45,8.45,0,0,1,1.86-5.83,6.6,6.6,0,0,1,5.19-2.09,5.81,5.81,0,0,1,5.55,3V427.3h2.46v22.56h-2.34v-3a5.88,5.88,0,0,1-2.31,2.54,6.9,6.9,0,0,1-3.57.88,6.3,6.3,0,0,1-5.06-2.08A8.76,8.76,0,0,1,1391.07,442.33Zm2.49-.66v.66a6.44,6.44,0,0,0,1.3,4.32,5.48,5.48,0,0,0,7.53,0,6.39,6.39,0,0,0,1.31-4.32v-.66a6.39,6.39,0,0,0-1.31-4.32,4.71,4.71,0,0,0-3.76-1.5,4.76,4.76,0,0,0-3.77,1.49A6.42,6.42,0,0,0,1393.56,441.67Z" transform="translate(-0.75)"/><path class="a" d="M1418.07,449.86V427.3h2.46V437a5.83,5.83,0,0,1,2.31-2.38,7,7,0,0,1,3.48-.83,6.25,6.25,0,0,1,5,2.09,8.69,8.69,0,0,1,1.79,5.83v.66a8.52,8.52,0,0,1-1.85,5.82,6.55,6.55,0,0,1-5.2,2.1,5.79,5.79,0,0,1-5.67-3.3v2.91Zm2.43-8.19v.66a6.39,6.39,0,0,0,1.3,4.32,5.48,5.48,0,0,0,7.53,0,6.39,6.39,0,0,0,1.31-4.32v-.66a6.39,6.39,0,0,0-1.31-4.32,5.48,5.48,0,0,0-7.53,0A6.39,6.39,0,0,0,1420.5,441.67Z" transform="translate(-0.75)"/><path class="a" d="M1436.07,442.33v-.66a8.24,8.24,0,0,1,1.93-5.83,7,7,0,0,1,5.39-2.09,6.5,6.5,0,0,1,5,1.85,7.55,7.55,0,0,1,1.73,5.35v1.86H1438.5a6,6,0,0,0,1.38,4.11,5.23,5.23,0,0,0,3.9,1.32,7,7,0,0,0,2.61-.46,7.87,7.87,0,0,0,2.31-1.49l1.29,1.59a9,9,0,0,1-6.33,2.37Q1436.07,450.25,1436.07,442.33Zm7.29-6.63q-4.62,0-4.86,5.28h9.27Q1447.74,435.7,1443.36,435.7Z" transform="translate(-0.75)"/><path class="a" d="M1455.06,444.91v-8.82h-2.73v-1.95h1.8a1,1,0,0,0,1.14-1.11v-3.54h2.25v4.65h4.89v1.95h-4.89v8.55a3.61,3.61,0,0,0,.66,2.49,3.23,3.23,0,0,0,2.37.69h1.86v2h-2.28c-1.88,0-3.2-.37-4-1.11S1455.06,446.73,1455.06,444.91Z" transform="translate(-0.75)"/><path class="a" d="M1469.4,449.86l-5-15.72H1467l4,13.41,4-13.41h2.85l4.11,13.35,3.93-13.35h2.55l-5,15.72h-3l-4-13.14-4,13.14Z" transform="translate(-0.75)"/><path class="a" d="M1490.34,442.33v-.66a8.24,8.24,0,0,1,1.93-5.83,7,7,0,0,1,5.39-2.09,6.5,6.5,0,0,1,5,1.85,7.55,7.55,0,0,1,1.73,5.35v1.86h-11.61a6,6,0,0,0,1.38,4.11,5.23,5.23,0,0,0,3.9,1.32,7,7,0,0,0,2.61-.46,7.87,7.87,0,0,0,2.31-1.49l1.29,1.59a9,9,0,0,1-6.33,2.37Q1490.34,450.25,1490.34,442.33Zm7.29-6.63q-4.62,0-4.86,5.28H1502Q1502,435.7,1497.63,435.7Z" transform="translate(-0.75)"/><path class="a" d="M1507.5,442.33v-.66a8.24,8.24,0,0,1,1.93-5.83,7,7,0,0,1,5.39-2.09,6.5,6.5,0,0,1,5,1.85,7.55,7.55,0,0,1,1.73,5.35v1.86h-11.61a6,6,0,0,0,1.38,4.11,5.23,5.23,0,0,0,3.9,1.32,7,7,0,0,0,2.61-.46,7.87,7.87,0,0,0,2.31-1.49l1.29,1.59a9,9,0,0,1-6.33,2.37Q1507.5,450.25,1507.5,442.33Zm7.29-6.63q-4.62,0-4.86,5.28h9.27Q1519.17,435.7,1514.79,435.7Z" transform="translate(-0.75)"/><path class="a" d="M1525.53,449.86V434.14h2.37v2.61q1.35-3,5.31-3,5.67,0,5.67,5.91v10.2h-2.46v-10a4.32,4.32,0,0,0-.93-3.07,3.86,3.86,0,0,0-2.91-1,4.5,4.5,0,0,0-3.42,1.23,5.08,5.08,0,0,0-1.17,3.63v9.18Z" transform="translate(-0.75)"/><path class="a" d="M1550.7,449.86V427.3h2.46V437a5.83,5.83,0,0,1,2.31-2.38,7,7,0,0,1,3.48-.83,6.25,6.25,0,0,1,5,2.09,8.69,8.69,0,0,1,1.79,5.83v.66a8.52,8.52,0,0,1-1.85,5.82,6.55,6.55,0,0,1-5.2,2.1A5.79,5.79,0,0,1,1553,447v2.91Zm2.43-8.19v.66a6.39,6.39,0,0,0,1.3,4.32,5.48,5.48,0,0,0,7.53,0,6.39,6.39,0,0,0,1.31-4.32v-.66a6.39,6.39,0,0,0-1.31-4.32,5.48,5.48,0,0,0-7.53,0A6.39,6.39,0,0,0,1553.13,441.67Z" transform="translate(-0.75)"/><path class="a" d="M1570.44,449.86V436.09h-2.16v-1.95h3.57a.93.93,0,0,1,1.05,1.05v14.67Zm.93-18.57a1.65,1.65,0,1,1,0-3.3,1.66,1.66,0,0,1,1.23.45,1.82,1.82,0,0,1,0,2.4A1.66,1.66,0,0,1,1571.37,431.29Z" transform="translate(-0.75)"/><path class="a" d="M1578.18,449.86V434.14h2.34v3.06a4.62,4.62,0,0,1,2-2.28,6.37,6.37,0,0,1,3.24-.78h1.38v2.31h-1.89a4.62,4.62,0,0,0-3.47,1.17,5,5,0,0,0-1.12,3.6v8.64Z" transform="translate(-0.75)"/><path class="a" d="M1591.86,444.91v-8.82h-2.73v-1.95h1.8a1,1,0,0,0,1.14-1.11v-3.54h2.25v4.65h4.89v1.95h-4.89v8.55a3.61,3.61,0,0,0,.66,2.49,3.23,3.23,0,0,0,2.37.69h1.86v2h-2.28c-1.88,0-3.2-.37-4-1.11S1591.86,446.73,1591.86,444.91Z" transform="translate(-0.75)"/><path class="a" d="M1603.11,449.86V427.3h2.46v9.27q1.38-2.82,5.22-2.82,5.67,0,5.67,5.91v10.2H1614v-10a4.32,4.32,0,0,0-.93-3.07,3.86,3.86,0,0,0-2.91-1,4.5,4.5,0,0,0-3.42,1.23,5.08,5.08,0,0,0-1.17,3.63v9.18Z" transform="translate(-0.75)"/><path class="a" d="M1627.11,442.33v-.66a8.07,8.07,0,0,1,2-5.8,8.31,8.31,0,0,1,11.09,0,8.07,8.07,0,0,1,2,5.8v.66a8.07,8.07,0,0,1-2,5.82,8.37,8.37,0,0,1-11.09,0A8.07,8.07,0,0,1,1627.11,442.33Zm2.48-.66v.66a6.39,6.39,0,0,0,1.31,4.32,5.48,5.48,0,0,0,7.53,0,6.39,6.39,0,0,0,1.31-4.32v-.66a6.39,6.39,0,0,0-1.31-4.32,5.48,5.48,0,0,0-7.53,0A6.39,6.39,0,0,0,1629.59,441.67Z" transform="translate(-0.75)"/><path class="a" d="M1646.79,449.86V436.09h-2.74v-1.95h2.74v-1.5q0-5.34,5.51-5.34h2.13v2h-2a3.13,3.13,0,0,0-2.39.8,3.54,3.54,0,0,0-.75,2.53v1.5h4.88v1.95h-4.88v13.77Z" transform="translate(-0.75)"/><path class="a" d="M1217.1,486.34a9.24,9.24,0,0,1-6.87-2.85l1.53-1.77A6.79,6.79,0,0,0,1217,484a4.28,4.28,0,0,0,3.38-1.3,5.57,5.57,0,0,0,1.15-3.8V466.66h-4.74v-2.22h6.15a1.06,1.06,0,0,1,1.2,1.2V478.9a7.77,7.77,0,0,1-1.8,5.52A6.77,6.77,0,0,1,1217.1,486.34Z" transform="translate(-0.75)"/><path class="a" d="M1227.87,478.33v-.66a8.24,8.24,0,0,1,1.94-5.83,7,7,0,0,1,5.38-2.09,6.52,6.52,0,0,1,5,1.85,7.55,7.55,0,0,1,1.72,5.35v1.86H1230.3a6,6,0,0,0,1.38,4.11,5.23,5.23,0,0,0,3.9,1.32,7,7,0,0,0,2.61-.46,7.87,7.87,0,0,0,2.31-1.49l1.29,1.59a9,9,0,0,1-6.33,2.37Q1227.87,486.25,1227.87,478.33Zm7.29-6.63q-4.62,0-4.86,5.28h9.27Q1239.54,471.7,1235.16,471.7Z" transform="translate(-0.75)"/><path class="a" d="M1244.88,484.24l1.11-1.77a7.85,7.85,0,0,0,2.42,1.28,8.7,8.7,0,0,0,2.77.46,4.88,4.88,0,0,0,2.85-.72,2.29,2.29,0,0,0,1-2,1.89,1.89,0,0,0-.78-1.69,8.47,8.47,0,0,0-2.94-.92l-1-.15a7.62,7.62,0,0,1-3.81-1.56,3.77,3.77,0,0,1-1.17-2.91,3.85,3.85,0,0,1,.77-2.37,5,5,0,0,1,2.11-1.59,8,8,0,0,1,3.12-.57,10,10,0,0,1,3.3.54,8.06,8.06,0,0,1,2.67,1.5l-1.14,1.68a6.49,6.49,0,0,0-2.22-1.24,8.21,8.21,0,0,0-2.64-.44,4.68,4.68,0,0,0-2.64.65,2.06,2.06,0,0,0-1,1.81,1.74,1.74,0,0,0,.71,1.52,6.83,6.83,0,0,0,2.53.82l.93.18a8.8,8.8,0,0,1,4.26,1.59,3.93,3.93,0,0,1,1.23,3.12,4.19,4.19,0,0,1-1.65,3.48,7.07,7.07,0,0,1-4.47,1.29,11.51,11.51,0,0,1-3.52-.54A9.3,9.3,0,0,1,1244.88,484.24Z" transform="translate(-0.75)"/><path class="a" d="M1261.32,480.34v-10.2h2.46v10a4.4,4.4,0,0,0,.92,3.08,3.75,3.75,0,0,0,2.86,1,4.33,4.33,0,0,0,3.36-1.24,5.19,5.19,0,0,0,1.14-3.62v-9.18h2.46v15.72h-2.37v-2.61q-1.32,3-5.22,3Q1261.32,486.25,1261.32,480.34Z" transform="translate(-0.75)"/><path class="a" d="M1278.48,484.24l1.11-1.77a7.85,7.85,0,0,0,2.42,1.28,8.7,8.7,0,0,0,2.77.46,4.88,4.88,0,0,0,2.85-.72,2.29,2.29,0,0,0,1-2,1.89,1.89,0,0,0-.78-1.69,8.47,8.47,0,0,0-2.94-.92l-1-.15a7.62,7.62,0,0,1-3.81-1.56,3.77,3.77,0,0,1-1.17-2.91,3.85,3.85,0,0,1,.77-2.37,5,5,0,0,1,2.11-1.59,8,8,0,0,1,3.12-.57,10,10,0,0,1,3.3.54,8.06,8.06,0,0,1,2.67,1.5l-1.14,1.68a6.49,6.49,0,0,0-2.22-1.24,8.21,8.21,0,0,0-2.64-.44,4.68,4.68,0,0,0-2.64.65,2.06,2.06,0,0,0-1,1.81,1.74,1.74,0,0,0,.71,1.52,6.83,6.83,0,0,0,2.53.82l.93.18a8.8,8.8,0,0,1,4.26,1.59,3.93,3.93,0,0,1,1.23,3.12,4.19,4.19,0,0,1-1.65,3.48,7.07,7.07,0,0,1-4.47,1.29,11.51,11.51,0,0,1-3.52-.54A9.3,9.3,0,0,1,1278.48,484.24Z" transform="translate(-0.75)"/><path class="a" d="M1305.87,486.1a5.85,5.85,0,0,1-4-1.27,4.39,4.39,0,0,1-1.46-3.47,4.15,4.15,0,0,1,1.68-3.57,8.21,8.21,0,0,1,4.89-1.23h4v-1.05a3.74,3.74,0,0,0-1-2.85,4.32,4.32,0,0,0-3-.9,5.73,5.73,0,0,0-4.35,2l-1.35-1.47a7.63,7.63,0,0,1,2.69-1.87,8.34,8.34,0,0,1,3.25-.65,6.61,6.61,0,0,1,4.58,1.43,5.34,5.34,0,0,1,1.57,4.18V484h1.59v1.83h-2.07q-1.77,0-1.77-1.47v-1.23a4.35,4.35,0,0,1-1.93,2.16A6.54,6.54,0,0,1,1305.87,486.1Zm.6-1.8q4.47,0,4.47-4.74v-1.23H1307q-4.2,0-4.2,2.91a2.81,2.81,0,0,0,1,2.27A4,4,0,0,0,1306.47,484.3Z" transform="translate(-0.75)"/><path class="a" d="M1318.44,485.86V470.14h2.37v2.61q1.35-3,5.31-3,5.67,0,5.67,5.91v10.2h-2.46v-10a4.32,4.32,0,0,0-.93-3.07,3.86,3.86,0,0,0-2.91-1,4.5,4.5,0,0,0-3.42,1.23,5.08,5.08,0,0,0-1.17,3.63v9.18Z" transform="translate(-0.75)"/><path class="a" d="M1335.78,478.33v-.66a8.45,8.45,0,0,1,1.86-5.83,6.6,6.6,0,0,1,5.19-2.09,5.81,5.81,0,0,1,5.55,3V463.3h2.46v22.56h-2.34v-3a5.88,5.88,0,0,1-2.31,2.54,6.9,6.9,0,0,1-3.57.88,6.26,6.26,0,0,1-5-2.08A8.71,8.71,0,0,1,1335.78,478.33Zm2.49-.66v.66a6.39,6.39,0,0,0,1.31,4.32,5.48,5.48,0,0,0,7.53,0,6.39,6.39,0,0,0,1.3-4.32v-.66a6.39,6.39,0,0,0-1.3-4.32,5.49,5.49,0,0,0-7.53,0A6.37,6.37,0,0,0,1338.27,477.67Z" transform="translate(-0.75)"/><path class="a" d="M1361.61,478.33v-.66a8.16,8.16,0,0,1,2-5.83,7.21,7.21,0,0,1,5.51-2.09,7.43,7.43,0,0,1,5.73,2.34l-1.47,1.53a5.54,5.54,0,0,0-4.14-1.77,4.78,4.78,0,0,0-3.81,1.49,6.42,6.42,0,0,0-1.29,4.33v.66q0,5.82,5.13,5.82a5.89,5.89,0,0,0,4.32-1.8l1.35,1.59a7.89,7.89,0,0,1-5.82,2.31,7.21,7.21,0,0,1-5.51-2.08A8.19,8.19,0,0,1,1361.61,478.33Z" transform="translate(-0.75)"/><path class="a" d="M1377.36,478.33v-.66a8.07,8.07,0,0,1,2-5.8,8.32,8.32,0,0,1,11.1,0,8.07,8.07,0,0,1,2,5.8v.66a8.07,8.07,0,0,1-2,5.82,8.38,8.38,0,0,1-11.1,0A8.07,8.07,0,0,1,1377.36,478.33Zm2.49-.66v.66a6.39,6.39,0,0,0,1.3,4.32,5.48,5.48,0,0,0,7.53,0,6.39,6.39,0,0,0,1.31-4.32v-.66a6.39,6.39,0,0,0-1.31-4.32,5.48,5.48,0,0,0-7.53,0A6.39,6.39,0,0,0,1379.85,477.67Z" transform="translate(-0.75)"/><path class="a" d="M1396.62,485.86V470.14H1399v2.61q1.29-3,5-3,3.93,0,5,3.12,1.38-3.12,5.31-3.12,5.37,0,5.37,5.91v10.2h-2.46v-10q0-4-3.54-4.05a4.1,4.1,0,0,0-3.21,1.23,5.26,5.26,0,0,0-1.11,3.63v9.18h-2.46v-10a4.6,4.6,0,0,0-.86-3.06,3.35,3.35,0,0,0-2.68-1q-4.29,0-4.29,4.86v9.18Z" transform="translate(-0.75)"/><path class="a" d="M1425.42,485.86V472.09h-2.16v-1.95h3.57a.93.93,0,0,1,1.05,1.05v14.67Zm.93-18.57a1.65,1.65,0,1,1,0-3.3,1.66,1.66,0,0,1,1.23.45,1.82,1.82,0,0,1,0,2.4A1.66,1.66,0,0,1,1426.35,467.29Z" transform="translate(-0.75)"/><path class="a" d="M1433.16,485.86V470.14h2.37v2.61q1.35-3,5.31-3,5.67,0,5.67,5.91v10.2h-2.46v-10a4.32,4.32,0,0,0-.93-3.07,3.86,3.86,0,0,0-2.91-1,4.5,4.5,0,0,0-3.42,1.23,5.08,5.08,0,0,0-1.17,3.63v9.18Z" transform="translate(-0.75)"/><path class="a" d="M1451.43,489.79l1.14-1.83a8.06,8.06,0,0,0,5.34,1.8,5.17,5.17,0,0,0,3.93-1.33,5.85,5.85,0,0,0,1.26-4.13v-1.59a5.87,5.87,0,0,1-2.3,2.31,7,7,0,0,1-3.46.81,6.37,6.37,0,0,1-5-2,8.42,8.42,0,0,1-1.8-5.76v-.42a8.36,8.36,0,0,1,1.86-5.79,6.62,6.62,0,0,1,5.19-2.07,5.79,5.79,0,0,1,5.67,3.27v-2.88h2.34v13.95q0,7.74-7.59,7.74a12.11,12.11,0,0,1-3.56-.51A9.25,9.25,0,0,1,1451.43,489.79Zm1.56-12.18V478a6.13,6.13,0,0,0,1.32,4.23,5.56,5.56,0,0,0,7.51,0,6.08,6.08,0,0,0,1.31-4.19v-.48a6.27,6.27,0,0,0-1.31-4.27,5.5,5.5,0,0,0-7.53,0A6.27,6.27,0,0,0,1453,477.61Z" transform="translate(-0.75)"/><path class="a" d="M1476.09,478.33v-.66a8.07,8.07,0,0,1,2-5.8,8.32,8.32,0,0,1,11.1,0,8.07,8.07,0,0,1,2,5.8v.66a8.07,8.07,0,0,1-2,5.82,8.38,8.38,0,0,1-11.1,0A8.07,8.07,0,0,1,1476.09,478.33Zm2.49-.66v.66a6.39,6.39,0,0,0,1.3,4.32,5.48,5.48,0,0,0,7.53,0,6.39,6.39,0,0,0,1.31-4.32v-.66a6.39,6.39,0,0,0-1.31-4.32,5.48,5.48,0,0,0-7.53,0A6.39,6.39,0,0,0,1478.58,477.67Z" transform="translate(-0.75)"/><path class="a" d="M1495.77,485.86V472.09H1493v-1.95h2.73v-1.5q0-5.34,5.52-5.34h2.13v2h-2a3.17,3.17,0,0,0-2.4.8,3.59,3.59,0,0,0-.75,2.53v1.5h4.89v1.95h-4.89v13.77Z" transform="translate(-0.75)"/><path class="a" d="M1513.68,480.91v-8.82H1511v-1.95h1.8a1,1,0,0,0,1.14-1.11v-3.54h2.25v4.65H1521v1.95h-4.89v8.55a3.61,3.61,0,0,0,.66,2.49,3.23,3.23,0,0,0,2.37.69H1521v2h-2.28c-1.88,0-3.2-.37-4-1.11S1513.68,482.73,1513.68,480.91Z" transform="translate(-0.75)"/><path class="a" d="M1524.93,485.86V463.3h2.46v9.27q1.38-2.82,5.22-2.82,5.67,0,5.67,5.91v10.2h-2.46v-10a4.32,4.32,0,0,0-.93-3.07,3.86,3.86,0,0,0-2.91-1,4.5,4.5,0,0,0-3.42,1.23,5.08,5.08,0,0,0-1.17,3.63v9.18Z" transform="translate(-0.75)"/><path class="a" d="M1542.27,478.33v-.66a8.24,8.24,0,0,1,1.93-5.83,7,7,0,0,1,5.39-2.09,6.5,6.5,0,0,1,5,1.85,7.55,7.55,0,0,1,1.73,5.35v1.86H1544.7a6,6,0,0,0,1.38,4.11,5.23,5.23,0,0,0,3.9,1.32,7,7,0,0,0,2.61-.46,7.87,7.87,0,0,0,2.31-1.49l1.29,1.59a9,9,0,0,1-6.33,2.37Q1542.27,486.25,1542.27,478.33Zm7.29-6.63q-4.62,0-4.86,5.28H1554Q1553.94,471.7,1549.56,471.7Z" transform="translate(-0.75)"/><path class="a" d="M1567.14,485.86V464.44h3.63l7.47,14.61,7.62-14.61h3.39v21.42h-2.55V467.68l-7.32,14H1577l-7.35-14v18.21Z" transform="translate(-0.75)"/><path class="a" d="M1598.64,486.1a5.88,5.88,0,0,1-4-1.27,4.38,4.38,0,0,1-1.45-3.47,4.15,4.15,0,0,1,1.68-3.57,8.21,8.21,0,0,1,4.89-1.23h4v-1.05a3.74,3.74,0,0,0-1-2.85,4.32,4.32,0,0,0-3-.9,5.73,5.73,0,0,0-4.35,2l-1.35-1.47a7.59,7.59,0,0,1,2.68-1.87,8.39,8.39,0,0,1,3.26-.65,6.59,6.59,0,0,1,4.57,1.43,5.35,5.35,0,0,1,1.58,4.18V484h1.59v1.83h-2.07q-1.77,0-1.77-1.47v-1.23a4.37,4.37,0,0,1-1.94,2.16A6.5,6.5,0,0,1,1598.64,486.1Zm.6-1.8q4.47,0,4.47-4.74v-1.23h-3.9q-4.2,0-4.2,2.91a2.8,2.8,0,0,0,.94,2.27A4.07,4.07,0,0,0,1599.24,484.3Z" transform="translate(-0.75)"/><path class="a" d="M1611,489.79l1.15-1.83a8,8,0,0,0,5.34,1.8,5.17,5.17,0,0,0,3.93-1.33,5.9,5.9,0,0,0,1.26-4.13v-1.59a5.87,5.87,0,0,1-2.3,2.31,7,7,0,0,1-3.46.81,6.35,6.35,0,0,1-5-2A8.42,8.42,0,0,1,1610,478v-.42a8.36,8.36,0,0,1,1.86-5.79,6.6,6.6,0,0,1,5.19-2.07,5.79,5.79,0,0,1,5.67,3.27v-2.88h2.34v13.95q0,7.74-7.59,7.74a12.11,12.11,0,0,1-3.56-.51A9.41,9.41,0,0,1,1611,489.79Zm1.57-12.18V478a6.08,6.08,0,0,0,1.32,4.23,5.56,5.56,0,0,0,7.51,0,6.08,6.08,0,0,0,1.31-4.19v-.48a6.27,6.27,0,0,0-1.31-4.27,5.5,5.5,0,0,0-7.53,0A6.27,6.27,0,0,0,1612.53,477.61Z" transform="translate(-0.75)"/><path class="a" d="M1630.71,485.86V472.09h-2.17v-1.95h3.58a.93.93,0,0,1,1.05,1.05v14.67Zm.92-18.57a1.65,1.65,0,1,1,0-3.3,1.67,1.67,0,0,1,1.24.45,1.82,1.82,0,0,1,0,2.4A1.67,1.67,0,0,1,1631.63,467.29Z" transform="translate(-0.75)"/><path class="a" d="M18.33,164l0-42.2h-16v-9.22l42.76,0v9.21h-16l0,42.19Z" transform="translate(-0.75)"/><path class="a" d="M52.45,164l.06-54.14H62.59l0,20.88Q65.89,125,74.17,125q13.89,0,13.88,14.42l0,24.62H77.94l0-23.4q0-7.41-7-7.42a8.07,8.07,0,0,0-6.2,2.29,9.22,9.22,0,0,0-2.16,6.55l0,22Z" transform="translate(-0.75)"/><path class="a" d="M95.38,145.78V144.2q0-9,5-14.07t13.68-5.07q8.28,0,12.78,4.55t4.48,12.9v5.54l-26.07,0c.29,3.12,1.26,5.42,2.91,6.88s4.12,2.2,7.38,2.2a16.59,16.59,0,0,0,5.55-.85,21,21,0,0,0,5.4-3.09l4.67,6.26A24.52,24.52,0,0,1,115,165q-9.58,0-14.58-4.94T95.38,145.78Zm18.52-13.16q-7.92,0-8.65,8.85l16.78,0c-.14-3-.89-5.26-2.23-6.7A7.72,7.72,0,0,0,113.9,132.62Z" transform="translate(-0.75)"/><path class="a" d="M167.65,164.14l0-42.19h-16v-9.22l42.77,0V122l-16,0,0,42.2Z" transform="translate(-0.75)"/><path class="a" d="M201.78,164.18l.05-54.14h10.08l0,20.88q3.31-5.76,11.6-5.75,13.89,0,13.88,14.41l0,24.63H227.26l0-23.4q0-7.42-7-7.43a8.09,8.09,0,0,0-6.19,2.3,9.23,9.23,0,0,0-2.17,6.55l0,22Z" transform="translate(-0.75)"/><path class="a" d="M247.06,164.23l0-38.09h9.58v6.7q3.18-6.7,12.11-6.69h2.73v9.14h-5.69q-8.64,0-8.64,8.63l0,20.31Z" transform="translate(-0.75)"/><path class="a" d="M275.67,146v-1.58q0-9,5-14.07t13.69-5.07q8.28,0,12.77,4.55t4.49,12.9v5.54l-26.06,0c.28,3.12,1.25,5.42,2.91,6.88s4.11,2.2,7.37,2.21a16.75,16.75,0,0,0,5.55-.86,21,21,0,0,0,5.4-3.09l4.68,6.27a24.54,24.54,0,0,1-16.21,5.59q-9.57,0-14.57-4.94T275.67,146Zm18.51-13.16q-7.92,0-8.64,8.85l16.77,0c-.14-3-.88-5.26-2.22-6.7A7.74,7.74,0,0,0,294.18,132.81Z" transform="translate(-0.75)"/><path class="a" d="M317.43,146v-1.58q0-9,5-14.07t13.69-5.06q8.28,0,12.77,4.55t4.49,12.89v5.54l-26.06,0q.42,4.68,2.91,6.88c1.65,1.46,4.11,2.2,7.37,2.2a16.5,16.5,0,0,0,5.55-.86,20.44,20.44,0,0,0,5.4-3.09l4.68,6.27a24.55,24.55,0,0,1-16.21,5.6q-9.58,0-14.58-4.95T317.43,146Zm18.51-13.15q-7.92,0-8.65,8.85h16.78q-.21-4.53-2.22-6.7A7.7,7.7,0,0,0,335.94,132.86Z" transform="translate(-0.75)"/><path class="a" d="M387.32,164.38,372.68,113l11.52,0,9.25,38.24,9.4-38.22h11.74l9.32,38.38,9.4-38.36h11.16l-14.75,51.39h-12l-9.1-37.67-9.26,37.65Z" transform="translate(-0.75)"/><path class="a" d="M452.19,164.45l0-30.24h-4.68v-7.85h10.8a4.2,4.2,0,0,1,3,.94,4.15,4.15,0,0,1,.93,3l0,34.13Zm4.36-42.91a5.59,5.59,0,0,1-6-5.91,5.68,5.68,0,0,1,1.63-4.25,6.78,6.78,0,0,1,8.71,0,5.69,5.69,0,0,1,1.62,4.25,5.82,5.82,0,0,1-1.63,4.28A5.89,5.89,0,0,1,456.55,121.54Z" transform="translate(-0.75)"/><path class="a" d="M469.69,160.65l4.11-7a19.5,19.5,0,0,0,5.72,2.78,22,22,0,0,0,6.44,1c4.42,0,6.63-1.36,6.63-4.09a3.07,3.07,0,0,0-1.29-2.74,13.84,13.84,0,0,0-5-1.44l-2.74-.44q-6.48-1.16-9.53-3.93a9.54,9.54,0,0,1-3.05-7.46,10.19,10.19,0,0,1,4.36-8.63q4.36-3.24,11.56-3.23a28.83,28.83,0,0,1,8.39,1.23,21.12,21.12,0,0,1,7,3.54l-4.11,6.83a18,18,0,0,0-5.32-2.7,19.63,19.63,0,0,0-6.05-1c-4.13,0-6.19,1.22-6.2,3.66a2.71,2.71,0,0,0,1.23,2.45,13.2,13.2,0,0,0,4.46,1.38l2.66.43q7.13,1.15,10.22,3.94c2.06,1.85,3.09,4.47,3.09,7.88a10.86,10.86,0,0,1-4.22,9q-4.22,3.3-11.71,3.3a32.79,32.79,0,0,1-9.18-1.27A25.09,25.09,0,0,1,469.69,160.65Z" transform="translate(-0.75)"/><path class="a" d="M507.93,146.22v-1.59q0-9,5-14.07t13.68-5.06q8.28,0,12.78,4.55t4.48,12.89v5.55l-26.07,0q.44,4.68,2.91,6.88c1.66,1.46,4.12,2.2,7.38,2.2a16.58,16.58,0,0,0,5.55-.86,20.44,20.44,0,0,0,5.4-3.09l4.67,6.27a24.52,24.52,0,0,1-16.2,5.6q-9.59,0-14.58-5T507.93,146.22Zm18.52-13.16q-7.92,0-8.65,8.85h16.78c-.14-3-.89-5.25-2.23-6.69A7.68,7.68,0,0,0,526.45,133.06Z" transform="translate(-0.75)"/><path class="a" d="M567.31,164.57l.06-51.41,15.19,0,13.29,31.11,13.71-31.09,14.33,0-.06,51.41H613.25l0-37.88-13.21,29.44h-8.93l-13.21-29.54,0,38Z" transform="translate(-0.75)"/><path class="a" d="M631.92,146.35v-1.59q0-9,5-14.07t13.68-5.06q8.28,0,12.78,4.55t4.49,12.89v5.55l-26.06,0q.42,4.68,2.91,6.88t7.37,2.2a16.25,16.25,0,0,0,5.55-.86,20.44,20.44,0,0,0,5.4-3.09l4.67,6.27a24.5,24.5,0,0,1-16.2,5.6q-9.59,0-14.58-5T631.92,146.35Zm18.51-13.16c-5.28,0-8.16,2.94-8.65,8.85l16.78,0q-.21-4.55-2.23-6.7A7.66,7.66,0,0,0,650.43,133.19Z" transform="translate(-0.75)"/><path class="a" d="M675.31,164.68l0-38.09h9.58v5.76q3.18-6.69,12.1-6.68,13.9,0,13.88,14.42l0,24.62H700.8l0-23.4q0-7.41-7-7.42a8.07,8.07,0,0,0-6.2,2.29,9.27,9.27,0,0,0-2.17,6.55l0,22Z" transform="translate(-0.75)"/><path class="a" d="M1217.8,345.53V334l19.85,0,0-43.77-18,7.92-4.83-10.65,25-11.11h11.91L1251.7,334h15.4v11.53Z" transform="translate(-0.75)"/><path class="a" d="M1278.13,345.59V336q0-17.24,16.39-25.45l7.07-3.48q6.59-3.29,9.11-5.75a7.8,7.8,0,0,0,2.52-5.76v-.87a6.82,6.82,0,0,0-2.76-5.76,12.34,12.34,0,0,0-7.6-2.09,23.82,23.82,0,0,0-9.44,1.78,30.67,30.67,0,0,0-8.77,6l-7.55-8.82q11-10.93,27.13-10.91,10.76,0,17,5.24t6.23,14.34v1.36a17.4,17.4,0,0,1-3.79,10.94q-3.78,4.83-11.73,8.8l-9.1,4.54a21.29,21.29,0,0,0-7.76,5.8,12.54,12.54,0,0,0-2.43,7.74l34.77,0v11.91Z" transform="translate(-0.75)"/><path class="c" d="M4.63,2.5V50A13.67,13.67,0,0,0,18.3,63.65H78.85A13.67,13.67,0,0,0,92.51,50V2.5L69.17,29.25,47.89,2.5,29.35,29.25Z" transform="translate(-0.75)"/><path class="c" d="M126.73,2.5V50A13.67,13.67,0,0,0,140.4,63.65H201A13.67,13.67,0,0,0,214.61,50V2.5L191.27,29.25,170,2.5,151.45,29.25Z" transform="translate(-0.75)"/><path class="c" d="M250.33,2.5V50A13.67,13.67,0,0,0,264,63.65h60.55A13.67,13.67,0,0,0,338.21,50V2.5L314.87,29.25,293.59,2.5,275.05,29.25Z" transform="translate(-0.75)"/><path class="d" d="M56,281.16a4.22,4.22,0,0,0-3.1,1.45,7,7,0,0,0-1.31,2.5L39.47,322.37a3.71,3.71,0,0,0,1.11,3.78,4.84,4.84,0,0,0,3.3,1.28H105.5a4.82,4.82,0,0,0,3.3-1.28,3.69,3.69,0,0,0,1.11-3.78L97.67,285.1a7.06,7.06,0,0,0-1.31-2.49,4.2,4.2,0,0,0-3.1-1.45Zm0,3.64H93.26c.22,0,.18,0,.35.19a3.92,3.92,0,0,1,.6,1.24l12.22,37.18s0,0-.08,0a1.69,1.69,0,0,1-.85.33H43.88a1.69,1.69,0,0,1-.85-.33c-.06-.06-.06,0-.08,0L55,286.23a4.41,4.41,0,0,1,.6-1.24c.17-.2.13-.19.35-.19Zm17.32,3.9a1.82,1.82,0,1,0,0,3.64H87.43c.22,0,.18,0,.35.18a4.33,4.33,0,0,1,.61,1.25l3,9.26A1.82,1.82,0,0,0,94.91,302l0-.08-3-9.26a6.9,6.9,0,0,0-1.31-2.49,4.23,4.23,0,0,0-3.1-1.44ZM17.93,329a4.23,4.23,0,0,0-3.1,1.44,6.86,6.86,0,0,0-1.31,2.5L1.4,370.16a3.69,3.69,0,0,0,1.12,3.78,4.81,4.81,0,0,0,3.29,1.28H67.44a4.81,4.81,0,0,0,3.29-1.28,3.71,3.71,0,0,0,1.12-3.79L59.61,332.89a7.18,7.18,0,0,0-1.31-2.5A4.25,4.25,0,0,0,55.19,329Zm73.28,0a4.24,4.24,0,0,0-3.1,1.44,7.18,7.18,0,0,0-1.31,2.5L74.69,370.16a3.71,3.71,0,0,0,1.11,3.78,4.84,4.84,0,0,0,3.3,1.28h61.62a4.82,4.82,0,0,0,3.3-1.28,3.71,3.71,0,0,0,1.11-3.79l-12.24-37.26a7,7,0,0,0-1.31-2.5,4.23,4.23,0,0,0-3.1-1.44Zm-73.28,3.64H55.19c.23,0,.18,0,.35.18a4.09,4.09,0,0,1,.61,1.25L68.36,371.2s0,0-.08,0a1.62,1.62,0,0,1-.84.34H5.81a1.62,1.62,0,0,1-.84-.34c-.07-.05-.07,0-.08,0L17,334a4.12,4.12,0,0,1,.6-1.25c.17-.19.12-.18.35-.18Zm73.28,0h37.27c.22,0,.18,0,.35.18a4.33,4.33,0,0,1,.61,1.25l12.21,37.18s0,0-.08,0a1.62,1.62,0,0,1-.84.34H79.1a1.68,1.68,0,0,1-.85-.34c-.06-.05-.06,0-.08,0L90.26,334a4.66,4.66,0,0,1,.6-1.25c.17-.19.13-.18.35-.18Zm-56,3.9a1.82,1.82,0,0,0,0,3.64H49.37c.22,0,.17,0,.34.18a4,4,0,0,1,.61,1.25l3,9.25a1.82,1.82,0,1,0,3.48-1.05.19.19,0,0,0,0-.08l-3-9.26a7.06,7.06,0,0,0-1.31-2.49,4.24,4.24,0,0,0-3.1-1.44Zm73.29,0a1.82,1.82,0,1,0-.05,3.64h14.16c.23,0,.18,0,.35.18a4.2,4.2,0,0,1,.61,1.25l3,9.25a1.82,1.82,0,1,0,3.48-1.05l0-.08-3-9.26a6.9,6.9,0,0,0-1.31-2.49,4.23,4.23,0,0,0-3.1-1.44Z" transform="translate(-0.75)"/><ellipse class="e" cx="2004.33" cy="334.55" rx="20.25" ry="14.65"/><ellipse class="e" cx="2061.62" cy="334.55" rx="20.25" ry="14.65"/><path class="e" d="M2024.11,332.21v-46.9a10.38,10.38,0,0,1,10.38-10.38h37.74a10.38,10.38,0,0,1,10.38,10.38v49.34" transform="translate(-0.75)"/><line class="f" x1="1065.25" y1="256.72" x2="1065.25" y2="536.03"/><line class="f" x1="1807.28" y1="256.72" x2="1807.28" y2="536.03"/><path class="g" d="M776.85,317.52l-4.41,21.91c-2.66,13.17-14.71,22.69-28.74,22.69h0c-14,0-26.08-9.52-28.73-22.69l-4.42-21.91" transform="translate(-0.75)"/><path class="g" d="M776.85,318.37l-22-29.55a14.08,14.08,0,0,0-22.36,0l-22,29.55S735.36,330.31,776.85,318.37Z" transform="translate(-0.75)"/><path class="g" d="M715,339.89s21.49,10.34,57.43,0" transform="translate(-0.75)"/><rect class="g" x="712.23" y="362.12" width="60.91" height="15.81" rx="7.91"/><ellipse class="h" cx="742.96" cy="281.25" rx="4.96" ry="7.65"/><ellipse class="g" cx="389.65" cy="290.39" rx="47.02" ry="8.26"/><path class="g" d="M438,289.75l-6.3,32.67a41.76,41.76,0,0,1-41,33.84h0a41.76,41.76,0,0,1-41-33.84l-6.3-32.67" transform="translate(-0.75)"/><rect class="g" x="352.22" y="356.26" width="75.4" height="12.71" rx="4.95"/><ellipse class="h" cx="389.22" cy="283.4" rx="12.28" ry="8.47"/><path class="h" d="M347.19,315.59s35.58,16.1,84.72,0" transform="translate(-0.75)"/></svg>